<svg width="21" height="21" viewBox="0 0 21 21" fill="none" xmlns="http://www.w3.org/2000/svg">
<path fill-rule="evenodd" clip-rule="evenodd" d="M4.80142 20.7349C2.29342 20.8205 0.187987 18.8507 0.0898438 16.3267V11.7382C0.188445 9.21471 2.29376 7.24536 4.80142 7.33096H5.73793C6.07249 7.33096 6.38166 7.51045 6.54897 7.80224C6.71628 8.09403 6.71628 8.45302 6.54897 8.74481C6.38166 9.0366 6.07249 9.21609 5.73793 9.21609H4.80142C3.36402 9.16638 2.15726 10.2958 2.10147 11.7419V16.3309C2.15732 17.7774 3.36391 18.9068 4.80148 18.858H15.9955C17.433 18.9068 18.6396 17.7774 18.6954 16.3309L18.6955 11.734C18.6396 10.293 17.4376 9.16868 16.0058 9.21747H15.058C14.7235 9.21747 14.4143 9.03798 14.247 8.74619C14.0797 8.4544 14.0797 8.09541 14.247 7.80362C14.4143 7.51183 14.7235 7.33234 15.058 7.33234H16.0058C18.5084 7.24674 20.6091 9.21287 20.7061 11.7313V16.3281C20.6085 18.8516 18.5033 20.8219 15.9954 20.7363L4.80142 20.7349ZM10.3969 14.1503C9.84112 14.1501 9.39067 13.6994 9.39067 13.1436V5.824C9.39067 5.19338 8.63713 4.86779 8.17791 5.29999C7.77024 5.65667 7.16389 5.65667 6.75623 5.29999C6.56828 5.13062 6.46094 4.889 6.46094 4.63541C6.46094 4.38182 6.56834 4.13973 6.75623 3.97083L9.68847 1.21585C10.1027 0.874357 10.6987 0.874357 11.1129 1.21585L14.0451 3.97083C14.2319 4.14065 14.3385 4.38228 14.3385 4.63587C14.3385 4.88946 14.2319 5.13108 14.0451 5.30091C13.6408 5.66818 13.0259 5.66818 12.6216 5.30091C12.1598 4.86802 11.4041 5.19542 11.4041 5.82834V13.1436C11.4041 13.6998 10.9531 14.1506 10.3969 14.1503Z" fill="#4FD1C5"/>
</svg>
