<svg width="18" height="18" viewBox="0 0 18 18" fill="none" xmlns="http://www.w3.org/2000/svg">
<path fill-rule="evenodd" clip-rule="evenodd" d="M14.3258 7.19852C14.3258 6.99152 14.1578 6.82352 13.9508 6.82352H4.05381C3.84606 6.82352 3.67881 6.99152 3.67881 7.19852C3.67881 7.94627 3.66531 8.64302 3.65256 9.28877C3.59706 12.1005 3.56031 13.9583 4.69656 15.117C5.50356 15.9398 6.82881 16.3073 8.99406 16.3073C11.1616 16.3073 12.4891 15.939 13.2983 15.1148C14.4398 13.9508 14.4038 12.084 14.3506 9.25652C14.3386 8.61977 14.3258 7.93352 14.3258 7.19852Z" fill="#F15555"/>
<path fill-rule="evenodd" clip-rule="evenodd" d="M15.0578 4.33111H11.9521C11.9213 3.84061 11.7856 3.14911 11.2973 2.58811C10.7813 1.99486 10.0088 1.69336 9.00081 1.69336C7.99356 1.69336 7.22106 1.99486 6.70506 2.58811C6.21681 3.14911 6.08031 3.84061 6.04956 4.33111H2.94531C2.63481 4.33111 2.38281 4.58311 2.38281 4.89361C2.38281 5.20411 2.63481 5.45611 2.94531 5.45611H15.0578C15.3683 5.45611 15.6203 5.20411 15.6203 4.89361C15.6203 4.58311 15.3683 4.33111 15.0578 4.33111Z" fill="#F15555"/>
</svg>
