<svg width="18" height="18" viewBox="0 0 18 18" fill="none" xmlns="http://www.w3.org/2000/svg">
<path fill-rule="evenodd" clip-rule="evenodd" d="M1.3922 15.748H7.7692C8.1832 15.748 8.5192 16.084 8.5192 16.498C8.5192 16.912 8.1832 17.248 7.7692 17.248H1.3922C0.978195 17.248 0.642197 16.912 0.642197 16.498C0.642197 16.084 0.978195 15.748 1.3922 15.748Z" fill="#4FD1C5"/>
<path fill-rule="evenodd" clip-rule="evenodd" d="M11.6341 4.7396C11.5346 4.60734 11.3469 4.58058 11.2144 4.67979L6.03445 8.56019C5.90175 8.6596 5.87485 8.84781 5.9744 8.98041L10.7941 15.4002C11.9541 16.9502 13.7041 17.2602 14.9141 17.2602C15.6641 17.2602 16.2041 17.1402 16.2641 17.1302C16.3941 17.1002 16.5141 17.0102 16.5841 16.8902C16.6541 16.7602 18.3741 13.7002 16.4541 11.1502L11.6341 4.7396Z" fill="#4FD1C5"/>
<path fill-rule="evenodd" clip-rule="evenodd" d="M4.04409 6.41023L4.71411 7.30096C4.81357 7.43319 5.0013 7.45992 5.13372 7.36073L10.3145 3.47969C10.4469 3.38052 10.4741 3.19289 10.3752 3.06027L9.70409 2.16023C9.01409 1.23023 7.94409 0.740234 6.86409 0.740234C6.12409 0.740234 5.38409 0.970234 4.74409 1.45023C3.99409 2.02023 3.50409 2.85023 3.36409 3.78023C3.23409 4.72023 3.47409 5.65023 4.04409 6.41023Z" fill="#4FD1C5"/>
</svg>
