<svg width="22" height="21" viewBox="0 0 22 21" fill="none" xmlns="http://www.w3.org/2000/svg">
<path fill-rule="evenodd" clip-rule="evenodd" d="M7.43256 11.2502H10.2587V14.0742C10.2587 14.4882 10.5944 14.8242 11.0082 14.8242C11.4219 14.8242 11.7577 14.4882 11.7577 14.0742V11.2502H14.5838C14.9975 11.2502 15.3333 10.9142 15.3333 10.5002C15.3333 10.0862 14.9975 9.75018 14.5838 9.75018H11.7577V6.92618C11.7577 6.51218 11.4219 6.17618 11.0082 6.17618C10.5944 6.17618 10.2587 6.51218 10.2587 6.92618V9.75018H7.43256C7.01884 9.75018 6.68307 10.0862 6.68307 10.5002C6.68307 10.9142 7.01884 11.2502 7.43256 11.2502ZM11.0082 0.263184C18.5621 0.263184 21.2383 2.94118 21.2383 10.5002C21.2383 18.0592 18.5621 20.7372 11.0082 20.7372C3.45524 20.7372 0.77804 18.0592 0.77804 10.5002C0.77804 2.94118 3.45524 0.263184 11.0082 0.263184Z" fill="#4FD1C5"/>
</svg>
