<svg width="24" height="25" viewBox="0 0 24 25" fill="none" xmlns="http://www.w3.org/2000/svg">
<path fill-rule="evenodd" clip-rule="evenodd" d="M19.0998 9.93103C19.0998 9.65503 18.8758 9.43103 18.5998 9.43103H5.40378C5.12678 9.43103 4.90378 9.65503 4.90378 9.93103C4.90378 10.928 4.88578 11.857 4.86878 12.718C4.79478 16.467 4.74578 18.944 6.26078 20.489C7.33678 21.586 9.10378 22.076 11.9908 22.076C14.8808 22.076 16.6508 21.585 17.7298 20.486C19.2518 18.934 19.2038 16.445 19.1328 12.675C19.1168 11.826 19.0998 10.911 19.0998 9.93103Z" fill="#E6F6F4"/>
<path fill-rule="evenodd" clip-rule="evenodd" d="M20.0758 6.10782H15.9348C15.8938 5.45382 15.7128 4.53182 15.0618 3.78382C14.3738 2.99282 13.3438 2.59082 11.9998 2.59082C10.6568 2.59082 9.62678 2.99282 8.93878 3.78382C8.28778 4.53182 8.10578 5.45382 8.06478 6.10782H3.92578C3.51178 6.10782 3.17578 6.44382 3.17578 6.85782C3.17578 7.27182 3.51178 7.60782 3.92578 7.60782H20.0758C20.4898 7.60782 20.8258 7.27182 20.8258 6.85782C20.8258 6.44382 20.4898 6.10782 20.0758 6.10782Z" fill="#E6F6F4"/>
</svg>
