<svg width="23" height="19" viewBox="0 0 23 19" fill="none" xmlns="http://www.w3.org/2000/svg">
<path fill-rule="evenodd" clip-rule="evenodd" d="M11.4708 17.3681C8.23184 17.3681 5.46484 16.8781 5.46484 14.9161C5.46484 12.9541 8.21384 11.2461 11.4708 11.2461C14.7098 11.2461 17.4768 12.9381 17.4768 14.8991C17.4768 16.8601 14.7278 17.3681 11.4708 17.3681Z" stroke="#4FD1C5" stroke-width="1.5" stroke-linecap="round" stroke-linejoin="round"/>
<path fill-rule="evenodd" clip-rule="evenodd" d="M11.4711 8.44851C13.5971 8.44851 15.3211 6.72551 15.3211 4.59951C15.3211 2.47351 13.5971 0.749512 11.4711 0.749512C9.34511 0.749512 7.62111 2.47351 7.62111 4.59951C7.61511 6.71751 9.32511 8.44151 11.4441 8.44851H11.4711Z" stroke="#4FD1C5" stroke-width="1.5" stroke-linecap="round" stroke-linejoin="round"/>
<path d="M17.8613 7.39154C19.0983 7.06054 20.0103 5.93254 20.0103 4.58954C20.0103 3.18854 19.0173 2.01854 17.6953 1.74854" stroke="#4FD1C5" stroke-width="1.5" stroke-linecap="round" stroke-linejoin="round"/>
<path d="M18.4453 10.5444C20.1993 10.5444 21.6973 11.7334 21.6973 12.7954C21.6973 13.4204 21.1803 14.1014 20.3963 14.2854" stroke="#4FD1C5" stroke-width="1.5" stroke-linecap="round" stroke-linejoin="round"/>
<path d="M5.08359 7.39154C3.84559 7.06054 2.93359 5.93254 2.93359 4.58954C2.93359 3.18854 3.92759 2.01854 5.24859 1.74854" stroke="#4FD1C5" stroke-width="1.5" stroke-linecap="round" stroke-linejoin="round"/>
<path d="M4.502 10.5444C2.748 10.5444 1.25 11.7334 1.25 12.7954C1.25 13.4204 1.767 14.1014 2.552 14.2854" stroke="#4FD1C5" stroke-width="1.5" stroke-linecap="round" stroke-linejoin="round"/>
</svg>
