<svg width="22" height="22" viewBox="0 0 22 22" fill="none" xmlns="http://www.w3.org/2000/svg">
<path fill-rule="evenodd" clip-rule="evenodd" d="M14.9439 9.05926L10.7337 13.2659C10.6087 13.3909 10.4403 13.4609 10.2639 13.4609C10.0876 13.4609 9.91826 13.3909 9.79328 13.2659L7.69171 11.1626C7.43201 10.9029 7.43201 10.4819 7.69171 10.2222C7.9523 9.96246 8.37333 9.96423 8.63214 10.2222L10.2639 11.8557L14.0035 8.11883C14.2632 7.85912 14.6842 7.86001 14.9439 8.11883C15.2036 8.37853 15.2036 8.79955 14.9439 9.05926ZM11.3178 2.05078C4.93778 2.05078 2.67578 4.31278 2.67578 10.6928C2.67578 17.0729 4.93778 19.3349 11.3178 19.3349C17.6979 19.3349 19.9599 17.0729 19.9599 10.6928C19.9599 4.31278 17.6979 2.05078 11.3178 2.05078Z" fill="#4FD1C5"/>
</svg>
