<svg width="266" height="181" viewBox="0 0 266 181" fill="none" xmlns="http://www.w3.org/2000/svg">
<g filter="url(#filter0_d_843_9177)">
<rect x="20.4805" y="8.92676" width="224.941" height="140.073" rx="16.4792" fill="url(#paint0_linear_843_9177)"/>
</g>
<mask id="mask0_843_9177" style="mask-type:alpha" maskUnits="userSpaceOnUse" x="20" y="8" width="226" height="141">
<rect x="20.4805" y="8.92676" width="224.941" height="140.073" rx="16.4792" fill="url(#paint1_linear_843_9177)"/>
</mask>
<g mask="url(#mask0_843_9177)">
<rect opacity="0.1" x="251.391" y="43.5332" width="66.4443" height="210.407" transform="rotate(59.5964 251.391 43.5332)" fill="white"/>
<rect opacity="0.1" x="274.207" y="64.4541" width="66.4443" height="210.407" transform="rotate(59.5964 274.207 64.4541)" fill="white"/>
</g>
<path d="M41.4819 85.272C41.7818 84.38 42.2048 83.5763 42.7508 82.8611C43.2968 82.1382 43.9005 81.5307 44.5618 81.0385C45.2309 80.5463 45.9076 80.1695 46.5921 79.9081L46.7766 81.0039C46.1999 81.2192 45.6269 81.5461 45.0579 81.9844C44.4965 82.4151 43.9774 82.9457 43.5006 83.5763C43.0238 84.2069 42.6431 84.9106 42.3586 85.6873L41.4819 85.272ZM45.8538 81.3846C45.2616 81.6845 44.7079 81.8345 44.1927 81.8345C43.7697 81.8345 43.3968 81.7422 43.0738 81.5576C42.7585 81.3731 42.5124 81.1308 42.3355 80.8309C42.1586 80.5233 42.0702 80.1926 42.0702 79.8388C42.0702 79.4928 42.1548 79.1506 42.324 78.8122C42.4931 78.4661 42.7431 78.1739 43.0738 77.9355C43.4121 77.6971 43.8082 77.551 44.2619 77.4971C44.3157 77.4895 44.4003 77.4856 44.5157 77.4856C44.831 77.4856 45.1309 77.5433 45.4155 77.6586C45.7 77.7663 45.9269 77.8893 46.096 78.0278L45.7038 78.8122C45.3808 78.6199 45.0194 78.5238 44.6195 78.5238C44.5118 78.5238 44.4273 78.5276 44.3657 78.5353C43.9735 78.5738 43.6544 78.7199 43.4083 78.9737C43.1622 79.2198 43.0392 79.5005 43.0392 79.8158C43.0392 80.0849 43.1468 80.3079 43.3621 80.4848C43.5852 80.6617 43.8735 80.7501 44.2273 80.7501C44.6733 80.7501 45.1424 80.6156 45.6346 80.3464L45.8538 81.3846ZM49.509 78.3392C49.6474 78.7084 49.7782 79.0044 49.9012 79.2275C50.0243 79.4505 50.1819 79.6312 50.3742 79.7696C50.5664 79.9004 50.8087 79.9657 51.1009 79.9657C51.5623 79.9657 51.8892 79.8235 52.0814 79.5389C52.2737 79.2544 52.3698 78.8545 52.3698 78.3392C52.3698 78.2008 52.3544 77.9624 52.3237 77.624L53.1888 77.4625C53.2427 77.7625 53.2696 78.0739 53.2696 78.3969C53.2696 79.189 53.085 79.8311 52.7159 80.3233C52.3467 80.8155 51.8161 81.0616 51.124 81.0616C50.5088 81.0616 50.0281 80.8655 49.6821 80.4733C49.336 80.0811 49.0245 79.5274 48.7477 78.8122L49.509 78.3392ZM49.2552 85.4912C49.2629 85.3835 49.2668 85.2105 49.2668 84.9721C49.2668 84.3338 49.2476 83.684 49.2091 83.0226C49.1783 82.3613 49.1284 81.7806 49.0591 81.2808C48.9745 80.604 48.8592 80.0119 48.7131 79.5043C48.5746 78.9891 48.4016 78.4969 48.194 78.0278L49.1745 77.4625C49.5898 78.3392 49.8858 79.5697 50.0627 81.1539C50.1781 82.1921 50.2358 83.411 50.2358 84.8106C50.2358 85.1182 50.2319 85.3451 50.2242 85.4912H49.2552ZM55.7713 84.9721C55.7713 84.3415 55.752 83.6955 55.7136 83.0342C55.6828 82.3728 55.6367 81.7883 55.5751 81.2808C55.4906 80.604 55.3752 80.0119 55.2291 79.5043C55.0907 78.9891 54.9176 78.4969 54.71 78.0278L55.6905 77.4625C56.1058 78.3392 56.4019 79.5697 56.5787 81.1539C56.6864 82.1229 56.7402 83.3418 56.7402 84.8106V85.4912H55.7713V84.9721ZM62.6908 85.7335C62.4986 85.3028 62.3371 84.6337 62.2063 83.7263C62.0756 82.8188 61.9833 81.8883 61.9295 80.9347C61.9064 80.3426 61.8064 79.7927 61.6296 79.2851C61.4604 78.7699 61.1797 78.5123 60.7875 78.5123C60.6183 78.5123 60.4568 78.5815 60.303 78.7199C60.1492 78.8583 60.0223 79.039 59.9223 79.2621C59.83 79.4851 59.7839 79.7158 59.7839 79.9542C59.7839 80.231 59.88 80.4464 60.0723 80.6002C60.2645 80.754 60.5375 80.8309 60.8913 80.8309C61.2297 80.8309 61.4988 80.7847 61.6988 80.6925C61.8987 80.6002 62.041 80.5194 62.1256 80.4502C62.2179 80.3733 62.2717 80.3272 62.2871 80.3118L62.6678 81.3615C62.4678 81.5153 62.2102 81.6461 61.8949 81.7537C61.5796 81.8614 61.2335 81.9152 60.8567 81.9152C60.2568 81.9152 59.7762 81.7499 59.4148 81.4192C59.0533 81.0808 58.8726 80.6079 58.8726 80.0003C58.8726 79.6158 58.9572 79.2275 59.1264 78.8353C59.2956 78.443 59.5263 78.1201 59.8185 77.8663C60.1184 77.6125 60.4529 77.4856 60.8221 77.4856C61.3527 77.4856 61.7603 77.6817 62.0448 78.0739C62.3371 78.4661 62.5293 78.8814 62.6216 79.3197C62.7139 79.7504 62.7908 80.2657 62.8523 80.8655C62.9292 81.673 63.0407 82.4881 63.1868 83.311C63.3407 84.1262 63.5022 84.7414 63.6713 85.1567L62.6908 85.7335Z" fill="white"/>
<path d="M90.8617 84.949C91.1462 84.503 91.4846 83.8455 91.8768 82.9765C92.269 82.0998 92.6228 81.1693 92.9381 80.1849C93.2611 79.2005 93.4687 78.3239 93.561 77.5548H94.53C94.5992 78.3162 94.7914 79.189 95.1067 80.1734C95.4297 81.15 95.7912 82.0767 96.1911 82.9534C96.591 83.8301 96.937 84.4953 97.2293 84.949L96.318 85.6181C96.0257 85.1336 95.6912 84.4376 95.3144 83.5302C94.9375 82.6227 94.5876 81.6461 94.2646 80.6002C93.9493 79.5543 93.7225 78.5853 93.5841 77.6932H94.5069C94.3531 78.593 94.1147 79.5697 93.7917 80.6233C93.4687 81.6768 93.1226 82.6573 92.7535 83.5648C92.3844 84.4646 92.0575 85.149 91.773 85.6181L90.8617 84.949ZM98.3122 85.272C98.6121 84.38 99.035 83.5763 99.5811 82.8611C100.127 82.1382 100.731 81.5307 101.392 81.0385C102.061 80.5463 102.738 80.1695 103.422 79.9081L103.607 81.0039C103.03 81.2192 102.457 81.5461 101.888 81.9844C101.327 82.4151 100.808 82.9457 100.331 83.5763C99.8541 84.2069 99.4734 84.9106 99.1889 85.6873L98.3122 85.272ZM102.684 81.3846C102.092 81.6845 101.538 81.8345 101.023 81.8345C100.6 81.8345 100.227 81.7422 99.9041 81.5576C99.5888 81.3731 99.3427 81.1308 99.1658 80.8309C98.9889 80.5233 98.9005 80.1926 98.9005 79.8388C98.9005 79.4928 98.9851 79.1506 99.1542 78.8122C99.3234 78.4661 99.5734 78.1739 99.9041 77.9355C100.242 77.6971 100.638 77.551 101.092 77.4971C101.146 77.4895 101.231 77.4856 101.346 77.4856C101.661 77.4856 101.961 77.5433 102.246 77.6586C102.53 77.7663 102.757 77.8893 102.926 78.0278L102.534 78.8122C102.211 78.6199 101.85 78.5238 101.45 78.5238C101.342 78.5238 101.258 78.5276 101.196 78.5353C100.804 78.5738 100.485 78.7199 100.239 78.9737C99.9925 79.2198 99.8694 79.5005 99.8694 79.8158C99.8694 80.0849 99.9771 80.3079 100.192 80.4848C100.415 80.6617 100.704 80.7501 101.058 80.7501C101.504 80.7501 101.973 80.6156 102.465 80.3464L102.684 81.3846ZM106.166 84.9721C106.166 84.3415 106.147 83.6955 106.109 83.0342C106.078 82.3728 106.032 81.7883 105.97 81.2808C105.886 80.604 105.77 80.0119 105.624 79.5043C105.486 78.9891 105.313 78.4969 105.105 78.0278L106.086 77.4625C106.501 78.3392 106.797 79.5697 106.974 81.1539C107.081 82.1229 107.135 83.3418 107.135 84.8106V85.4912H106.166V84.9721ZM113.086 85.7335C112.894 85.3028 112.732 84.6337 112.601 83.7263C112.471 82.8188 112.378 81.8883 112.325 80.9347C112.301 80.3426 112.201 79.7927 112.025 79.2851C111.855 78.7699 111.575 78.5123 111.183 78.5123C111.013 78.5123 110.852 78.5815 110.698 78.7199C110.544 78.8583 110.417 79.039 110.317 79.2621C110.225 79.4851 110.179 79.7158 110.179 79.9542C110.179 80.231 110.275 80.4464 110.467 80.6002C110.66 80.754 110.933 80.8309 111.286 80.8309C111.625 80.8309 111.894 80.7847 112.094 80.6925C112.294 80.6002 112.436 80.5194 112.521 80.4502C112.613 80.3733 112.667 80.3272 112.682 80.3118L113.063 81.3615C112.863 81.5153 112.605 81.6461 112.29 81.7537C111.975 81.8614 111.629 81.9152 111.252 81.9152C110.652 81.9152 110.171 81.7499 109.81 81.4192C109.448 81.0808 109.268 80.6079 109.268 80.0003C109.268 79.6158 109.352 79.2275 109.521 78.8353C109.691 78.443 109.921 78.1201 110.214 77.8663C110.513 77.6125 110.848 77.4856 111.217 77.4856C111.748 77.4856 112.155 77.6817 112.44 78.0739C112.732 78.4661 112.924 78.8814 113.017 79.3197C113.109 79.7504 113.186 80.2657 113.247 80.8655C113.324 81.673 113.436 82.4881 113.582 83.311C113.736 84.1262 113.897 84.7414 114.066 85.1567L113.086 85.7335Z" fill="white"/>
<path d="M141.776 84.9721C141.776 84.3415 141.757 83.6955 141.718 83.0342C141.687 82.3728 141.641 81.7883 141.58 81.2808C141.495 80.604 141.38 80.0119 141.234 79.5043C141.095 78.9891 140.922 78.4969 140.714 78.0278L141.695 77.4625C142.11 78.3392 142.406 79.5697 142.583 81.1539C142.691 82.1229 142.745 83.3418 142.745 84.8106V85.4912H141.776V84.9721ZM146.296 84.9721C146.296 84.3415 146.277 83.6955 146.238 83.0342C146.207 82.3728 146.161 81.7883 146.1 81.2808C146.015 80.604 145.9 80.0119 145.754 79.5043C145.615 78.9891 145.442 78.4969 145.235 78.0278L146.215 77.4625C146.63 78.3392 146.927 79.5697 147.103 81.1539C147.211 82.1229 147.265 83.3418 147.265 84.8106V85.4912H146.296V84.9721ZM150.816 84.9721C150.816 84.3415 150.797 83.6955 150.758 83.0342C150.728 82.3728 150.682 81.7883 150.62 81.2808C150.535 80.604 150.42 80.0119 150.274 79.5043C150.136 78.9891 149.962 78.4969 149.755 78.0278L150.735 77.4625C151.151 78.3392 151.447 79.5697 151.624 81.1539C151.731 82.1229 151.785 83.3418 151.785 84.8106V85.4912H150.816V84.9721ZM155.336 84.9721C155.336 84.3415 155.317 83.6955 155.279 83.0342C155.248 82.3728 155.202 81.7883 155.14 81.2808C155.056 80.604 154.94 80.0119 154.794 79.5043C154.656 78.9891 154.483 78.4969 154.275 78.0278L155.256 77.4625C155.671 78.3392 155.967 79.5697 156.144 81.1539C156.251 82.1229 156.305 83.3418 156.305 84.8106V85.4912H155.336V84.9721Z" fill="white"/>
<path d="M192.177 78.8583C191.516 79.5966 190.981 80.3502 190.574 81.1193C190.174 81.8806 189.974 82.5689 189.974 83.1841C189.974 83.5917 190.058 83.9109 190.228 84.1416C190.404 84.3646 190.635 84.4761 190.92 84.4761C191.166 84.4684 191.362 84.3415 191.508 84.0954C191.654 83.8416 191.723 83.4956 191.716 83.0572L192.581 82.9188C192.612 83.411 192.692 83.7955 192.823 84.0724C192.961 84.3415 193.15 84.4761 193.388 84.4761C193.95 84.4761 194.23 84.0531 194.23 83.2072C194.23 82.3613 193.911 81.5576 193.273 80.7963C192.642 80.0349 191.789 79.2505 190.712 78.443L191.3 77.4856C192.454 78.4084 193.384 79.3351 194.092 80.2657C194.799 81.1962 195.153 82.2113 195.153 83.311C195.153 84.0262 194.992 84.5799 194.669 84.9721C194.346 85.3643 193.93 85.5604 193.423 85.5604C192.961 85.5604 192.565 85.3643 192.235 84.9721C191.904 84.5799 191.731 83.9416 191.716 83.0572L192.581 82.9188C192.573 83.8801 192.415 84.5607 192.108 84.9606C191.808 85.3528 191.396 85.5489 190.873 85.5489C190.312 85.5489 189.862 85.3413 189.524 84.926C189.193 84.503 189.028 83.9532 189.028 83.2764C189.028 83.1995 189.036 83.0688 189.051 82.8842C189.112 82.1382 189.389 81.3269 189.881 80.4502C190.381 79.5658 190.966 78.7545 191.635 78.0162L192.177 78.8583ZM202.662 78.097C202.377 78.543 202.039 79.2044 201.646 80.0811C201.254 80.9501 200.897 81.8768 200.574 82.8611C200.258 83.8455 200.055 84.7222 199.962 85.4912H198.993C198.924 84.7299 198.728 83.8609 198.405 82.8842C198.09 81.8998 197.732 80.9693 197.332 80.0926C196.932 79.2159 196.586 78.5507 196.294 78.097L197.205 77.4279C197.498 77.9124 197.832 78.6084 198.209 79.5158C198.586 80.4233 198.932 81.4 199.247 82.4459C199.57 83.4917 199.801 84.4607 199.939 85.3528H199.016C199.17 84.453 199.409 83.4764 199.732 82.4228C200.055 81.3692 200.401 80.3925 200.77 79.4928C201.139 78.5853 201.466 77.897 201.75 77.4279L202.662 78.097ZM210.054 78.097C209.77 78.543 209.431 79.2044 209.039 80.0811C208.647 80.9501 208.289 81.8768 207.966 82.8611C207.651 83.8455 207.447 84.7222 207.355 85.4912H206.386C206.317 84.7299 206.121 83.8609 205.798 82.8842C205.482 81.8998 205.125 80.9693 204.725 80.0926C204.325 79.2159 203.979 78.5507 203.687 78.097L204.598 77.4279C204.89 77.9124 205.225 78.6084 205.602 79.5158C205.979 80.4233 206.325 81.4 206.64 82.4459C206.963 83.4917 207.194 84.4607 207.332 85.3528H206.409C206.563 84.453 206.801 83.4764 207.124 82.4228C207.447 81.3692 207.793 80.3925 208.163 79.4928C208.532 78.5853 208.859 77.897 209.143 77.4279L210.054 78.097ZM212.556 84.9721C212.556 84.3415 212.537 83.6955 212.498 83.0342C212.468 82.3728 212.422 81.7883 212.36 81.2808C212.275 80.604 212.16 80.0119 212.014 79.5043C211.876 78.9891 211.703 78.4969 211.495 78.0278L212.475 77.4625C212.891 78.3392 213.187 79.5697 213.364 81.1539C213.471 82.1229 213.525 83.3418 213.525 84.8106V85.4912H212.556V84.9721Z" fill="white"/>
<path d="M197.16 30.2002C197.173 29.9102 197.269 29.6762 197.447 29.4982C197.631 29.3136 197.849 29.2213 198.099 29.2213C198.211 29.2213 198.32 29.2411 198.425 29.2807C198.689 28.7336 198.969 28.2919 199.266 27.9557C199.563 27.6196 199.886 27.4416 200.235 27.4218C200.571 27.402 200.864 27.491 201.115 27.6888C201.372 27.8799 201.566 28.137 201.698 28.46C201.837 28.783 201.906 29.1192 201.906 29.4685C201.906 29.8113 201.837 30.1277 201.698 30.4177C201.56 30.7012 201.355 30.9154 201.085 31.0604C200.953 31.1263 200.815 31.1593 200.67 31.1593C200.426 31.1593 200.116 31.0802 199.741 30.922C199.365 30.7638 198.877 30.51 198.277 30.1607C198.224 30.1343 198.182 30.1211 198.149 30.1211C198.03 30.1211 197.967 30.1969 197.961 30.3485L197.951 30.7242C197.951 31.3571 198.01 32.3854 198.129 33.8092L198.188 34.5408L197.407 34.6793L197.377 34.353C197.305 33.5883 197.249 32.9292 197.209 32.3755C197.17 31.8218 197.15 31.2845 197.15 30.7638C197.15 30.5001 197.153 30.3123 197.16 30.2002ZM199.058 29.6168C199.414 29.8476 199.731 30.0222 200.007 30.1409C200.284 30.2595 200.502 30.3189 200.66 30.3189C200.733 30.3189 200.792 30.3057 200.838 30.2793C200.957 30.22 201.046 30.1211 201.105 29.9827C201.164 29.8443 201.194 29.6828 201.194 29.4982C201.194 29.1818 201.112 28.8918 200.947 28.6281C200.789 28.3644 200.581 28.2326 200.324 28.2326C199.968 28.2326 199.546 28.694 199.058 29.6168ZM204.11 24.2281C204.162 24.5643 204.202 25.1543 204.228 25.998C204.261 26.8352 204.278 27.5965 204.278 28.282V28.6973L204.268 29.0434C204.268 29.3532 204.294 29.5905 204.347 29.7553C204.4 29.9135 204.499 30.0321 204.644 30.1112C204.795 30.1837 205.019 30.22 205.316 30.22H205.365L205.415 30.6649L205.365 31.1099H205.316C204.848 31.1099 204.482 31.0341 204.218 30.8825C203.955 30.7242 203.767 30.4902 203.655 30.1804C203.549 29.8706 203.497 29.4619 203.497 28.9544C203.497 28.2029 203.48 27.3526 203.447 26.4034C203.421 25.4476 203.378 24.7785 203.319 24.3962L204.11 24.2281ZM205.601 30.22H206.115C206.642 30.22 207.021 30.1508 207.252 30.0123C207.489 29.8739 207.608 29.6597 207.608 29.3697C207.608 29.1653 207.542 28.8522 207.41 28.4303C207.278 28.0085 207.169 27.702 207.084 27.5108L207.796 27.1351C207.921 27.4119 208.049 27.7778 208.181 28.2326C208.313 28.6808 208.379 29.0631 208.379 29.3795C208.372 29.9464 208.175 30.3782 207.786 30.6748C207.397 30.9648 206.84 31.1099 206.115 31.1099H205.601V30.22ZM206.451 25.8101L206.688 25.5728C206.998 25.263 207.153 25.1081 207.153 25.1081C207.153 25.1081 207.308 25.263 207.618 25.5728L207.855 25.8101L207.153 26.5122L206.451 25.8101Z" fill="white"/>
<path d="M169.875 38.8868C169.927 39.223 169.967 39.813 169.993 40.6567C170.026 41.4938 170.043 42.2552 170.043 42.9407V43.356L170.033 43.7021C170.033 44.0119 170.059 44.2492 170.112 44.414C170.165 44.5722 170.263 44.6908 170.408 44.7699C170.56 44.8424 170.784 44.8787 171.081 44.8787H171.13L171.18 45.3236L171.13 45.7686H171.081C170.613 45.7686 170.247 45.6928 169.983 45.5411C169.72 45.3829 169.532 45.1489 169.42 44.8391C169.314 44.5293 169.262 44.1206 169.262 43.6131C169.262 42.8616 169.245 42.0113 169.212 41.0621C169.186 40.1063 169.143 39.4372 169.084 39.0549L169.875 38.8868ZM171.366 44.8787H171.455C171.962 44.8787 172.358 44.8589 172.641 44.8194C172.924 44.7732 173.132 44.704 173.264 44.6117C173.396 44.5194 173.491 44.3942 173.551 44.236C173.59 44.1173 173.61 43.9756 173.61 43.8108C173.61 43.5999 173.57 43.2373 173.491 42.7232L174.223 42.5848C174.302 43 174.345 43.5274 174.352 44.1668C174.444 44.6414 174.744 44.8787 175.251 44.8787H175.321L175.37 45.3236L175.321 45.7686H175.251C174.922 45.7686 174.632 45.673 174.381 45.4818C174.137 45.2841 173.966 45.0336 173.867 44.7304L174.065 44.7699C173.979 45.0204 173.837 45.2181 173.64 45.3632C173.442 45.5082 173.168 45.6137 172.819 45.6796C172.476 45.7389 172.021 45.7686 171.455 45.7686H171.366V44.8787ZM171.099 47.1429L171.543 46.698L172.206 47.3604L171.543 48.0328L170.881 47.3604L171.099 47.1429ZM172.859 47.1429L173.303 46.698L173.966 47.3604L173.303 48.0328L172.641 47.3604L172.859 47.1429ZM175.548 44.8787H176.062C176.589 44.8787 176.968 44.8095 177.199 44.671C177.436 44.5326 177.555 44.3184 177.555 44.0283C177.555 43.824 177.489 43.5109 177.357 43.089C177.225 42.6672 177.117 42.3607 177.031 42.1695L177.743 41.7938C177.868 42.0706 177.997 42.4365 178.128 42.8913C178.26 43.3395 178.326 43.7218 178.326 44.0382C178.32 44.6051 178.122 45.0369 177.733 45.3335C177.344 45.6235 176.787 45.7686 176.062 45.7686H175.548V44.8787ZM176.398 40.4688L176.635 40.2315C176.945 39.9217 177.1 39.7668 177.1 39.7668C177.1 39.7668 177.255 39.9217 177.565 40.2315L177.802 40.4688L177.1 41.1709L176.398 40.4688ZM186.164 48.5272C185.597 48.5272 185.092 48.4151 184.651 48.191C184.216 47.9735 183.873 47.6604 183.623 47.2517C183.372 46.843 183.247 46.3651 183.247 45.818C183.247 45.4159 183.313 44.9907 183.445 44.5425C183.576 44.0943 183.728 43.6988 183.899 43.356L184.572 43.6724C184.203 44.4502 184.018 45.1292 184.018 45.7092C184.018 46.3354 184.203 46.8133 184.572 47.1429C184.941 47.4725 185.471 47.6373 186.164 47.6373C186.566 47.6373 186.945 47.5846 187.301 47.4791C187.663 47.3736 187.96 47.2418 188.191 47.0836C188.421 46.932 188.553 46.7969 188.586 46.6782C188.553 46.6057 188.438 46.4903 188.24 46.3321C188.049 46.1805 187.808 46.019 187.518 45.8477C187.228 45.6763 186.928 45.528 186.618 45.4027L186.806 44.5623C187.828 44.7732 188.678 44.8787 189.357 44.8787H189.595L189.644 45.3236L189.595 45.7686H189.357C188.916 45.7686 188.49 45.7389 188.082 45.6796C187.673 45.6137 187.189 45.5214 186.628 45.4027L186.826 44.8292L187.024 44.9182C187.683 45.2083 188.233 45.495 188.675 45.7784C189.123 46.0685 189.347 46.375 189.347 46.698C189.347 47.0012 189.199 47.2912 188.902 47.5681C188.612 47.8515 188.22 48.0822 187.726 48.2602C187.238 48.4382 186.717 48.5272 186.164 48.5272ZM192.771 44.8787L192.821 45.3236L192.771 45.7686H192.662C192.372 45.7686 192.105 45.6862 191.862 45.5214C191.618 45.35 191.427 45.116 191.288 44.8194C191.15 44.5161 191.084 44.1767 191.09 43.8009C191.097 43.6493 191.071 42.9045 191.011 41.5664C190.959 40.2282 190.916 39.3911 190.883 39.0549L191.674 38.8868C191.726 39.3021 191.779 40.6633 191.832 42.9704C191.852 43.3857 191.862 43.6658 191.862 43.8108C191.901 44.5227 192.168 44.8787 192.662 44.8787H192.771ZM189.746 44.8787H190.022C190.405 44.8787 190.678 44.793 190.843 44.6216C191.015 44.4502 191.097 44.1767 191.09 43.8009L191.684 43.8701C191.684 44.4502 191.542 44.9116 191.258 45.2544C190.975 45.5972 190.566 45.7686 190.032 45.7686H189.746V44.8787ZM193.001 44.8787H193.12C194.26 44.8787 195.179 44.8391 195.878 44.76C196.584 44.6743 197.197 44.5326 197.717 44.3349L197.905 45.1259C197.365 45.35 196.729 45.5148 195.997 45.6202C195.265 45.7191 194.306 45.7686 193.12 45.7686H193.001V44.8787ZM196.333 45.5115C195.918 45.5378 195.519 45.4686 195.137 45.3038C194.754 45.139 194.445 44.9017 194.207 44.5919C193.977 44.2821 193.861 43.9295 193.861 43.534C193.861 43.211 193.94 42.9078 194.098 42.6243C194.263 42.3343 194.484 42.097 194.761 41.9124C195.038 41.7279 195.344 41.6158 195.68 41.5762C195.727 41.5696 195.793 41.5664 195.878 41.5664C196.168 41.5664 196.452 41.629 196.729 41.7542C197.012 41.8729 197.266 42.0344 197.49 42.2387L197.173 42.8517C196.745 42.5881 196.333 42.4562 195.938 42.4562C195.674 42.4562 195.44 42.5057 195.236 42.6045C195.038 42.7034 194.883 42.8385 194.771 43.0099C194.659 43.1747 194.603 43.3527 194.603 43.5439C194.603 43.7548 194.675 43.9558 194.82 44.147C194.972 44.3316 195.176 44.4766 195.433 44.5821C195.69 44.6809 195.974 44.7238 196.284 44.7106L196.333 45.5115ZM205.793 40.9731C205.912 42.2914 206.001 43.1813 206.06 43.6427C206.093 43.9789 206.139 44.2327 206.198 44.4041C206.264 44.5755 206.36 44.6974 206.485 44.7699C206.61 44.8424 206.792 44.8787 207.029 44.8787H207.167L207.217 45.3236L207.167 45.7686H207.029C206.502 45.7686 206.1 45.6137 205.823 45.3038C205.546 44.9874 205.368 44.4733 205.289 43.7614L205.121 42.2387L204.992 41.1313L205.793 40.9731ZM205.744 45.0764C205.355 45.2083 204.966 45.2742 204.577 45.2742C204.036 45.2742 203.591 45.1489 203.242 44.8985C202.899 44.648 202.728 44.3085 202.728 43.88C202.728 42.944 203.568 42.2025 205.249 41.6553L205.417 42.4859C204.897 42.6243 204.448 42.8122 204.073 43.0495C203.697 43.2802 203.499 43.5043 203.479 43.7218C203.46 43.913 203.542 44.0712 203.727 44.1964C203.918 44.3217 204.175 44.3843 204.498 44.3843C204.827 44.3843 205.177 44.3184 205.546 44.1865L205.744 45.0764ZM207.392 44.8787H208.005C208.823 44.8787 209.442 44.7699 209.864 44.5524C210.292 44.3283 210.523 44.0152 210.556 43.6131C210.576 43.3955 210.503 43.1615 210.339 42.9111C210.174 42.6606 209.96 42.4496 209.696 42.2783C209.505 42.5683 209.33 42.9902 209.172 43.5439C209.014 44.091 208.935 44.6315 208.935 45.1654C208.935 45.5939 209.01 45.9696 209.162 46.2926C209.314 46.6222 209.505 46.8727 209.736 47.044C209.966 47.222 210.194 47.311 210.418 47.311C210.596 47.311 210.747 47.2583 210.873 47.1528C210.952 47.0869 210.991 46.9847 210.991 46.8463C210.991 46.609 210.886 46.3387 210.675 46.0355C210.47 45.7323 210.197 45.4818 209.854 45.2841L210.012 44.5326C210.349 44.6579 210.714 44.7468 211.11 44.7996C211.512 44.8523 211.973 44.8787 212.494 44.8787L212.544 45.3236L212.494 45.7686C211.987 45.7686 211.522 45.729 211.1 45.6499C210.685 45.5708 210.269 45.4489 209.854 45.2841L210.052 44.7304C210.368 44.8556 210.652 45.0336 210.902 45.2643C211.159 45.495 211.357 45.7521 211.495 46.0355C211.64 46.319 211.713 46.5958 211.713 46.8661C211.713 47.2286 211.581 47.5318 211.318 47.7757C211.054 48.0064 210.741 48.1218 210.378 48.1218C210.016 48.1218 209.663 48.0064 209.32 47.7757C208.984 47.545 208.71 47.2022 208.5 46.7474C208.295 46.2926 208.203 45.7422 208.223 45.0962C208.256 44.3513 208.371 43.6922 208.569 43.1187C208.767 42.5386 208.971 42.0838 209.182 41.7542L209.894 41.4675C210.302 41.7048 210.632 42.0212 210.882 42.4167C211.133 42.8056 211.258 43.2044 211.258 43.6131C211.258 44.2986 210.948 44.8292 210.329 45.205C209.716 45.5807 208.885 45.7686 207.837 45.7686H207.392V44.8787ZM212.704 44.8787H213.03C213.413 44.8787 213.686 44.793 213.851 44.6216C214.016 44.4502 214.098 44.1865 214.098 43.8306C214.098 43.4615 214.065 42.654 213.999 41.4082C213.94 40.1557 213.887 39.3713 213.841 39.0549L214.632 38.8868C214.672 39.2032 214.721 40.0008 214.78 41.2796C214.846 42.5584 214.879 43.389 214.879 43.7713C214.879 44.3777 214.714 44.8622 214.385 45.2247C214.055 45.5873 213.607 45.7686 213.04 45.7686H212.704V44.8787ZM216.404 45.7092C216.45 45.3137 216.473 44.6447 216.473 43.7021C216.473 42.8056 216.453 41.8795 216.414 40.9237C216.381 39.9613 216.341 39.3384 216.295 39.0549L217.086 38.8868C217.126 39.1901 217.165 39.8525 217.205 40.8742C217.251 41.8893 217.274 42.855 217.274 43.7713C217.274 44.6941 217.251 45.3731 217.205 45.8081L216.404 45.7092Z" fill="white"/>
<defs>
<filter id="filter0_d_843_9177" x="0.705408" y="0.687149" width="264.492" height="179.623" filterUnits="userSpaceOnUse" color-interpolation-filters="sRGB">
<feFlood flood-opacity="0" result="BackgroundImageFix"/>
<feColorMatrix in="SourceAlpha" type="matrix" values="0 0 0 0 0 0 0 0 0 0 0 0 0 0 0 0 0 0 127 0" result="hardAlpha"/>
<feOffset dy="11.5355"/>
<feGaussianBlur stdDeviation="9.88753"/>
<feColorMatrix type="matrix" values="0 0 0 0 0.0627451 0 0 0 0 0.576471 0 0 0 0 1 0 0 0 0.2 0"/>
<feBlend mode="normal" in2="BackgroundImageFix" result="effect1_dropShadow_843_9177"/>
<feBlend mode="normal" in="SourceGraphic" in2="effect1_dropShadow_843_9177" result="shape"/>
</filter>
<linearGradient id="paint0_linear_843_9177" x1="132.951" y1="8.92676" x2="132.951" y2="149" gradientUnits="userSpaceOnUse">
<stop stop-color="#313860"/>
<stop offset="1" stop-color="#151928"/>
</linearGradient>
<linearGradient id="paint1_linear_843_9177" x1="132.951" y1="8.92676" x2="132.951" y2="149" gradientUnits="userSpaceOnUse">
<stop stop-color="#313860"/>
<stop offset="1" stop-color="#151928"/>
</linearGradient>
</defs>
</svg>
