<svg width="21" height="21" viewBox="0 0 21 21" fill="none" xmlns="http://www.w3.org/2000/svg">
<path fill-rule="evenodd" clip-rule="evenodd" d="M14.591 8.657L9.841 13.403C9.7 13.544 9.51 13.623 9.311 13.623C9.112 13.623 8.921 13.544 8.78 13.403L6.409 11.03C6.116 10.737 6.116 10.262 6.409 9.969C6.703 9.676 7.178 9.678 7.47 9.969L9.311 11.812L13.53 7.596C13.823 7.303 14.298 7.304 14.591 7.596C14.884 7.889 14.884 8.364 14.591 8.657ZM10.5 0.75C3.302 0.75 0.75 3.302 0.75 10.5C0.75 17.698 3.302 20.25 10.5 20.25C17.698 20.25 20.25 17.698 20.25 10.5C20.25 3.302 17.698 0.75 10.5 0.75Z" fill="#383838" fill-opacity="0.7"/>
</svg>
