<svg width="25" height="25" viewBox="0 0 25 25" fill="none" xmlns="http://www.w3.org/2000/svg">
<path fill-rule="evenodd" clip-rule="evenodd" d="M16.3527 10.6424L11.6027 15.3883C11.4617 15.5294 11.2717 15.6083 11.0727 15.6083C10.8737 15.6083 10.6827 15.5294 10.5417 15.3883L8.17072 13.0154C7.87772 12.7224 7.87772 12.2474 8.17072 11.9544C8.46472 11.6614 8.93972 11.6634 9.23172 11.9544L11.0727 13.7974L15.2917 9.58135C15.5847 9.28835 16.0597 9.28935 16.3527 9.58135C16.6457 9.87435 16.6457 10.3494 16.3527 10.6424ZM12.2617 2.73535C5.06372 2.73535 2.51172 5.28735 2.51172 12.4854C2.51172 19.6833 5.06372 22.2353 12.2617 22.2353C19.4597 22.2353 22.0117 19.6833 22.0117 12.4854C22.0117 5.28735 19.4597 2.73535 12.2617 2.73535Z" fill="#4FD1C5"/>
</svg>
