<svg width="176" height="43" viewBox="0 0 176 43" fill="none" xmlns="http://www.w3.org/2000/svg">
<path d="M57.2443 15.496L58.8883 19.384C59.0163 19.704 59.1643 19.924 59.3323 20.044C59.5003 20.156 59.7403 20.212 60.0523 20.212H60.1963L60.2923 21.112L60.1963 22H60.0523C59.5083 22 59.0523 21.848 58.6843 21.544C58.3243 21.24 58.0043 20.76 57.7243 20.104L56.0083 16.168L57.2443 15.496ZM54.0883 19.84C54.3443 19.976 54.6243 20.1 54.9283 20.212C55.2323 20.316 55.5923 20.368 56.0083 20.368C56.5283 20.368 56.9483 20.292 57.2683 20.14C57.5883 19.98 57.8363 19.812 58.0123 19.636L58.8163 20.68C58.6323 20.912 58.4523 21.116 58.2763 21.292C58.1083 21.46 57.8443 21.632 57.4843 21.808C57.1243 21.976 56.6923 22.06 56.1883 22.06C55.2123 22.06 54.2963 21.74 53.4403 21.1L54.0883 19.84ZM60.0767 20.212H60.6527C61.4447 20.212 62.0047 20.144 62.3327 20.008C62.6607 19.872 62.8247 19.664 62.8247 19.384C62.8167 19.208 62.7247 18.872 62.5487 18.376C62.3727 17.872 62.2447 17.536 62.1647 17.368L63.4367 16.672C63.5967 17.008 63.7567 17.456 63.9167 18.016C64.0767 18.568 64.1567 19.052 64.1567 19.468C64.1487 20.284 63.8727 20.912 63.3287 21.352C62.7847 21.784 61.9807 22 60.9167 22H60.0767V20.212ZM60.2087 23.02L61.2047 24.028C60.9887 24.252 60.7687 24.472 60.5447 24.688L60.2087 25.024L59.7167 24.52L59.2127 24.028L60.2087 23.02ZM62.3087 23.02L63.3047 24.028C63.0887 24.252 62.8687 24.472 62.6447 24.688L62.3087 25.024L61.8167 24.52L61.3127 24.028L62.3087 23.02ZM68.7404 15.496L70.3844 19.384C70.5124 19.704 70.6604 19.924 70.8284 20.044C70.9964 20.156 71.2364 20.212 71.5484 20.212H71.6924L71.7884 21.112L71.6924 22H71.5484C71.0044 22 70.5484 21.848 70.1804 21.544C69.8204 21.24 69.5004 20.76 69.2204 20.104L67.5044 16.168L68.7404 15.496ZM65.5844 19.84C65.8404 19.976 66.1204 20.1 66.4244 20.212C66.7284 20.316 67.0884 20.368 67.5044 20.368C68.0244 20.368 68.4444 20.292 68.7644 20.14C69.0844 19.98 69.3324 19.812 69.5084 19.636L70.3124 20.68C70.1284 20.912 69.9484 21.116 69.7724 21.292C69.6044 21.46 69.3404 21.632 68.9804 21.808C68.6204 21.976 68.1884 22.06 67.6844 22.06C66.7084 22.06 65.7924 21.74 64.9364 21.1L65.5844 19.84ZM71.5608 20.212H72.4608C73.4048 20.212 74.2888 20.108 75.1128 19.9C75.9448 19.692 76.8288 19.34 77.7648 18.844C78.4288 18.5 78.9128 18.28 79.2168 18.184L79.2648 19.444C78.8408 19.396 78.4328 19.308 78.0408 19.18C77.6488 19.052 77.1888 18.852 76.6608 18.58C75.9568 18.22 75.3448 18.04 74.8248 18.04C74.5208 18.04 74.2488 18.124 74.0088 18.292C73.7768 18.452 73.5968 18.636 73.4688 18.844L72.4608 18.112C73.0688 16.92 73.8728 16.324 74.8728 16.324C75.2088 16.324 75.5328 16.38 75.8448 16.492C76.1568 16.604 76.6128 16.812 77.2128 17.116C77.6768 17.356 78.0688 17.54 78.3888 17.668C78.7168 17.796 79.0768 17.9 79.4688 17.98L79.5288 19.588C79.3128 19.652 78.8888 19.856 78.2568 20.2C78.2088 20.232 78.1648 20.26 78.1248 20.284C78.0848 20.3 78.0488 20.316 78.0168 20.332C77.2248 20.748 76.5368 21.072 75.9528 21.304C75.3688 21.536 74.7728 21.712 74.1648 21.832C73.5568 21.944 72.8688 22 72.1008 22H71.5608V20.212ZM74.5128 24.004L75.6288 22.9L76.7328 24.004L76.3608 24.376C76.1208 24.624 75.8768 24.868 75.6288 25.108L74.5128 24.004ZM82.9741 23.956C84.3421 23.66 85.3341 23.304 85.9501 22.888C86.5661 22.472 86.8741 21.936 86.8741 21.28C86.8741 20.808 86.8061 20.348 86.6701 19.9C86.5421 19.444 86.3621 19.072 86.1301 18.784C85.9061 18.496 85.6541 18.352 85.3741 18.352C85.2141 18.352 85.0621 18.412 84.9181 18.532C84.7821 18.644 84.6741 18.788 84.5941 18.964C84.5141 19.14 84.4741 19.308 84.4741 19.468C84.4741 19.604 84.5021 19.712 84.5581 19.792C84.6861 19.968 84.9781 20.084 85.4341 20.14C85.8981 20.188 86.5341 20.212 87.3421 20.212H88.5301L88.6261 21.112L88.5301 22L87.0061 22.012C86.0381 22.012 85.2621 21.932 84.6781 21.772C84.0941 21.612 83.6861 21.288 83.4541 20.8C83.3101 20.488 83.2381 20.144 83.2381 19.768C83.2381 19.296 83.3381 18.828 83.5381 18.364C83.7381 17.892 84.0141 17.508 84.3661 17.212C84.7181 16.908 85.1021 16.756 85.5181 16.756C85.9981 16.756 86.4341 16.964 86.8261 17.38C87.2181 17.796 87.5261 18.34 87.7501 19.012C87.9741 19.684 88.0861 20.384 88.0861 21.112C88.0861 22.232 87.6821 23.176 86.8741 23.944C86.0661 24.712 84.9501 25.232 83.5261 25.504L82.9741 23.956ZM98.9855 20.212L99.0815 21.112L98.9855 22H98.9255C97.8535 22 97.0815 21.972 96.6095 21.916C96.1455 21.86 95.7735 21.72 95.4935 21.496L96.4415 20.392C96.6175 20.376 96.7575 20.36 96.8615 20.344C97.7255 20.256 98.4175 20.212 98.9375 20.212H98.9855ZM88.3655 20.212H88.5335C88.9095 20.212 89.2135 20.132 89.4455 19.972C89.6775 19.804 89.8615 19.548 89.9975 19.204C90.1335 18.852 90.2415 18.38 90.3215 17.788L91.5695 18.052C91.5215 18.364 91.4975 18.64 91.4975 18.88C91.4975 19.464 91.6535 19.88 91.9655 20.128C92.2855 20.376 92.8335 20.5 93.6095 20.5C94.3055 20.5 94.9295 20.424 95.4815 20.272C96.0415 20.112 96.4735 19.912 96.7775 19.672C97.0815 19.432 97.2335 19.192 97.2335 18.952C97.2335 18.76 97.1415 18.6 96.9575 18.472C96.7815 18.336 96.5335 18.268 96.2135 18.268C95.5735 18.268 94.9175 18.544 94.2455 19.096C93.5735 19.648 92.9695 20.42 92.4335 21.412L91.4735 20.68C92.0895 19.408 92.8055 18.408 93.6215 17.68C94.4375 16.952 95.2575 16.588 96.0815 16.588C96.5375 16.588 96.9455 16.688 97.3055 16.888C97.6735 17.08 97.9615 17.352 98.1695 17.704C98.3775 18.048 98.4815 18.44 98.4815 18.88C98.4815 19.56 98.2775 20.156 97.8695 20.668C97.4615 21.18 96.8935 21.572 96.1655 21.844C95.4375 22.116 94.6095 22.252 93.6815 22.252C92.2095 22.252 91.2255 21.78 90.7295 20.836C90.4895 21.22 90.1935 21.512 89.8415 21.712C89.4895 21.904 89.0535 22 88.5335 22H88.3655V20.212ZM94.4855 14.572L95.6015 13.468L96.7055 14.572L96.3335 14.944C96.0935 15.192 95.8495 15.436 95.6015 15.676L94.4855 14.572ZM98.8775 20.212H99.0215C100.334 20.212 101.442 20.164 102.346 20.068C103.25 19.964 104.018 19.8 104.65 19.576L104.986 21.16C103.594 21.72 101.606 22 99.0215 22H98.8775V20.212ZM102.73 21.592C102.226 21.592 101.742 21.484 101.278 21.268C100.814 21.052 100.438 20.744 100.15 20.344C99.8695 19.936 99.7295 19.46 99.7295 18.916C99.7295 18.444 99.8495 17.996 100.09 17.572C100.33 17.148 100.654 16.808 101.062 16.552C101.478 16.296 101.926 16.168 102.406 16.168C102.798 16.168 103.182 16.252 103.558 16.42C103.934 16.588 104.282 16.812 104.602 17.092L104.026 18.292C103.514 18.068 103.026 17.956 102.562 17.956C102.434 17.956 102.338 17.96 102.274 17.968C101.914 18 101.61 18.116 101.362 18.316C101.114 18.508 100.99 18.716 100.99 18.94C100.99 19.132 101.074 19.316 101.242 19.492C101.418 19.668 101.646 19.804 101.926 19.9C102.214 19.996 102.522 20.032 102.85 20.008L102.97 21.58L102.73 21.592ZM113.155 22.144C113.139 21.744 113.131 21.448 113.131 21.256C113.131 21.056 113.139 20.756 113.155 20.356C114.203 20.356 115.015 20.292 115.591 20.164C116.175 20.028 116.619 19.812 116.923 19.516C117.227 19.22 117.483 18.788 117.691 18.22L118.939 18.364C118.787 18.812 118.711 19.176 118.711 19.456C118.711 19.72 118.775 19.912 118.903 20.032C119.039 20.152 119.239 20.212 119.503 20.212L119.599 21.1L119.503 22C119.175 22 118.871 21.928 118.591 21.784C118.311 21.632 118.087 21.424 117.919 21.16C117.759 20.896 117.679 20.596 117.679 20.26L117.919 20.308C117.423 20.996 116.799 21.476 116.047 21.748C115.295 22.012 114.331 22.144 113.155 22.144ZM110.167 17.728C109.959 18.376 109.855 18.864 109.855 19.192C109.855 19.408 109.983 19.604 110.239 19.78C110.503 19.956 110.887 20.096 111.391 20.2C111.903 20.304 112.523 20.356 113.251 20.356C113.267 20.556 113.275 20.852 113.275 21.244C113.275 21.644 113.267 21.944 113.251 22.144C111.819 22.152 110.691 21.936 109.867 21.496C109.051 21.056 108.607 20.44 108.535 19.648C108.527 19.584 108.523 19.488 108.523 19.36C108.523 19.016 108.571 18.644 108.667 18.244C108.763 17.844 108.879 17.488 109.015 17.176L110.167 17.728ZM112.555 16.048L113.551 17.056C113.335 17.28 113.115 17.5 112.891 17.716L112.555 18.052L112.063 17.548L111.559 17.056L112.555 16.048ZM114.655 16.048L115.651 17.056C115.435 17.28 115.215 17.5 114.991 17.716L114.655 18.052L114.163 17.548L113.659 17.056L114.655 16.048ZM123.549 20.212L123.645 21.112L123.549 22H123.489C122.969 22 122.533 21.864 122.181 21.592C121.829 21.32 121.581 20.908 121.437 20.356L121.209 19.312L120.933 18.052L122.133 17.644C122.309 18.38 122.457 18.98 122.577 19.444C122.657 19.716 122.769 19.912 122.913 20.032C123.057 20.152 123.249 20.212 123.489 20.212H123.549ZM122.481 19.684C122.369 20.484 122.065 21.072 121.569 21.448C121.081 21.816 120.381 22 119.469 22H119.385V20.212H119.457C120.049 20.212 120.501 20.148 120.813 20.02C121.125 19.884 121.297 19.696 121.329 19.456L122.481 19.684ZM119.037 24.028L120.153 22.924L121.257 24.028L120.885 24.4C120.645 24.648 120.401 24.892 120.153 25.132L119.037 24.028ZM123.428 20.212H124.004C124.796 20.212 125.356 20.144 125.684 20.008C126.012 19.872 126.176 19.664 126.176 19.384C126.168 19.208 126.076 18.872 125.9 18.376C125.724 17.872 125.596 17.536 125.516 17.368L126.788 16.672C126.948 17.008 127.108 17.456 127.268 18.016C127.428 18.568 127.508 19.052 127.508 19.468C127.5 20.284 127.224 20.912 126.68 21.352C126.136 21.784 125.332 22 124.268 22H123.428V20.212ZM125.66 12.952L126.512 13.792L125.66 14.632L125.384 14.356C125.192 14.172 125.004 13.984 124.82 13.792L125.66 12.952ZM126.788 14.26C127.116 14.572 127.436 14.892 127.748 15.22L126.788 16.18C126.476 15.852 126.156 15.532 125.828 15.22L126.788 14.26ZM124.532 14.26C124.86 14.572 125.18 14.892 125.492 15.22L124.532 16.18C124.22 15.852 123.9 15.532 123.572 15.22L124.532 14.26Z" fill="#A0AEC0"/>
<g filter="url(#filter0_d_4525_898)">
<rect x="140" y="4" width="30" height="30" rx="6" fill="white" shape-rendering="crispEdges"/>
<path fill-rule="evenodd" clip-rule="evenodd" d="M159.1 20.6575C159.1 20.9163 158.89 21.1263 158.631 21.1263C158.373 21.1263 158.163 20.9163 158.163 20.6575V19.9688H157.332V20.6575C157.332 20.9163 157.122 21.1263 156.864 21.1263C156.605 21.1263 156.395 20.9163 156.395 20.6575V19.9688H155.073C154.87 20.6363 154.256 21.1263 153.523 21.1263C152.627 21.1263 151.898 20.3969 151.898 19.5C151.898 18.6038 152.627 17.8744 153.523 17.8744C154.257 17.875 154.87 18.365 155.073 19.0312H158.631C158.89 19.0312 159.1 19.2413 159.1 19.5V20.6575ZM155.5 13.4062C151.001 13.4062 149.406 15.0013 149.406 19.5C149.406 23.9994 151.001 25.5938 155.5 25.5938C159.999 25.5938 161.594 23.9994 161.594 19.5C161.594 15.0013 159.999 13.4062 155.5 13.4062Z" fill="#4FD1C5"/>
<path fill-rule="evenodd" clip-rule="evenodd" d="M153.524 18.8118C153.144 18.8118 152.834 19.1205 152.834 19.5005C152.834 19.8799 153.144 20.1886 153.523 20.1886C153.903 20.1886 154.213 19.8799 154.213 19.5005C154.213 19.1211 153.904 18.8124 153.524 18.8118Z" fill="#4FD1C5"/>
</g>
<defs>
<filter id="filter0_d_4525_898" x="134.5" y="2" width="41" height="41" filterUnits="userSpaceOnUse" color-interpolation-filters="sRGB">
<feFlood flood-opacity="0" result="BackgroundImageFix"/>
<feColorMatrix in="SourceAlpha" type="matrix" values="0 0 0 0 0 0 0 0 0 0 0 0 0 0 0 0 0 0 127 0" result="hardAlpha"/>
<feOffset dy="3.5"/>
<feGaussianBlur stdDeviation="2.75"/>
<feComposite in2="hardAlpha" operator="out"/>
<feColorMatrix type="matrix" values="0 0 0 0 0 0 0 0 0 0 0 0 0 0 0 0 0 0 0.02 0"/>
<feBlend mode="normal" in2="BackgroundImageFix" result="effect1_dropShadow_4525_898"/>
<feBlend mode="normal" in="SourceGraphic" in2="effect1_dropShadow_4525_898" result="shape"/>
</filter>
</defs>
</svg>
