<svg width="25" height="24" viewBox="0 0 25 24" fill="none" xmlns="http://www.w3.org/2000/svg">
<path fill-rule="evenodd" clip-rule="evenodd" d="M15.431 14.923C15.285 15.069 15.093 15.143 14.901 15.143C14.708 15.143 14.517 15.069 14.37 14.923L12.497 13.05L10.63 14.917C10.484 15.064 10.292 15.137 10.1 15.137C9.909 15.137 9.716 15.064 9.57 14.917C9.277 14.624 9.277 14.15 9.57 13.857L11.436 11.989L9.57 10.123C9.277 9.83 9.277 9.356 9.57 9.063C9.863 8.77 10.337 8.77 10.63 9.063L12.496 10.929L14.36 9.065C14.653 8.772 15.127 8.772 15.42 9.065C15.713 9.358 15.713 9.832 15.42 10.125L13.557 11.989L15.431 13.862C15.724 14.155 15.724 14.63 15.431 14.923ZM12.5 2.25C5.302 2.25 2.75 4.802 2.75 12C2.75 19.198 5.302 21.75 12.5 21.75C19.699 21.75 22.25 19.198 22.25 12C22.25 4.802 19.699 2.25 12.5 2.25Z" fill="#4FD1C5"/>
</svg>
