<svg width="32" height="32" viewBox="0 0 32 32" fill="none" xmlns="http://www.w3.org/2000/svg">
<path fill-rule="evenodd" clip-rule="evenodd" d="M20.6408 20.6281C20.4096 20.8593 20.1056 20.9764 19.8016 20.9764C19.496 20.9764 19.1936 20.8593 18.9608 20.6281L15.9952 17.6625L13.0392 20.6186C12.808 20.8513 12.504 20.9669 12.2 20.9669C11.8976 20.9669 11.592 20.8513 11.3608 20.6186C10.8969 20.1547 10.8969 19.4042 11.3608 18.9403L14.3153 15.9826L11.3608 13.0281C10.8969 12.5642 10.8969 11.8137 11.3608 11.3497C11.8247 10.8858 12.5752 10.8858 13.0392 11.3497L15.9937 14.3042L18.945 11.3529C19.4089 10.889 20.1594 10.889 20.6233 11.3529C21.0872 11.8168 21.0872 12.5673 20.6233 13.0312L17.6736 15.9826L20.6408 18.9482C21.1047 19.4121 21.1047 20.1642 20.6408 20.6281ZM16 0.5625C4.60317 0.5625 0.5625 4.60317 0.5625 16C0.5625 27.3968 4.60317 31.4375 16 31.4375C27.3984 31.4375 31.4375 27.3968 31.4375 16C31.4375 4.60317 27.3984 0.5625 16 0.5625Z" fill="#F83030"/>
</svg>
