<svg width="182" height="49" viewBox="0 0 182 49" fill="none" xmlns="http://www.w3.org/2000/svg">
<g filter="url(#filter0_d_4753_459)">
<rect x="6" y="2" width="170" height="38" rx="6" fill="#506382" shape-rendering="crispEdges"/>
<path d="M86.8193 15.288C86.8993 15.856 86.9633 16.716 87.0113 17.868C87.0593 19.012 87.0793 20 87.0713 20.832C87.0633 21.272 87.0833 21.604 87.1313 21.828C87.1793 22.044 87.2833 22.204 87.4433 22.308C87.6033 22.404 87.8513 22.452 88.1873 22.452H88.2473L88.3193 23.22L88.2473 24H88.1873C87.3153 24 86.6993 23.764 86.3393 23.292C85.9793 22.82 85.7993 22.08 85.7993 21.072C85.7993 20.152 85.7713 19.16 85.7153 18.096C85.6673 17.024 85.5993 16.188 85.5113 15.588L86.8193 15.288ZM88.1554 22.452H88.3234C89.6114 22.452 90.5594 22.352 91.1674 22.152C91.7754 21.944 92.1154 21.62 92.1874 21.18L92.1994 21.036C92.1994 20.732 92.0994 20.464 91.8994 20.232C91.7074 19.992 91.4674 19.872 91.1794 19.872C91.0114 19.872 90.8394 19.928 90.6634 20.04C90.4954 20.144 90.3554 20.284 90.2434 20.46C90.1394 20.628 90.0874 20.808 90.0874 21C90.0874 21.288 90.2634 21.56 90.6154 21.816C90.9674 22.064 91.3994 22.264 91.9114 22.416C92.4234 22.568 92.9034 22.644 93.3514 22.644C93.7114 22.644 93.9994 22.592 94.2154 22.488C94.4394 22.376 94.5514 22.208 94.5514 21.984C94.5514 21.576 94.0994 21.14 93.1954 20.676C92.2994 20.204 90.9914 19.732 89.2714 19.26L89.8234 17.82C91.3514 18.3 92.5434 18.756 93.3994 19.188C94.2634 19.62 94.8634 20.04 95.1994 20.448C95.5434 20.848 95.7154 21.28 95.7154 21.744C95.7154 22.032 95.6554 22.368 95.5354 22.752C95.3994 23.16 95.1234 23.468 94.7074 23.676C94.2914 23.876 93.7914 23.976 93.2074 23.976C92.5594 23.976 91.8994 23.86 91.2274 23.628C90.5634 23.388 90.0114 23.056 89.5714 22.632C89.1394 22.208 88.9234 21.736 88.9234 21.216C88.9234 21.144 88.9314 21.044 88.9474 20.916C89.0274 20.46 89.1834 20.044 89.4154 19.668C89.6474 19.284 89.9234 18.98 90.2434 18.756C90.5634 18.532 90.8994 18.42 91.2514 18.42C91.6114 18.42 91.9434 18.54 92.2474 18.78C92.5514 19.02 92.7914 19.336 92.9674 19.728C93.1514 20.112 93.2434 20.516 93.2434 20.94C93.2434 21.076 93.2314 21.212 93.2074 21.348C93.1034 22.004 92.8634 22.528 92.4874 22.92C92.1194 23.304 91.5954 23.58 90.9154 23.748C90.2434 23.916 89.3794 24 88.3234 24H88.1554V22.452ZM104.424 24.132L104.316 23.364L104.364 22.584H104.532C105.78 22.576 106.72 22.456 107.352 22.224C107.984 21.984 108.344 21.6 108.432 21.072C108.432 20.648 108.368 20.22 108.24 19.788C108.12 19.356 107.948 19 107.724 18.72C107.508 18.432 107.26 18.288 106.98 18.288C106.804 18.288 106.64 18.348 106.488 18.468C106.344 18.58 106.228 18.724 106.14 18.9C106.06 19.068 106.02 19.232 106.02 19.392C106.02 19.528 106.052 19.648 106.116 19.752C106.236 19.92 106.456 20.056 106.776 20.16C107.104 20.256 107.472 20.304 107.88 20.304C108.16 20.304 108.436 20.28 108.708 20.232V21.624C108.292 21.704 107.916 21.744 107.58 21.744C107.02 21.744 106.524 21.652 106.092 21.468C105.66 21.276 105.344 20.992 105.144 20.616C105 20.312 104.928 19.976 104.928 19.608C104.928 19.176 105.02 18.752 105.204 18.336C105.396 17.92 105.656 17.58 105.984 17.316C106.32 17.052 106.684 16.92 107.076 16.92C107.556 16.92 107.984 17.12 108.36 17.52C108.736 17.912 109.02 18.42 109.212 19.044C109.412 19.668 109.492 20.308 109.452 20.964C109.412 21.94 108.976 22.712 108.144 23.28C107.32 23.84 106.108 24.124 104.508 24.132H104.424ZM101.316 19.812C101.076 20.54 100.972 21.08 101.004 21.432C101.068 21.776 101.396 22.056 101.988 22.272C102.58 22.48 103.408 22.584 104.472 22.584C104.488 22.752 104.496 23.008 104.496 23.352C104.496 23.696 104.488 23.956 104.472 24.132C103.056 24.14 101.944 23.932 101.136 23.508C100.328 23.084 99.8882 22.484 99.8162 21.708C99.8082 21.644 99.8042 21.548 99.8042 21.42C99.8042 21.084 99.8482 20.728 99.9362 20.352C100.024 19.968 100.136 19.616 100.272 19.296L101.316 19.812ZM105.9 15.108C106.348 14.644 106.688 14.3 106.92 14.076L107.94 15.108L107.604 15.444L106.92 16.128L105.9 15.108ZM110.793 23.928C110.857 23.448 110.889 22.636 110.889 21.492C110.889 20.396 110.857 19.248 110.793 18.048C110.737 16.848 110.673 16.028 110.601 15.588L111.921 15.288C111.985 15.72 112.045 16.52 112.101 17.688C112.157 18.848 112.185 19.984 112.185 21.096C112.185 22.416 112.141 23.408 112.053 24.072L110.793 23.928ZM116.614 24C116.086 24 115.662 23.812 115.342 23.436C115.03 23.052 114.766 22.508 114.55 21.804L115.498 21.228C115.61 21.676 115.75 21.992 115.918 22.176C116.086 22.36 116.318 22.452 116.614 22.452H116.71L116.794 23.22L116.71 24H116.614ZM111.898 26.172C112.418 25.972 112.894 25.728 113.326 25.44C113.758 25.152 114.098 24.86 114.346 24.564C114.594 24.268 114.718 24.004 114.718 23.772C114.718 23.596 114.67 23.304 114.574 22.896C114.478 22.48 114.35 21.96 114.19 21.336C114.126 21.112 114.082 20.944 114.058 20.832L115.258 20.364C115.442 20.924 115.59 21.52 115.702 22.152C115.822 22.776 115.882 23.316 115.882 23.772C115.882 24.532 115.57 25.24 114.946 25.896C114.33 26.552 113.522 27.08 112.522 27.48L111.898 26.172ZM127.18 22.452L127.264 23.22L127.18 24H127.12C126.08 24 125.332 23.976 124.876 23.928C124.428 23.88 124.072 23.752 123.808 23.544L124.528 22.716C125.024 22.636 125.476 22.572 125.884 22.524C126.3 22.476 126.712 22.452 127.12 22.452H127.18ZM116.584 22.452H116.764C117.148 22.452 117.456 22.368 117.688 22.2C117.928 22.032 118.12 21.768 118.264 21.408C118.408 21.048 118.524 20.564 118.612 19.956L119.728 20.184C119.68 20.48 119.656 20.752 119.656 21C119.656 21.624 119.824 22.068 120.16 22.332C120.496 22.596 121.056 22.728 121.84 22.728C122.552 22.728 123.188 22.648 123.748 22.488C124.308 22.32 124.74 22.108 125.044 21.852C125.356 21.588 125.512 21.324 125.512 21.06C125.512 20.836 125.416 20.652 125.224 20.508C125.032 20.356 124.768 20.28 124.432 20.28C123.776 20.28 123.112 20.56 122.44 21.12C121.776 21.672 121.168 22.452 120.616 23.46L119.728 22.824C120.352 21.568 121.068 20.584 121.876 19.872C122.692 19.16 123.5 18.804 124.3 18.804C124.772 18.804 125.192 18.912 125.56 19.128C125.936 19.336 126.22 19.628 126.412 20.004C126.604 20.372 126.68 20.788 126.64 21.252C126.584 21.86 126.348 22.392 125.932 22.848C125.524 23.296 124.972 23.644 124.276 23.892C123.588 24.132 122.808 24.252 121.936 24.252C120.36 24.252 119.368 23.764 118.96 22.788C118.728 23.18 118.436 23.48 118.084 23.688C117.74 23.896 117.296 24 116.752 24H116.584V22.452ZM127.061 22.452H127.697C128.289 22.452 128.717 22.384 128.981 22.248C129.245 22.104 129.377 21.888 129.377 21.6C129.377 21.416 129.289 21.06 129.113 20.532C128.945 20.004 128.817 19.644 128.729 19.452L129.857 18.84C130.009 19.16 130.165 19.6 130.325 20.16C130.493 20.72 130.577 21.208 130.577 21.624C130.577 22.4 130.329 22.992 129.833 23.4C129.337 23.8 128.625 24 127.697 24H127.061V22.452ZM127.889 17.256C128.337 16.792 128.677 16.448 128.909 16.224L129.929 17.256L129.593 17.592L128.909 18.276L127.889 17.256ZM131.91 23.928C131.974 23.448 132.006 22.636 132.006 21.492C132.006 20.396 131.974 19.248 131.91 18.048C131.854 16.848 131.79 16.028 131.718 15.588L133.038 15.288C133.102 15.72 133.162 16.52 133.218 17.688C133.274 18.848 133.302 19.984 133.302 21.096C133.302 22.416 133.258 23.408 133.17 24.072L131.91 23.928Z" fill="#EDFAF9"/>
<rect x="146" y="6" width="30" height="30" rx="6" fill="#4FD1C5"/>
<path fill-rule="evenodd" clip-rule="evenodd" d="M161.502 24.4031C161.244 24.4031 161.031 24.1931 161.031 23.9344C161.031 23.6756 161.238 23.4656 161.497 23.4656H161.502C161.761 23.4656 161.971 23.6756 161.971 23.9344C161.971 24.1931 161.761 24.4031 161.502 24.4031ZM161.03 19.3125C161.03 19.0538 161.24 18.8438 161.499 18.8438C161.758 18.8438 161.968 19.0538 161.968 19.3125V21.7469C161.968 22.0056 161.758 22.2156 161.499 22.2156C161.24 22.2156 161.03 22.0056 161.03 21.7469V19.3125ZM165.912 20.3488L165.779 20.115C163.913 16.7962 162.753 15.5625 161.499 15.5625C160.245 15.5625 159.085 16.7962 157.219 20.115L157.087 20.3488C156.417 21.525 155.023 23.9719 155.282 25.4319C155.587 27.1588 157.365 27.4375 161.499 27.4375C165.634 27.4375 167.412 27.1588 167.717 25.4319C167.975 23.9719 166.582 21.525 165.912 20.3488Z" fill="#EDFAF9"/>
</g>
<defs>
<filter id="filter0_d_4753_459" x="0.5" y="0" width="181" height="49" filterUnits="userSpaceOnUse" color-interpolation-filters="sRGB">
<feFlood flood-opacity="0" result="BackgroundImageFix"/>
<feColorMatrix in="SourceAlpha" type="matrix" values="0 0 0 0 0 0 0 0 0 0 0 0 0 0 0 0 0 0 127 0" result="hardAlpha"/>
<feOffset dy="3.5"/>
<feGaussianBlur stdDeviation="2.75"/>
<feComposite in2="hardAlpha" operator="out"/>
<feColorMatrix type="matrix" values="0 0 0 0 0 0 0 0 0 0 0 0 0 0 0 0 0 0 0.02 0"/>
<feBlend mode="normal" in2="BackgroundImageFix" result="effect1_dropShadow_4753_459"/>
<feBlend mode="normal" in="SourceGraphic" in2="effect1_dropShadow_4753_459" result="shape"/>
</filter>
</defs>
</svg>
