<svg width="182" height="49" viewBox="0 0 182 49" fill="none" xmlns="http://www.w3.org/2000/svg">
<g filter="url(#filter0_d_4753_435)">
<rect x="6" y="2" width="170" height="38" rx="6" fill="#506382" shape-rendering="crispEdges"/>
<path d="M97.028 24.132C97.02 23.956 97.016 23.696 97.016 23.352C97.016 23.008 97.02 22.752 97.028 22.584C97.764 22.584 98.392 22.54 98.912 22.452C99.44 22.364 99.84 22.26 100.112 22.14C100.384 22.02 100.528 21.916 100.544 21.828C100.496 21.468 100.388 21.044 100.22 20.556C100.06 20.068 99.928 19.7 99.824 19.452L100.952 18.84C101.144 19.272 101.316 19.78 101.468 20.364C101.62 20.94 101.688 21.424 101.672 21.816C101.64 22.568 101.196 23.144 100.34 23.544C99.492 23.936 98.388 24.132 97.028 24.132ZM93.992 19.812C93.752 20.54 93.648 21.08 93.68 21.432C93.744 21.776 94.072 22.056 94.664 22.272C95.256 22.48 96.084 22.584 97.148 22.584C97.164 22.752 97.172 23.008 97.172 23.352C97.172 23.696 97.164 23.956 97.148 24.132C95.732 24.14 94.62 23.932 93.812 23.508C93.004 23.084 92.564 22.484 92.492 21.708C92.484 21.644 92.48 21.548 92.48 21.42C92.48 21.084 92.524 20.728 92.612 20.352C92.7 19.968 92.812 19.616 92.948 19.296L93.992 19.812ZM96.008 18.408L96.944 19.332L96.008 20.28L95.072 19.332L96.008 18.408ZM98.108 18.408L99.044 19.332L98.108 20.28L97.172 19.332L98.108 18.408ZM104.104 15.288C104.184 15.856 104.248 16.716 104.296 17.868C104.344 19.012 104.364 20 104.356 20.832C104.348 21.272 104.368 21.604 104.416 21.828C104.464 22.044 104.568 22.204 104.728 22.308C104.888 22.404 105.136 22.452 105.472 22.452H105.532L105.604 23.22L105.532 24H105.472C104.6 24 103.984 23.764 103.624 23.292C103.264 22.82 103.084 22.08 103.084 21.072C103.084 20.152 103.056 19.16 103 18.096C102.952 17.024 102.884 16.188 102.796 15.588L104.104 15.288ZM105.417 22.452H105.669C106.285 22.452 106.805 22.076 107.229 21.324C107.613 20.612 107.985 20.064 108.345 19.68C108.713 19.288 109.109 19.088 109.533 19.08C110.045 19.064 110.453 19.22 110.757 19.548C111.069 19.876 111.321 20.348 111.513 20.964C111.689 21.524 111.841 21.912 111.969 22.128C112.097 22.344 112.261 22.452 112.461 22.452H112.593L112.677 23.22L112.593 24H112.461C111.941 24 111.541 23.724 111.261 23.172C111.229 23.316 111.153 23.456 111.033 23.592C110.913 23.728 110.785 23.836 110.649 23.916C110.481 24.012 110.281 24.06 110.049 24.06C109.457 24.06 108.641 23.732 107.601 23.076C107.361 23.38 107.073 23.612 106.737 23.772C106.401 23.924 106.033 24 105.633 24H105.417V22.452ZM108.261 21.84C108.677 22.144 109.073 22.368 109.449 22.512C109.825 22.648 110.129 22.716 110.361 22.716C110.417 22.716 110.477 22.708 110.541 22.692C110.589 22.572 110.613 22.42 110.613 22.236C110.613 21.98 110.569 21.716 110.481 21.444C110.401 21.164 110.281 20.932 110.121 20.748C109.961 20.564 109.777 20.472 109.569 20.472C109.193 20.472 108.757 20.928 108.261 21.84ZM112.471 22.452H112.567C113.191 22.452 113.675 22.424 114.019 22.368C114.363 22.312 114.607 22.228 114.751 22.116C114.903 21.996 115.003 21.836 115.051 21.636C115.075 21.524 115.087 21.404 115.087 21.276C115.087 21.076 115.067 20.844 115.027 20.58C114.987 20.308 114.963 20.14 114.955 20.076L116.071 19.86C116.135 20.204 116.179 20.564 116.203 20.94C116.227 21.308 116.239 21.6 116.239 21.816C116.271 22 116.367 22.152 116.527 22.272C116.687 22.392 116.911 22.452 117.199 22.452H117.271L117.355 23.22L117.271 24H117.199C116.815 24 116.467 23.896 116.155 23.688C115.851 23.472 115.619 23.196 115.459 22.86L115.747 22.92C115.547 23.312 115.207 23.592 114.727 23.76C114.255 23.92 113.535 24 112.567 24H112.471V22.452ZM112.531 25.068L113.467 25.992L112.531 26.94L111.595 25.992L112.531 25.068ZM114.643 25.068L115.579 25.992L114.643 26.94L113.707 25.992L114.643 25.068ZM123.687 22.524C124.535 22.476 125.171 22.452 125.595 22.452L125.679 23.22L125.595 24C124.675 24 123.919 23.968 123.327 23.904C122.743 23.832 122.315 23.704 122.043 23.52L122.835 22.572L123.687 22.524ZM120.303 22.464C121.015 22.464 121.651 22.384 122.211 22.224C122.771 22.056 123.203 21.844 123.507 21.588C123.811 21.324 123.963 21.056 123.963 20.784C123.963 20.576 123.867 20.4 123.675 20.256C123.491 20.104 123.231 20.028 122.895 20.028C122.247 20.028 121.575 20.324 120.879 20.916C120.183 21.5 119.551 22.312 118.983 23.352L118.095 22.716C118.751 21.412 119.487 20.396 120.303 19.668C121.127 18.932 121.947 18.56 122.763 18.552C123.211 18.552 123.611 18.648 123.963 18.84C124.323 19.032 124.603 19.296 124.803 19.632C125.003 19.968 125.103 20.348 125.103 20.772C125.103 21.428 124.899 22 124.491 22.488C124.083 22.976 123.519 23.352 122.799 23.616C122.079 23.872 121.267 24 120.363 24H117.147V22.452L120.303 22.464ZM118.935 21.468C118.959 21.188 118.971 20.86 118.971 20.484C118.971 19.708 118.927 18.812 118.839 17.796C118.759 16.78 118.679 16.044 118.599 15.588L119.919 15.288C119.991 15.696 120.055 16.284 120.111 17.052C120.167 17.812 120.195 18.584 120.195 19.368C120.195 20 120.171 20.604 120.123 21.18L118.935 21.468ZM121.611 16.32C122.059 15.856 122.399 15.512 122.631 15.288L123.651 16.32L123.315 16.656L122.631 17.34L121.611 16.32ZM125.514 22.452H125.598C126.302 22.444 126.79 22.352 127.062 22.176C127.342 22 127.482 21.708 127.482 21.3C127.482 21.116 127.45 20.816 127.386 20.4L127.338 20.076L128.466 19.86C128.57 20.396 128.622 21.048 128.622 21.816C128.662 22 128.762 22.152 128.922 22.272C129.082 22.392 129.302 22.452 129.582 22.452H129.666L129.75 23.22L129.666 24H129.582C129.198 24 128.854 23.896 128.55 23.688C128.246 23.472 128.014 23.196 127.854 22.86L128.142 22.896C127.958 23.28 127.654 23.56 127.23 23.736C126.806 23.912 126.262 24 125.598 24H125.514V22.452ZM126.054 17.94C126.502 17.476 126.842 17.132 127.074 16.908L128.094 17.94L127.758 18.276L127.074 18.96L126.054 17.94ZM129.545 22.452H130.085C130.901 22.452 131.477 22.38 131.813 22.236C132.149 22.084 132.317 21.852 132.317 21.54C132.309 21.34 132.221 20.996 132.053 20.508C131.893 20.012 131.765 19.66 131.669 19.452L132.797 18.84C132.957 19.2 133.117 19.648 133.277 20.184C133.437 20.72 133.517 21.192 133.517 21.6C133.509 22.384 133.237 22.98 132.701 23.388C132.165 23.796 131.369 24 130.313 24H129.545V22.452ZM130.685 16.404L131.621 17.328L130.685 18.276L129.749 17.328L130.685 16.404ZM132.785 16.404L133.721 17.328L132.785 18.276L131.849 17.328L132.785 16.404Z" fill="#EDFAF9"/>
<rect x="146" y="6" width="30" height="30" rx="6" fill="#4FD1C5"/>
<path fill-rule="evenodd" clip-rule="evenodd" d="M161.499 23.375C160.465 23.375 159.624 22.5338 159.624 21.5C159.624 20.4662 160.465 19.625 161.499 19.625C162.533 19.625 163.374 20.4662 163.374 21.5C163.374 22.5338 162.533 23.375 161.499 23.375ZM166.195 22.0712C165.991 21.9519 165.869 21.7387 165.869 21.5C165.869 21.2613 165.991 21.0481 166.196 20.9294C167.082 20.4138 167.387 19.2688 166.875 18.3756C166.626 17.9419 166.224 17.6319 165.743 17.5025C165.264 17.3756 164.764 17.4419 164.335 17.6912C164.133 17.81 163.891 17.81 163.687 17.6919C163.481 17.5738 163.358 17.3594 163.358 17.12C163.358 16.0894 162.524 15.25 161.499 15.25C160.474 15.25 159.64 16.0894 159.64 17.12C159.64 17.36 159.517 17.5738 159.31 17.6925C159.108 17.8087 158.866 17.81 158.664 17.6912C158.234 17.4419 157.734 17.3744 157.254 17.5031C156.773 17.6325 156.372 17.9425 156.123 18.3762C155.612 19.2694 155.917 20.4144 156.803 20.9288C157.007 21.0475 157.129 21.2613 157.129 21.5C157.129 21.7387 157.007 21.9525 156.803 22.0706C155.917 22.5862 155.612 23.7319 156.123 24.6244C156.372 25.0575 156.773 25.3675 157.254 25.4969C157.733 25.625 158.234 25.5587 158.664 25.3094C158.865 25.1906 159.107 25.1906 159.31 25.3075C159.517 25.4262 159.64 25.64 159.64 25.88C159.64 26.9106 160.474 27.75 161.499 27.75C162.524 27.75 163.358 26.9106 163.358 25.88C163.358 25.6406 163.481 25.4263 163.687 25.3081C163.89 25.1906 164.132 25.1906 164.335 25.3094C164.765 25.5587 165.265 25.6237 165.743 25.4975C166.224 25.3681 166.626 25.0581 166.875 24.6244C167.387 23.7319 167.082 22.5869 166.195 22.0712Z" fill="white"/>
</g>
<defs>
<filter id="filter0_d_4753_435" x="0.5" y="0" width="181" height="49" filterUnits="userSpaceOnUse" color-interpolation-filters="sRGB">
<feFlood flood-opacity="0" result="BackgroundImageFix"/>
<feColorMatrix in="SourceAlpha" type="matrix" values="0 0 0 0 0 0 0 0 0 0 0 0 0 0 0 0 0 0 127 0" result="hardAlpha"/>
<feOffset dy="3.5"/>
<feGaussianBlur stdDeviation="2.75"/>
<feComposite in2="hardAlpha" operator="out"/>
<feColorMatrix type="matrix" values="0 0 0 0 0 0 0 0 0 0 0 0 0 0 0 0 0 0 0.02 0"/>
<feBlend mode="normal" in2="BackgroundImageFix" result="effect1_dropShadow_4753_435"/>
<feBlend mode="normal" in="SourceGraphic" in2="effect1_dropShadow_4753_435" result="shape"/>
</filter>
</defs>
</svg>
