<svg width="182" height="49" viewBox="0 0 182 49" fill="none" xmlns="http://www.w3.org/2000/svg">
<g filter="url(#filter0_d_4753_447)">
<rect x="6" y="2" width="170" height="38" rx="6" fill="#506382" shape-rendering="crispEdges"/>
<path d="M91.956 15.288C92.036 15.856 92.1 16.716 92.148 17.868C92.196 19.012 92.216 20 92.208 20.832C92.2 21.272 92.22 21.604 92.268 21.828C92.316 22.044 92.42 22.204 92.58 22.308C92.74 22.404 92.988 22.452 93.324 22.452H93.384L93.456 23.22L93.384 24H93.324C92.452 24 91.836 23.764 91.476 23.292C91.116 22.82 90.936 22.08 90.936 21.072C90.936 20.152 90.908 19.16 90.852 18.096C90.804 17.024 90.736 16.188 90.648 15.588L91.956 15.288ZM93.2921 22.452H93.4601C94.7481 22.452 95.6961 22.352 96.3041 22.152C96.9121 21.944 97.2521 21.62 97.3241 21.18L97.3361 21.036C97.3361 20.732 97.2361 20.464 97.0361 20.232C96.8441 19.992 96.6041 19.872 96.3161 19.872C96.1481 19.872 95.9761 19.928 95.8001 20.04C95.6321 20.144 95.4921 20.284 95.3801 20.46C95.2761 20.628 95.2241 20.808 95.2241 21C95.2241 21.288 95.4001 21.56 95.7521 21.816C96.1041 22.064 96.5361 22.264 97.0481 22.416C97.5601 22.568 98.0401 22.644 98.4881 22.644C98.8481 22.644 99.1361 22.592 99.3521 22.488C99.5761 22.376 99.6881 22.208 99.6881 21.984C99.6881 21.576 99.2361 21.14 98.3321 20.676C97.4361 20.204 96.1281 19.732 94.4081 19.26L94.9601 17.82C96.4881 18.3 97.6801 18.756 98.5361 19.188C99.4001 19.62 100 20.04 100.336 20.448C100.68 20.848 100.852 21.28 100.852 21.744C100.852 22.032 100.792 22.368 100.672 22.752C100.536 23.16 100.26 23.468 99.8441 23.676C99.4281 23.876 98.9281 23.976 98.3441 23.976C97.6961 23.976 97.0361 23.86 96.3641 23.628C95.7001 23.388 95.1481 23.056 94.7081 22.632C94.2761 22.208 94.0601 21.736 94.0601 21.216C94.0601 21.144 94.0681 21.044 94.0841 20.916C94.1641 20.46 94.3201 20.044 94.5521 19.668C94.7841 19.284 95.0601 18.98 95.3801 18.756C95.7001 18.532 96.0361 18.42 96.3881 18.42C96.7481 18.42 97.0801 18.54 97.3841 18.78C97.6881 19.02 97.9281 19.336 98.1041 19.728C98.2881 20.112 98.3801 20.516 98.3801 20.94C98.3801 21.076 98.3681 21.212 98.3441 21.348C98.2401 22.004 98.0001 22.528 97.6241 22.92C97.2561 23.304 96.7321 23.58 96.0521 23.748C95.3801 23.916 94.5161 24 93.4601 24H93.2921V22.452ZM104.929 22.704C104.945 22.28 105.085 21.936 105.349 21.672C105.613 21.408 105.933 21.276 106.309 21.276C106.413 21.276 106.525 21.288 106.645 21.312C106.949 20.648 107.297 20.116 107.689 19.716C108.081 19.316 108.493 19.104 108.925 19.08C109.365 19.056 109.749 19.172 110.077 19.428C110.405 19.684 110.657 20.028 110.833 20.46C111.009 20.884 111.097 21.332 111.097 21.804C111.097 22.26 111.013 22.68 110.845 23.064C110.677 23.44 110.425 23.724 110.089 23.916C109.921 24.012 109.725 24.06 109.501 24.06C109.197 24.06 108.801 23.968 108.313 23.784C107.833 23.592 107.213 23.284 106.453 22.86C106.421 22.844 106.389 22.836 106.357 22.836C106.269 22.836 106.225 22.892 106.225 23.004C106.209 23.588 106.225 24.24 106.273 24.96C106.321 25.688 106.393 26.588 106.489 27.66C106.529 28.02 106.549 28.236 106.549 28.308L105.229 28.572L105.205 28.284C105.013 26.308 104.917 24.676 104.917 23.388C104.917 23.076 104.921 22.848 104.929 22.704ZM107.713 21.852C108.553 22.38 109.153 22.644 109.513 22.644C109.569 22.644 109.629 22.628 109.693 22.596C109.893 22.468 109.993 22.224 109.993 21.864C109.993 21.52 109.901 21.204 109.717 20.916C109.541 20.62 109.305 20.472 109.009 20.472C108.633 20.472 108.201 20.932 107.713 21.852ZM113.483 15.288C113.563 15.856 113.627 16.716 113.675 17.868C113.723 19.012 113.743 20 113.735 20.832C113.727 21.272 113.747 21.604 113.795 21.828C113.843 22.044 113.947 22.204 114.107 22.308C114.267 22.404 114.515 22.452 114.851 22.452H114.911L114.983 23.22L114.911 24H114.851C113.979 24 113.363 23.764 113.003 23.292C112.643 22.82 112.463 22.08 112.463 21.072C112.463 20.152 112.435 19.16 112.379 18.096C112.331 17.024 112.263 16.188 112.175 15.588L113.483 15.288ZM114.795 22.452H114.891C115.515 22.452 115.999 22.424 116.343 22.368C116.687 22.312 116.931 22.228 117.075 22.116C117.227 21.996 117.327 21.836 117.375 21.636C117.399 21.524 117.411 21.404 117.411 21.276C117.411 21.076 117.391 20.844 117.351 20.58C117.311 20.308 117.287 20.14 117.279 20.076L118.395 19.86C118.459 20.204 118.503 20.564 118.527 20.94C118.551 21.308 118.563 21.6 118.563 21.816C118.595 22 118.691 22.152 118.851 22.272C119.011 22.392 119.235 22.452 119.523 22.452H119.595L119.679 23.22L119.595 24H119.523C119.139 24 118.791 23.896 118.479 23.688C118.175 23.472 117.943 23.196 117.783 22.86L118.071 22.92C117.871 23.312 117.531 23.592 117.051 23.76C116.579 23.92 115.859 24 114.891 24H114.795V22.452ZM114.855 25.068L115.791 25.992L114.855 26.94L113.919 25.992L114.855 25.068ZM116.967 25.068L117.903 25.992L116.967 26.94L116.031 25.992L116.967 25.068ZM119.471 22.452H120.011C120.827 22.452 121.403 22.38 121.739 22.236C122.075 22.084 122.243 21.852 122.243 21.54C122.235 21.34 122.147 20.996 121.979 20.508C121.819 20.012 121.691 19.66 121.595 19.452L122.723 18.84C122.883 19.2 123.043 19.648 123.203 20.184C123.363 20.72 123.443 21.192 123.443 21.6C123.435 22.384 123.163 22.98 122.627 23.388C122.091 23.796 121.295 24 120.239 24H119.471V22.452ZM120.995 25.716C121.395 25.316 121.595 25.116 121.595 25.116L121.907 24.804C122.203 25.116 122.507 25.42 122.819 25.716L122.507 26.028C122.507 26.028 122.307 26.228 121.907 26.628L120.995 25.716ZM118.739 25.716C119.139 25.316 119.339 25.116 119.339 25.116L119.651 24.804C119.947 25.116 120.251 25.42 120.563 25.716L120.251 26.028C120.251 26.028 120.051 26.228 119.651 26.628L118.739 25.716ZM120.767 26.28L121.571 27.096L121.307 27.36L120.767 27.9C120.503 27.628 120.235 27.36 119.963 27.096L120.767 26.28Z" fill="#EDFAF9"/>
<rect x="146" y="6" width="30" height="30" rx="6" fill="#4FD1C5"/>
<path fill-rule="evenodd" clip-rule="evenodd" d="M166.267 22.7264C165.738 21.562 165.752 21.1239 165.776 20.3276C165.782 20.1395 165.789 19.9351 165.789 19.7007C165.789 17.8401 164.458 15.2195 161.5 15.2195C158.543 15.2195 157.212 17.8401 157.212 19.7007C157.212 19.9345 157.219 20.1395 157.225 20.3276C157.249 21.1239 157.262 21.562 156.727 22.742C156.499 23.332 156.526 23.8414 156.81 24.2564C157.493 25.2551 159.468 25.3926 161.5 25.3926C163.533 25.3926 165.508 25.2551 166.19 24.2564C166.475 23.8414 166.503 23.332 166.267 22.7264Z" fill="white"/>
<path fill-rule="evenodd" clip-rule="evenodd" d="M163.186 26.0253C162.167 26.1384 161.062 26.1378 159.806 26.024C159.617 26.009 159.431 26.1084 159.345 26.2803C159.258 26.4528 159.286 26.6597 159.414 26.8034C159.976 27.4328 160.716 27.7803 161.497 27.7803H161.499C162.282 27.7803 163.024 27.4334 163.587 26.8034C163.717 26.659 163.744 26.449 163.655 26.2759C163.566 26.104 163.382 26.0078 163.186 26.0253Z" fill="white"/>
</g>
<defs>
<filter id="filter0_d_4753_447" x="0.5" y="0" width="181" height="49" filterUnits="userSpaceOnUse" color-interpolation-filters="sRGB">
<feFlood flood-opacity="0" result="BackgroundImageFix"/>
<feColorMatrix in="SourceAlpha" type="matrix" values="0 0 0 0 0 0 0 0 0 0 0 0 0 0 0 0 0 0 127 0" result="hardAlpha"/>
<feOffset dy="3.5"/>
<feGaussianBlur stdDeviation="2.75"/>
<feComposite in2="hardAlpha" operator="out"/>
<feColorMatrix type="matrix" values="0 0 0 0 0 0 0 0 0 0 0 0 0 0 0 0 0 0 0.02 0"/>
<feBlend mode="normal" in2="BackgroundImageFix" result="effect1_dropShadow_4753_447"/>
<feBlend mode="normal" in="SourceGraphic" in2="effect1_dropShadow_4753_447" result="shape"/>
</filter>
</defs>
</svg>
