<svg width="182" height="49" viewBox="0 0 182 49" fill="none" xmlns="http://www.w3.org/2000/svg">
<g filter="url(#filter0_d_4753_441)">
<rect x="6" y="2" width="170" height="38" rx="6" fill="#506382" shape-rendering="crispEdges"/>
<path d="M94.176 27.42C93.432 27.42 92.772 27.272 92.196 26.976C91.628 26.688 91.192 26.264 90.888 25.704C90.584 25.144 90.456 24.476 90.504 23.7C90.528 23.252 90.616 22.78 90.768 22.284C90.928 21.788 91.108 21.328 91.308 20.904L92.352 21.396C92.144 21.86 91.984 22.284 91.872 22.668C91.76 23.052 91.704 23.432 91.704 23.808C91.704 24.496 91.916 25.012 92.34 25.356C92.764 25.7 93.376 25.872 94.176 25.872C94.624 25.872 95.048 25.82 95.448 25.716C95.856 25.612 96.2 25.48 96.48 25.32C96.76 25.16 96.944 25.008 97.032 24.864C96.912 24.72 96.616 24.508 96.144 24.228C95.672 23.956 95.176 23.72 94.656 23.52L94.992 22.056C95.648 22.184 96.228 22.28 96.732 22.344C97.244 22.408 97.744 22.444 98.232 22.452H98.448L98.532 23.22L98.448 24H98.232C97.688 23.992 97.128 23.948 96.552 23.868C95.984 23.78 95.356 23.664 94.668 23.52L95.004 22.572C95.068 22.596 95.38 22.728 95.94 22.968C96.5 23.208 97.012 23.512 97.476 23.88C97.94 24.248 98.172 24.6 98.172 24.936C98.164 25.32 97.98 25.704 97.62 26.088C97.26 26.48 96.776 26.8 96.168 27.048C95.56 27.296 94.896 27.42 94.176 27.42ZM98.2837 22.452H98.9198C99.5118 22.452 99.9398 22.384 100.204 22.248C100.468 22.104 100.6 21.888 100.6 21.6C100.6 21.416 100.512 21.06 100.336 20.532C100.168 20.004 100.04 19.644 99.9518 19.452L101.08 18.84C101.232 19.16 101.388 19.6 101.548 20.16C101.716 20.72 101.8 21.208 101.8 21.624C101.8 22.4 101.552 22.992 101.056 23.4C100.56 23.8 99.8478 24 98.9198 24H98.2837V22.452ZM99.1118 17.256C99.5598 16.792 99.8998 16.448 100.132 16.224L101.152 17.256L100.816 17.592L100.132 18.276L99.1118 17.256ZM104.249 15.288C104.329 15.856 104.393 16.716 104.441 17.868C104.489 19.012 104.509 20 104.501 20.832C104.493 21.272 104.513 21.604 104.561 21.828C104.609 22.044 104.713 22.204 104.873 22.308C105.033 22.404 105.281 22.452 105.617 22.452H105.677L105.749 23.22L105.677 24H105.617C104.745 24 104.129 23.764 103.769 23.292C103.409 22.82 103.229 22.08 103.229 21.072C103.229 20.152 103.201 19.16 103.145 18.096C103.097 17.024 103.029 16.188 102.941 15.588L104.249 15.288ZM105.561 22.452H105.645C106.349 22.444 106.837 22.352 107.109 22.176C107.389 22 107.529 21.708 107.529 21.3C107.529 21.116 107.497 20.816 107.433 20.4L107.385 20.076L108.513 19.86C108.617 20.396 108.669 21.048 108.669 21.816C108.709 22 108.809 22.152 108.969 22.272C109.129 22.392 109.349 22.452 109.629 22.452H109.713L109.797 23.22L109.713 24H109.629C109.245 24 108.901 23.896 108.597 23.688C108.293 23.472 108.061 23.196 107.901 22.86L108.189 22.896C108.005 23.28 107.701 23.56 107.277 23.736C106.853 23.912 106.309 24 105.645 24H105.561V22.452ZM105.285 26.04C105.733 25.576 106.073 25.232 106.305 25.008L107.325 26.04L106.989 26.376L106.305 27.06L105.285 26.04ZM109.592 22.452H109.688C110.312 22.452 110.796 22.424 111.14 22.368C111.484 22.312 111.728 22.228 111.872 22.116C112.024 21.996 112.124 21.836 112.172 21.636C112.196 21.524 112.208 21.404 112.208 21.276C112.208 21.076 112.188 20.844 112.148 20.58C112.108 20.308 112.084 20.14 112.076 20.076L113.192 19.86C113.256 20.204 113.3 20.564 113.324 20.94C113.348 21.308 113.36 21.6 113.36 21.816C113.392 22 113.488 22.152 113.648 22.272C113.808 22.392 114.032 22.452 114.32 22.452H114.392L114.476 23.22L114.392 24H114.32C113.936 24 113.588 23.896 113.276 23.688C112.972 23.472 112.74 23.196 112.58 22.86L112.868 22.92C112.668 23.312 112.328 23.592 111.848 23.76C111.376 23.92 110.656 24 109.688 24H109.592V22.452ZM109.652 25.068L110.588 25.992L109.652 26.94L108.716 25.992L109.652 25.068ZM111.764 25.068L112.7 25.992L111.764 26.94L110.828 25.992L111.764 25.068ZM119.128 22.452L119.212 23.22L119.128 24H119.068C118.564 24 118.136 23.872 117.784 23.616C117.44 23.352 117.2 22.96 117.064 22.44L116.86 21.54C116.716 20.86 116.616 20.4 116.56 20.16L117.652 19.8C117.788 20.432 117.936 21.052 118.096 21.66C118.176 21.932 118.292 22.132 118.444 22.26C118.604 22.388 118.812 22.452 119.068 22.452H119.128ZM117.988 21.792C117.876 22.568 117.536 23.132 116.968 23.484C116.408 23.828 115.536 24 114.352 24H114.268V22.452H114.34C115.172 22.452 115.804 22.384 116.236 22.248C116.668 22.104 116.92 21.884 116.992 21.588L117.988 21.792ZM115.6 17.052L116.536 17.976L115.6 18.924L114.664 17.976L115.6 17.052ZM117.7 17.052L118.636 17.976L117.7 18.924L116.764 17.976L117.7 17.052ZM125.687 22.452H125.723C125.995 22.452 126.243 22.38 126.467 22.236C126.699 22.092 126.823 21.924 126.839 21.732L127.787 21.852C127.755 22.244 127.639 22.604 127.439 22.932C127.247 23.26 126.999 23.52 126.695 23.712C126.399 23.904 126.075 24 125.723 24H125.687V22.452ZM128.879 22.452L128.951 23.22L128.867 24H128.807C128.335 24 127.923 23.86 127.571 23.58C127.227 23.292 126.967 22.88 126.791 22.344C126.703 22.064 126.559 21.388 126.359 20.316L127.475 20.016C127.571 20.536 127.647 20.936 127.703 21.216C127.759 21.488 127.815 21.696 127.871 21.84C127.935 22.04 128.043 22.192 128.195 22.296C128.347 22.4 128.551 22.452 128.807 22.452H128.879ZM122.459 24V22.452H122.507C122.931 22.452 123.271 22.212 123.527 21.732C123.687 21.42 123.823 20.936 123.935 20.28L125.062 20.328C124.967 20.808 124.919 21.196 124.919 21.492C124.919 22.132 125.183 22.452 125.711 22.452H125.747L125.819 23.22L125.747 24H125.711C125.271 24 124.907 23.876 124.619 23.628C124.331 23.38 124.135 23.032 124.031 22.584L124.307 22.572C124.091 23.012 123.827 23.36 123.515 23.616C123.211 23.872 122.871 24 122.495 24H122.459ZM119.038 24L118.954 23.22L119.038 22.452H119.087C119.351 22.452 119.606 22.392 119.854 22.272C120.103 22.152 120.291 22.004 120.419 21.828C120.587 21.62 120.715 21.392 120.803 21.144C120.899 20.896 120.979 20.636 121.043 20.364L122.171 20.484C122.171 20.492 122.151 20.584 122.111 20.76C121.991 21.224 121.931 21.568 121.931 21.792C121.931 22.016 121.975 22.184 122.062 22.296C122.151 22.4 122.291 22.452 122.483 22.452H122.507L122.59 23.22L122.507 24H122.459C122.107 24 121.803 23.904 121.547 23.712C121.299 23.512 121.135 23.248 121.055 22.92C120.799 23.272 120.503 23.54 120.167 23.724C119.831 23.908 119.467 24 119.075 24H119.038ZM124.643 15.948L125.447 16.764L125.183 17.028L124.643 17.568C124.379 17.296 124.111 17.028 123.839 16.764L124.643 15.948ZM124.871 18.144C125.271 17.744 125.471 17.544 125.471 17.544L125.783 17.232C126.079 17.544 126.383 17.848 126.695 18.144L126.383 18.456C126.383 18.456 126.183 18.656 125.783 19.056L124.871 18.144ZM122.615 18.144C123.015 17.744 123.215 17.544 123.215 17.544L123.527 17.232C123.823 17.544 124.127 17.848 124.439 18.144L124.127 18.456C124.127 18.456 123.927 18.656 123.527 19.056L122.615 18.144ZM128.729 22.452H129.269C130.085 22.452 130.661 22.38 130.997 22.236C131.333 22.084 131.501 21.852 131.501 21.54C131.493 21.34 131.405 20.996 131.237 20.508C131.077 20.012 130.949 19.66 130.853 19.452L131.981 18.84C132.141 19.2 132.301 19.648 132.461 20.184C132.621 20.72 132.701 21.192 132.701 21.6C132.693 22.384 132.421 22.98 131.885 23.388C131.349 23.796 130.553 24 129.497 24H128.729V22.452ZM130.253 25.716C130.653 25.316 130.853 25.116 130.853 25.116L131.165 24.804C131.461 25.116 131.765 25.42 132.077 25.716L131.765 26.028C131.765 26.028 131.565 26.228 131.165 26.628L130.253 25.716ZM127.997 25.716C128.397 25.316 128.597 25.116 128.597 25.116L128.909 24.804C129.205 25.116 129.509 25.42 129.821 25.716L129.509 26.028C129.509 26.028 129.309 26.228 128.909 26.628L127.997 25.716ZM130.025 26.28L130.829 27.096L130.565 27.36L130.025 27.9C129.761 27.628 129.493 27.36 129.221 27.096L130.025 26.28Z" fill="#EDFAF9"/>
<rect x="146" y="6" width="30" height="30" rx="6" fill="#4FD1C5"/>
<path fill-rule="evenodd" clip-rule="evenodd" d="M163.971 22.3851C163.626 22.3851 163.343 22.1057 163.343 21.7601C163.343 21.4145 163.62 21.1351 163.965 21.1351H163.971C164.316 21.1351 164.596 21.4145 164.596 21.7601C164.596 22.1057 164.316 22.3851 163.971 22.3851ZM161.465 22.3851C161.12 22.3851 160.837 22.1057 160.837 21.7601C160.837 21.4145 161.115 21.1351 161.46 21.1351H161.465C161.81 21.1351 162.09 21.4145 162.09 21.7601C162.09 22.1057 161.81 22.3851 161.465 22.3851ZM158.96 22.3851C158.615 22.3851 158.332 22.1057 158.332 21.7601C158.332 21.4145 158.609 21.1351 158.954 21.1351H158.96C159.305 21.1351 159.585 21.4145 159.585 21.7601C159.585 22.1057 159.305 22.3851 158.96 22.3851ZM166.144 16.8601C164.905 15.622 163.257 14.9395 161.504 14.9395C159.75 14.9395 158.102 15.622 156.864 16.8601C154.925 18.7995 154.396 21.7757 155.537 24.2345C155.557 24.3357 155.502 24.7476 155.462 25.0488C155.31 26.1776 155.233 27.0063 155.616 27.3901C155.999 27.7732 156.827 27.6957 157.955 27.5438C158.257 27.5038 158.674 27.4501 158.739 27.457C159.617 27.8638 160.557 28.0607 161.489 28.0607C163.2 28.0607 164.889 27.397 166.144 26.142C168.702 23.5826 168.702 19.4188 166.144 16.8601Z" fill="#EDFAF9"/>
</g>
<defs>
<filter id="filter0_d_4753_441" x="0.5" y="0" width="181" height="49" filterUnits="userSpaceOnUse" color-interpolation-filters="sRGB">
<feFlood flood-opacity="0" result="BackgroundImageFix"/>
<feColorMatrix in="SourceAlpha" type="matrix" values="0 0 0 0 0 0 0 0 0 0 0 0 0 0 0 0 0 0 127 0" result="hardAlpha"/>
<feOffset dy="3.5"/>
<feGaussianBlur stdDeviation="2.75"/>
<feComposite in2="hardAlpha" operator="out"/>
<feColorMatrix type="matrix" values="0 0 0 0 0 0 0 0 0 0 0 0 0 0 0 0 0 0 0.02 0"/>
<feBlend mode="normal" in2="BackgroundImageFix" result="effect1_dropShadow_4753_441"/>
<feBlend mode="normal" in="SourceGraphic" in2="effect1_dropShadow_4753_441" result="shape"/>
</filter>
</defs>
</svg>
