<svg width="182" height="49" viewBox="0 0 182 49" fill="none" xmlns="http://www.w3.org/2000/svg">
<g filter="url(#filter0_d_4753_423)">
<rect x="6" y="2" width="170" height="38" rx="6" fill="#506382" shape-rendering="crispEdges"/>
<path d="M63.2443 17.496L64.8883 21.384C65.0163 21.704 65.1643 21.924 65.3323 22.044C65.5003 22.156 65.7403 22.212 66.0523 22.212H66.1963L66.2923 23.112L66.1963 24H66.0523C65.5083 24 65.0523 23.848 64.6843 23.544C64.3243 23.24 64.0043 22.76 63.7243 22.104L62.0083 18.168L63.2443 17.496ZM60.0883 21.84C60.3443 21.976 60.6243 22.1 60.9283 22.212C61.2323 22.316 61.5923 22.368 62.0083 22.368C62.5283 22.368 62.9483 22.292 63.2683 22.14C63.5883 21.98 63.8363 21.812 64.0123 21.636L64.8163 22.68C64.6323 22.912 64.4523 23.116 64.2763 23.292C64.1083 23.46 63.8443 23.632 63.4843 23.808C63.1243 23.976 62.6923 24.06 62.1883 24.06C61.2123 24.06 60.2963 23.74 59.4403 23.1L60.0883 21.84ZM66.0767 22.212H66.6527C67.4447 22.212 68.0047 22.144 68.3327 22.008C68.6607 21.872 68.8247 21.664 68.8247 21.384C68.8167 21.208 68.7247 20.872 68.5487 20.376C68.3727 19.872 68.2447 19.536 68.1647 19.368L69.4367 18.672C69.5967 19.008 69.7567 19.456 69.9167 20.016C70.0767 20.568 70.1567 21.052 70.1567 21.468C70.1487 22.284 69.8727 22.912 69.3287 23.352C68.7847 23.784 67.9807 24 66.9167 24H66.0767V22.212ZM66.2087 25.02L67.2047 26.028C66.9887 26.252 66.7687 26.472 66.5447 26.688L66.2087 27.024L65.7167 26.52L65.2127 26.028L66.2087 25.02ZM68.3087 25.02L69.3047 26.028C69.0887 26.252 68.8687 26.472 68.6447 26.688L68.3087 27.024L67.8167 26.52L67.3127 26.028L68.3087 25.02ZM74.7404 17.496L76.3844 21.384C76.5124 21.704 76.6604 21.924 76.8284 22.044C76.9964 22.156 77.2364 22.212 77.5484 22.212H77.6924L77.7884 23.112L77.6924 24H77.5484C77.0044 24 76.5484 23.848 76.1804 23.544C75.8204 23.24 75.5004 22.76 75.2204 22.104L73.5044 18.168L74.7404 17.496ZM71.5844 21.84C71.8404 21.976 72.1204 22.1 72.4244 22.212C72.7284 22.316 73.0884 22.368 73.5044 22.368C74.0244 22.368 74.4444 22.292 74.7644 22.14C75.0844 21.98 75.3324 21.812 75.5084 21.636L76.3124 22.68C76.1284 22.912 75.9484 23.116 75.7724 23.292C75.6044 23.46 75.3404 23.632 74.9804 23.808C74.6204 23.976 74.1884 24.06 73.6844 24.06C72.7084 24.06 71.7924 23.74 70.9364 23.1L71.5844 21.84ZM77.5608 22.212H78.4608C79.4048 22.212 80.2888 22.108 81.1128 21.9C81.9448 21.692 82.8288 21.34 83.7648 20.844C84.4288 20.5 84.9128 20.28 85.2168 20.184L85.2648 21.444C84.8408 21.396 84.4328 21.308 84.0408 21.18C83.6488 21.052 83.1888 20.852 82.6608 20.58C81.9568 20.22 81.3448 20.04 80.8248 20.04C80.5208 20.04 80.2488 20.124 80.0088 20.292C79.7768 20.452 79.5968 20.636 79.4688 20.844L78.4608 20.112C79.0688 18.92 79.8728 18.324 80.8728 18.324C81.2088 18.324 81.5328 18.38 81.8448 18.492C82.1568 18.604 82.6128 18.812 83.2128 19.116C83.6768 19.356 84.0688 19.54 84.3888 19.668C84.7168 19.796 85.0768 19.9 85.4688 19.98L85.5288 21.588C85.3128 21.652 84.8888 21.856 84.2568 22.2C84.2088 22.232 84.1648 22.26 84.1248 22.284C84.0848 22.3 84.0488 22.316 84.0168 22.332C83.2248 22.748 82.5368 23.072 81.9528 23.304C81.3688 23.536 80.7728 23.712 80.1648 23.832C79.5568 23.944 78.8688 24 78.1008 24H77.5608V22.212ZM80.5128 26.004L81.6288 24.9L82.7328 26.004L82.3608 26.376C82.1208 26.624 81.8768 26.868 81.6288 27.108L80.5128 26.004ZM88.9741 25.956C90.3421 25.66 91.3341 25.304 91.9501 24.888C92.5661 24.472 92.8741 23.936 92.8741 23.28C92.8741 22.808 92.8061 22.348 92.6701 21.9C92.5421 21.444 92.3621 21.072 92.1301 20.784C91.9061 20.496 91.6541 20.352 91.3741 20.352C91.2141 20.352 91.0621 20.412 90.9181 20.532C90.7821 20.644 90.6741 20.788 90.5941 20.964C90.5141 21.14 90.4741 21.308 90.4741 21.468C90.4741 21.604 90.5021 21.712 90.5581 21.792C90.6861 21.968 90.9781 22.084 91.4341 22.14C91.8981 22.188 92.5341 22.212 93.3421 22.212H94.5301L94.6261 23.112L94.5301 24L93.0061 24.012C92.0381 24.012 91.2621 23.932 90.6781 23.772C90.0941 23.612 89.6861 23.288 89.4541 22.8C89.3101 22.488 89.2381 22.144 89.2381 21.768C89.2381 21.296 89.3381 20.828 89.5381 20.364C89.7381 19.892 90.0141 19.508 90.3661 19.212C90.7181 18.908 91.1021 18.756 91.5181 18.756C91.9981 18.756 92.4341 18.964 92.8261 19.38C93.2181 19.796 93.5261 20.34 93.7501 21.012C93.9741 21.684 94.0861 22.384 94.0861 23.112C94.0861 24.232 93.6821 25.176 92.8741 25.944C92.0661 26.712 90.9501 27.232 89.5261 27.504L88.9741 25.956ZM104.986 22.212L105.082 23.112L104.986 24H104.926C103.854 24 103.082 23.972 102.61 23.916C102.146 23.86 101.774 23.72 101.493 23.496L102.442 22.392C102.618 22.376 102.758 22.36 102.862 22.344C103.726 22.256 104.418 22.212 104.938 22.212H104.986ZM94.3655 22.212H94.5335C94.9095 22.212 95.2135 22.132 95.4455 21.972C95.6775 21.804 95.8615 21.548 95.9975 21.204C96.1335 20.852 96.2415 20.38 96.3215 19.788L97.5695 20.052C97.5215 20.364 97.4975 20.64 97.4975 20.88C97.4975 21.464 97.6535 21.88 97.9655 22.128C98.2855 22.376 98.8335 22.5 99.6095 22.5C100.306 22.5 100.93 22.424 101.482 22.272C102.042 22.112 102.474 21.912 102.778 21.672C103.082 21.432 103.234 21.192 103.234 20.952C103.234 20.76 103.142 20.6 102.958 20.472C102.782 20.336 102.534 20.268 102.214 20.268C101.574 20.268 100.918 20.544 100.246 21.096C99.5735 21.648 98.9695 22.42 98.4335 23.412L97.4735 22.68C98.0895 21.408 98.8055 20.408 99.6215 19.68C100.438 18.952 101.258 18.588 102.082 18.588C102.538 18.588 102.946 18.688 103.306 18.888C103.674 19.08 103.962 19.352 104.17 19.704C104.378 20.048 104.482 20.44 104.482 20.88C104.482 21.56 104.278 22.156 103.87 22.668C103.462 23.18 102.894 23.572 102.166 23.844C101.438 24.116 100.61 24.252 99.6815 24.252C98.2095 24.252 97.2255 23.78 96.7295 22.836C96.4895 23.22 96.1935 23.512 95.8415 23.712C95.4895 23.904 95.0535 24 94.5335 24H94.3655V22.212ZM100.486 16.572L101.602 15.468L102.706 16.572L102.334 16.944C102.094 17.192 101.85 17.436 101.602 17.676L100.486 16.572ZM104.877 22.212H105.022C106.334 22.212 107.442 22.164 108.346 22.068C109.25 21.964 110.018 21.8 110.65 21.576L110.986 23.16C109.594 23.72 107.606 24 105.022 24H104.877V22.212ZM108.73 23.592C108.226 23.592 107.742 23.484 107.278 23.268C106.814 23.052 106.438 22.744 106.15 22.344C105.87 21.936 105.729 21.46 105.729 20.916C105.729 20.444 105.85 19.996 106.09 19.572C106.33 19.148 106.654 18.808 107.062 18.552C107.478 18.296 107.926 18.168 108.406 18.168C108.798 18.168 109.182 18.252 109.558 18.42C109.934 18.588 110.282 18.812 110.602 19.092L110.026 20.292C109.514 20.068 109.026 19.956 108.562 19.956C108.434 19.956 108.338 19.96 108.274 19.968C107.914 20 107.61 20.116 107.362 20.316C107.114 20.508 106.99 20.716 106.99 20.94C106.99 21.132 107.074 21.316 107.242 21.492C107.418 21.668 107.646 21.804 107.926 21.9C108.214 21.996 108.522 22.032 108.85 22.008L108.97 23.58L108.73 23.592ZM119.155 24.144C119.139 23.744 119.131 23.448 119.131 23.256C119.131 23.056 119.139 22.756 119.155 22.356C120.203 22.356 121.015 22.292 121.591 22.164C122.175 22.028 122.619 21.812 122.923 21.516C123.227 21.22 123.483 20.788 123.691 20.22L124.939 20.364C124.787 20.812 124.711 21.176 124.711 21.456C124.711 21.72 124.775 21.912 124.903 22.032C125.039 22.152 125.239 22.212 125.503 22.212L125.599 23.1L125.503 24C125.175 24 124.871 23.928 124.591 23.784C124.311 23.632 124.087 23.424 123.919 23.16C123.759 22.896 123.679 22.596 123.679 22.26L123.919 22.308C123.423 22.996 122.799 23.476 122.047 23.748C121.295 24.012 120.331 24.144 119.155 24.144ZM116.167 19.728C115.959 20.376 115.855 20.864 115.855 21.192C115.855 21.408 115.983 21.604 116.239 21.78C116.503 21.956 116.887 22.096 117.391 22.2C117.903 22.304 118.523 22.356 119.251 22.356C119.267 22.556 119.275 22.852 119.275 23.244C119.275 23.644 119.267 23.944 119.251 24.144C117.819 24.152 116.691 23.936 115.867 23.496C115.051 23.056 114.607 22.44 114.535 21.648C114.527 21.584 114.523 21.488 114.523 21.36C114.523 21.016 114.571 20.644 114.667 20.244C114.763 19.844 114.879 19.488 115.015 19.176L116.167 19.728ZM118.555 18.048L119.551 19.056C119.335 19.28 119.115 19.5 118.891 19.716L118.555 20.052L118.063 19.548L117.559 19.056L118.555 18.048ZM120.655 18.048L121.651 19.056C121.435 19.28 121.215 19.5 120.991 19.716L120.655 20.052L120.163 19.548L119.659 19.056L120.655 18.048ZM129.549 22.212L129.645 23.112L129.549 24H129.489C128.969 24 128.533 23.864 128.181 23.592C127.829 23.32 127.581 22.908 127.437 22.356L127.209 21.312L126.933 20.052L128.133 19.644C128.309 20.38 128.457 20.98 128.577 21.444C128.657 21.716 128.769 21.912 128.913 22.032C129.057 22.152 129.249 22.212 129.489 22.212H129.549ZM128.481 21.684C128.369 22.484 128.065 23.072 127.569 23.448C127.081 23.816 126.381 24 125.469 24H125.385V22.212H125.457C126.049 22.212 126.501 22.148 126.813 22.02C127.125 21.884 127.297 21.696 127.329 21.456L128.481 21.684ZM125.037 26.028L126.153 24.924L127.257 26.028L126.885 26.4C126.645 26.648 126.401 26.892 126.153 27.132L125.037 26.028ZM129.428 22.212H130.004C130.796 22.212 131.356 22.144 131.684 22.008C132.012 21.872 132.176 21.664 132.176 21.384C132.168 21.208 132.076 20.872 131.9 20.376C131.724 19.872 131.596 19.536 131.516 19.368L132.788 18.672C132.948 19.008 133.108 19.456 133.268 20.016C133.428 20.568 133.508 21.052 133.508 21.468C133.5 22.284 133.224 22.912 132.68 23.352C132.136 23.784 131.332 24 130.268 24H129.428V22.212ZM131.66 14.952L132.512 15.792L131.66 16.632L131.384 16.356C131.192 16.172 131.004 15.984 130.82 15.792L131.66 14.952ZM132.788 16.26C133.116 16.572 133.436 16.892 133.748 17.22L132.788 18.18C132.476 17.852 132.156 17.532 131.828 17.22L132.788 16.26ZM130.532 16.26C130.86 16.572 131.18 16.892 131.492 17.22L130.532 18.18C130.22 17.852 129.9 17.532 129.572 17.22L130.532 16.26Z" fill="#EDFAF9"/>
<rect x="146" y="6" width="30" height="30" rx="6" fill="#4FD1C5"/>
<path fill-rule="evenodd" clip-rule="evenodd" d="M165.1 22.6575C165.1 22.9163 164.89 23.1263 164.631 23.1263C164.373 23.1263 164.163 22.9163 164.163 22.6575V21.9688H163.332V22.6575C163.332 22.9163 163.122 23.1263 162.864 23.1263C162.605 23.1263 162.395 22.9163 162.395 22.6575V21.9688H161.073C160.87 22.6363 160.256 23.1263 159.523 23.1263C158.627 23.1263 157.898 22.3969 157.898 21.5C157.898 20.6038 158.627 19.8744 159.523 19.8744C160.257 19.875 160.87 20.365 161.073 21.0312H164.631C164.89 21.0312 165.1 21.2413 165.1 21.5V22.6575ZM161.5 15.4062C157.001 15.4062 155.406 17.0013 155.406 21.5C155.406 25.9994 157.001 27.5938 161.5 27.5938C165.999 27.5938 167.594 25.9994 167.594 21.5C167.594 17.0013 165.999 15.4062 161.5 15.4062Z" fill="#EDFAF9"/>
<path fill-rule="evenodd" clip-rule="evenodd" d="M159.524 20.8118C159.144 20.8118 158.834 21.1205 158.834 21.5005C158.834 21.8799 159.144 22.1886 159.523 22.1886C159.903 22.1886 160.213 21.8799 160.213 21.5005C160.213 21.1211 159.904 20.8124 159.524 20.8118Z" fill="#EDFAF9"/>
</g>
<defs>
<filter id="filter0_d_4753_423" x="0.5" y="0" width="181" height="49" filterUnits="userSpaceOnUse" color-interpolation-filters="sRGB">
<feFlood flood-opacity="0" result="BackgroundImageFix"/>
<feColorMatrix in="SourceAlpha" type="matrix" values="0 0 0 0 0 0 0 0 0 0 0 0 0 0 0 0 0 0 127 0" result="hardAlpha"/>
<feOffset dy="3.5"/>
<feGaussianBlur stdDeviation="2.75"/>
<feComposite in2="hardAlpha" operator="out"/>
<feColorMatrix type="matrix" values="0 0 0 0 0 0 0 0 0 0 0 0 0 0 0 0 0 0 0.02 0"/>
<feBlend mode="normal" in2="BackgroundImageFix" result="effect1_dropShadow_4753_423"/>
<feBlend mode="normal" in="SourceGraphic" in2="effect1_dropShadow_4753_423" result="shape"/>
</filter>
</defs>
</svg>
