<svg width="182" height="49" viewBox="0 0 182 49" fill="none" xmlns="http://www.w3.org/2000/svg">
<g filter="url(#filter0_d_4753_417)">
<rect x="6" y="2" width="170" height="38" rx="6" fill="#506382" shape-rendering="crispEdges"/>
<path d="M41.468 22.608C41.484 22.152 41.632 21.78 41.912 21.492C42.2 21.196 42.556 21.048 42.98 21.048C43.044 21.048 43.14 21.056 43.268 21.072C43.58 20.376 43.944 19.832 44.36 19.44C44.784 19.048 45.224 18.852 45.68 18.852C46.112 18.852 46.492 18.992 46.82 19.272C47.148 19.544 47.396 19.9 47.564 20.34C47.74 20.772 47.828 21.228 47.828 21.708C47.828 22.18 47.74 22.612 47.564 23.004C47.396 23.396 47.144 23.692 46.808 23.892C46.624 24.004 46.408 24.06 46.16 24.06C45.848 24.06 45.444 23.968 44.948 23.784C44.452 23.592 43.824 23.288 43.064 22.872C43.048 22.864 43.028 22.86 43.004 22.86C42.948 22.86 42.916 22.892 42.908 22.956C42.892 23.932 42.996 25.592 43.22 27.936L43.256 28.368L41.768 28.704C41.56 26.488 41.456 24.72 41.456 23.4C41.456 23.032 41.46 22.768 41.468 22.608ZM44.48 21.672C45.296 22.176 45.872 22.428 46.208 22.428C46.28 22.428 46.332 22.416 46.364 22.392C46.444 22.336 46.504 22.256 46.544 22.152C46.592 22.04 46.616 21.912 46.616 21.768C46.616 21.448 46.528 21.152 46.352 20.88C46.176 20.6 45.948 20.46 45.668 20.46C45.316 20.46 44.92 20.864 44.48 21.672ZM49.0102 23.928C49.0902 23.4 49.1302 22.584 49.1302 21.48C49.1302 20.376 49.0942 19.22 49.0222 18.012C48.9582 16.796 48.8822 15.944 48.7942 15.456L50.2942 15.108C50.3662 15.572 50.4302 16.384 50.4862 17.544C50.5422 18.704 50.5702 19.844 50.5702 20.964C50.5702 22.348 50.5222 23.388 50.4262 24.084L49.0102 23.928ZM51.603 25.956C52.971 25.66 53.963 25.304 54.579 24.888C55.195 24.472 55.503 23.936 55.503 23.28C55.495 22.808 55.427 22.348 55.299 21.9C55.171 21.444 54.991 21.072 54.759 20.784C54.535 20.496 54.283 20.352 54.003 20.352C53.843 20.352 53.691 20.412 53.547 20.532C53.411 20.652 53.299 20.8 53.211 20.976C53.131 21.152 53.091 21.316 53.091 21.468C53.091 21.596 53.123 21.704 53.187 21.792C53.307 21.952 53.527 22.076 53.847 22.164C54.175 22.244 54.543 22.284 54.951 22.284C55.255 22.284 55.555 22.26 55.851 22.212V23.88C55.459 23.976 55.055 24.024 54.639 24.024C54.055 24.024 53.531 23.924 53.067 23.724C52.603 23.516 52.275 23.208 52.083 22.8C51.939 22.488 51.867 22.144 51.867 21.768C51.867 21.296 51.967 20.828 52.167 20.364C52.367 19.892 52.643 19.508 52.995 19.212C53.347 18.908 53.731 18.756 54.147 18.756C54.627 18.756 55.063 18.964 55.455 19.38C55.847 19.796 56.155 20.34 56.379 21.012C56.603 21.684 56.715 22.384 56.715 23.112C56.715 24.232 56.311 25.176 55.503 25.944C54.695 26.712 53.579 27.232 52.155 27.504L51.603 25.956ZM62.3746 20.76C62.1586 21.248 61.9946 21.672 61.8826 22.032C61.7786 22.384 61.7266 22.744 61.7266 23.112C61.7266 23.776 61.9306 24.272 62.3386 24.6C62.7546 24.928 63.3586 25.092 64.1506 25.092C64.7986 25.092 65.3786 24.976 65.8906 24.744C66.4026 24.52 66.7706 24.236 66.9946 23.892C67.0026 23.868 66.7506 23.792 66.2386 23.664L65.6026 23.484C64.9706 23.3 64.5226 23.08 64.2586 22.824C63.9946 22.568 63.8626 22.208 63.8626 21.744C63.8626 21.096 64.0266 20.476 64.3546 19.884C64.6826 19.292 65.1146 18.812 65.6506 18.444C66.1866 18.076 66.7546 17.892 67.3546 17.892C67.5946 17.892 67.8386 17.928 68.0866 18C68.3346 18.064 68.5066 18.144 68.6026 18.24L68.0986 19.788C68.0186 19.756 67.9026 19.728 67.7506 19.704C67.5986 19.68 67.4626 19.668 67.3426 19.668C67.0146 19.668 66.6986 19.74 66.3946 19.884C66.0986 20.02 65.8466 20.204 65.6386 20.436C65.4306 20.66 65.2906 20.904 65.2186 21.168C65.2106 21.2 65.2066 21.24 65.2066 21.288C65.2066 21.424 65.2986 21.544 65.4826 21.648C65.6746 21.744 66.0306 21.852 66.5506 21.972C67.2786 22.14 67.7706 22.352 68.0266 22.608C68.2906 22.856 68.4226 23.148 68.4226 23.484C68.4226 24.068 68.2346 24.62 67.8586 25.14C67.4826 25.66 66.9666 26.076 66.3106 26.388C65.6626 26.708 64.9426 26.868 64.1506 26.868C63.3906 26.868 62.7186 26.72 62.1346 26.424C61.5506 26.128 61.0986 25.688 60.7786 25.104C60.4666 24.528 60.3386 23.836 60.3946 23.028C60.4426 22.26 60.7146 21.328 61.2106 20.232L62.3746 20.76ZM71.1533 15.12C71.2333 15.704 71.2973 16.496 71.3453 17.496C71.3933 18.488 71.4173 19.408 71.4173 20.256V20.712C71.4093 21.12 71.4293 21.428 71.4773 21.636C71.5253 21.844 71.6213 21.992 71.7653 22.08C71.9173 22.168 72.1493 22.212 72.4613 22.212H72.5213L72.6173 23.112L72.5213 24H72.4613C71.5813 24 70.9453 23.748 70.5533 23.244C70.1693 22.74 69.9773 21.972 69.9773 20.94C69.9693 19.956 69.9373 18.96 69.8813 17.952C69.8333 16.936 69.7613 16.1 69.6653 15.444L71.1533 15.12ZM72.4168 22.212H72.6088C73.8888 22.212 74.8328 22.12 75.4408 21.936C76.0568 21.752 76.3968 21.456 76.4608 21.048L76.4728 20.928C76.4728 20.68 76.3848 20.452 76.2088 20.244C76.0408 20.036 75.8328 19.908 75.5848 19.86C75.5608 19.852 75.5208 19.848 75.4648 19.848C75.2088 19.848 74.9688 19.952 74.7448 20.16C74.5288 20.368 74.4208 20.604 74.4208 20.868C74.4208 21.14 74.5968 21.396 74.9488 21.636C75.3088 21.876 75.7488 22.068 76.2688 22.212C76.7888 22.348 77.2728 22.416 77.7208 22.416C78.0648 22.416 78.3368 22.368 78.5368 22.272C78.7448 22.176 78.8488 22.032 78.8488 21.84C78.8488 21.08 77.0248 20.2 73.3768 19.2L74.0368 17.544C75.6128 18.024 76.8448 18.484 77.7328 18.924C78.6208 19.356 79.2448 19.784 79.6048 20.208C79.9648 20.632 80.1448 21.092 80.1448 21.588C80.1448 21.892 80.0768 22.268 79.9408 22.716C79.8128 23.132 79.5328 23.444 79.1008 23.652C78.6688 23.86 78.1528 23.964 77.5528 23.964C76.8808 23.964 76.2008 23.844 75.5128 23.604C74.8248 23.356 74.2528 23.016 73.7968 22.584C73.3488 22.144 73.1248 21.652 73.1248 21.108C73.1248 21.02 73.1408 20.888 73.1728 20.712C73.2768 20.208 73.4528 19.756 73.7008 19.356C73.9568 18.956 74.2568 18.652 74.6008 18.444C74.9528 18.236 75.3168 18.152 75.6928 18.192C76.0448 18.224 76.3648 18.368 76.6528 18.624C76.9488 18.88 77.1808 19.204 77.3488 19.596C77.5168 19.988 77.6008 20.392 77.6008 20.808C77.6008 20.952 77.5888 21.096 77.5648 21.24C77.4608 21.936 77.2208 22.484 76.8448 22.884C76.4688 23.284 75.9368 23.572 75.2488 23.748C74.5688 23.916 73.6888 24 72.6088 24H72.4168V22.212ZM88.3347 24.144C88.3187 23.744 88.3107 23.448 88.3107 23.256C88.3107 23.056 88.3187 22.756 88.3347 22.356C89.3827 22.356 90.1947 22.292 90.7707 22.164C91.3547 22.028 91.7987 21.812 92.1027 21.516C92.4067 21.22 92.6627 20.788 92.8707 20.22L94.1187 20.364C93.9667 20.812 93.8907 21.176 93.8907 21.456C93.8907 21.72 93.9547 21.912 94.0827 22.032C94.2187 22.152 94.4187 22.212 94.6827 22.212L94.7787 23.1L94.6827 24C94.3547 24 94.0507 23.928 93.7707 23.784C93.4907 23.632 93.2667 23.424 93.0987 23.16C92.9387 22.896 92.8587 22.596 92.8587 22.26L93.0987 22.308C92.6027 22.996 91.9787 23.476 91.2267 23.748C90.4747 24.012 89.5107 24.144 88.3347 24.144ZM85.3467 19.728C85.1387 20.376 85.0347 20.864 85.0347 21.192C85.0347 21.408 85.1627 21.604 85.4187 21.78C85.6827 21.956 86.0667 22.096 86.5707 22.2C87.0827 22.304 87.7027 22.356 88.4307 22.356C88.4467 22.556 88.4547 22.852 88.4547 23.244C88.4547 23.644 88.4467 23.944 88.4307 24.144C86.9987 24.152 85.8707 23.936 85.0467 23.496C84.2307 23.056 83.7867 22.44 83.7147 21.648C83.7067 21.584 83.7027 21.488 83.7027 21.36C83.7027 21.016 83.7507 20.644 83.8467 20.244C83.9427 19.844 84.0587 19.488 84.1947 19.176L85.3467 19.728ZM87.7347 18.048L88.7307 19.056C88.5147 19.28 88.2947 19.5 88.0707 19.716L87.7347 20.052L87.2427 19.548L86.7387 19.056L87.7347 18.048ZM89.8347 18.048L90.8307 19.056C90.6147 19.28 90.3947 19.5 90.1707 19.716L89.8347 20.052L89.3427 19.548L88.8387 19.056L89.8347 18.048ZM101.285 22.212C101.517 22.212 101.701 22.144 101.837 22.008C101.973 21.872 102.041 21.696 102.041 21.48C102.041 21.264 101.957 20.92 101.789 20.448C101.629 19.976 101.493 19.616 101.381 19.368L102.605 18.696C102.757 19.008 102.917 19.456 103.085 20.04C103.253 20.616 103.337 21.12 103.337 21.552C103.337 22 103.249 22.412 103.073 22.788C102.897 23.156 102.653 23.452 102.341 23.676C102.029 23.892 101.677 24 101.285 24H101.249V22.212H101.285ZM98.033 24V22.212H98.093C98.501 22.212 98.817 21.992 99.041 21.552C99.193 21.248 99.329 20.78 99.449 20.148L100.685 20.208C100.597 20.736 100.553 21.112 100.553 21.336C100.553 21.92 100.797 22.212 101.285 22.212H101.309L101.405 23.112L101.309 24H101.285C100.853 24 100.489 23.884 100.193 23.652C99.897 23.42 99.689 23.092 99.569 22.668L99.869 22.644C99.381 23.548 98.777 24 98.057 24H98.033ZM94.601 24L94.505 23.112L94.601 22.212H94.661C94.909 22.212 95.153 22.16 95.393 22.056C95.633 21.944 95.813 21.808 95.933 21.648C96.101 21.456 96.229 21.24 96.317 21C96.405 20.76 96.485 20.504 96.557 20.232L97.805 20.364C97.797 20.404 97.753 20.564 97.673 20.844C97.593 21.116 97.553 21.364 97.553 21.588C97.553 22.004 97.721 22.212 98.057 22.212H98.081L98.177 23.112L98.081 24H98.021C97.677 24 97.377 23.908 97.121 23.724C96.865 23.54 96.685 23.296 96.581 22.992C96.325 23.32 96.029 23.572 95.693 23.748C95.365 23.916 95.013 24 94.637 24H94.601ZM104.545 23.928C104.625 23.4 104.665 22.584 104.665 21.48C104.665 20.376 104.629 19.22 104.557 18.012C104.493 16.796 104.417 15.944 104.329 15.456L105.829 15.108C105.901 15.572 105.965 16.384 106.021 17.544C106.077 18.704 106.105 19.844 106.105 20.964C106.105 22.348 106.057 23.388 105.961 24.084L104.545 23.928ZM107.138 25.956C108.506 25.66 109.498 25.304 110.114 24.888C110.73 24.472 111.038 23.936 111.038 23.28C111.038 22.808 110.97 22.348 110.834 21.9C110.706 21.444 110.526 21.072 110.294 20.784C110.07 20.496 109.818 20.352 109.538 20.352C109.378 20.352 109.226 20.412 109.082 20.532C108.946 20.644 108.838 20.788 108.758 20.964C108.678 21.14 108.638 21.308 108.638 21.468C108.638 21.604 108.666 21.712 108.722 21.792C108.85 21.968 109.142 22.084 109.598 22.14C110.062 22.188 110.698 22.212 111.506 22.212H112.694L112.79 23.112L112.694 24L111.17 24.012C110.202 24.012 109.426 23.932 108.842 23.772C108.258 23.612 107.85 23.288 107.618 22.8C107.474 22.488 107.402 22.144 107.402 21.768C107.402 21.296 107.502 20.828 107.702 20.364C107.902 19.892 108.178 19.508 108.53 19.212C108.882 18.908 109.266 18.756 109.682 18.756C110.162 18.756 110.598 18.964 110.99 19.38C111.382 19.796 111.69 20.34 111.914 21.012C112.138 21.684 112.25 22.384 112.25 23.112C112.25 24.232 111.846 25.176 111.038 25.944C110.23 26.712 109.114 27.232 107.69 27.504L107.138 25.956ZM112.53 22.212H113.43C114.374 22.212 115.258 22.108 116.082 21.9C116.914 21.692 117.798 21.34 118.734 20.844C119.398 20.5 119.882 20.28 120.186 20.184L120.234 21.444C119.81 21.396 119.402 21.308 119.01 21.18C118.618 21.052 118.158 20.852 117.63 20.58C116.926 20.22 116.314 20.04 115.794 20.04C115.49 20.04 115.218 20.124 114.978 20.292C114.746 20.452 114.566 20.636 114.438 20.844L113.43 20.112C114.038 18.92 114.842 18.324 115.842 18.324C116.178 18.324 116.502 18.38 116.814 18.492C117.126 18.604 117.582 18.812 118.182 19.116C118.646 19.356 119.038 19.54 119.358 19.668C119.686 19.796 120.046 19.9 120.438 19.98L120.498 21.588C120.282 21.652 119.858 21.856 119.226 22.2C119.178 22.232 119.134 22.26 119.094 22.284C119.054 22.3 119.018 22.316 118.986 22.332C118.194 22.748 117.506 23.072 116.922 23.304C116.338 23.536 115.742 23.712 115.134 23.832C114.526 23.944 113.838 24 113.07 24H112.53V22.212ZM114.87 16.38L115.986 15.276L117.09 16.38L116.718 16.752C116.478 17 116.234 17.244 115.986 17.484L114.87 16.38ZM119.809 25.992C120.337 25.776 120.821 25.524 121.261 25.236C121.701 24.956 122.045 24.676 122.293 24.396C122.549 24.116 122.677 23.876 122.677 23.676C122.677 23.348 122.465 22.456 122.041 21L121.981 20.76L123.325 20.232C123.517 20.784 123.669 21.376 123.781 22.008C123.893 22.632 123.949 23.188 123.949 23.676C123.949 24.46 123.641 25.184 123.025 25.848C122.409 26.52 121.581 27.072 120.541 27.504L119.809 25.992ZM125.374 21.84C125.662 21.984 125.958 22.108 126.262 22.212C126.566 22.316 126.938 22.368 127.378 22.368C127.81 22.36 128.162 22.312 128.434 22.224C128.714 22.128 128.898 22.024 128.986 21.912C128.994 21.896 128.998 21.864 128.998 21.816C128.998 21.648 128.922 21.428 128.77 21.156C128.626 20.876 128.366 20.548 127.99 20.172C127.622 19.788 127.126 19.384 126.502 18.96L127.366 17.388C128.294 18.044 129.026 18.76 129.562 19.536C130.106 20.312 130.378 21.052 130.378 21.756C130.378 22.092 130.314 22.4 130.186 22.68C129.994 23.128 129.654 23.472 129.166 23.712C128.678 23.944 128.138 24.06 127.546 24.06C126.85 24.06 126.27 23.956 125.806 23.748C125.342 23.532 124.982 23.316 124.726 23.1L125.374 21.84Z" fill="#EDFAF9"/>
<rect x="146" y="6" width="30" height="30" rx="6" fill="#4FD1C5"/>
<path fill-rule="evenodd" clip-rule="evenodd" d="M165.351 21.375C165.351 21.6338 165.141 21.8438 164.882 21.8438C164.623 21.8438 164.413 21.6338 164.413 21.375C164.413 21.1163 164.623 20.9063 164.882 20.9063C165.141 20.9063 165.351 21.1163 165.351 21.375ZM163.661 21.4125C163.661 22.0369 164.17 22.545 164.794 22.545H167.582C167.608 22.215 167.626 21.8719 167.626 21.5C167.626 21.0613 167.604 20.6594 167.567 20.2788H164.794C164.17 20.2788 163.661 20.7875 163.661 21.4125Z" fill="#EDFAF9"/>
<path fill-rule="evenodd" clip-rule="evenodd" d="M161.282 19.4006H158.745C158.486 19.4006 158.276 19.1906 158.276 18.9318C158.276 18.6731 158.486 18.4631 158.745 18.4631H161.282C161.541 18.4631 161.751 18.6731 161.751 18.9318C161.751 19.1906 161.541 19.4006 161.282 19.4006ZM164.794 23.4825C163.653 23.4825 162.724 22.5537 162.724 21.4125C162.724 20.2706 163.653 19.3412 164.794 19.3412H167.426C166.877 16.8075 165.131 15.8506 161.501 15.8506C156.978 15.8506 155.375 17.3293 155.375 21.5C155.375 25.6712 156.978 27.1493 161.501 27.1493C165.214 27.1493 166.957 26.1493 167.462 23.4825H164.794Z" fill="#EDFAF9"/>
</g>
<defs>
<filter id="filter0_d_4753_417" x="0.5" y="0" width="181" height="49" filterUnits="userSpaceOnUse" color-interpolation-filters="sRGB">
<feFlood flood-opacity="0" result="BackgroundImageFix"/>
<feColorMatrix in="SourceAlpha" type="matrix" values="0 0 0 0 0 0 0 0 0 0 0 0 0 0 0 0 0 0 127 0" result="hardAlpha"/>
<feOffset dy="3.5"/>
<feGaussianBlur stdDeviation="2.75"/>
<feComposite in2="hardAlpha" operator="out"/>
<feColorMatrix type="matrix" values="0 0 0 0 0 0 0 0 0 0 0 0 0 0 0 0 0 0 0.02 0"/>
<feBlend mode="normal" in2="BackgroundImageFix" result="effect1_dropShadow_4753_417"/>
<feBlend mode="normal" in="SourceGraphic" in2="effect1_dropShadow_4753_417" result="shape"/>
</filter>
</defs>
</svg>
