<svg width="176" height="43" viewBox="0 0 176 43" fill="none" xmlns="http://www.w3.org/2000/svg">
<path d="M54.2903 22.132C54.2823 21.956 54.2783 21.696 54.2783 21.352C54.2783 21.008 54.2823 20.752 54.2903 20.584C55.3143 20.584 56.1223 20.512 56.7143 20.368C57.3063 20.224 57.7623 19.996 58.0823 19.684C58.4103 19.372 58.6743 18.932 58.8743 18.364L60.0023 18.496C59.8583 18.952 59.7863 19.32 59.7863 19.6C59.7863 20.168 60.0783 20.452 60.6623 20.452L60.7463 21.22L60.6503 22C60.3143 22 60.0063 21.928 59.7263 21.784C59.4463 21.632 59.2263 21.42 59.0663 21.148C58.9063 20.876 58.8263 20.568 58.8263 20.224L59.0663 20.26C58.5943 20.948 57.9743 21.432 57.2063 21.712C56.4463 21.992 55.4743 22.132 54.2903 22.132ZM51.2303 17.812C50.9903 18.54 50.8863 19.08 50.9183 19.432C50.9823 19.776 51.3103 20.056 51.9023 20.272C52.4943 20.48 53.3223 20.584 54.3863 20.584C54.4023 20.752 54.4103 21.008 54.4103 21.352C54.4103 21.696 54.4023 21.956 54.3863 22.132C52.9703 22.14 51.8583 21.932 51.0503 21.508C50.2423 21.084 49.8023 20.484 49.7303 19.708C49.7223 19.644 49.7183 19.548 49.7183 19.42C49.7183 19.084 49.7623 18.728 49.8503 18.352C49.9383 17.968 50.0503 17.616 50.1863 17.296L51.2303 17.812ZM53.6423 16.36L54.5783 17.284L53.6423 18.232L52.7063 17.284L53.6423 16.36ZM55.7423 16.36L56.6783 17.284L55.7423 18.232L54.8063 17.284L55.7423 16.36ZM60.5455 20.452H61.0855C61.9015 20.452 62.4775 20.38 62.8135 20.236C63.1495 20.084 63.3175 19.852 63.3175 19.54C63.3095 19.34 63.2215 18.996 63.0535 18.508C62.8935 18.012 62.7655 17.66 62.6695 17.452L63.7975 16.84C63.9575 17.2 64.1175 17.648 64.2775 18.184C64.4375 18.72 64.5175 19.192 64.5175 19.6C64.5095 20.384 64.2375 20.98 63.7015 21.388C63.1655 21.796 62.3695 22 61.3135 22H60.5455V20.452ZM60.6775 23.08L61.6135 24.004L60.6775 24.952L59.7415 24.004L60.6775 23.08ZM62.7895 23.08L63.7255 24.004L62.7895 24.952L61.8535 24.004L62.7895 23.08ZM69.1066 22C68.5786 22 68.1546 21.812 67.8346 21.436C67.5226 21.052 67.2586 20.508 67.0426 19.804L67.9906 19.228C68.1026 19.676 68.2426 19.992 68.4106 20.176C68.5786 20.36 68.8106 20.452 69.1066 20.452H69.2026L69.2866 21.22L69.2026 22H69.1066ZM64.3906 24.172C64.9106 23.972 65.3866 23.728 65.8186 23.44C66.2506 23.152 66.5906 22.86 66.8386 22.564C67.0866 22.268 67.2106 22.004 67.2106 21.772C67.2106 21.596 67.1626 21.304 67.0666 20.896C66.9706 20.48 66.8426 19.96 66.6826 19.336C66.6186 19.112 66.5746 18.944 66.5506 18.832L67.7506 18.364C67.9346 18.924 68.0826 19.52 68.1946 20.152C68.3146 20.776 68.3746 21.316 68.3746 21.772C68.3746 22.532 68.0626 23.24 67.4386 23.896C66.8226 24.552 66.0146 25.08 65.0146 25.48L64.3906 24.172ZM69.4724 20.452H70.0124C70.8284 20.452 71.4044 20.38 71.7404 20.236C72.0764 20.084 72.2444 19.852 72.2444 19.54C72.2364 19.34 72.1484 18.996 71.9804 18.508C71.8204 18.012 71.6924 17.66 71.5964 17.452L72.7244 16.84C72.8844 17.2 73.0444 17.648 73.2044 18.184C73.3644 18.72 73.4444 19.192 73.4444 19.6C73.4364 20.384 73.1644 20.98 72.6284 21.388C72.0924 21.796 71.2964 22 70.2404 22H69.4724V20.452ZM70.0964 23.056L71.0324 23.98L70.0964 24.928L69.1604 23.98L70.0964 23.056ZM72.2084 23.056L73.1444 23.98L72.2084 24.928L71.2724 23.98L72.2084 23.056ZM69.1124 22L69.0404 21.22L69.1124 20.452H69.6044V22H69.1124ZM77.9374 15.664L79.5814 19.552C79.7254 19.896 79.8854 20.132 80.0614 20.26C80.2454 20.388 80.5014 20.452 80.8294 20.452H80.9614L81.0454 21.22L80.9614 22H80.8294C80.3014 22 79.8534 21.856 79.4854 21.568C79.1254 21.28 78.8054 20.824 78.5254 20.2L76.8214 16.252L77.9374 15.664ZM74.8414 20.032C75.1214 20.184 75.4094 20.316 75.7054 20.428C76.0094 20.532 76.3654 20.584 76.7734 20.584C77.2854 20.584 77.7094 20.504 78.0454 20.344C78.3814 20.184 78.6494 20.008 78.8494 19.816L79.5334 20.752C79.3334 20.976 79.1414 21.172 78.9574 21.34C78.7814 21.5 78.5134 21.66 78.1534 21.82C77.8014 21.98 77.3854 22.06 76.9054 22.06C76.3134 22.06 75.8054 21.968 75.3814 21.784C74.9654 21.592 74.5894 21.376 74.2534 21.136L74.8414 20.032ZM83.2423 19.54C83.7303 19.876 84.1783 20.144 84.5863 20.344C84.9943 20.536 85.2983 20.632 85.4983 20.632C85.5783 20.632 85.6343 20.62 85.6663 20.596C85.8743 20.468 85.9783 20.22 85.9783 19.852C85.9783 19.508 85.8863 19.192 85.7023 18.904C85.5183 18.616 85.2823 18.472 84.9943 18.472C84.5303 18.472 84.0023 19.128 83.4103 20.44C83.1783 20.96 82.8583 21.352 82.4503 21.616C82.0423 21.872 81.5783 22 81.0583 22H80.8423L80.8663 20.452H81.0943C81.7263 20.452 82.2463 20.076 82.6543 19.324C83.0223 18.604 83.3943 18.052 83.7703 17.668C84.1463 17.276 84.5623 17.08 85.0183 17.08C85.4343 17.08 85.7983 17.212 86.1103 17.476C86.4223 17.74 86.6623 18.08 86.8303 18.496C86.9983 18.912 87.0823 19.348 87.0823 19.804C87.0823 20.26 86.9943 20.676 86.8183 21.052C86.6503 21.428 86.4023 21.716 86.0743 21.916C85.9063 22.012 85.7063 22.06 85.4743 22.06C84.7943 22.06 83.8503 21.652 82.6423 20.836L83.2423 19.54ZM99.7221 20.452L99.8061 21.22L99.7221 22H99.5781C98.9301 22 98.4381 21.76 98.1021 21.28C97.7661 20.8 97.5861 20.144 97.5621 19.312L98.3181 19.168C98.3421 19.528 98.3901 19.796 98.4621 19.972C98.5421 20.148 98.6661 20.272 98.8341 20.344C99.0021 20.416 99.2501 20.452 99.5781 20.452H99.7221ZM98.0061 13.288C98.1341 14.36 98.2541 16.872 98.3661 20.824C98.3981 22.16 98.0901 23.204 97.4421 23.956C96.7941 24.708 95.8741 25.084 94.6821 25.084C94.0501 25.084 93.4701 24.956 92.9421 24.7C92.4221 24.444 92.0061 24.08 91.6941 23.608C91.3901 23.136 91.2381 22.584 91.2381 21.952C91.2381 21.496 91.3181 20.992 91.4781 20.44C91.6381 19.888 91.8301 19.384 92.0541 18.928L93.0981 19.42C92.8901 19.868 92.7301 20.272 92.6181 20.632C92.5061 20.992 92.4501 21.352 92.4501 21.712C92.4501 22.256 92.6541 22.696 93.0621 23.032C93.4701 23.368 94.0101 23.536 94.6821 23.536C96.3941 23.536 97.2221 22.652 97.1661 20.884C97.1181 19.356 97.0501 17.928 96.9621 16.6C96.8741 15.272 96.7861 14.268 96.6981 13.588L98.0061 13.288ZM99.6041 20.452H100.144C100.96 20.452 101.536 20.38 101.872 20.236C102.208 20.084 102.376 19.852 102.376 19.54C102.368 19.34 102.28 18.996 102.112 18.508C101.952 18.012 101.824 17.66 101.728 17.452L102.856 16.84C103.016 17.2 103.176 17.648 103.336 18.184C103.496 18.72 103.576 19.192 103.576 19.6C103.568 20.384 103.296 20.98 102.76 21.388C102.224 21.796 101.428 22 100.372 22H99.6041V20.452ZM99.7361 23.08L100.672 24.004L99.7361 24.952L98.8001 24.004L99.7361 23.08ZM101.848 23.08L102.784 24.004L101.848 24.952L100.912 24.004L101.848 23.08ZM106.026 13.288C106.106 13.856 106.17 14.716 106.218 15.868C106.266 17.012 106.286 18 106.278 18.832C106.27 19.272 106.29 19.604 106.338 19.828C106.386 20.044 106.49 20.204 106.65 20.308C106.81 20.404 107.058 20.452 107.394 20.452H107.454L107.526 21.22L107.454 22H107.394C106.522 22 105.906 21.764 105.546 21.292C105.186 20.82 105.006 20.08 105.006 19.072C105.006 18.152 104.978 17.16 104.922 16.096C104.874 15.024 104.806 14.188 104.718 13.588L106.026 13.288ZM107.326 20.452H107.494C108.774 20.452 109.726 20.352 110.35 20.152C110.974 19.952 111.33 19.592 111.418 19.072C111.418 18.648 111.354 18.22 111.226 17.788C111.106 17.356 110.934 17 110.71 16.72C110.494 16.432 110.242 16.288 109.954 16.288C109.786 16.288 109.626 16.348 109.474 16.468C109.33 16.58 109.214 16.724 109.126 16.9C109.038 17.068 108.994 17.232 108.994 17.392C108.994 17.536 109.03 17.656 109.102 17.752C109.222 17.92 109.442 18.056 109.762 18.16C110.09 18.256 110.458 18.304 110.866 18.304C111.146 18.304 111.422 18.28 111.694 18.232V19.624C111.278 19.704 110.902 19.744 110.566 19.744C110.006 19.744 109.506 19.652 109.066 19.468C108.634 19.276 108.322 18.992 108.13 18.616C107.986 18.336 107.914 18 107.914 17.608C107.914 17.176 108.006 16.752 108.19 16.336C108.382 15.92 108.642 15.58 108.97 15.316C109.306 15.052 109.67 14.92 110.062 14.92C110.542 14.92 110.97 15.12 111.346 15.52C111.722 15.912 112.006 16.42 112.198 17.044C112.398 17.668 112.478 18.308 112.438 18.964C112.398 19.932 111.966 20.68 111.142 21.208C110.318 21.736 109.102 22 107.494 22H107.326V20.452ZM108.85 13.084C109.298 12.62 109.638 12.276 109.87 12.052L110.89 13.084L110.554 13.42L109.87 14.104L108.85 13.084ZM113.314 24.124C114.65 23.836 115.626 23.476 116.242 23.044C116.858 22.612 117.166 22.056 117.166 21.376C117.158 20.896 117.09 20.428 116.962 19.972C116.842 19.508 116.666 19.128 116.434 18.832C116.202 18.536 115.938 18.388 115.642 18.388C115.474 18.388 115.314 18.456 115.162 18.592C115.018 18.72 114.902 18.884 114.814 19.084C114.726 19.284 114.682 19.472 114.682 19.648C114.682 19.776 114.714 19.892 114.778 19.996C114.898 20.164 115.114 20.292 115.426 20.38C115.746 20.468 116.106 20.512 116.506 20.512C116.866 20.512 117.19 20.484 117.478 20.428V21.88C117.062 21.984 116.654 22.036 116.254 22.036C115.694 22.036 115.19 21.94 114.742 21.748C114.294 21.556 113.978 21.264 113.794 20.872C113.658 20.592 113.59 20.264 113.59 19.888C113.59 19.432 113.686 18.98 113.878 18.532C114.07 18.076 114.33 17.704 114.658 17.416C114.994 17.12 115.358 16.972 115.75 16.972C116.23 16.972 116.662 17.18 117.046 17.596C117.43 18.012 117.726 18.548 117.934 19.204C118.15 19.86 118.258 20.532 118.258 21.22C118.258 22.3 117.862 23.212 117.07 23.956C116.278 24.708 115.182 25.216 113.782 25.48L113.314 24.124ZM123.107 22C122.579 22 122.155 21.812 121.835 21.436C121.523 21.052 121.259 20.508 121.043 19.804L121.991 19.228C122.103 19.676 122.243 19.992 122.411 20.176C122.579 20.36 122.811 20.452 123.107 20.452H123.203L123.287 21.22L123.203 22H123.107ZM118.391 24.172C118.911 23.972 119.387 23.728 119.819 23.44C120.251 23.152 120.591 22.86 120.839 22.564C121.087 22.268 121.211 22.004 121.211 21.772C121.211 21.596 121.163 21.304 121.067 20.896C120.971 20.48 120.843 19.96 120.683 19.336C120.619 19.112 120.575 18.944 120.551 18.832L121.751 18.364C121.935 18.924 122.083 19.52 122.195 20.152C122.315 20.776 122.375 21.316 122.375 21.772C122.375 22.532 122.063 23.24 121.439 23.896C120.823 24.552 120.015 25.08 119.015 25.48L118.391 24.172ZM123.52 20.452H124.06C124.876 20.452 125.452 20.38 125.788 20.236C126.124 20.084 126.292 19.852 126.292 19.54C126.284 19.34 126.196 18.996 126.028 18.508C125.868 18.012 125.74 17.66 125.644 17.452L126.772 16.84C126.932 17.2 127.092 17.648 127.252 18.184C127.412 18.72 127.492 19.192 127.492 19.6C127.484 20.384 127.212 20.98 126.676 21.388C126.14 21.796 125.344 22 124.288 22H123.52V20.452ZM126.064 23.128L126.376 22.816C126.672 23.128 126.976 23.432 127.288 23.728C127.08 23.936 126.976 24.04 126.976 24.04C126.768 24.232 126.568 24.432 126.376 24.64L125.464 23.728L126.064 23.128ZM123.82 23.128L124.12 22.816C124.416 23.128 124.72 23.432 125.032 23.728L124.72 24.04C124.72 24.04 124.52 24.24 124.12 24.64L123.208 23.728L123.82 23.128ZM125.236 24.292L126.04 25.108C125.864 25.284 125.776 25.372 125.776 25.372L125.236 25.912C124.972 25.64 124.704 25.372 124.432 25.108L125.236 24.292ZM123.112 22L123.04 21.22L123.112 20.452H123.604V22H123.112Z" fill="#A0AEC0"/>
<g filter="url(#filter0_d_4753_1727)">
<rect x="140" y="4" width="30" height="30" rx="6" fill="#4F5D74" shape-rendering="crispEdges"/>
<path fill-rule="evenodd" clip-rule="evenodd" d="M155.501 20.6441C153.055 20.6441 150.91 22.0829 150.91 23.7223C150.91 25.8316 154.366 25.8316 155.501 25.8316C156.636 25.8316 160.091 25.8316 160.091 23.7085C160.091 22.076 157.946 20.6441 155.501 20.6441Z" fill="#4FD1C5"/>
<path fill-rule="evenodd" clip-rule="evenodd" d="M155.477 19.2763H155.496C157.18 19.2763 158.55 17.9063 158.55 16.222C158.55 14.5382 157.18 13.1682 155.496 13.1682C153.812 13.1682 152.442 14.5382 152.442 16.2207C152.436 17.8995 153.797 19.2701 155.477 19.2763Z" fill="#4FD1C5"/>
</g>
<defs>
<filter id="filter0_d_4753_1727" x="134.5" y="2" width="41" height="41" filterUnits="userSpaceOnUse" color-interpolation-filters="sRGB">
<feFlood flood-opacity="0" result="BackgroundImageFix"/>
<feColorMatrix in="SourceAlpha" type="matrix" values="0 0 0 0 0 0 0 0 0 0 0 0 0 0 0 0 0 0 127 0" result="hardAlpha"/>
<feOffset dy="3.5"/>
<feGaussianBlur stdDeviation="2.75"/>
<feComposite in2="hardAlpha" operator="out"/>
<feColorMatrix type="matrix" values="0 0 0 0 0 0 0 0 0 0 0 0 0 0 0 0 0 0 0.02 0"/>
<feBlend mode="normal" in2="BackgroundImageFix" result="effect1_dropShadow_4753_1727"/>
<feBlend mode="normal" in="SourceGraphic" in2="effect1_dropShadow_4753_1727" result="shape"/>
</filter>
</defs>
</svg>
