<svg width="182" height="49" viewBox="0 0 182 49" fill="none" xmlns="http://www.w3.org/2000/svg">
<g filter="url(#filter0_d_4753_429)">
<rect x="6" y="2" width="170" height="38" rx="6" fill="#506382" shape-rendering="crispEdges"/>
<path d="M74.176 27.42C73.432 27.42 72.772 27.272 72.196 26.976C71.628 26.688 71.192 26.264 70.888 25.704C70.584 25.144 70.456 24.476 70.504 23.7C70.528 23.252 70.616 22.78 70.768 22.284C70.928 21.788 71.108 21.328 71.308 20.904L72.352 21.396C72.144 21.86 71.984 22.284 71.872 22.668C71.76 23.052 71.704 23.432 71.704 23.808C71.704 24.496 71.916 25.012 72.34 25.356C72.764 25.7 73.376 25.872 74.176 25.872C74.624 25.872 75.048 25.82 75.448 25.716C75.856 25.612 76.2 25.48 76.48 25.32C76.76 25.16 76.944 25.008 77.032 24.864C76.912 24.72 76.616 24.508 76.144 24.228C75.672 23.956 75.176 23.72 74.656 23.52L74.992 22.056C75.648 22.184 76.228 22.28 76.732 22.344C77.244 22.408 77.744 22.444 78.232 22.452H78.448L78.532 23.22L78.448 24H78.232C77.688 23.992 77.128 23.948 76.552 23.868C75.984 23.78 75.356 23.664 74.668 23.52L75.004 22.572C75.068 22.596 75.38 22.728 75.94 22.968C76.5 23.208 77.012 23.512 77.476 23.88C77.94 24.248 78.172 24.6 78.172 24.936C78.164 25.32 77.98 25.704 77.62 26.088C77.26 26.48 76.776 26.8 76.168 27.048C75.56 27.296 74.896 27.42 74.176 27.42ZM78.2837 22.452H78.6678C79.0918 22.452 79.3998 22.364 79.5918 22.188C79.7838 22.004 79.8798 21.728 79.8798 21.36C79.8798 20.872 79.8398 19.904 79.7598 18.456C79.6798 17 79.6078 16.044 79.5438 15.588L80.8638 15.288C80.9118 15.728 80.9718 16.688 81.0438 18.168C81.1158 19.64 81.1558 20.66 81.1638 21.228C81.1638 21.756 81.0598 22.232 80.8518 22.656C80.6518 23.072 80.3638 23.4 79.9878 23.64C79.6118 23.88 79.1798 24 78.6918 24H78.2837V22.452ZM83.7451 15.288C83.8251 15.856 83.8891 16.716 83.9371 17.868C83.9851 19.012 84.0051 20 83.9971 20.832C83.9891 21.272 84.0091 21.604 84.0571 21.828C84.1051 22.044 84.2091 22.204 84.3691 22.308C84.5291 22.404 84.7771 22.452 85.1131 22.452H85.1731L85.2451 23.22L85.1731 24H85.1131C84.2411 24 83.6251 23.764 83.2651 23.292C82.9051 22.82 82.7251 22.08 82.7251 21.072C82.7251 20.152 82.6971 19.16 82.6411 18.096C82.5931 17.024 82.5251 16.188 82.4371 15.588L83.7451 15.288ZM87.4572 21.54C87.9452 21.876 88.3932 22.144 88.8012 22.344C89.2092 22.536 89.5132 22.632 89.7132 22.632C89.7932 22.632 89.8492 22.62 89.8812 22.596C90.0892 22.468 90.1932 22.22 90.1932 21.852C90.1932 21.508 90.1012 21.192 89.9172 20.904C89.7332 20.616 89.4972 20.472 89.2092 20.472C88.7452 20.472 88.2172 21.128 87.6252 22.44C87.3932 22.96 87.0732 23.352 86.6652 23.616C86.2572 23.872 85.7932 24 85.2732 24H85.0572L85.0812 22.452H85.3092C85.9412 22.452 86.4612 22.076 86.8692 21.324C87.2372 20.604 87.6092 20.052 87.9852 19.668C88.3612 19.276 88.7772 19.08 89.2332 19.08C89.6492 19.08 90.0132 19.212 90.3252 19.476C90.6372 19.74 90.8772 20.08 91.0452 20.496C91.2132 20.912 91.2972 21.348 91.2972 21.804C91.2972 22.26 91.2092 22.676 91.0332 23.052C90.8652 23.428 90.6172 23.716 90.2892 23.916C90.1212 24.012 89.9212 24.06 89.6892 24.06C89.0092 24.06 88.0652 23.652 86.8572 22.836L87.4572 21.54ZM100.013 24.132C100.005 23.956 100.001 23.696 100.001 23.352C100.001 23.008 100.005 22.752 100.013 22.584C101.037 22.584 101.845 22.512 102.437 22.368C103.029 22.224 103.485 21.996 103.805 21.684C104.133 21.372 104.397 20.932 104.597 20.364L105.725 20.496C105.581 20.952 105.509 21.32 105.509 21.6C105.509 22.168 105.801 22.452 106.385 22.452L106.469 23.22L106.373 24C106.037 24 105.729 23.928 105.449 23.784C105.169 23.632 104.949 23.42 104.789 23.148C104.629 22.876 104.549 22.568 104.549 22.224L104.789 22.26C104.317 22.948 103.697 23.432 102.929 23.712C102.169 23.992 101.197 24.132 100.013 24.132ZM96.9529 19.812C96.7129 20.54 96.6089 21.08 96.6409 21.432C96.7049 21.776 97.0329 22.056 97.6249 22.272C98.2169 22.48 99.0449 22.584 100.109 22.584C100.125 22.752 100.133 23.008 100.133 23.352C100.133 23.696 100.125 23.956 100.109 24.132C98.6929 24.14 97.5809 23.932 96.7729 23.508C95.9649 23.084 95.5249 22.484 95.4529 21.708C95.4449 21.644 95.4409 21.548 95.4409 21.42C95.4409 21.084 95.4849 20.728 95.5729 20.352C95.6609 19.968 95.7729 19.616 95.9089 19.296L96.9529 19.812ZM99.3649 18.36L100.301 19.284L99.3649 20.232L98.4289 19.284L99.3649 18.36ZM101.465 18.36L102.401 19.284L101.465 20.232L100.529 19.284L101.465 18.36ZM106.268 22.452H106.808C107.624 22.452 108.2 22.38 108.536 22.236C108.872 22.084 109.04 21.852 109.04 21.54C109.032 21.34 108.944 20.996 108.776 20.508C108.616 20.012 108.488 19.66 108.392 19.452L109.52 18.84C109.68 19.2 109.84 19.648 110 20.184C110.16 20.72 110.24 21.192 110.24 21.6C110.232 22.384 109.96 22.98 109.424 23.388C108.888 23.796 108.092 24 107.036 24H106.268V22.452ZM106.4 25.08L107.336 26.004L106.4 26.952L105.464 26.004L106.4 25.08ZM108.512 25.08L109.448 26.004L108.512 26.952L107.576 26.004L108.512 25.08ZM114.829 24C114.301 24 113.877 23.812 113.557 23.436C113.245 23.052 112.981 22.508 112.765 21.804L113.713 21.228C113.825 21.676 113.965 21.992 114.133 22.176C114.301 22.36 114.533 22.452 114.829 22.452H114.925L115.009 23.22L114.925 24H114.829ZM110.113 26.172C110.633 25.972 111.109 25.728 111.541 25.44C111.973 25.152 112.313 24.86 112.561 24.564C112.809 24.268 112.933 24.004 112.933 23.772C112.933 23.596 112.885 23.304 112.789 22.896C112.693 22.48 112.565 21.96 112.405 21.336C112.341 21.112 112.297 20.944 112.273 20.832L113.473 20.364C113.657 20.924 113.805 21.52 113.917 22.152C114.037 22.776 114.097 23.316 114.097 23.772C114.097 24.532 113.785 25.24 113.161 25.896C112.545 26.552 111.737 27.08 110.737 27.48L110.113 26.172ZM115.195 22.452H115.735C116.551 22.452 117.127 22.38 117.463 22.236C117.799 22.084 117.967 21.852 117.967 21.54C117.959 21.34 117.871 20.996 117.703 20.508C117.543 20.012 117.415 19.66 117.319 19.452L118.447 18.84C118.607 19.2 118.767 19.648 118.927 20.184C119.087 20.72 119.167 21.192 119.167 21.6C119.159 22.384 118.887 22.98 118.351 23.388C117.815 23.796 117.019 24 115.963 24H115.195V22.452ZM115.819 25.056L116.755 25.98L115.819 26.928L114.883 25.98L115.819 25.056ZM117.931 25.056L118.867 25.98L117.931 26.928L116.995 25.98L117.931 25.056ZM114.835 24L114.763 23.22L114.835 22.452H115.327V24H114.835ZM123.66 17.664L125.304 21.552C125.448 21.896 125.608 22.132 125.784 22.26C125.968 22.388 126.224 22.452 126.552 22.452H126.684L126.768 23.22L126.684 24H126.552C126.024 24 125.576 23.856 125.208 23.568C124.848 23.28 124.528 22.824 124.248 22.2L122.544 18.252L123.66 17.664ZM120.564 22.032C120.844 22.184 121.132 22.316 121.428 22.428C121.732 22.532 122.088 22.584 122.496 22.584C123.008 22.584 123.432 22.504 123.768 22.344C124.104 22.184 124.372 22.008 124.572 21.816L125.256 22.752C125.056 22.976 124.864 23.172 124.68 23.34C124.504 23.5 124.236 23.66 123.876 23.82C123.524 23.98 123.108 24.06 122.628 24.06C122.036 24.06 121.528 23.968 121.104 23.784C120.688 23.592 120.312 23.376 119.976 23.136L120.564 22.032ZM128.965 21.54C129.453 21.876 129.901 22.144 130.309 22.344C130.717 22.536 131.021 22.632 131.221 22.632C131.301 22.632 131.357 22.62 131.389 22.596C131.597 22.468 131.701 22.22 131.701 21.852C131.701 21.508 131.609 21.192 131.425 20.904C131.241 20.616 131.005 20.472 130.717 20.472C130.253 20.472 129.725 21.128 129.133 22.44C128.901 22.96 128.581 23.352 128.173 23.616C127.765 23.872 127.301 24 126.781 24H126.565L126.589 22.452H126.817C127.449 22.452 127.969 22.076 128.377 21.324C128.745 20.604 129.117 20.052 129.493 19.668C129.869 19.276 130.285 19.08 130.741 19.08C131.157 19.08 131.521 19.212 131.833 19.476C132.145 19.74 132.385 20.08 132.553 20.496C132.721 20.912 132.805 21.348 132.805 21.804C132.805 22.26 132.717 22.676 132.541 23.052C132.373 23.428 132.125 23.716 131.797 23.916C131.629 24.012 131.429 24.06 131.197 24.06C130.517 24.06 129.573 23.652 128.365 22.836L128.965 21.54Z" fill="#EDFAF9"/>
<rect x="146" y="6" width="30" height="30" rx="6" fill="#4FD1C5"/>
<path fill-rule="evenodd" clip-rule="evenodd" d="M161.504 19.1366C161.248 18.6535 159.896 16.241 158.402 16.241C156.907 16.241 155.555 18.6535 155.299 19.1366C155.138 19.4416 155.254 19.8197 155.559 19.9816C155.863 20.141 156.242 20.0266 156.404 19.7216C156.773 19.0266 157.313 18.286 157.777 17.8572V24.7528C157.777 25.0985 158.056 25.3778 158.402 25.3778C158.747 25.3778 159.027 25.0985 159.027 24.7528V17.8572C159.49 18.2866 160.03 19.0266 160.399 19.7216C160.511 19.9328 160.728 20.0541 160.952 20.0541C161.05 20.0541 161.151 20.0303 161.244 19.9816C161.549 19.8197 161.665 19.4416 161.504 19.1366Z" fill="#EDFAF9"/>
<path fill-rule="evenodd" clip-rule="evenodd" d="M167.444 23.0203C167.142 22.8584 166.761 22.9747 166.599 23.279C166.232 23.9728 165.694 24.7115 165.233 25.1409V18.2472C165.233 17.9022 164.953 17.6222 164.608 17.6222C164.262 17.6222 163.983 17.9022 163.983 18.2472V25.1434C163.519 24.7147 162.979 23.9747 162.61 23.279C162.448 22.9747 162.067 22.8578 161.765 23.0203C161.46 23.1815 161.344 23.559 161.505 23.8647C161.761 24.3478 163.113 26.759 164.608 26.759C166.097 26.759 167.448 24.3478 167.704 23.8647C167.865 23.559 167.749 23.1815 167.444 23.0203Z" fill="#EDFAF9"/>
</g>
<defs>
<filter id="filter0_d_4753_429" x="0.5" y="0" width="181" height="49" filterUnits="userSpaceOnUse" color-interpolation-filters="sRGB">
<feFlood flood-opacity="0" result="BackgroundImageFix"/>
<feColorMatrix in="SourceAlpha" type="matrix" values="0 0 0 0 0 0 0 0 0 0 0 0 0 0 0 0 0 0 127 0" result="hardAlpha"/>
<feOffset dy="3.5"/>
<feGaussianBlur stdDeviation="2.75"/>
<feComposite in2="hardAlpha" operator="out"/>
<feColorMatrix type="matrix" values="0 0 0 0 0 0 0 0 0 0 0 0 0 0 0 0 0 0 0.02 0"/>
<feBlend mode="normal" in2="BackgroundImageFix" result="effect1_dropShadow_4753_429"/>
<feBlend mode="normal" in="SourceGraphic" in2="effect1_dropShadow_4753_429" result="shape"/>
</filter>
</defs>
</svg>
