<svg width="182" height="49" viewBox="0 0 182 49" fill="none" xmlns="http://www.w3.org/2000/svg">
<g filter="url(#filter0_d_4753_411)">
<rect x="6" y="2" width="170" height="38" rx="6" fill="#506382" shape-rendering="crispEdges"/>
<path d="M61.496 20.832C61.288 21.312 61.128 21.736 61.016 22.104C60.904 22.464 60.848 22.832 60.848 23.208C60.848 23.864 61.056 24.352 61.472 24.672C61.888 25 62.488 25.164 63.272 25.164C63.832 25.164 64.32 25.064 64.736 24.864C65.16 24.672 65.48 24.416 65.696 24.096C65.92 23.784 66.032 23.452 66.032 23.1C66.032 22.644 65.776 21.684 65.264 20.22L66.548 19.548C67.052 20.9 67.304 22.084 67.304 23.1C67.304 23.796 67.136 24.436 66.8 25.02C66.464 25.604 65.988 26.068 65.372 26.412C64.764 26.764 64.064 26.94 63.272 26.94C62.528 26.94 61.872 26.796 61.304 26.508C60.736 26.228 60.292 25.824 59.972 25.296C59.66 24.768 59.504 24.148 59.504 23.436C59.504 23.292 59.508 23.18 59.516 23.1C59.54 22.644 59.632 22.168 59.792 21.672C59.96 21.176 60.144 20.72 60.344 20.304L61.496 20.832ZM62.396 19.572L63.512 18.468L64.616 19.572L64.244 19.944C64.004 20.192 63.76 20.436 63.512 20.676L62.396 19.572ZM68.4399 23.928C68.5199 23.4 68.5599 22.584 68.5599 21.48C68.5599 20.376 68.5239 19.22 68.4519 18.012C68.3879 16.796 68.3119 15.944 68.2239 15.456L69.7239 15.108C69.7959 15.572 69.8599 16.384 69.9159 17.544C69.9719 18.704 69.9999 19.844 69.9999 20.964C69.9999 22.348 69.9519 23.388 69.8559 24.084L68.4399 23.928ZM74.418 24C73.874 24 73.434 23.8 73.098 23.4C72.762 23 72.482 22.44 72.258 21.72L73.338 21.06C73.45 21.484 73.586 21.784 73.746 21.96C73.906 22.128 74.13 22.212 74.418 22.212H74.526L74.622 23.112L74.526 24H74.418ZM69.582 25.992C70.11 25.776 70.594 25.524 71.034 25.236C71.474 24.956 71.818 24.676 72.066 24.396C72.322 24.116 72.45 23.876 72.45 23.676C72.45 23.348 72.238 22.456 71.814 21L71.754 20.76L73.098 20.232C73.29 20.784 73.442 21.376 73.554 22.008C73.666 22.632 73.722 23.188 73.722 23.676C73.722 24.46 73.414 25.184 72.798 25.848C72.182 26.52 71.354 27.072 70.314 27.504L69.582 25.992ZM74.4205 22.212H75.0565C75.6325 22.212 76.0445 22.148 76.2925 22.02C76.5485 21.892 76.6765 21.7 76.6765 21.444C76.6765 21.276 76.5925 20.948 76.4245 20.46C76.2565 19.964 76.1245 19.6 76.0285 19.368L77.2885 18.672C77.4405 19.008 77.5965 19.46 77.7565 20.028C77.9245 20.588 78.0085 21.08 78.0085 21.504C78.0085 22.32 77.7525 22.94 77.2405 23.364C76.7365 23.788 76.0085 24 75.0565 24H74.4205V22.212ZM74.8285 26.028L75.9445 24.924L77.0485 26.028L76.6765 26.4C76.4365 26.648 76.1925 26.892 75.9445 27.132L74.8285 26.028ZM77.668 25.992C78.196 25.776 78.68 25.524 79.12 25.236C79.56 24.956 79.904 24.676 80.152 24.396C80.408 24.116 80.536 23.876 80.536 23.676C80.536 23.348 80.324 22.456 79.9 21L79.84 20.76L81.184 20.232C81.376 20.784 81.528 21.376 81.64 22.008C81.752 22.632 81.808 23.188 81.808 23.676C81.808 24.46 81.5 25.184 80.884 25.848C80.268 26.52 79.44 27.072 78.4 27.504L77.668 25.992ZM84.3369 15.12C84.4169 15.704 84.4809 16.496 84.5289 17.496C84.5769 18.488 84.6009 19.408 84.6009 20.256V20.712C84.5929 21.12 84.6129 21.428 84.6609 21.636C84.7089 21.844 84.8049 21.992 84.9489 22.08C85.1009 22.168 85.3329 22.212 85.6449 22.212H85.7049L85.8009 23.112L85.7049 24H85.6449C84.7649 24 84.1289 23.748 83.7369 23.244C83.3529 22.74 83.1609 21.972 83.1609 20.94C83.1529 19.956 83.1209 18.96 83.0649 17.952C83.0169 16.936 82.9449 16.1 82.8489 15.444L84.3369 15.12ZM91.1098 16.488L87.6418 17.964C87.9058 18.188 88.2058 18.496 88.5418 18.888C88.8858 19.272 89.1898 19.708 89.4538 20.196C89.7258 20.684 89.8618 21.156 89.8618 21.612C89.8618 21.748 89.8418 21.904 89.8018 22.08C89.6418 22.728 89.2178 23.212 88.5298 23.532C87.8418 23.844 86.9778 24 85.9378 24H85.5298V22.212H85.9378C86.6178 22.212 87.1818 22.16 87.6298 22.056C88.0778 21.944 88.3738 21.796 88.5178 21.612C88.4538 21.228 88.2178 20.772 87.8098 20.244C87.4018 19.716 86.8018 19.132 86.0098 18.492L86.1778 16.932L90.6298 15.06L91.1098 16.488ZM96.3153 19.56C95.4193 20.312 94.9673 20.94 94.9593 21.444C94.9433 21.716 95.0353 21.928 95.2353 22.08C95.4353 22.232 95.7353 22.308 96.1353 22.308C96.4553 22.308 96.7193 22.248 96.9273 22.128C97.1433 22.008 97.2713 21.852 97.3113 21.66C97.2313 21.268 96.9593 20.856 96.4953 20.424C96.0393 19.984 95.3593 19.484 94.4553 18.924L95.3673 17.568C96.4233 18.208 97.2193 18.856 97.7553 19.512C98.2913 20.16 98.5593 20.848 98.5593 21.576C98.5593 22.064 98.4473 22.496 98.2233 22.872C98.0073 23.24 97.7073 23.528 97.3233 23.736C96.9473 23.944 96.5233 24.048 96.0513 24.048C95.3073 24.048 94.7273 23.852 94.3113 23.46C93.9033 23.06 93.6993 22.544 93.6993 21.912C93.6993 21.656 93.7353 21.392 93.8073 21.12C93.9273 20.624 94.1313 20.168 94.4193 19.752C94.7153 19.328 95.0833 18.904 95.5233 18.48L96.3153 19.56ZM102.994 17.496L104.638 21.384C104.766 21.704 104.914 21.924 105.082 22.044C105.25 22.156 105.49 22.212 105.802 22.212H105.946L106.042 23.112L105.946 24H105.802C105.258 24 104.802 23.848 104.434 23.544C104.074 23.24 103.754 22.76 103.474 22.104L101.758 18.168L102.994 17.496ZM99.8383 21.84C100.094 21.976 100.374 22.1 100.678 22.212C100.982 22.316 101.342 22.368 101.758 22.368C102.278 22.368 102.698 22.292 103.018 22.14C103.338 21.98 103.586 21.812 103.762 21.636L104.566 22.68C104.382 22.912 104.202 23.116 104.026 23.292C103.858 23.46 103.594 23.632 103.234 23.808C102.874 23.976 102.442 24.06 101.938 24.06C100.962 24.06 100.046 23.74 99.1903 23.1L99.8383 21.84ZM105.839 22.212H106.031C107.311 22.212 108.255 22.12 108.863 21.936C109.479 21.752 109.819 21.456 109.883 21.048L109.895 20.928C109.895 20.68 109.807 20.452 109.631 20.244C109.463 20.036 109.255 19.908 109.007 19.86C108.983 19.852 108.943 19.848 108.887 19.848C108.631 19.848 108.391 19.952 108.167 20.16C107.951 20.368 107.843 20.604 107.843 20.868C107.843 21.14 108.019 21.396 108.371 21.636C108.731 21.876 109.171 22.068 109.691 22.212C110.211 22.348 110.695 22.416 111.143 22.416C111.487 22.416 111.759 22.368 111.959 22.272C112.167 22.176 112.271 22.032 112.271 21.84C112.271 21.08 110.447 20.2 106.799 19.2L107.459 17.544C109.035 18.024 110.267 18.484 111.155 18.924C112.043 19.356 112.667 19.784 113.027 20.208C113.387 20.632 113.567 21.092 113.567 21.588C113.567 21.892 113.499 22.268 113.363 22.716C113.235 23.132 112.955 23.444 112.523 23.652C112.091 23.86 111.575 23.964 110.975 23.964C110.303 23.964 109.623 23.844 108.935 23.604C108.247 23.356 107.675 23.016 107.219 22.584C106.771 22.144 106.547 21.652 106.547 21.108C106.547 21.02 106.563 20.888 106.595 20.712C106.699 20.208 106.875 19.756 107.123 19.356C107.379 18.956 107.679 18.652 108.023 18.444C108.375 18.236 108.739 18.152 109.115 18.192C109.467 18.224 109.787 18.368 110.075 18.624C110.371 18.88 110.603 19.204 110.771 19.596C110.939 19.988 111.023 20.392 111.023 20.808C111.023 20.952 111.011 21.096 110.987 21.24C110.883 21.936 110.643 22.484 110.267 22.884C109.891 23.284 109.359 23.572 108.671 23.748C107.991 23.916 107.111 24 106.031 24H105.839V22.212ZM116.001 15.12C116.081 15.704 116.145 16.496 116.193 17.496C116.241 18.488 116.265 19.408 116.265 20.256V20.712C116.257 21.12 116.277 21.428 116.325 21.636C116.373 21.844 116.469 21.992 116.613 22.08C116.765 22.168 116.997 22.212 117.309 22.212H117.369L117.465 23.112L117.369 24H117.309C116.429 24 115.793 23.748 115.401 23.244C115.017 22.74 114.825 21.972 114.825 20.94C114.817 19.956 114.785 18.96 114.729 17.952C114.681 16.936 114.609 16.1 114.513 15.444L116.001 15.12ZM123.924 22.212H123.961C124.225 22.212 124.465 22.148 124.681 22.02C124.905 21.884 125.025 21.724 125.041 21.54L126.121 21.672C126.089 22.096 125.969 22.488 125.761 22.848C125.561 23.2 125.301 23.48 124.981 23.688C124.669 23.896 124.329 24 123.961 24H123.924V22.212ZM127.165 22.212L127.249 23.112L127.153 24H127.093C126.605 24 126.181 23.848 125.821 23.544C125.469 23.24 125.201 22.808 125.017 22.248C124.945 22.008 124.801 21.328 124.585 20.208L125.821 19.872C125.909 20.384 125.981 20.772 126.037 21.036C126.101 21.3 126.157 21.508 126.205 21.66C126.269 21.844 126.369 21.984 126.505 22.08C126.649 22.168 126.845 22.212 127.093 22.212H127.165ZM120.721 24V22.212H120.781C121.189 22.212 121.505 21.992 121.729 21.552C121.881 21.248 122.017 20.78 122.137 20.148L123.372 20.208C123.285 20.736 123.241 21.112 123.241 21.336C123.241 21.92 123.485 22.212 123.973 22.212H123.997L124.092 23.112L123.997 24H123.973C123.541 24 123.177 23.884 122.881 23.652C122.585 23.42 122.377 23.092 122.257 22.668L122.557 22.644C122.069 23.548 121.465 24 120.745 24H120.721ZM117.288 24L117.192 23.112L117.288 22.212H117.349C117.597 22.212 117.841 22.16 118.081 22.056C118.321 21.944 118.501 21.808 118.621 21.648C118.789 21.456 118.917 21.24 119.005 21C119.093 20.76 119.173 20.504 119.245 20.232L120.493 20.364C120.485 20.404 120.441 20.564 120.361 20.844C120.281 21.116 120.241 21.364 120.241 21.588C120.241 22.004 120.409 22.212 120.745 22.212H120.769L120.865 23.112L120.769 24H120.709C120.365 24 120.065 23.908 119.809 23.724C119.553 23.54 119.373 23.296 119.269 22.992C119.013 23.32 118.717 23.572 118.381 23.748C118.053 23.916 117.701 24 117.325 24H117.288ZM122.881 15.744L123.733 16.584L122.881 17.424L122.605 17.148C122.413 16.964 122.225 16.776 122.041 16.584L122.881 15.744ZM124.009 17.052C124.337 17.364 124.657 17.684 124.969 18.012L124.009 18.972C123.697 18.644 123.377 18.324 123.049 18.012L124.009 17.052ZM121.753 17.052C122.081 17.364 122.401 17.684 122.713 18.012L121.753 18.972C121.441 18.644 121.121 18.324 120.793 18.012L121.753 17.052ZM129.474 21.336C129.97 21.672 130.418 21.94 130.818 22.14C131.226 22.332 131.53 22.428 131.73 22.428C131.802 22.428 131.854 22.416 131.886 22.392C131.966 22.336 132.026 22.256 132.066 22.152C132.114 22.04 132.138 21.912 132.138 21.768C132.138 21.448 132.05 21.152 131.874 20.88C131.698 20.6 131.466 20.46 131.178 20.46C130.73 20.46 130.23 21.096 129.678 22.368C129.438 22.912 129.11 23.32 128.694 23.592C128.278 23.864 127.802 24 127.266 24H127.038L127.074 22.212H127.29C127.914 22.212 128.426 21.836 128.826 21.084C129.226 20.34 129.61 19.784 129.978 19.416C130.346 19.04 130.758 18.852 131.214 18.852C131.646 18.852 132.026 18.992 132.354 19.272C132.682 19.544 132.93 19.9 133.098 20.34C133.274 20.772 133.362 21.228 133.362 21.708C133.362 22.172 133.274 22.604 133.098 23.004C132.922 23.396 132.666 23.692 132.33 23.892C132.154 24.004 131.938 24.06 131.682 24.06C130.978 24.06 130.018 23.644 128.802 22.812L129.474 21.336Z" fill="#EDFAF9"/>
<rect x="146" y="6" width="30" height="30" rx="6" fill="#4FD1C5"/>
<path fill-rule="evenodd" clip-rule="evenodd" d="M164.632 19.4212C163.603 19.4212 162.763 18.5875 162.763 17.5587V16.2825L166.065 19.4212H164.632ZM162.65 24.1825H159.275C159.016 24.1825 158.806 23.9725 158.806 23.7137C158.806 23.455 159.016 23.245 159.275 23.245H162.65C162.909 23.245 163.118 23.455 163.118 23.7137C163.118 23.9725 162.909 24.1825 162.65 24.1825ZM159.274 20.7381H161.371C161.63 20.7381 161.84 20.9481 161.84 21.2069C161.84 21.4662 161.63 21.6756 161.371 21.6756H159.274C159.015 21.6756 158.805 21.4662 158.805 21.2069C158.805 20.9481 159.015 20.7381 159.274 20.7381ZM166.941 19.5312C166.941 19.5062 166.941 19.4875 166.935 19.4625C166.916 19.35 166.898 19.2375 166.879 19.1312C166.866 19.0625 166.835 19.0062 166.785 18.9562L163.241 15.5812C163.198 15.5375 163.135 15.5063 163.073 15.5C162.966 15.4875 162.854 15.475 162.741 15.4625C162.723 15.4563 162.698 15.4562 162.679 15.4562C162.316 15.425 161.916 15.4062 161.498 15.4062C157.398 15.4062 155.941 17 155.941 21.5C155.941 25.9937 157.398 27.5938 161.498 27.5938C165.604 27.5938 167.06 25.9937 167.06 21.5C167.06 20.75 167.023 20.1 166.941 19.5312Z" fill="#EDFAF9"/>
</g>
<defs>
<filter id="filter0_d_4753_411" x="0.5" y="0" width="181" height="49" filterUnits="userSpaceOnUse" color-interpolation-filters="sRGB">
<feFlood flood-opacity="0" result="BackgroundImageFix"/>
<feColorMatrix in="SourceAlpha" type="matrix" values="0 0 0 0 0 0 0 0 0 0 0 0 0 0 0 0 0 0 127 0" result="hardAlpha"/>
<feOffset dy="3.5"/>
<feGaussianBlur stdDeviation="2.75"/>
<feComposite in2="hardAlpha" operator="out"/>
<feColorMatrix type="matrix" values="0 0 0 0 0 0 0 0 0 0 0 0 0 0 0 0 0 0 0.02 0"/>
<feBlend mode="normal" in2="BackgroundImageFix" result="effect1_dropShadow_4753_411"/>
<feBlend mode="normal" in="SourceGraphic" in2="effect1_dropShadow_4753_411" result="shape"/>
</filter>
</defs>
</svg>
