<svg width="176" height="43" viewBox="0 0 176 43" fill="none" xmlns="http://www.w3.org/2000/svg">
<path d="M80.8193 13.288C80.8993 13.856 80.9633 14.716 81.0113 15.868C81.0593 17.012 81.0793 18 81.0713 18.832C81.0633 19.272 81.0833 19.604 81.1313 19.828C81.1793 20.044 81.2833 20.204 81.4433 20.308C81.6033 20.404 81.8513 20.452 82.1873 20.452H82.2473L82.3193 21.22L82.2473 22H82.1873C81.3153 22 80.6993 21.764 80.3393 21.292C79.9793 20.82 79.7993 20.08 79.7993 19.072C79.7993 18.152 79.7713 17.16 79.7153 16.096C79.6673 15.024 79.5993 14.188 79.5113 13.588L80.8193 13.288ZM82.1554 20.452H82.3234C83.6114 20.452 84.5594 20.352 85.1674 20.152C85.7754 19.944 86.1154 19.62 86.1874 19.18L86.1994 19.036C86.1994 18.732 86.0994 18.464 85.8994 18.232C85.7074 17.992 85.4674 17.872 85.1794 17.872C85.0114 17.872 84.8394 17.928 84.6634 18.04C84.4954 18.144 84.3554 18.284 84.2434 18.46C84.1394 18.628 84.0874 18.808 84.0874 19C84.0874 19.288 84.2634 19.56 84.6154 19.816C84.9674 20.064 85.3994 20.264 85.9114 20.416C86.4234 20.568 86.9034 20.644 87.3514 20.644C87.7114 20.644 87.9994 20.592 88.2154 20.488C88.4394 20.376 88.5514 20.208 88.5514 19.984C88.5514 19.576 88.0994 19.14 87.1954 18.676C86.2994 18.204 84.9914 17.732 83.2714 17.26L83.8234 15.82C85.3514 16.3 86.5434 16.756 87.3994 17.188C88.2634 17.62 88.8634 18.04 89.1994 18.448C89.5434 18.848 89.7154 19.28 89.7154 19.744C89.7154 20.032 89.6554 20.368 89.5354 20.752C89.3994 21.16 89.1234 21.468 88.7074 21.676C88.2914 21.876 87.7914 21.976 87.2074 21.976C86.5594 21.976 85.8994 21.86 85.2274 21.628C84.5634 21.388 84.0114 21.056 83.5714 20.632C83.1394 20.208 82.9234 19.736 82.9234 19.216C82.9234 19.144 82.9314 19.044 82.9474 18.916C83.0274 18.46 83.1834 18.044 83.4154 17.668C83.6474 17.284 83.9234 16.98 84.2434 16.756C84.5634 16.532 84.8994 16.42 85.2514 16.42C85.6114 16.42 85.9434 16.54 86.2474 16.78C86.5514 17.02 86.7914 17.336 86.9674 17.728C87.1514 18.112 87.2434 18.516 87.2434 18.94C87.2434 19.076 87.2314 19.212 87.2074 19.348C87.1034 20.004 86.8634 20.528 86.4874 20.92C86.1194 21.304 85.5954 21.58 84.9154 21.748C84.2434 21.916 83.3794 22 82.3234 22H82.1554V20.452ZM98.4242 22.132L98.3162 21.364L98.3642 20.584H98.5322C99.7802 20.576 100.72 20.456 101.352 20.224C101.984 19.984 102.344 19.6 102.432 19.072C102.432 18.648 102.368 18.22 102.24 17.788C102.12 17.356 101.948 17 101.724 16.72C101.508 16.432 101.26 16.288 100.98 16.288C100.804 16.288 100.64 16.348 100.488 16.468C100.344 16.58 100.228 16.724 100.14 16.9C100.06 17.068 100.02 17.232 100.02 17.392C100.02 17.528 100.052 17.648 100.116 17.752C100.236 17.92 100.456 18.056 100.776 18.16C101.104 18.256 101.472 18.304 101.88 18.304C102.16 18.304 102.436 18.28 102.708 18.232V19.624C102.292 19.704 101.916 19.744 101.58 19.744C101.02 19.744 100.524 19.652 100.092 19.468C99.6602 19.276 99.3442 18.992 99.1442 18.616C99.0002 18.312 98.9282 17.976 98.9282 17.608C98.9282 17.176 99.0202 16.752 99.2042 16.336C99.3962 15.92 99.6562 15.58 99.9842 15.316C100.32 15.052 100.684 14.92 101.076 14.92C101.556 14.92 101.984 15.12 102.36 15.52C102.736 15.912 103.02 16.42 103.212 17.044C103.412 17.668 103.492 18.308 103.452 18.964C103.412 19.94 102.976 20.712 102.144 21.28C101.32 21.84 100.108 22.124 98.5082 22.132H98.4242ZM95.3162 17.812C95.0762 18.54 94.9722 19.08 95.0042 19.432C95.0682 19.776 95.3962 20.056 95.9882 20.272C96.5802 20.48 97.4082 20.584 98.4722 20.584C98.4882 20.752 98.4962 21.008 98.4962 21.352C98.4962 21.696 98.4882 21.956 98.4722 22.132C97.0562 22.14 95.9442 21.932 95.1362 21.508C94.3282 21.084 93.8882 20.484 93.8162 19.708C93.8082 19.644 93.8042 19.548 93.8042 19.42C93.8042 19.084 93.8482 18.728 93.9362 18.352C94.0242 17.968 94.1362 17.616 94.2722 17.296L95.3162 17.812ZM99.9002 13.108C100.348 12.644 100.688 12.3 100.92 12.076L101.94 13.108L101.604 13.444L100.92 14.128L99.9002 13.108ZM104.793 21.928C104.857 21.448 104.889 20.636 104.889 19.492C104.889 18.396 104.857 17.248 104.793 16.048C104.737 14.848 104.673 14.028 104.601 13.588L105.921 13.288C105.985 13.72 106.045 14.52 106.101 15.688C106.157 16.848 106.185 17.984 106.185 19.096C106.185 20.416 106.141 21.408 106.053 22.072L104.793 21.928ZM110.614 22C110.086 22 109.662 21.812 109.342 21.436C109.03 21.052 108.766 20.508 108.55 19.804L109.498 19.228C109.61 19.676 109.75 19.992 109.918 20.176C110.086 20.36 110.318 20.452 110.614 20.452H110.71L110.794 21.22L110.71 22H110.614ZM105.898 24.172C106.418 23.972 106.894 23.728 107.326 23.44C107.758 23.152 108.098 22.86 108.346 22.564C108.594 22.268 108.718 22.004 108.718 21.772C108.718 21.596 108.67 21.304 108.574 20.896C108.478 20.48 108.35 19.96 108.19 19.336C108.126 19.112 108.082 18.944 108.058 18.832L109.258 18.364C109.442 18.924 109.59 19.52 109.702 20.152C109.822 20.776 109.882 21.316 109.882 21.772C109.882 22.532 109.57 23.24 108.946 23.896C108.33 24.552 107.522 25.08 106.522 25.48L105.898 24.172ZM121.18 20.452L121.264 21.22L121.18 22H121.12C120.08 22 119.332 21.976 118.876 21.928C118.428 21.88 118.072 21.752 117.808 21.544L118.528 20.716C119.024 20.636 119.476 20.572 119.884 20.524C120.3 20.476 120.712 20.452 121.12 20.452H121.18ZM110.584 20.452H110.764C111.148 20.452 111.456 20.368 111.688 20.2C111.928 20.032 112.12 19.768 112.264 19.408C112.408 19.048 112.524 18.564 112.612 17.956L113.728 18.184C113.68 18.48 113.656 18.752 113.656 19C113.656 19.624 113.824 20.068 114.16 20.332C114.496 20.596 115.056 20.728 115.84 20.728C116.552 20.728 117.188 20.648 117.748 20.488C118.308 20.32 118.74 20.108 119.044 19.852C119.356 19.588 119.512 19.324 119.512 19.06C119.512 18.836 119.416 18.652 119.224 18.508C119.032 18.356 118.768 18.28 118.432 18.28C117.776 18.28 117.112 18.56 116.44 19.12C115.776 19.672 115.168 20.452 114.616 21.46L113.728 20.824C114.352 19.568 115.068 18.584 115.876 17.872C116.692 17.16 117.5 16.804 118.3 16.804C118.772 16.804 119.192 16.912 119.56 17.128C119.936 17.336 120.22 17.628 120.412 18.004C120.604 18.372 120.68 18.788 120.64 19.252C120.584 19.86 120.348 20.392 119.932 20.848C119.524 21.296 118.972 21.644 118.276 21.892C117.588 22.132 116.808 22.252 115.936 22.252C114.36 22.252 113.368 21.764 112.96 20.788C112.728 21.18 112.436 21.48 112.084 21.688C111.74 21.896 111.296 22 110.752 22H110.584V20.452ZM121.061 20.452H121.697C122.289 20.452 122.717 20.384 122.981 20.248C123.245 20.104 123.377 19.888 123.377 19.6C123.377 19.416 123.289 19.06 123.113 18.532C122.945 18.004 122.817 17.644 122.729 17.452L123.857 16.84C124.009 17.16 124.165 17.6 124.325 18.16C124.493 18.72 124.577 19.208 124.577 19.624C124.577 20.4 124.329 20.992 123.833 21.4C123.337 21.8 122.625 22 121.697 22H121.061V20.452ZM121.889 15.256C122.337 14.792 122.677 14.448 122.909 14.224L123.929 15.256L123.593 15.592L122.909 16.276L121.889 15.256ZM125.91 21.928C125.974 21.448 126.006 20.636 126.006 19.492C126.006 18.396 125.974 17.248 125.91 16.048C125.854 14.848 125.79 14.028 125.718 13.588L127.038 13.288C127.102 13.72 127.162 14.52 127.218 15.688C127.274 16.848 127.302 17.984 127.302 19.096C127.302 20.416 127.258 21.408 127.17 22.072L125.91 21.928Z" fill="#A0AEC0"/>
<g filter="url(#filter0_d_4753_1733)">
<rect x="140" y="4" width="30" height="30" rx="6" fill="#4F5D74" shape-rendering="crispEdges"/>
<path fill-rule="evenodd" clip-rule="evenodd" d="M155.502 22.4031C155.244 22.4031 155.031 22.1931 155.031 21.9344C155.031 21.6756 155.238 21.4656 155.497 21.4656H155.502C155.761 21.4656 155.971 21.6756 155.971 21.9344C155.971 22.1931 155.761 22.4031 155.502 22.4031ZM155.03 17.3125C155.03 17.0538 155.24 16.8438 155.499 16.8438C155.758 16.8438 155.968 17.0538 155.968 17.3125V19.7469C155.968 20.0056 155.758 20.2156 155.499 20.2156C155.24 20.2156 155.03 20.0056 155.03 19.7469V17.3125ZM159.912 18.3488L159.779 18.115C157.913 14.7962 156.753 13.5625 155.499 13.5625C154.245 13.5625 153.085 14.7962 151.219 18.115L151.087 18.3488C150.417 19.525 149.023 21.9719 149.282 23.4319C149.587 25.1588 151.365 25.4375 155.499 25.4375C159.634 25.4375 161.412 25.1588 161.717 23.4319C161.975 21.9719 160.582 19.525 159.912 18.3488Z" fill="#4FD1C5"/>
</g>
<defs>
<filter id="filter0_d_4753_1733" x="134.5" y="2" width="41" height="41" filterUnits="userSpaceOnUse" color-interpolation-filters="sRGB">
<feFlood flood-opacity="0" result="BackgroundImageFix"/>
<feColorMatrix in="SourceAlpha" type="matrix" values="0 0 0 0 0 0 0 0 0 0 0 0 0 0 0 0 0 0 127 0" result="hardAlpha"/>
<feOffset dy="3.5"/>
<feGaussianBlur stdDeviation="2.75"/>
<feComposite in2="hardAlpha" operator="out"/>
<feColorMatrix type="matrix" values="0 0 0 0 0 0 0 0 0 0 0 0 0 0 0 0 0 0 0.02 0"/>
<feBlend mode="normal" in2="BackgroundImageFix" result="effect1_dropShadow_4753_1733"/>
<feBlend mode="normal" in="SourceGraphic" in2="effect1_dropShadow_4753_1733" result="shape"/>
</filter>
</defs>
</svg>
