<svg width="182" height="49" viewBox="0 0 182 49" fill="none" xmlns="http://www.w3.org/2000/svg">
<g filter="url(#filter0_d_4753_406)">
<rect x="6" y="2" width="170" height="38" rx="6" fill="#506382" shape-rendering="crispEdges"/>
<path d="M95.936 21.84C96.224 21.984 96.52 22.108 96.824 22.212C97.128 22.316 97.5 22.368 97.94 22.368C98.372 22.36 98.724 22.312 98.996 22.224C99.276 22.128 99.46 22.024 99.548 21.912C99.556 21.896 99.56 21.864 99.56 21.816C99.56 21.648 99.484 21.428 99.332 21.156C99.188 20.876 98.928 20.548 98.552 20.172C98.184 19.788 97.688 19.384 97.064 18.96L97.928 17.388C98.856 18.044 99.588 18.76 100.124 19.536C100.668 20.312 100.94 21.052 100.94 21.756C100.94 22.092 100.876 22.4 100.748 22.68C100.556 23.128 100.216 23.472 99.728 23.712C99.24 23.944 98.7 24.06 98.108 24.06C97.412 24.06 96.832 23.956 96.368 23.748C95.904 23.532 95.544 23.316 95.288 23.1L95.936 21.84ZM100.297 25.992C100.825 25.776 101.309 25.524 101.749 25.236C102.189 24.956 102.533 24.676 102.781 24.396C103.037 24.116 103.165 23.876 103.165 23.676C103.165 23.348 102.953 22.456 102.529 21L102.469 20.76L103.813 20.232C104.005 20.784 104.157 21.376 104.269 22.008C104.381 22.632 104.437 23.188 104.437 23.676C104.437 24.46 104.129 25.184 103.513 25.848C102.897 26.52 102.069 27.072 101.029 27.504L100.297 25.992ZM105.322 25.956C106.69 25.66 107.682 25.304 108.298 24.888C108.914 24.472 109.222 23.936 109.222 23.28C109.222 22.808 109.154 22.348 109.018 21.9C108.89 21.444 108.71 21.072 108.478 20.784C108.254 20.496 108.002 20.352 107.722 20.352C107.562 20.352 107.41 20.412 107.266 20.532C107.13 20.644 107.022 20.788 106.942 20.964C106.862 21.14 106.822 21.308 106.822 21.468C106.822 21.604 106.85 21.712 106.906 21.792C107.034 21.968 107.326 22.084 107.782 22.14C108.246 22.188 108.882 22.212 109.69 22.212H110.878L110.974 23.112L110.878 24L109.354 24.012C108.386 24.012 107.61 23.932 107.026 23.772C106.442 23.612 106.034 23.288 105.802 22.8C105.658 22.488 105.586 22.144 105.586 21.768C105.586 21.296 105.686 20.828 105.886 20.364C106.086 19.892 106.362 19.508 106.714 19.212C107.066 18.908 107.45 18.756 107.866 18.756C108.346 18.756 108.782 18.964 109.174 19.38C109.566 19.796 109.874 20.34 110.098 21.012C110.322 21.684 110.434 22.384 110.434 23.112C110.434 24.232 110.03 25.176 109.222 25.944C108.414 26.712 107.298 27.232 105.874 27.504L105.322 25.956ZM110.725 22.212H110.797C111.405 22.212 111.845 22.148 112.117 22.02C112.397 21.892 112.557 21.684 112.597 21.396C112.613 21.268 112.621 21.168 112.621 21.096C112.621 20.904 112.601 20.684 112.561 20.436C112.521 20.18 112.497 20.02 112.489 19.956L113.737 19.716C113.841 20.308 113.893 20.968 113.893 21.696C113.925 21.832 114.013 21.952 114.157 22.056C114.309 22.16 114.521 22.212 114.793 22.212H114.865L114.961 23.112L114.865 24H114.793C114.417 24 114.073 23.9 113.761 23.7C113.457 23.5 113.213 23.24 113.029 22.92L113.353 22.956C113.137 23.316 112.817 23.58 112.393 23.748C111.977 23.916 111.445 24 110.797 24H110.725V22.212ZM111.157 26.04L112.273 24.936L113.377 26.04L113.005 26.412C112.765 26.66 112.521 26.904 112.273 27.144L111.157 26.04ZM121.465 22.212C121.697 22.212 121.881 22.144 122.017 22.008C122.153 21.872 122.221 21.696 122.221 21.48C122.221 21.264 122.137 20.92 121.969 20.448C121.809 19.976 121.673 19.616 121.561 19.368L122.785 18.696C122.937 19.008 123.097 19.456 123.265 20.04C123.433 20.616 123.517 21.12 123.517 21.552C123.517 22 123.429 22.412 123.253 22.788C123.077 23.156 122.833 23.452 122.521 23.676C122.209 23.892 121.857 24 121.465 24H121.429V22.212H121.465ZM118.213 24V22.212H118.273C118.681 22.212 118.997 21.992 119.221 21.552C119.373 21.248 119.509 20.78 119.629 20.148L120.865 20.208C120.777 20.736 120.733 21.112 120.733 21.336C120.733 21.92 120.977 22.212 121.465 22.212H121.489L121.585 23.112L121.489 24H121.465C121.033 24 120.669 23.884 120.373 23.652C120.077 23.42 119.869 23.092 119.749 22.668L120.049 22.644C119.561 23.548 118.957 24 118.237 24H118.213ZM114.781 24L114.685 23.112L114.781 22.212H114.841C115.089 22.212 115.333 22.16 115.573 22.056C115.813 21.944 115.993 21.808 116.113 21.648C116.281 21.456 116.409 21.24 116.497 21C116.585 20.76 116.665 20.504 116.737 20.232L117.985 20.364C117.977 20.404 117.933 20.564 117.853 20.844C117.773 21.116 117.733 21.364 117.733 21.588C117.733 22.004 117.901 22.212 118.237 22.212H118.261L118.357 23.112L118.261 24H118.201C117.857 24 117.557 23.908 117.301 23.724C117.045 23.54 116.865 23.296 116.761 22.992C116.505 23.32 116.209 23.572 115.873 23.748C115.545 23.916 115.193 24 114.817 24H114.781ZM120.193 15.228L121.045 16.068L120.193 16.908L119.917 16.632C119.725 16.448 119.537 16.26 119.353 16.068L120.193 15.228ZM121.321 16.536C121.649 16.848 121.969 17.168 122.281 17.496L121.321 18.456C121.009 18.128 120.689 17.808 120.361 17.496L121.321 16.536ZM119.065 16.536C119.393 16.848 119.713 17.168 120.025 17.496L119.065 18.456C118.753 18.128 118.433 17.808 118.105 17.496L119.065 16.536ZM124.725 23.928C124.805 23.4 124.845 22.584 124.845 21.48C124.845 20.376 124.809 19.22 124.737 18.012C124.673 16.796 124.597 15.944 124.509 15.456L126.009 15.108C126.081 15.572 126.145 16.384 126.201 17.544C126.257 18.704 126.285 19.844 126.285 20.964C126.285 22.348 126.237 23.388 126.141 24.084L124.725 23.928ZM127.858 21.84C128.146 21.984 128.442 22.108 128.746 22.212C129.05 22.316 129.422 22.368 129.862 22.368C130.294 22.36 130.646 22.312 130.918 22.224C131.198 22.128 131.382 22.024 131.47 21.912C131.478 21.896 131.482 21.864 131.482 21.816C131.482 21.648 131.406 21.428 131.254 21.156C131.11 20.876 130.85 20.548 130.474 20.172C130.106 19.788 129.61 19.384 128.986 18.96L129.85 17.388C130.778 18.044 131.51 18.76 132.046 19.536C132.59 20.312 132.862 21.052 132.862 21.756C132.862 22.092 132.798 22.4 132.67 22.68C132.478 23.128 132.138 23.472 131.65 23.712C131.162 23.944 130.622 24.06 130.03 24.06C129.334 24.06 128.754 23.956 128.29 23.748C127.826 23.532 127.466 23.316 127.21 23.1L127.858 21.84Z" fill="#F5F5F5"/>
<rect x="146" y="6" width="30" height="30" rx="6" fill="#4FD1C5"/>
<path d="M169 17.0366C169 18.7136 167.64 20.0731 165.963 20.0731C164.286 20.0731 162.927 18.7136 162.927 17.0366C162.927 15.3595 164.286 14 165.963 14C167.64 14 169 15.3595 169 17.0366Z" fill="#EDFAF9"/>
<path d="M160.073 17.0366C160.073 18.7136 158.714 20.0731 157.037 20.0731C155.36 20.0731 154 18.7136 154 17.0366C154 15.3595 155.36 14 157.037 14C158.714 14 160.073 15.3595 160.073 17.0366Z" fill="#EDFAF9"/>
<path d="M169 25.9634C169 27.6405 167.64 29 165.963 29C164.286 29 162.927 27.6405 162.927 25.9634C162.927 24.2864 164.286 22.9269 165.963 22.9269C167.64 22.9269 169 24.2864 169 25.9634Z" fill="#EDFAF9"/>
<path d="M160.073 25.9634C160.073 27.6405 158.714 29 157.037 29C155.36 29 154 27.6405 154 25.9634C154 24.2864 155.36 22.9269 157.037 22.9269C158.714 22.9269 160.073 24.2864 160.073 25.9634Z" fill="#EDFAF9"/>
</g>
<defs>
<filter id="filter0_d_4753_406" x="0.5" y="0" width="181" height="49" filterUnits="userSpaceOnUse" color-interpolation-filters="sRGB">
<feFlood flood-opacity="0" result="BackgroundImageFix"/>
<feColorMatrix in="SourceAlpha" type="matrix" values="0 0 0 0 0 0 0 0 0 0 0 0 0 0 0 0 0 0 127 0" result="hardAlpha"/>
<feOffset dy="3.5"/>
<feGaussianBlur stdDeviation="2.75"/>
<feComposite in2="hardAlpha" operator="out"/>
<feColorMatrix type="matrix" values="0 0 0 0 0 0 0 0 0 0 0 0 0 0 0 0 0 0 0.02 0"/>
<feBlend mode="normal" in2="BackgroundImageFix" result="effect1_dropShadow_4753_406"/>
<feBlend mode="normal" in="SourceGraphic" in2="effect1_dropShadow_4753_406" result="shape"/>
</filter>
</defs>
</svg>
