<svg width="192" height="49" viewBox="0 0 192 49" fill="none" xmlns="http://www.w3.org/2000/svg">
<g filter="url(#filter0_d_843_10207)">
<rect x="6" y="2" width="180" height="38" rx="6" fill="white" shape-rendering="crispEdges"/>
<path d="M105.936 21.84C106.224 21.984 106.52 22.108 106.824 22.212C107.128 22.316 107.5 22.368 107.94 22.368C108.372 22.36 108.724 22.312 108.996 22.224C109.276 22.128 109.46 22.024 109.548 21.912C109.556 21.896 109.56 21.864 109.56 21.816C109.56 21.648 109.484 21.428 109.332 21.156C109.188 20.876 108.928 20.548 108.552 20.172C108.184 19.788 107.688 19.384 107.064 18.96L107.928 17.388C108.856 18.044 109.588 18.76 110.124 19.536C110.668 20.312 110.94 21.052 110.94 21.756C110.94 22.092 110.876 22.4 110.748 22.68C110.556 23.128 110.216 23.472 109.728 23.712C109.24 23.944 108.7 24.06 108.108 24.06C107.412 24.06 106.832 23.956 106.368 23.748C105.904 23.532 105.544 23.316 105.288 23.1L105.936 21.84ZM110.297 25.992C110.825 25.776 111.309 25.524 111.749 25.236C112.189 24.956 112.533 24.676 112.781 24.396C113.037 24.116 113.165 23.876 113.165 23.676C113.165 23.348 112.953 22.456 112.529 21L112.469 20.76L113.813 20.232C114.005 20.784 114.157 21.376 114.269 22.008C114.381 22.632 114.437 23.188 114.437 23.676C114.437 24.46 114.129 25.184 113.513 25.848C112.897 26.52 112.069 27.072 111.029 27.504L110.297 25.992ZM115.322 25.956C116.69 25.66 117.682 25.304 118.298 24.888C118.914 24.472 119.222 23.936 119.222 23.28C119.222 22.808 119.154 22.348 119.018 21.9C118.89 21.444 118.71 21.072 118.478 20.784C118.254 20.496 118.002 20.352 117.722 20.352C117.562 20.352 117.41 20.412 117.266 20.532C117.13 20.644 117.022 20.788 116.942 20.964C116.862 21.14 116.822 21.308 116.822 21.468C116.822 21.604 116.85 21.712 116.906 21.792C117.034 21.968 117.326 22.084 117.782 22.14C118.246 22.188 118.882 22.212 119.69 22.212H120.878L120.974 23.112L120.878 24L119.354 24.012C118.386 24.012 117.61 23.932 117.026 23.772C116.442 23.612 116.034 23.288 115.802 22.8C115.658 22.488 115.586 22.144 115.586 21.768C115.586 21.296 115.686 20.828 115.886 20.364C116.086 19.892 116.362 19.508 116.714 19.212C117.066 18.908 117.45 18.756 117.866 18.756C118.346 18.756 118.782 18.964 119.174 19.38C119.566 19.796 119.874 20.34 120.098 21.012C120.322 21.684 120.434 22.384 120.434 23.112C120.434 24.232 120.03 25.176 119.222 25.944C118.414 26.712 117.298 27.232 115.874 27.504L115.322 25.956ZM120.725 22.212H120.797C121.405 22.212 121.845 22.148 122.117 22.02C122.397 21.892 122.557 21.684 122.597 21.396C122.613 21.268 122.621 21.168 122.621 21.096C122.621 20.904 122.601 20.684 122.561 20.436C122.521 20.18 122.497 20.02 122.489 19.956L123.737 19.716C123.841 20.308 123.893 20.968 123.893 21.696C123.925 21.832 124.013 21.952 124.157 22.056C124.309 22.16 124.521 22.212 124.793 22.212H124.865L124.961 23.112L124.865 24H124.793C124.417 24 124.073 23.9 123.761 23.7C123.457 23.5 123.213 23.24 123.029 22.92L123.353 22.956C123.137 23.316 122.817 23.58 122.393 23.748C121.977 23.916 121.445 24 120.797 24H120.725V22.212ZM121.157 26.04L122.273 24.936L123.377 26.04L123.005 26.412C122.765 26.66 122.521 26.904 122.273 27.144L121.157 26.04ZM131.465 22.212C131.697 22.212 131.881 22.144 132.017 22.008C132.153 21.872 132.221 21.696 132.221 21.48C132.221 21.264 132.137 20.92 131.969 20.448C131.809 19.976 131.673 19.616 131.561 19.368L132.785 18.696C132.937 19.008 133.097 19.456 133.265 20.04C133.433 20.616 133.517 21.12 133.517 21.552C133.517 22 133.429 22.412 133.253 22.788C133.077 23.156 132.833 23.452 132.521 23.676C132.209 23.892 131.857 24 131.465 24H131.429V22.212H131.465ZM128.213 24V22.212H128.273C128.681 22.212 128.997 21.992 129.221 21.552C129.373 21.248 129.509 20.78 129.629 20.148L130.865 20.208C130.777 20.736 130.733 21.112 130.733 21.336C130.733 21.92 130.977 22.212 131.465 22.212H131.489L131.585 23.112L131.489 24H131.465C131.033 24 130.669 23.884 130.373 23.652C130.077 23.42 129.869 23.092 129.749 22.668L130.049 22.644C129.561 23.548 128.957 24 128.237 24H128.213ZM124.781 24L124.685 23.112L124.781 22.212H124.841C125.089 22.212 125.333 22.16 125.573 22.056C125.813 21.944 125.993 21.808 126.113 21.648C126.281 21.456 126.409 21.24 126.497 21C126.585 20.76 126.665 20.504 126.737 20.232L127.985 20.364C127.977 20.404 127.933 20.564 127.853 20.844C127.773 21.116 127.733 21.364 127.733 21.588C127.733 22.004 127.901 22.212 128.237 22.212H128.261L128.357 23.112L128.261 24H128.201C127.857 24 127.557 23.908 127.301 23.724C127.045 23.54 126.865 23.296 126.761 22.992C126.505 23.32 126.209 23.572 125.873 23.748C125.545 23.916 125.193 24 124.817 24H124.781ZM130.193 15.228L131.045 16.068L130.193 16.908L129.917 16.632C129.725 16.448 129.537 16.26 129.353 16.068L130.193 15.228ZM131.321 16.536C131.649 16.848 131.969 17.168 132.281 17.496L131.321 18.456C131.009 18.128 130.689 17.808 130.361 17.496L131.321 16.536ZM129.065 16.536C129.393 16.848 129.713 17.168 130.025 17.496L129.065 18.456C128.753 18.128 128.433 17.808 128.105 17.496L129.065 16.536ZM134.725 23.928C134.805 23.4 134.845 22.584 134.845 21.48C134.845 20.376 134.809 19.22 134.737 18.012C134.673 16.796 134.597 15.944 134.509 15.456L136.009 15.108C136.081 15.572 136.145 16.384 136.201 17.544C136.257 18.704 136.285 19.844 136.285 20.964C136.285 22.348 136.237 23.388 136.141 24.084L134.725 23.928ZM137.858 21.84C138.146 21.984 138.442 22.108 138.746 22.212C139.05 22.316 139.422 22.368 139.862 22.368C140.294 22.36 140.646 22.312 140.918 22.224C141.198 22.128 141.382 22.024 141.47 21.912C141.478 21.896 141.482 21.864 141.482 21.816C141.482 21.648 141.406 21.428 141.254 21.156C141.11 20.876 140.85 20.548 140.474 20.172C140.106 19.788 139.61 19.384 138.986 18.96L139.85 17.388C140.778 18.044 141.51 18.76 142.046 19.536C142.59 20.312 142.862 21.052 142.862 21.756C142.862 22.092 142.798 22.4 142.67 22.68C142.478 23.128 142.138 23.472 141.65 23.712C141.162 23.944 140.622 24.06 140.03 24.06C139.334 24.06 138.754 23.956 138.29 23.748C137.826 23.532 137.466 23.316 137.21 23.1L137.858 21.84Z" fill="#2B2B2B"/>
<rect x="156" y="6" width="30" height="30" rx="6" fill="#4FD1C5"/>
<path d="M179 17.0366C179 18.7136 177.64 20.0731 175.963 20.0731C174.286 20.0731 172.927 18.7136 172.927 17.0366C172.927 15.3595 174.286 14 175.963 14C177.64 14 179 15.3595 179 17.0366Z" fill="#EDFAF9"/>
<path d="M170.073 17.0366C170.073 18.7136 168.714 20.0731 167.037 20.0731C165.36 20.0731 164 18.7136 164 17.0366C164 15.3595 165.36 14 167.037 14C168.714 14 170.073 15.3595 170.073 17.0366Z" fill="#EDFAF9"/>
<path d="M179 25.9634C179 27.6405 177.64 29 175.963 29C174.286 29 172.927 27.6405 172.927 25.9634C172.927 24.2864 174.286 22.9269 175.963 22.9269C177.64 22.9269 179 24.2864 179 25.9634Z" fill="#EDFAF9"/>
<path d="M170.073 25.9634C170.073 27.6405 168.714 29 167.037 29C165.36 29 164 27.6405 164 25.9634C164 24.2864 165.36 22.9269 167.037 22.9269C168.714 22.9269 170.073 24.2864 170.073 25.9634Z" fill="#EDFAF9"/>
</g>
<defs>
<filter id="filter0_d_843_10207" x="0.5" y="0" width="191" height="49" filterUnits="userSpaceOnUse" color-interpolation-filters="sRGB">
<feFlood flood-opacity="0" result="BackgroundImageFix"/>
<feColorMatrix in="SourceAlpha" type="matrix" values="0 0 0 0 0 0 0 0 0 0 0 0 0 0 0 0 0 0 127 0" result="hardAlpha"/>
<feOffset dy="3.5"/>
<feGaussianBlur stdDeviation="2.75"/>
<feComposite in2="hardAlpha" operator="out"/>
<feColorMatrix type="matrix" values="0 0 0 0 0 0 0 0 0 0 0 0 0 0 0 0 0 0 0.02 0"/>
<feBlend mode="normal" in2="BackgroundImageFix" result="effect1_dropShadow_843_10207"/>
<feBlend mode="normal" in="SourceGraphic" in2="effect1_dropShadow_843_10207" result="shape"/>
</filter>
</defs>
</svg>
