<svg width="20" height="20" viewBox="0 0 20 20" fill="none" xmlns="http://www.w3.org/2000/svg">
<path fill-rule="evenodd" clip-rule="evenodd" d="M12.8288 12.9622C12.688 13.103 12.5029 13.1743 12.3178 13.1743C12.1317 13.1743 11.9475 13.103 11.8058 12.9622L9.9998 11.1562L8.1996 12.9564C8.05883 13.0982 7.8737 13.1686 7.68857 13.1686C7.5044 13.1686 7.31831 13.0982 7.17753 12.9564C6.89502 12.6739 6.89502 12.2169 7.17753 11.9344L8.97676 10.1332L7.17753 8.33397C6.89502 8.05145 6.89502 7.59441 7.17753 7.31189C7.46005 7.02938 7.91709 7.02938 8.1996 7.31189L9.99883 9.11113L11.7961 7.31382C12.0787 7.03131 12.5357 7.03131 12.8182 7.31382C13.1007 7.59634 13.1007 8.05338 12.8182 8.3359L11.0219 10.1332L12.8288 11.9392C13.1113 12.2217 13.1113 12.6797 12.8288 12.9622ZM10.0027 0.742676C3.06225 0.742676 0.601562 3.20336 0.601562 10.1438C0.601562 17.0842 3.06225 19.5449 10.0027 19.5449C16.9441 19.5449 19.4038 17.0842 19.4038 10.1438C19.4038 3.20336 16.9441 0.742676 10.0027 0.742676Z" fill="#FE0000"/>
</svg>
