<svg width="182" height="49" viewBox="0 0 182 49" fill="none" xmlns="http://www.w3.org/2000/svg">
<g filter="url(#filter0_d_4002_1593)">
<rect x="6" y="2" width="170" height="38" rx="6" fill="white" shape-rendering="crispEdges"/>
<path d="M61.956 15.288C62.036 15.856 62.1 16.716 62.148 17.868C62.196 19.012 62.216 20 62.208 20.832C62.2 21.272 62.22 21.604 62.268 21.828C62.316 22.044 62.42 22.204 62.58 22.308C62.74 22.404 62.988 22.452 63.324 22.452H63.384L63.456 23.22L63.384 24H63.324C62.452 24 61.836 23.764 61.476 23.292C61.116 22.82 60.936 22.08 60.936 21.072C60.936 20.152 60.908 19.16 60.852 18.096C60.804 17.024 60.736 16.188 60.648 15.588L61.956 15.288ZM63.2921 22.452H63.4601C64.7481 22.452 65.6961 22.352 66.3041 22.152C66.9121 21.944 67.2521 21.62 67.3241 21.18L67.3361 21.036C67.3361 20.732 67.2361 20.464 67.0361 20.232C66.8441 19.992 66.6041 19.872 66.3161 19.872C66.1481 19.872 65.9761 19.928 65.8001 20.04C65.6321 20.144 65.4921 20.284 65.3801 20.46C65.2761 20.628 65.2241 20.808 65.2241 21C65.2241 21.288 65.4001 21.56 65.7521 21.816C66.1041 22.064 66.5361 22.264 67.0481 22.416C67.5601 22.568 68.0401 22.644 68.4881 22.644C68.8481 22.644 69.1361 22.592 69.3521 22.488C69.5761 22.376 69.6881 22.208 69.6881 21.984C69.6881 21.576 69.2361 21.14 68.3321 20.676C67.4361 20.204 66.1281 19.732 64.4081 19.26L64.9601 17.82C66.4881 18.3 67.6801 18.756 68.5361 19.188C69.4001 19.62 70.0001 20.04 70.3361 20.448C70.6801 20.848 70.8521 21.28 70.8521 21.744C70.8521 22.032 70.7921 22.368 70.6721 22.752C70.5361 23.16 70.2601 23.468 69.8441 23.676C69.4281 23.876 68.9281 23.976 68.3441 23.976C67.6961 23.976 67.0361 23.86 66.3641 23.628C65.7001 23.388 65.1481 23.056 64.7081 22.632C64.2761 22.208 64.0601 21.736 64.0601 21.216C64.0601 21.144 64.0681 21.044 64.0841 20.916C64.1641 20.46 64.3201 20.044 64.5521 19.668C64.7841 19.284 65.0601 18.98 65.3801 18.756C65.7001 18.532 66.0361 18.42 66.3881 18.42C66.7481 18.42 67.0801 18.54 67.3841 18.78C67.6881 19.02 67.9281 19.336 68.1041 19.728C68.2881 20.112 68.3801 20.516 68.3801 20.94C68.3801 21.076 68.3681 21.212 68.3441 21.348C68.2401 22.004 68.0001 22.528 67.6241 22.92C67.2561 23.304 66.7321 23.58 66.0521 23.748C65.3801 23.916 64.5161 24 63.4601 24H63.2921V22.452ZM79.5609 24.132L79.4529 23.364L79.5009 22.584H79.6689C80.9169 22.576 81.8569 22.456 82.4889 22.224C83.1209 21.984 83.4809 21.6 83.5689 21.072C83.5689 20.648 83.5049 20.22 83.3769 19.788C83.2569 19.356 83.0849 19 82.8609 18.72C82.6449 18.432 82.3969 18.288 82.1169 18.288C81.9409 18.288 81.7769 18.348 81.6249 18.468C81.4809 18.58 81.3649 18.724 81.2769 18.9C81.1969 19.068 81.1569 19.232 81.1569 19.392C81.1569 19.528 81.1889 19.648 81.2529 19.752C81.3729 19.92 81.5929 20.056 81.9129 20.16C82.2409 20.256 82.6089 20.304 83.0169 20.304C83.2969 20.304 83.5729 20.28 83.8449 20.232V21.624C83.4289 21.704 83.0529 21.744 82.7169 21.744C82.1569 21.744 81.6609 21.652 81.2289 21.468C80.7969 21.276 80.4809 20.992 80.2809 20.616C80.1369 20.312 80.0649 19.976 80.0649 19.608C80.0649 19.176 80.1569 18.752 80.3409 18.336C80.5329 17.92 80.7929 17.58 81.1209 17.316C81.4569 17.052 81.8209 16.92 82.2129 16.92C82.6929 16.92 83.1209 17.12 83.4969 17.52C83.8729 17.912 84.1569 18.42 84.3489 19.044C84.5489 19.668 84.6289 20.308 84.5889 20.964C84.5489 21.94 84.1129 22.712 83.2809 23.28C82.4569 23.84 81.2449 24.124 79.6449 24.132H79.5609ZM76.4529 19.812C76.2129 20.54 76.1089 21.08 76.1409 21.432C76.2049 21.776 76.5329 22.056 77.1249 22.272C77.7169 22.48 78.5449 22.584 79.6089 22.584C79.6249 22.752 79.6329 23.008 79.6329 23.352C79.6329 23.696 79.6249 23.956 79.6089 24.132C78.1929 24.14 77.0809 23.932 76.2729 23.508C75.4649 23.084 75.0249 22.484 74.9529 21.708C74.9449 21.644 74.9409 21.548 74.9409 21.42C74.9409 21.084 74.9849 20.728 75.0729 20.352C75.1609 19.968 75.2729 19.616 75.4089 19.296L76.4529 19.812ZM81.0369 15.108C81.4849 14.644 81.8249 14.3 82.0569 14.076L83.0769 15.108L82.7409 15.444L82.0569 16.128L81.0369 15.108ZM85.9298 23.928C85.9938 23.448 86.0258 22.636 86.0258 21.492C86.0258 20.396 85.9938 19.248 85.9298 18.048C85.8738 16.848 85.8098 16.028 85.7378 15.588L87.0578 15.288C87.1218 15.72 87.1818 16.52 87.2378 17.688C87.2938 18.848 87.3218 19.984 87.3218 21.096C87.3218 22.416 87.2778 23.408 87.1898 24.072L85.9298 23.928ZM91.7512 24C91.2232 24 90.7992 23.812 90.4792 23.436C90.1672 23.052 89.9032 22.508 89.6872 21.804L90.6352 21.228C90.7472 21.676 90.8872 21.992 91.0552 22.176C91.2232 22.36 91.4552 22.452 91.7512 22.452H91.8472L91.9312 23.22L91.8472 24H91.7512ZM87.0352 26.172C87.5552 25.972 88.0312 25.728 88.4632 25.44C88.8952 25.152 89.2352 24.86 89.4832 24.564C89.7312 24.268 89.8552 24.004 89.8552 23.772C89.8552 23.596 89.8072 23.304 89.7112 22.896C89.6152 22.48 89.4872 21.96 89.3272 21.336C89.2632 21.112 89.2192 20.944 89.1952 20.832L90.3952 20.364C90.5792 20.924 90.7272 21.52 90.8392 22.152C90.9592 22.776 91.0192 23.316 91.0192 23.772C91.0192 24.532 90.7072 25.24 90.0832 25.896C89.4672 26.552 88.6592 27.08 87.6592 27.48L87.0352 26.172ZM102.317 22.452L102.401 23.22L102.317 24H102.257C101.217 24 100.469 23.976 100.013 23.928C99.565 23.88 99.209 23.752 98.945 23.544L99.665 22.716C100.161 22.636 100.613 22.572 101.021 22.524C101.437 22.476 101.849 22.452 102.257 22.452H102.317ZM91.721 22.452H91.901C92.285 22.452 92.593 22.368 92.825 22.2C93.065 22.032 93.257 21.768 93.401 21.408C93.545 21.048 93.661 20.564 93.749 19.956L94.865 20.184C94.817 20.48 94.793 20.752 94.793 21C94.793 21.624 94.961 22.068 95.297 22.332C95.633 22.596 96.193 22.728 96.977 22.728C97.689 22.728 98.325 22.648 98.885 22.488C99.445 22.32 99.877 22.108 100.181 21.852C100.493 21.588 100.649 21.324 100.649 21.06C100.649 20.836 100.553 20.652 100.361 20.508C100.169 20.356 99.905 20.28 99.569 20.28C98.913 20.28 98.249 20.56 97.577 21.12C96.913 21.672 96.305 22.452 95.753 23.46L94.865 22.824C95.489 21.568 96.205 20.584 97.013 19.872C97.829 19.16 98.637 18.804 99.437 18.804C99.909 18.804 100.329 18.912 100.697 19.128C101.073 19.336 101.357 19.628 101.549 20.004C101.741 20.372 101.817 20.788 101.777 21.252C101.721 21.86 101.485 22.392 101.069 22.848C100.661 23.296 100.109 23.644 99.413 23.892C98.725 24.132 97.945 24.252 97.073 24.252C95.497 24.252 94.505 23.764 94.097 22.788C93.865 23.18 93.573 23.48 93.221 23.688C92.877 23.896 92.433 24 91.889 24H91.721V22.452ZM102.198 22.452H102.834C103.426 22.452 103.854 22.384 104.118 22.248C104.382 22.104 104.514 21.888 104.514 21.6C104.514 21.416 104.426 21.06 104.25 20.532C104.082 20.004 103.954 19.644 103.866 19.452L104.994 18.84C105.146 19.16 105.302 19.6 105.462 20.16C105.63 20.72 105.714 21.208 105.714 21.624C105.714 22.4 105.466 22.992 104.97 23.4C104.474 23.8 103.762 24 102.834 24H102.198V22.452ZM103.026 17.256C103.474 16.792 103.814 16.448 104.046 16.224L105.066 17.256L104.73 17.592L104.046 18.276L103.026 17.256ZM107.047 23.928C107.111 23.448 107.143 22.636 107.143 21.492C107.143 20.396 107.111 19.248 107.047 18.048C106.991 16.848 106.927 16.028 106.855 15.588L108.175 15.288C108.239 15.72 108.299 16.52 108.355 17.688C108.411 18.848 108.439 19.984 108.439 21.096C108.439 22.416 108.395 23.408 108.307 24.072L107.047 23.928Z" fill="#2B2B2B"/>
<rect x="146" y="6" width="30" height="30" rx="6" fill="#4FD1C5"/>
<path fill-rule="evenodd" clip-rule="evenodd" d="M161.502 24.4031C161.244 24.4031 161.031 24.1931 161.031 23.9344C161.031 23.6756 161.238 23.4656 161.497 23.4656H161.502C161.761 23.4656 161.971 23.6756 161.971 23.9344C161.971 24.1931 161.761 24.4031 161.502 24.4031ZM161.03 19.3125C161.03 19.0538 161.24 18.8438 161.499 18.8438C161.758 18.8438 161.968 19.0538 161.968 19.3125V21.7469C161.968 22.0056 161.758 22.2156 161.499 22.2156C161.24 22.2156 161.03 22.0056 161.03 21.7469V19.3125ZM165.912 20.3488L165.779 20.115C163.913 16.7962 162.753 15.5625 161.499 15.5625C160.245 15.5625 159.085 16.7962 157.219 20.115L157.087 20.3488C156.417 21.525 155.023 23.9719 155.282 25.4319C155.587 27.1588 157.365 27.4375 161.499 27.4375C165.634 27.4375 167.412 27.1588 167.717 25.4319C167.975 23.9719 166.582 21.525 165.912 20.3488Z" fill="white"/>
</g>
<defs>
<filter id="filter0_d_4002_1593" x="0.5" y="0" width="181" height="49" filterUnits="userSpaceOnUse" color-interpolation-filters="sRGB">
<feFlood flood-opacity="0" result="BackgroundImageFix"/>
<feColorMatrix in="SourceAlpha" type="matrix" values="0 0 0 0 0 0 0 0 0 0 0 0 0 0 0 0 0 0 127 0" result="hardAlpha"/>
<feOffset dy="3.5"/>
<feGaussianBlur stdDeviation="2.75"/>
<feComposite in2="hardAlpha" operator="out"/>
<feColorMatrix type="matrix" values="0 0 0 0 0 0 0 0 0 0 0 0 0 0 0 0 0 0 0.02 0"/>
<feBlend mode="normal" in2="BackgroundImageFix" result="effect1_dropShadow_4002_1593"/>
<feBlend mode="normal" in="SourceGraphic" in2="effect1_dropShadow_4002_1593" result="shape"/>
</filter>
</defs>
</svg>
