<svg width="176" height="43" viewBox="0 0 176 43" fill="none" xmlns="http://www.w3.org/2000/svg">
<path d="M55.956 13.288C56.036 13.856 56.1 14.716 56.148 15.868C56.196 17.012 56.216 18 56.208 18.832C56.2 19.272 56.22 19.604 56.268 19.828C56.316 20.044 56.42 20.204 56.58 20.308C56.74 20.404 56.988 20.452 57.324 20.452H57.384L57.456 21.22L57.384 22H57.324C56.452 22 55.836 21.764 55.476 21.292C55.116 20.82 54.936 20.08 54.936 19.072C54.936 18.152 54.908 17.16 54.852 16.096C54.804 15.024 54.736 14.188 54.648 13.588L55.956 13.288ZM57.2921 20.452H57.4601C58.7481 20.452 59.6961 20.352 60.3041 20.152C60.9121 19.944 61.2521 19.62 61.3241 19.18L61.3361 19.036C61.3361 18.732 61.2361 18.464 61.0361 18.232C60.8441 17.992 60.6041 17.872 60.3161 17.872C60.1481 17.872 59.9761 17.928 59.8001 18.04C59.6321 18.144 59.4921 18.284 59.3801 18.46C59.2761 18.628 59.2241 18.808 59.2241 19C59.2241 19.288 59.4001 19.56 59.7521 19.816C60.1041 20.064 60.5361 20.264 61.0481 20.416C61.5601 20.568 62.0401 20.644 62.4881 20.644C62.8481 20.644 63.1361 20.592 63.3521 20.488C63.5761 20.376 63.6881 20.208 63.6881 19.984C63.6881 19.576 63.2361 19.14 62.3321 18.676C61.4361 18.204 60.1281 17.732 58.4081 17.26L58.9601 15.82C60.4881 16.3 61.6801 16.756 62.5361 17.188C63.4001 17.62 64.0001 18.04 64.3361 18.448C64.6801 18.848 64.8521 19.28 64.8521 19.744C64.8521 20.032 64.7921 20.368 64.6721 20.752C64.5361 21.16 64.2601 21.468 63.8441 21.676C63.4281 21.876 62.9281 21.976 62.3441 21.976C61.6961 21.976 61.0361 21.86 60.3641 21.628C59.7001 21.388 59.1481 21.056 58.7081 20.632C58.2761 20.208 58.0601 19.736 58.0601 19.216C58.0601 19.144 58.0681 19.044 58.0841 18.916C58.1641 18.46 58.3201 18.044 58.5521 17.668C58.7841 17.284 59.0601 16.98 59.3801 16.756C59.7001 16.532 60.0361 16.42 60.3881 16.42C60.7481 16.42 61.0801 16.54 61.3841 16.78C61.6881 17.02 61.9281 17.336 62.1041 17.728C62.2881 18.112 62.3801 18.516 62.3801 18.94C62.3801 19.076 62.3681 19.212 62.3441 19.348C62.2401 20.004 62.0001 20.528 61.6241 20.92C61.2561 21.304 60.7321 21.58 60.0521 21.748C59.3801 21.916 58.5161 22 57.4601 22H57.2921V20.452ZM73.5609 22.132L73.4529 21.364L73.5009 20.584H73.6689C74.9169 20.576 75.8569 20.456 76.4889 20.224C77.1209 19.984 77.4809 19.6 77.5689 19.072C77.5689 18.648 77.5049 18.22 77.3769 17.788C77.2569 17.356 77.0849 17 76.8609 16.72C76.6449 16.432 76.3969 16.288 76.1169 16.288C75.9409 16.288 75.7769 16.348 75.6249 16.468C75.4809 16.58 75.3649 16.724 75.2769 16.9C75.1969 17.068 75.1569 17.232 75.1569 17.392C75.1569 17.528 75.1889 17.648 75.2529 17.752C75.3729 17.92 75.5929 18.056 75.9129 18.16C76.2409 18.256 76.6089 18.304 77.0169 18.304C77.2969 18.304 77.5729 18.28 77.8449 18.232V19.624C77.4289 19.704 77.0529 19.744 76.7169 19.744C76.1569 19.744 75.6609 19.652 75.2289 19.468C74.7969 19.276 74.4809 18.992 74.2809 18.616C74.1369 18.312 74.0649 17.976 74.0649 17.608C74.0649 17.176 74.1569 16.752 74.3409 16.336C74.5329 15.92 74.7929 15.58 75.1209 15.316C75.4569 15.052 75.8209 14.92 76.2129 14.92C76.6929 14.92 77.1209 15.12 77.4969 15.52C77.8729 15.912 78.1569 16.42 78.3489 17.044C78.5489 17.668 78.6289 18.308 78.5889 18.964C78.5489 19.94 78.1129 20.712 77.2809 21.28C76.4569 21.84 75.2449 22.124 73.6449 22.132H73.5609ZM70.4529 17.812C70.2129 18.54 70.1089 19.08 70.1409 19.432C70.2049 19.776 70.5329 20.056 71.1249 20.272C71.7169 20.48 72.5449 20.584 73.6089 20.584C73.6249 20.752 73.6329 21.008 73.6329 21.352C73.6329 21.696 73.6249 21.956 73.6089 22.132C72.1929 22.14 71.0809 21.932 70.2729 21.508C69.4649 21.084 69.0249 20.484 68.9529 19.708C68.9449 19.644 68.9409 19.548 68.9409 19.42C68.9409 19.084 68.9849 18.728 69.0729 18.352C69.1609 17.968 69.2729 17.616 69.4089 17.296L70.4529 17.812ZM75.0369 13.108C75.4849 12.644 75.8249 12.3 76.0569 12.076L77.0769 13.108L76.7409 13.444L76.0569 14.128L75.0369 13.108ZM79.9298 21.928C79.9938 21.448 80.0258 20.636 80.0258 19.492C80.0258 18.396 79.9938 17.248 79.9298 16.048C79.8738 14.848 79.8098 14.028 79.7378 13.588L81.0578 13.288C81.1218 13.72 81.1818 14.52 81.2378 15.688C81.2938 16.848 81.3218 17.984 81.3218 19.096C81.3218 20.416 81.2778 21.408 81.1898 22.072L79.9298 21.928ZM85.7512 22C85.2232 22 84.7992 21.812 84.4792 21.436C84.1672 21.052 83.9032 20.508 83.6872 19.804L84.6352 19.228C84.7472 19.676 84.8872 19.992 85.0552 20.176C85.2232 20.36 85.4552 20.452 85.7512 20.452H85.8472L85.9312 21.22L85.8472 22H85.7512ZM81.0352 24.172C81.5552 23.972 82.0312 23.728 82.4632 23.44C82.8952 23.152 83.2352 22.86 83.4832 22.564C83.7312 22.268 83.8552 22.004 83.8552 21.772C83.8552 21.596 83.8072 21.304 83.7112 20.896C83.6152 20.48 83.4872 19.96 83.3272 19.336C83.2632 19.112 83.2192 18.944 83.1952 18.832L84.3952 18.364C84.5792 18.924 84.7272 19.52 84.8392 20.152C84.9592 20.776 85.0192 21.316 85.0192 21.772C85.0192 22.532 84.7072 23.24 84.0832 23.896C83.4672 24.552 82.6592 25.08 81.6592 25.48L81.0352 24.172ZM96.317 20.452L96.401 21.22L96.317 22H96.257C95.217 22 94.469 21.976 94.013 21.928C93.565 21.88 93.209 21.752 92.945 21.544L93.665 20.716C94.161 20.636 94.613 20.572 95.021 20.524C95.437 20.476 95.849 20.452 96.257 20.452H96.317ZM85.721 20.452H85.901C86.285 20.452 86.593 20.368 86.825 20.2C87.065 20.032 87.257 19.768 87.401 19.408C87.545 19.048 87.661 18.564 87.749 17.956L88.865 18.184C88.817 18.48 88.793 18.752 88.793 19C88.793 19.624 88.961 20.068 89.297 20.332C89.633 20.596 90.193 20.728 90.977 20.728C91.689 20.728 92.325 20.648 92.885 20.488C93.445 20.32 93.877 20.108 94.181 19.852C94.493 19.588 94.649 19.324 94.649 19.06C94.649 18.836 94.553 18.652 94.361 18.508C94.169 18.356 93.905 18.28 93.569 18.28C92.913 18.28 92.249 18.56 91.577 19.12C90.913 19.672 90.305 20.452 89.753 21.46L88.865 20.824C89.489 19.568 90.205 18.584 91.013 17.872C91.829 17.16 92.637 16.804 93.437 16.804C93.909 16.804 94.329 16.912 94.697 17.128C95.073 17.336 95.357 17.628 95.549 18.004C95.741 18.372 95.817 18.788 95.777 19.252C95.721 19.86 95.485 20.392 95.069 20.848C94.661 21.296 94.109 21.644 93.413 21.892C92.725 22.132 91.945 22.252 91.073 22.252C89.497 22.252 88.505 21.764 88.097 20.788C87.865 21.18 87.573 21.48 87.221 21.688C86.877 21.896 86.433 22 85.889 22H85.721V20.452ZM96.1978 20.452H96.8338C97.4258 20.452 97.8538 20.384 98.1178 20.248C98.3818 20.104 98.5138 19.888 98.5138 19.6C98.5138 19.416 98.4258 19.06 98.2498 18.532C98.0818 18.004 97.9538 17.644 97.8658 17.452L98.9938 16.84C99.1458 17.16 99.3018 17.6 99.4618 18.16C99.6298 18.72 99.7138 19.208 99.7138 19.624C99.7138 20.4 99.4658 20.992 98.9698 21.4C98.4738 21.8 97.7618 22 96.8338 22H96.1978V20.452ZM97.0258 15.256C97.4738 14.792 97.8138 14.448 98.0458 14.224L99.0658 15.256L98.7298 15.592L98.0458 16.276L97.0258 15.256ZM101.047 21.928C101.111 21.448 101.143 20.636 101.143 19.492C101.143 18.396 101.111 17.248 101.047 16.048C100.991 14.848 100.927 14.028 100.855 13.588L102.175 13.288C102.239 13.72 102.299 14.52 102.355 15.688C102.411 16.848 102.439 17.984 102.439 19.096C102.439 20.416 102.395 21.408 102.307 22.072L101.047 21.928Z" fill="#A0AEC0"/>
<g filter="url(#filter0_d_3419_3013)">
<rect x="140" y="4" width="30" height="30" rx="6" fill="white" shape-rendering="crispEdges"/>
<path fill-rule="evenodd" clip-rule="evenodd" d="M155.501 20.6439C153.055 20.6439 150.91 22.0826 150.91 23.722C150.91 25.8314 154.366 25.8314 155.501 25.8314C156.636 25.8314 160.091 25.8314 160.091 23.7083C160.091 22.0758 157.946 20.6439 155.501 20.6439Z" fill="#4FD1C5"/>
<path fill-rule="evenodd" clip-rule="evenodd" d="M155.477 19.2761H155.496C157.18 19.2761 158.55 17.9061 158.55 16.2217C158.55 14.538 157.18 13.168 155.496 13.168C153.812 13.168 152.442 14.538 152.442 16.2205C152.436 17.8992 153.797 19.2698 155.477 19.2761Z" fill="#4FD1C5"/>
</g>
<defs>
<filter id="filter0_d_3419_3013" x="134.5" y="2" width="41" height="41" filterUnits="userSpaceOnUse" color-interpolation-filters="sRGB">
<feFlood flood-opacity="0" result="BackgroundImageFix"/>
<feColorMatrix in="SourceAlpha" type="matrix" values="0 0 0 0 0 0 0 0 0 0 0 0 0 0 0 0 0 0 127 0" result="hardAlpha"/>
<feOffset dy="3.5"/>
<feGaussianBlur stdDeviation="2.75"/>
<feComposite in2="hardAlpha" operator="out"/>
<feColorMatrix type="matrix" values="0 0 0 0 0 0 0 0 0 0 0 0 0 0 0 0 0 0 0.02 0"/>
<feBlend mode="normal" in2="BackgroundImageFix" result="effect1_dropShadow_3419_3013"/>
<feBlend mode="normal" in="SourceGraphic" in2="effect1_dropShadow_3419_3013" result="shape"/>
</filter>
</defs>
</svg>
