<svg width="25" height="24" viewBox="0 0 25 24" fill="none" xmlns="http://www.w3.org/2000/svg">
<path fill-rule="evenodd" clip-rule="evenodd" d="M19.3693 9.59753C19.3693 9.32153 19.1453 9.09753 18.8693 9.09753H5.67331C5.39631 9.09753 5.17331 9.32153 5.17331 9.59753C5.17331 10.5945 5.15531 11.5235 5.13831 12.3845C5.06431 16.1335 5.01531 18.6105 6.53031 20.1555C7.60631 21.2525 9.37331 21.7425 12.2603 21.7425C15.1503 21.7425 16.9203 21.2515 17.9993 20.1525C19.5213 18.6005 19.4733 16.1115 19.4023 12.3415C19.3863 11.4925 19.3693 10.5775 19.3693 9.59753Z" fill="#2D3748"/>
<path fill-rule="evenodd" clip-rule="evenodd" d="M20.3453 5.77432H16.2043C16.1633 5.12032 15.9823 4.19832 15.3313 3.45032C14.6433 2.65932 13.6133 2.25732 12.2693 2.25732C10.9263 2.25732 9.89631 2.65932 9.20831 3.45032C8.55731 4.19832 8.37531 5.12032 8.33431 5.77432H4.19531C3.78131 5.77432 3.44531 6.11032 3.44531 6.52432C3.44531 6.93832 3.78131 7.27432 4.19531 7.27432H20.3453C20.7593 7.27432 21.0953 6.93832 21.0953 6.52432C21.0953 6.11032 20.7593 5.77432 20.3453 5.77432Z" fill="#2D3748"/>
</svg>
