<svg width="192" height="49" viewBox="0 0 192 49" fill="none" xmlns="http://www.w3.org/2000/svg">
<g filter="url(#filter0_d_843_10262)">
<rect x="6" y="2" width="180" height="38" rx="6" fill="white" shape-rendering="crispEdges"/>
<path d="M84.176 27.42C83.432 27.42 82.772 27.272 82.196 26.976C81.628 26.688 81.192 26.264 80.888 25.704C80.584 25.144 80.456 24.476 80.504 23.7C80.528 23.252 80.616 22.78 80.768 22.284C80.928 21.788 81.108 21.328 81.308 20.904L82.352 21.396C82.144 21.86 81.984 22.284 81.872 22.668C81.76 23.052 81.704 23.432 81.704 23.808C81.704 24.496 81.916 25.012 82.34 25.356C82.764 25.7 83.376 25.872 84.176 25.872C84.624 25.872 85.048 25.82 85.448 25.716C85.856 25.612 86.2 25.48 86.48 25.32C86.76 25.16 86.944 25.008 87.032 24.864C86.912 24.72 86.616 24.508 86.144 24.228C85.672 23.956 85.176 23.72 84.656 23.52L84.992 22.056C85.648 22.184 86.228 22.28 86.732 22.344C87.244 22.408 87.744 22.444 88.232 22.452H88.448L88.532 23.22L88.448 24H88.232C87.688 23.992 87.128 23.948 86.552 23.868C85.984 23.78 85.356 23.664 84.668 23.52L85.004 22.572C85.068 22.596 85.38 22.728 85.94 22.968C86.5 23.208 87.012 23.512 87.476 23.88C87.94 24.248 88.172 24.6 88.172 24.936C88.164 25.32 87.98 25.704 87.62 26.088C87.26 26.48 86.776 26.8 86.168 27.048C85.56 27.296 84.896 27.42 84.176 27.42ZM88.2837 22.452H88.6678C89.0918 22.452 89.3998 22.364 89.5918 22.188C89.7838 22.004 89.8798 21.728 89.8798 21.36C89.8798 20.872 89.8398 19.904 89.7598 18.456C89.6798 17 89.6078 16.044 89.5438 15.588L90.8638 15.288C90.9118 15.728 90.9718 16.688 91.0438 18.168C91.1158 19.64 91.1558 20.66 91.1638 21.228C91.1638 21.756 91.0598 22.232 90.8518 22.656C90.6518 23.072 90.3638 23.4 89.9878 23.64C89.6118 23.88 89.1798 24 88.6918 24H88.2837V22.452ZM93.7451 15.288C93.8251 15.856 93.8891 16.716 93.9371 17.868C93.9851 19.012 94.0051 20 93.9971 20.832C93.9891 21.272 94.0091 21.604 94.0571 21.828C94.1051 22.044 94.2091 22.204 94.3691 22.308C94.5291 22.404 94.7771 22.452 95.1131 22.452H95.1731L95.2451 23.22L95.1731 24H95.1131C94.2411 24 93.6251 23.764 93.2651 23.292C92.9051 22.82 92.7251 22.08 92.7251 21.072C92.7251 20.152 92.6971 19.16 92.6411 18.096C92.5931 17.024 92.5251 16.188 92.4371 15.588L93.7451 15.288ZM97.4572 21.54C97.9452 21.876 98.3932 22.144 98.8012 22.344C99.2092 22.536 99.5132 22.632 99.7132 22.632C99.7932 22.632 99.8492 22.62 99.8812 22.596C100.089 22.468 100.193 22.22 100.193 21.852C100.193 21.508 100.101 21.192 99.9172 20.904C99.7332 20.616 99.4972 20.472 99.2092 20.472C98.7452 20.472 98.2172 21.128 97.6252 22.44C97.3932 22.96 97.0732 23.352 96.6652 23.616C96.2572 23.872 95.7932 24 95.2732 24H95.0572L95.0812 22.452H95.3092C95.9412 22.452 96.4612 22.076 96.8692 21.324C97.2372 20.604 97.6092 20.052 97.9852 19.668C98.3612 19.276 98.7772 19.08 99.2332 19.08C99.6492 19.08 100.013 19.212 100.325 19.476C100.637 19.74 100.877 20.08 101.045 20.496C101.213 20.912 101.297 21.348 101.297 21.804C101.297 22.26 101.209 22.676 101.033 23.052C100.865 23.428 100.617 23.716 100.289 23.916C100.121 24.012 99.9212 24.06 99.6892 24.06C99.0092 24.06 98.0652 23.652 96.8572 22.836L97.4572 21.54ZM110.013 24.132C110.005 23.956 110.001 23.696 110.001 23.352C110.001 23.008 110.005 22.752 110.013 22.584C111.037 22.584 111.845 22.512 112.437 22.368C113.029 22.224 113.485 21.996 113.805 21.684C114.133 21.372 114.397 20.932 114.597 20.364L115.725 20.496C115.581 20.952 115.509 21.32 115.509 21.6C115.509 22.168 115.801 22.452 116.385 22.452L116.469 23.22L116.373 24C116.037 24 115.729 23.928 115.449 23.784C115.169 23.632 114.949 23.42 114.789 23.148C114.629 22.876 114.549 22.568 114.549 22.224L114.789 22.26C114.317 22.948 113.697 23.432 112.929 23.712C112.169 23.992 111.197 24.132 110.013 24.132ZM106.953 19.812C106.713 20.54 106.609 21.08 106.641 21.432C106.705 21.776 107.033 22.056 107.625 22.272C108.217 22.48 109.045 22.584 110.109 22.584C110.125 22.752 110.133 23.008 110.133 23.352C110.133 23.696 110.125 23.956 110.109 24.132C108.693 24.14 107.581 23.932 106.773 23.508C105.965 23.084 105.525 22.484 105.453 21.708C105.445 21.644 105.441 21.548 105.441 21.42C105.441 21.084 105.485 20.728 105.573 20.352C105.661 19.968 105.773 19.616 105.909 19.296L106.953 19.812ZM109.365 18.36L110.301 19.284L109.365 20.232L108.429 19.284L109.365 18.36ZM111.465 18.36L112.401 19.284L111.465 20.232L110.529 19.284L111.465 18.36ZM116.268 22.452H116.808C117.624 22.452 118.2 22.38 118.536 22.236C118.872 22.084 119.04 21.852 119.04 21.54C119.032 21.34 118.944 20.996 118.776 20.508C118.616 20.012 118.488 19.66 118.392 19.452L119.52 18.84C119.68 19.2 119.84 19.648 120 20.184C120.16 20.72 120.24 21.192 120.24 21.6C120.232 22.384 119.96 22.98 119.424 23.388C118.888 23.796 118.092 24 117.036 24H116.268V22.452ZM116.4 25.08L117.336 26.004L116.4 26.952L115.464 26.004L116.4 25.08ZM118.512 25.08L119.448 26.004L118.512 26.952L117.576 26.004L118.512 25.08ZM124.829 24C124.301 24 123.877 23.812 123.557 23.436C123.245 23.052 122.981 22.508 122.765 21.804L123.713 21.228C123.825 21.676 123.965 21.992 124.133 22.176C124.301 22.36 124.533 22.452 124.829 22.452H124.925L125.009 23.22L124.925 24H124.829ZM120.113 26.172C120.633 25.972 121.109 25.728 121.541 25.44C121.973 25.152 122.313 24.86 122.561 24.564C122.809 24.268 122.933 24.004 122.933 23.772C122.933 23.596 122.885 23.304 122.789 22.896C122.693 22.48 122.565 21.96 122.405 21.336C122.341 21.112 122.297 20.944 122.273 20.832L123.473 20.364C123.657 20.924 123.805 21.52 123.917 22.152C124.037 22.776 124.097 23.316 124.097 23.772C124.097 24.532 123.785 25.24 123.161 25.896C122.545 26.552 121.737 27.08 120.737 27.48L120.113 26.172ZM125.195 22.452H125.735C126.551 22.452 127.127 22.38 127.463 22.236C127.799 22.084 127.967 21.852 127.967 21.54C127.959 21.34 127.871 20.996 127.703 20.508C127.543 20.012 127.415 19.66 127.319 19.452L128.447 18.84C128.607 19.2 128.767 19.648 128.927 20.184C129.087 20.72 129.167 21.192 129.167 21.6C129.159 22.384 128.887 22.98 128.351 23.388C127.815 23.796 127.019 24 125.963 24H125.195V22.452ZM125.819 25.056L126.755 25.98L125.819 26.928L124.883 25.98L125.819 25.056ZM127.931 25.056L128.867 25.98L127.931 26.928L126.995 25.98L127.931 25.056ZM124.835 24L124.763 23.22L124.835 22.452H125.327V24H124.835ZM133.66 17.664L135.304 21.552C135.448 21.896 135.608 22.132 135.784 22.26C135.968 22.388 136.224 22.452 136.552 22.452H136.684L136.768 23.22L136.684 24H136.552C136.024 24 135.576 23.856 135.208 23.568C134.848 23.28 134.528 22.824 134.248 22.2L132.544 18.252L133.66 17.664ZM130.564 22.032C130.844 22.184 131.132 22.316 131.428 22.428C131.732 22.532 132.088 22.584 132.496 22.584C133.008 22.584 133.432 22.504 133.768 22.344C134.104 22.184 134.372 22.008 134.572 21.816L135.256 22.752C135.056 22.976 134.864 23.172 134.68 23.34C134.504 23.5 134.236 23.66 133.876 23.82C133.524 23.98 133.108 24.06 132.628 24.06C132.036 24.06 131.528 23.968 131.104 23.784C130.688 23.592 130.312 23.376 129.976 23.136L130.564 22.032ZM138.965 21.54C139.453 21.876 139.901 22.144 140.309 22.344C140.717 22.536 141.021 22.632 141.221 22.632C141.301 22.632 141.357 22.62 141.389 22.596C141.597 22.468 141.701 22.22 141.701 21.852C141.701 21.508 141.609 21.192 141.425 20.904C141.241 20.616 141.005 20.472 140.717 20.472C140.253 20.472 139.725 21.128 139.133 22.44C138.901 22.96 138.581 23.352 138.173 23.616C137.765 23.872 137.301 24 136.781 24H136.565L136.589 22.452H136.817C137.449 22.452 137.969 22.076 138.377 21.324C138.745 20.604 139.117 20.052 139.493 19.668C139.869 19.276 140.285 19.08 140.741 19.08C141.157 19.08 141.521 19.212 141.833 19.476C142.145 19.74 142.385 20.08 142.553 20.496C142.721 20.912 142.805 21.348 142.805 21.804C142.805 22.26 142.717 22.676 142.541 23.052C142.373 23.428 142.125 23.716 141.797 23.916C141.629 24.012 141.429 24.06 141.197 24.06C140.517 24.06 139.573 23.652 138.365 22.836L138.965 21.54Z" fill="#2B2B2B"/>
<rect x="156" y="6" width="30" height="30" rx="6" fill="#4FD1C5"/>
<path fill-rule="evenodd" clip-rule="evenodd" d="M171.504 19.1366C171.248 18.6535 169.896 16.241 168.402 16.241C166.907 16.241 165.555 18.6535 165.299 19.1366C165.138 19.4416 165.254 19.8197 165.559 19.9816C165.863 20.141 166.242 20.0266 166.404 19.7216C166.773 19.0266 167.313 18.286 167.777 17.8572V24.7528C167.777 25.0985 168.056 25.3778 168.402 25.3778C168.747 25.3778 169.027 25.0985 169.027 24.7528V17.8572C169.49 18.2866 170.03 19.0266 170.399 19.7216C170.511 19.9328 170.728 20.0541 170.952 20.0541C171.05 20.0541 171.151 20.0303 171.244 19.9816C171.549 19.8197 171.665 19.4416 171.504 19.1366Z" fill="#EDFAF9"/>
<path fill-rule="evenodd" clip-rule="evenodd" d="M177.444 23.0203C177.142 22.8584 176.761 22.9747 176.599 23.279C176.232 23.9728 175.694 24.7115 175.233 25.1409V18.2472C175.233 17.9022 174.953 17.6222 174.608 17.6222C174.262 17.6222 173.983 17.9022 173.983 18.2472V25.1434C173.519 24.7147 172.979 23.9747 172.61 23.279C172.448 22.9747 172.067 22.8578 171.765 23.0203C171.46 23.1815 171.344 23.559 171.505 23.8647C171.761 24.3478 173.113 26.759 174.608 26.759C176.097 26.759 177.448 24.3478 177.704 23.8647C177.865 23.559 177.749 23.1815 177.444 23.0203Z" fill="#EDFAF9"/>
</g>
<defs>
<filter id="filter0_d_843_10262" x="0.5" y="0" width="191" height="49" filterUnits="userSpaceOnUse" color-interpolation-filters="sRGB">
<feFlood flood-opacity="0" result="BackgroundImageFix"/>
<feColorMatrix in="SourceAlpha" type="matrix" values="0 0 0 0 0 0 0 0 0 0 0 0 0 0 0 0 0 0 127 0" result="hardAlpha"/>
<feOffset dy="3.5"/>
<feGaussianBlur stdDeviation="2.75"/>
<feComposite in2="hardAlpha" operator="out"/>
<feColorMatrix type="matrix" values="0 0 0 0 0 0 0 0 0 0 0 0 0 0 0 0 0 0 0.02 0"/>
<feBlend mode="normal" in2="BackgroundImageFix" result="effect1_dropShadow_843_10262"/>
<feBlend mode="normal" in="SourceGraphic" in2="effect1_dropShadow_843_10262" result="shape"/>
</filter>
</defs>
</svg>
