<svg width="176" height="43" viewBox="0 0 176 43" fill="none" xmlns="http://www.w3.org/2000/svg">
<path d="M68.176 25.42C67.432 25.42 66.772 25.272 66.196 24.976C65.628 24.688 65.192 24.264 64.888 23.704C64.584 23.144 64.456 22.476 64.504 21.7C64.528 21.252 64.616 20.78 64.768 20.284C64.928 19.788 65.108 19.328 65.308 18.904L66.352 19.396C66.144 19.86 65.984 20.284 65.872 20.668C65.76 21.052 65.704 21.432 65.704 21.808C65.704 22.496 65.916 23.012 66.34 23.356C66.764 23.7 67.376 23.872 68.176 23.872C68.624 23.872 69.048 23.82 69.448 23.716C69.856 23.612 70.2 23.48 70.48 23.32C70.76 23.16 70.944 23.008 71.032 22.864C70.912 22.72 70.616 22.508 70.144 22.228C69.672 21.956 69.176 21.72 68.656 21.52L68.992 20.056C69.648 20.184 70.228 20.28 70.732 20.344C71.244 20.408 71.744 20.444 72.232 20.452H72.448L72.532 21.22L72.448 22H72.232C71.688 21.992 71.128 21.948 70.552 21.868C69.984 21.78 69.356 21.664 68.668 21.52L69.004 20.572C69.068 20.596 69.38 20.728 69.94 20.968C70.5 21.208 71.012 21.512 71.476 21.88C71.94 22.248 72.172 22.6 72.172 22.936C72.164 23.32 71.98 23.704 71.62 24.088C71.26 24.48 70.776 24.8 70.168 25.048C69.56 25.296 68.896 25.42 68.176 25.42ZM72.2837 20.452H72.6678C73.0918 20.452 73.3998 20.364 73.5918 20.188C73.7838 20.004 73.8798 19.728 73.8798 19.36C73.8798 18.872 73.8398 17.904 73.7598 16.456C73.6798 15 73.6078 14.044 73.5438 13.588L74.8638 13.288C74.9118 13.728 74.9718 14.688 75.0438 16.168C75.1158 17.64 75.1558 18.66 75.1638 19.228C75.1638 19.756 75.0598 20.232 74.8518 20.656C74.6518 21.072 74.3638 21.4 73.9878 21.64C73.6118 21.88 73.1798 22 72.6918 22H72.2837V20.452ZM77.7451 13.288C77.8251 13.856 77.8891 14.716 77.9371 15.868C77.9851 17.012 78.0051 18 77.9971 18.832C77.9891 19.272 78.0091 19.604 78.0571 19.828C78.1051 20.044 78.2091 20.204 78.3691 20.308C78.5291 20.404 78.7771 20.452 79.1131 20.452H79.1731L79.2451 21.22L79.1731 22H79.1131C78.2411 22 77.6251 21.764 77.2651 21.292C76.9051 20.82 76.7251 20.08 76.7251 19.072C76.7251 18.152 76.6971 17.16 76.6411 16.096C76.5931 15.024 76.5251 14.188 76.4371 13.588L77.7451 13.288ZM81.4572 19.54C81.9452 19.876 82.3932 20.144 82.8012 20.344C83.2092 20.536 83.5132 20.632 83.7132 20.632C83.7932 20.632 83.8492 20.62 83.8812 20.596C84.0892 20.468 84.1932 20.22 84.1932 19.852C84.1932 19.508 84.1012 19.192 83.9172 18.904C83.7332 18.616 83.4972 18.472 83.2092 18.472C82.7452 18.472 82.2172 19.128 81.6252 20.44C81.3932 20.96 81.0732 21.352 80.6652 21.616C80.2572 21.872 79.7932 22 79.2732 22H79.0572L79.0812 20.452H79.3092C79.9412 20.452 80.4612 20.076 80.8692 19.324C81.2372 18.604 81.6092 18.052 81.9852 17.668C82.3612 17.276 82.7772 17.08 83.2332 17.08C83.6492 17.08 84.0132 17.212 84.3252 17.476C84.6372 17.74 84.8772 18.08 85.0452 18.496C85.2132 18.912 85.2972 19.348 85.2972 19.804C85.2972 20.26 85.2092 20.676 85.0332 21.052C84.8652 21.428 84.6172 21.716 84.2892 21.916C84.1212 22.012 83.9212 22.06 83.6892 22.06C83.0092 22.06 82.0652 21.652 80.8572 20.836L81.4572 19.54ZM94.0129 22.132C94.0049 21.956 94.0009 21.696 94.0009 21.352C94.0009 21.008 94.0049 20.752 94.0129 20.584C95.0369 20.584 95.8449 20.512 96.4369 20.368C97.0289 20.224 97.4849 19.996 97.8049 19.684C98.1329 19.372 98.3969 18.932 98.5969 18.364L99.7249 18.496C99.5809 18.952 99.5089 19.32 99.5089 19.6C99.5089 20.168 99.8009 20.452 100.385 20.452L100.469 21.22L100.373 22C100.037 22 99.7289 21.928 99.4489 21.784C99.1689 21.632 98.9489 21.42 98.7889 21.148C98.6289 20.876 98.5489 20.568 98.5489 20.224L98.7889 20.26C98.3169 20.948 97.6969 21.432 96.9289 21.712C96.1689 21.992 95.1969 22.132 94.0129 22.132ZM90.9529 17.812C90.7129 18.54 90.6089 19.08 90.6409 19.432C90.7049 19.776 91.0329 20.056 91.6249 20.272C92.2169 20.48 93.0449 20.584 94.1089 20.584C94.1249 20.752 94.1329 21.008 94.1329 21.352C94.1329 21.696 94.1249 21.956 94.1089 22.132C92.6929 22.14 91.5809 21.932 90.7729 21.508C89.9649 21.084 89.5249 20.484 89.4529 19.708C89.4449 19.644 89.4409 19.548 89.4409 19.42C89.4409 19.084 89.4849 18.728 89.5729 18.352C89.6609 17.968 89.7729 17.616 89.9089 17.296L90.9529 17.812ZM93.3649 16.36L94.3009 17.284L93.3649 18.232L92.4289 17.284L93.3649 16.36ZM95.4649 16.36L96.4009 17.284L95.4649 18.232L94.5289 17.284L95.4649 16.36ZM100.268 20.452H100.808C101.624 20.452 102.2 20.38 102.536 20.236C102.872 20.084 103.04 19.852 103.04 19.54C103.032 19.34 102.944 18.996 102.776 18.508C102.616 18.012 102.488 17.66 102.392 17.452L103.52 16.84C103.68 17.2 103.84 17.648 104 18.184C104.16 18.72 104.24 19.192 104.24 19.6C104.232 20.384 103.96 20.98 103.424 21.388C102.888 21.796 102.092 22 101.036 22H100.268V20.452ZM100.4 23.08L101.336 24.004L100.4 24.952L99.4641 24.004L100.4 23.08ZM102.512 23.08L103.448 24.004L102.512 24.952L101.576 24.004L102.512 23.08ZM108.829 22C108.301 22 107.877 21.812 107.557 21.436C107.245 21.052 106.981 20.508 106.765 19.804L107.713 19.228C107.825 19.676 107.965 19.992 108.133 20.176C108.301 20.36 108.533 20.452 108.829 20.452H108.925L109.009 21.22L108.925 22H108.829ZM104.113 24.172C104.633 23.972 105.109 23.728 105.541 23.44C105.973 23.152 106.313 22.86 106.561 22.564C106.809 22.268 106.933 22.004 106.933 21.772C106.933 21.596 106.885 21.304 106.789 20.896C106.693 20.48 106.565 19.96 106.405 19.336C106.341 19.112 106.297 18.944 106.273 18.832L107.473 18.364C107.657 18.924 107.805 19.52 107.917 20.152C108.037 20.776 108.097 21.316 108.097 21.772C108.097 22.532 107.785 23.24 107.161 23.896C106.545 24.552 105.737 25.08 104.737 25.48L104.113 24.172ZM109.195 20.452H109.735C110.551 20.452 111.127 20.38 111.463 20.236C111.799 20.084 111.967 19.852 111.967 19.54C111.959 19.34 111.871 18.996 111.703 18.508C111.543 18.012 111.415 17.66 111.319 17.452L112.447 16.84C112.607 17.2 112.767 17.648 112.927 18.184C113.087 18.72 113.167 19.192 113.167 19.6C113.159 20.384 112.887 20.98 112.351 21.388C111.815 21.796 111.019 22 109.963 22H109.195V20.452ZM109.819 23.056L110.755 23.98L109.819 24.928L108.883 23.98L109.819 23.056ZM111.931 23.056L112.867 23.98L111.931 24.928L110.995 23.98L111.931 23.056ZM108.835 22L108.763 21.22L108.835 20.452H109.327V22H108.835ZM117.66 15.664L119.304 19.552C119.448 19.896 119.608 20.132 119.784 20.26C119.968 20.388 120.224 20.452 120.552 20.452H120.684L120.768 21.22L120.684 22H120.552C120.024 22 119.576 21.856 119.208 21.568C118.848 21.28 118.528 20.824 118.248 20.2L116.544 16.252L117.66 15.664ZM114.564 20.032C114.844 20.184 115.132 20.316 115.428 20.428C115.732 20.532 116.088 20.584 116.496 20.584C117.008 20.584 117.432 20.504 117.768 20.344C118.104 20.184 118.372 20.008 118.572 19.816L119.256 20.752C119.056 20.976 118.864 21.172 118.68 21.34C118.504 21.5 118.236 21.66 117.876 21.82C117.524 21.98 117.108 22.06 116.628 22.06C116.036 22.06 115.528 21.968 115.104 21.784C114.688 21.592 114.312 21.376 113.976 21.136L114.564 20.032ZM122.965 19.54C123.453 19.876 123.901 20.144 124.309 20.344C124.717 20.536 125.021 20.632 125.221 20.632C125.301 20.632 125.357 20.62 125.389 20.596C125.597 20.468 125.701 20.22 125.701 19.852C125.701 19.508 125.609 19.192 125.425 18.904C125.241 18.616 125.005 18.472 124.717 18.472C124.253 18.472 123.725 19.128 123.133 20.44C122.901 20.96 122.581 21.352 122.173 21.616C121.765 21.872 121.301 22 120.781 22H120.565L120.589 20.452H120.817C121.449 20.452 121.969 20.076 122.377 19.324C122.745 18.604 123.117 18.052 123.493 17.668C123.869 17.276 124.285 17.08 124.741 17.08C125.157 17.08 125.521 17.212 125.833 17.476C126.145 17.74 126.385 18.08 126.553 18.496C126.721 18.912 126.805 19.348 126.805 19.804C126.805 20.26 126.717 20.676 126.541 21.052C126.373 21.428 126.125 21.716 125.797 21.916C125.629 22.012 125.429 22.06 125.197 22.06C124.517 22.06 123.573 21.652 122.365 20.836L122.965 19.54Z" fill="#A0AEC0"/>
<g filter="url(#filter0_d_843_10257)">
<rect x="140" y="4" width="30" height="30" rx="6" fill="white" shape-rendering="crispEdges"/>
<path fill-rule="evenodd" clip-rule="evenodd" d="M155.504 17.1366C155.248 16.6535 153.896 14.241 152.402 14.241C150.907 14.241 149.555 16.6535 149.299 17.1366C149.138 17.4416 149.254 17.8197 149.559 17.9816C149.863 18.141 150.242 18.0266 150.404 17.7216C150.773 17.0266 151.313 16.286 151.777 15.8572V22.7528C151.777 23.0985 152.056 23.3778 152.402 23.3778C152.747 23.3778 153.027 23.0985 153.027 22.7528V15.8572C153.49 16.2866 154.03 17.0266 154.399 17.7216C154.511 17.9328 154.728 18.0541 154.952 18.0541C155.05 18.0541 155.151 18.0303 155.244 17.9816C155.549 17.8197 155.665 17.4416 155.504 17.1366Z" fill="#4FD1C5"/>
<path fill-rule="evenodd" clip-rule="evenodd" d="M161.444 21.0203C161.142 20.8584 160.761 20.9747 160.599 21.279C160.232 21.9728 159.694 22.7115 159.233 23.1409V16.2472C159.233 15.9022 158.953 15.6222 158.608 15.6222C158.262 15.6222 157.983 15.9022 157.983 16.2472V23.1434C157.519 22.7147 156.979 21.9747 156.61 21.279C156.448 20.9747 156.067 20.8578 155.765 21.0203C155.46 21.1815 155.344 21.559 155.505 21.8647C155.761 22.3478 157.113 24.759 158.608 24.759C160.097 24.759 161.448 22.3478 161.704 21.8647C161.865 21.559 161.749 21.1815 161.444 21.0203Z" fill="#4FD1C5"/>
</g>
<defs>
<filter id="filter0_d_843_10257" x="134.5" y="2" width="41" height="41" filterUnits="userSpaceOnUse" color-interpolation-filters="sRGB">
<feFlood flood-opacity="0" result="BackgroundImageFix"/>
<feColorMatrix in="SourceAlpha" type="matrix" values="0 0 0 0 0 0 0 0 0 0 0 0 0 0 0 0 0 0 127 0" result="hardAlpha"/>
<feOffset dy="3.5"/>
<feGaussianBlur stdDeviation="2.75"/>
<feComposite in2="hardAlpha" operator="out"/>
<feColorMatrix type="matrix" values="0 0 0 0 0 0 0 0 0 0 0 0 0 0 0 0 0 0 0.02 0"/>
<feBlend mode="normal" in2="BackgroundImageFix" result="effect1_dropShadow_843_10257"/>
<feBlend mode="normal" in="SourceGraphic" in2="effect1_dropShadow_843_10257" result="shape"/>
</filter>
</defs>
</svg>
