<svg width="24" height="24" viewBox="0 0 24 24" fill="none" xmlns="http://www.w3.org/2000/svg">
<path fill-rule="evenodd" clip-rule="evenodd" d="M4.3922 18.748H10.7692C11.1832 18.748 11.5192 19.084 11.5192 19.498C11.5192 19.912 11.1832 20.248 10.7692 20.248H4.3922C3.9782 20.248 3.6422 19.912 3.6422 19.498C3.6422 19.084 3.9782 18.748 4.3922 18.748Z" fill="#4FD1C5"/>
<path fill-rule="evenodd" clip-rule="evenodd" d="M14.6341 7.7396C14.5346 7.60734 14.3469 7.58058 14.2144 7.67979L9.03445 11.5602C8.90175 11.6596 8.87485 11.8478 8.9744 11.9804L13.7941 18.4002C14.9541 19.9502 16.7041 20.2602 17.9141 20.2602C18.6641 20.2602 19.2041 20.1402 19.2641 20.1302C19.3941 20.1002 19.5141 20.0102 19.5841 19.8902C19.6541 19.7602 21.3741 16.7002 19.4541 14.1502L14.6341 7.7396Z" fill="#4FD1C5"/>
<path fill-rule="evenodd" clip-rule="evenodd" d="M7.04409 9.41023L7.71411 10.301C7.81357 10.4332 8.0013 10.4599 8.13372 10.3607L13.3145 6.47969C13.4469 6.38052 13.4741 6.19289 13.3752 6.06027L12.7041 5.16023C12.0141 4.23023 10.9441 3.74023 9.86409 3.74023C9.12409 3.74023 8.38409 3.97023 7.74409 4.45023C6.99409 5.02023 6.50409 5.85023 6.36409 6.78023C6.23409 7.72023 6.47409 8.65023 7.04409 9.41023Z" fill="#4FD1C5"/>
</svg>
