<svg width="24" height="24" viewBox="0 0 24 24" fill="none" xmlns="http://www.w3.org/2000/svg">
<path fill-rule="evenodd" clip-rule="evenodd" d="M19.6078 18.748H13.2308C12.8168 18.748 12.4808 19.084 12.4808 19.498C12.4808 19.912 12.8168 20.248 13.2308 20.248H19.6078C20.0218 20.248 20.3578 19.912 20.3578 19.498C20.3578 19.084 20.0218 18.748 19.6078 18.748Z" fill="#4FD1C5"/>
<path fill-rule="evenodd" clip-rule="evenodd" d="M9.36593 7.7396C9.46538 7.60734 9.65314 7.58058 9.78558 7.67979L14.9656 11.5602C15.0983 11.6596 15.1251 11.8478 15.0256 11.9804L10.2059 18.4002C9.0459 19.9502 7.2959 20.2602 6.0859 20.2602C5.3359 20.2602 4.7959 20.1402 4.7359 20.1302C4.6059 20.1002 4.4859 20.0102 4.4159 19.8902C4.3459 19.7602 2.6259 16.7002 4.5459 14.1502L9.36593 7.7396Z" fill="#4FD1C5"/>
<path fill-rule="evenodd" clip-rule="evenodd" d="M16.9559 9.41023L16.2859 10.301C16.1864 10.4332 15.9987 10.4599 15.8663 10.3607L10.6855 6.47969C10.5531 6.38052 10.5259 6.19289 10.6248 6.06027L11.2959 5.16023C11.9859 4.23023 13.0559 3.74023 14.1359 3.74023C14.8759 3.74023 15.6159 3.97023 16.2559 4.45023C17.0059 5.02023 17.4959 5.85023 17.6359 6.78023C17.7659 7.72023 17.5259 8.65023 16.9559 9.41023Z" fill="#4FD1C5"/>
</svg>
