<svg width="64" height="24" viewBox="0 0 64 24" fill="none" xmlns="http://www.w3.org/2000/svg">
<path d="M8.34 18.72C7.252 19.344 6.02 19.656 4.644 19.656C3.876 19.656 3.176 19.52 2.544 19.248C1.912 18.976 1.412 18.58 1.044 18.06C0.676 17.548 0.492 16.944 0.492 16.248C0.492 16.088 0.496 15.968 0.504 15.888C0.584 15 0.936 14.232 1.56 13.584C2.184 12.928 3.036 12.412 4.116 12.036C5.204 11.652 6.472 11.428 7.92 11.364L7.572 12.648C7.084 12.456 6.528 12.136 5.904 11.688C5.336 11.288 4.872 11.004 4.512 10.836C4.16 10.66 3.82 10.572 3.492 10.572C3.188 10.572 2.916 10.656 2.676 10.824C2.444 10.992 2.264 11.18 2.136 11.388L1.128 10.656C1.744 9.456 2.544 8.856 3.528 8.856C3.984 8.856 4.428 8.964 4.86 9.18C5.3 9.388 5.884 9.756 6.612 10.284C7.004 10.564 7.308 10.772 7.524 10.908C7.74 11.036 7.972 11.144 8.22 11.232L8.016 12.948C6.808 12.948 5.744 13.092 4.824 13.38C3.912 13.668 3.196 14.048 2.676 14.52C2.164 14.992 1.872 15.488 1.8 16.008C1.768 16.36 1.884 16.676 2.148 16.956C2.42 17.244 2.8 17.468 3.288 17.628C3.776 17.796 4.324 17.88 4.932 17.88C5.492 17.88 6.02 17.82 6.516 17.7C7.012 17.58 7.404 17.464 7.692 17.352L8.34 18.72ZM3.696 15.588L4.812 14.484L5.916 15.588L5.544 15.96C5.304 16.208 5.06 16.452 4.812 16.692L3.696 15.588ZM9.05616 16.956C10.4242 16.66 11.4162 16.304 12.0322 15.888C12.6482 15.472 12.9562 14.936 12.9562 14.28C12.9482 13.808 12.8802 13.348 12.7522 12.9C12.6242 12.444 12.4442 12.072 12.2122 11.784C11.9882 11.496 11.7362 11.352 11.4562 11.352C11.2962 11.352 11.1442 11.412 11.0002 11.532C10.8642 11.652 10.7522 11.8 10.6642 11.976C10.5842 12.152 10.5442 12.316 10.5442 12.468C10.5442 12.596 10.5762 12.704 10.6402 12.792C10.7602 12.952 10.9802 13.076 11.3002 13.164C11.6282 13.244 11.9962 13.284 12.4042 13.284C12.7082 13.284 13.0082 13.26 13.3042 13.212V14.88C12.9122 14.976 12.5082 15.024 12.0922 15.024C11.5082 15.024 10.9842 14.924 10.5202 14.724C10.0562 14.516 9.72816 14.208 9.53616 13.8C9.39216 13.488 9.32016 13.144 9.32016 12.768C9.32016 12.296 9.42016 11.828 9.62016 11.364C9.82016 10.892 10.0962 10.508 10.4482 10.212C10.8002 9.908 11.1842 9.756 11.6002 9.756C12.0802 9.756 12.5162 9.964 12.9082 10.38C13.3002 10.796 13.6082 11.34 13.8322 12.012C14.0562 12.684 14.1682 13.384 14.1682 14.112C14.1682 15.232 13.7642 16.176 12.9562 16.944C12.1482 17.712 11.0322 18.232 9.60816 18.504L9.05616 16.956ZM19.1329 15C18.5889 15 18.1489 14.8 17.8129 14.4C17.4769 14 17.1969 13.44 16.9729 12.72L18.0529 12.06C18.1649 12.484 18.3009 12.784 18.4609 12.96C18.6209 13.128 18.8449 13.212 19.1329 13.212H19.2409L19.3369 14.112L19.2409 15H19.1329ZM14.2969 16.992C14.8249 16.776 15.3089 16.524 15.7489 16.236C16.1889 15.956 16.5329 15.676 16.7809 15.396C17.0369 15.116 17.1649 14.876 17.1649 14.676C17.1649 14.348 16.9529 13.456 16.5289 12L16.4689 11.76L17.8129 11.232C18.0049 11.784 18.1569 12.376 18.2689 13.008C18.3809 13.632 18.4369 14.188 18.4369 14.676C18.4369 15.46 18.1289 16.184 17.5129 16.848C16.8969 17.52 16.0689 18.072 15.0289 18.504L14.2969 16.992ZM19.1233 13.212H20.0233C20.9673 13.212 21.8513 13.108 22.6753 12.9C23.5073 12.692 24.3913 12.34 25.3273 11.844C25.9913 11.5 26.4753 11.28 26.7793 11.184L26.8273 12.444C26.4033 12.396 25.9953 12.308 25.6033 12.18C25.2113 12.052 24.7513 11.852 24.2233 11.58C23.5193 11.22 22.9073 11.04 22.3873 11.04C22.0833 11.04 21.8113 11.124 21.5713 11.292C21.3393 11.452 21.1593 11.636 21.0313 11.844L20.0233 11.112C20.6313 9.92 21.4353 9.324 22.4353 9.324C22.7713 9.324 23.0953 9.38 23.4073 9.492C23.7193 9.604 24.1753 9.812 24.7753 10.116C25.2393 10.356 25.6313 10.54 25.9513 10.668C26.2793 10.796 26.6393 10.9 27.0313 10.98L27.0913 12.588C26.8753 12.652 26.4513 12.856 25.8193 13.2C25.7713 13.232 25.7273 13.26 25.6873 13.284C25.6473 13.3 25.6113 13.316 25.5793 13.332C24.7873 13.748 24.0993 14.072 23.5153 14.304C22.9313 14.536 22.3353 14.712 21.7273 14.832C21.1193 14.944 20.4313 15 19.6633 15H19.1233V13.212ZM21.4633 7.38L22.5793 6.276L23.6833 7.38L23.3113 7.752C23.0713 8 22.8273 8.244 22.5793 8.484L21.4633 7.38Z" fill="#F15555"/>
<path fill-rule="evenodd" clip-rule="evenodd" d="M62.1706 11.5898L59.2426 8.67383C58.9486 8.38183 58.4746 8.38183 58.1826 8.67583C57.8906 8.96983 57.8916 9.44383 58.1846 9.73583L59.8246 11.3698H56.8896C56.8996 11.8698 56.8996 12.3698 56.8896 12.8698H59.8266L58.1846 14.5058C57.8916 14.7978 57.8906 15.2728 58.1826 15.5668C58.3286 15.7138 58.5216 15.7868 58.7136 15.7868C58.9046 15.7868 59.0966 15.7138 59.2426 15.5688L62.1706 12.6518C62.3126 12.5118 62.3916 12.3198 62.3916 12.1208C62.3916 11.9218 62.3126 11.7308 62.1706 11.5898Z" fill="#F15555"/>
<path fill-rule="evenodd" clip-rule="evenodd" d="M48.6394 12.12C48.6394 11.71 48.9694 11.37 49.3894 11.37L56.8896 11.3698C56.8796 10.1098 56.8094 8.85 56.7094 7.59V7.58C56.3394 3.55 54.5094 2.25 49.2094 2.25C41.6094 2.25 41.6094 5.1 41.6094 12C41.6094 18.9 41.6094 21.75 49.2094 21.75C54.5094 21.75 56.3394 20.45 56.7094 16.41C56.8094 15.24 56.8696 14.0598 56.8896 12.8698L49.3894 12.87C48.9694 12.87 48.6394 12.54 48.6394 12.12Z" fill="#F15555"/>
</svg>
