<svg width="19" height="20" viewBox="0 0 19 20" fill="none" xmlns="http://www.w3.org/2000/svg">
<path fill-rule="evenodd" clip-rule="evenodd" d="M13.2126 10.6875H5.99256C5.57856 10.6875 5.24256 10.3515 5.24256 9.93751C5.24256 9.52351 5.57856 9.18751 5.99256 9.18751H13.2126C13.6266 9.18751 13.9626 9.52351 13.9626 9.93751C13.9626 10.3515 13.6266 10.6875 13.2126 10.6875ZM13.2126 14.4465H5.99256C5.57856 14.4465 5.24256 14.1105 5.24256 13.6965C5.24256 13.2825 5.57856 12.9465 5.99256 12.9465H13.2126C13.6266 12.9465 13.9626 13.2825 13.9626 13.6965C13.9626 14.1105 13.6266 14.4465 13.2126 14.4465ZM5.99256 5.42651H8.74756C9.16156 5.42651 9.49756 5.76251 9.49756 6.17651C9.49756 6.59051 9.16156 6.92651 8.74756 6.92651H5.99256C5.57856 6.92651 5.24256 6.59051 5.24256 6.17651C5.24256 5.76251 5.57856 5.42651 5.99256 5.42651ZM9.61756 0.249512C3.05256 0.249512 0.726562 2.80151 0.726562 10.0005C0.726562 17.1985 3.05256 19.7505 9.61756 19.7505C16.1816 19.7505 18.5086 17.1985 18.5086 10.0005C18.5086 2.80151 16.1816 0.249512 9.61756 0.249512Z" fill="#4FD1C5"/>
</svg>
