<svg width="191" height="24" viewBox="0 0 191 24" fill="none" xmlns="http://www.w3.org/2000/svg">
<path d="M5.642 16C5.00733 16 4.494 15.7667 4.102 15.3C3.71 14.8333 3.38333 14.18 3.122 13.34L4.382 12.57C4.51267 13.0647 4.67133 13.4147 4.858 13.62C5.04467 13.816 5.306 13.914 5.642 13.914H5.768L5.88 14.964L5.768 16H5.642ZM0 18.324C0.616 18.072 1.18067 17.778 1.694 17.442C2.20733 17.1153 2.60867 16.7887 2.898 16.462C3.19667 16.1353 3.346 15.8553 3.346 15.622C3.346 15.2393 3.09867 14.1987 2.604 12.5L2.534 12.22L4.102 11.604C4.326 12.248 4.50333 12.9387 4.634 13.676C4.76467 14.404 4.83 15.0527 4.83 15.622C4.83 16.5367 4.47067 17.3813 3.752 18.156C3.03333 18.94 2.06733 19.584 0.854 20.088L0 18.324ZM5.65884 13.914H6.79284C7.87551 13.914 8.70618 13.788 9.28484 13.536C9.86351 13.2747 10.1528 12.9387 10.1528 12.528C10.1528 12.2853 10.0408 12.01 9.81684 11.702C9.60218 11.3847 9.34084 11.1467 9.03284 10.988C8.77151 11.3613 8.54284 11.9027 8.34684 12.612C8.15084 13.312 8.03884 14.012 8.01084 14.712C8.00151 15.244 8.09018 15.7153 8.27684 16.126C8.46351 16.5367 8.71084 16.854 9.01884 17.078C9.32684 17.302 9.64884 17.414 9.98484 17.414C10.1622 17.414 10.3302 17.3813 10.4888 17.316C10.5168 17.2787 10.5308 17.2133 10.5308 17.12C10.5308 16.8587 10.4048 16.5647 10.1528 16.238C9.91018 15.9207 9.52751 15.65 9.00484 15.426L9.36884 13.592C9.85418 13.7227 10.3348 13.8113 10.8108 13.858C11.2962 13.8953 11.9355 13.914 12.7288 13.914L12.8408 14.964L12.7288 16C11.9915 16 11.3475 15.958 10.7968 15.874C10.2555 15.7807 9.65818 15.6313 9.00484 15.426L9.35484 13.97C9.85884 14.1287 10.3162 14.39 10.7268 14.754C11.1375 15.1087 11.4595 15.5193 11.6928 15.986C11.9262 16.4527 12.0428 16.91 12.0428 17.358C12.0428 17.9833 11.8188 18.478 11.3708 18.842C10.9695 19.178 10.4748 19.346 9.88684 19.346C9.33618 19.346 8.80418 19.1827 8.29084 18.856C7.77751 18.5387 7.35751 18.058 7.03084 17.414C6.70418 16.77 6.54084 15.986 6.54084 15.062C6.54084 14.8567 6.54551 14.7027 6.55484 14.6C6.69484 12.584 7.24084 10.8107 8.19284 9.28L9.31284 8.958C9.96618 9.31267 10.4935 9.826 10.8948 10.498C11.3055 11.17 11.5108 11.8607 11.5108 12.57C11.5108 13.6993 11.0488 14.5533 10.1248 15.132C9.21018 15.7013 7.93618 15.9953 6.30284 16.014H5.65884V13.914ZM15.4185 12.892C15.9972 13.284 16.5198 13.5967 16.9865 13.83C17.4625 14.054 17.8172 14.166 18.0505 14.166C18.1345 14.166 18.1952 14.152 18.2325 14.124C18.3258 14.0587 18.3958 13.9653 18.4425 13.844C18.4985 13.7133 18.5265 13.564 18.5265 13.396C18.5265 13.0227 18.4238 12.6773 18.2185 12.36C18.0132 12.0333 17.7425 11.87 17.4065 11.87C16.8838 11.87 16.3005 12.612 15.6565 14.096C15.3765 14.7307 14.9938 15.2067 14.5085 15.524C14.0232 15.8413 13.4678 16 12.8425 16H12.5765L12.6185 13.914H12.8705C13.5985 13.914 14.1958 13.4753 14.6625 12.598C15.1292 11.73 15.5772 11.0813 16.0065 10.652C16.4358 10.2133 16.9165 9.994 17.4485 9.994C17.9525 9.994 18.3958 10.1573 18.7785 10.484C19.1612 10.8013 19.4505 11.2167 19.6465 11.73C19.8518 12.234 19.9545 12.766 19.9545 13.326C19.9545 13.8673 19.8518 14.3713 19.6465 14.838C19.4412 15.2953 19.1425 15.6407 18.7505 15.874C18.5452 16.0047 18.2932 16.07 17.9945 16.07C17.1732 16.07 16.0532 15.5847 14.6345 14.614L15.4185 12.892ZM29.0567 8.356C29.2713 10.3533 29.4207 11.6693 29.5047 12.304C29.5607 12.7707 29.626 13.116 29.7007 13.34C29.7847 13.564 29.9013 13.718 30.0507 13.802C30.2093 13.8767 30.438 13.914 30.7367 13.914H30.9747L31.0867 14.964L30.9747 16H30.7367C29.906 16 29.2667 15.7387 28.8187 15.216C28.38 14.684 28.086 13.8067 27.9367 12.584L27.8387 11.842L27.4327 8.706L29.0567 8.356ZM28.8467 15.034C28.2493 15.23 27.666 15.328 27.0967 15.328C26.2567 15.328 25.566 15.1273 25.0247 14.726C24.4927 14.3153 24.2267 13.76 24.2267 13.06C24.2267 12.2013 24.5627 11.478 25.2347 10.89C25.916 10.302 26.8167 9.80267 27.9367 9.392L28.3287 11.212C27.7033 11.3613 27.1247 11.5807 26.5927 11.87C26.07 12.15 25.7947 12.416 25.7667 12.668C25.748 12.8733 25.8507 13.046 26.0747 13.186C26.2987 13.3167 26.6067 13.382 26.9987 13.382C27.456 13.382 27.9367 13.2793 28.4407 13.074L28.8467 15.034ZM30.8148 13.914H30.8988C31.6081 13.914 32.1214 13.8393 32.4388 13.69C32.7654 13.5407 32.9521 13.298 32.9988 12.962C33.0174 12.8127 33.0268 12.696 33.0268 12.612C33.0268 12.388 33.0034 12.1313 32.9568 11.842C32.9101 11.5433 32.8821 11.3567 32.8728 11.282L34.3288 11.002C34.4501 11.6927 34.5108 12.4627 34.5108 13.312C34.5481 13.4707 34.6508 13.6107 34.8188 13.732C34.9961 13.8533 35.2434 13.914 35.5608 13.914H35.6448L35.7568 14.964L35.6448 16H35.5608C35.1221 16 34.7208 15.8833 34.3568 15.65C34.0021 15.4167 33.7174 15.1133 33.5028 14.74L33.8808 14.782C33.6288 15.202 33.2554 15.51 32.7608 15.706C32.2754 15.902 31.6548 16 30.8988 16H30.8148V13.914ZM31.3468 8.706L32.6488 7.418L33.9368 8.706L33.5028 9.14C33.2228 9.42933 32.9381 9.714 32.6488 9.994L31.3468 8.706ZM43.2882 13.914H43.3302C43.6382 13.914 43.9182 13.8393 44.1702 13.69C44.4316 13.5313 44.5716 13.3447 44.5902 13.13L45.8502 13.284C45.8129 13.7787 45.6729 14.236 45.4302 14.656C45.1969 15.0667 44.8936 15.3933 44.5202 15.636C44.1562 15.8787 43.7596 16 43.3302 16H43.2882V13.914ZM47.0682 13.914L47.1662 14.964L47.0542 16H46.9842C46.4149 16 45.9202 15.8227 45.5002 15.468C45.0896 15.1133 44.7769 14.6093 44.5622 13.956C44.4782 13.676 44.3102 12.8827 44.0582 11.576L45.5002 11.184C45.6029 11.7813 45.6869 12.234 45.7522 12.542C45.8269 12.85 45.8922 13.0927 45.9482 13.27C46.0229 13.4847 46.1396 13.648 46.2982 13.76C46.4662 13.8627 46.6949 13.914 46.9842 13.914H47.0682ZM39.5502 16V13.914H39.6202C40.0962 13.914 40.4649 13.6573 40.7262 13.144C40.9036 12.7893 41.0622 12.2433 41.2022 11.506L42.6442 11.576C42.5416 12.192 42.4902 12.6307 42.4902 12.892C42.4902 13.5733 42.7749 13.914 43.3442 13.914H43.3722L43.4842 14.964L43.3722 16H43.3442C42.8402 16 42.4156 15.8647 42.0702 15.594C41.7249 15.3233 41.4822 14.9407 41.3422 14.446L41.6922 14.418C41.1229 15.4727 40.4182 16 39.5782 16H39.5502ZM35.5462 16L35.4342 14.964L35.5462 13.914H35.6162C35.9056 13.914 36.1902 13.8533 36.4702 13.732C36.7502 13.6013 36.9602 13.4427 37.1002 13.256C37.2962 13.032 37.4456 12.78 37.5482 12.5C37.6509 12.22 37.7442 11.9213 37.8282 11.604L39.2842 11.758C39.2749 11.8047 39.2236 11.9913 39.1302 12.318C39.0369 12.6353 38.9902 12.9247 38.9902 13.186C38.9902 13.6713 39.1862 13.914 39.5782 13.914H39.6062L39.7182 14.964L39.6062 16H39.5362C39.1349 16 38.7849 15.8927 38.4862 15.678C38.1876 15.4633 37.9776 15.1787 37.8562 14.824C37.5576 15.2067 37.2122 15.5007 36.8202 15.706C36.4376 15.902 36.0269 16 35.5882 16H35.5462ZM57.6442 13.914L57.7562 14.964L57.6442 16H57.5042C55.4602 15.9907 54.1956 15.2113 53.7102 13.662L54.7742 12.696C54.8209 12.8827 54.9376 13.074 55.1242 13.27C55.3202 13.4567 55.5722 13.6107 55.8802 13.732C56.1976 13.8533 56.5569 13.914 56.9582 13.914H57.6442ZM46.9062 13.914H47.9562C49.0576 13.914 50.0889 13.7927 51.0502 13.55C52.0209 13.3073 53.0522 12.8967 54.1442 12.318C54.9189 11.9167 55.4836 11.66 55.8382 11.548L55.8942 13.018C55.3996 12.962 54.9236 12.8593 54.4662 12.71C54.0089 12.5607 53.4722 12.3273 52.8562 12.01C52.0349 11.59 51.3209 11.38 50.7142 11.38C50.3596 11.38 50.0422 11.478 49.7622 11.674C49.4916 11.8607 49.2816 12.0753 49.1322 12.318L47.9562 11.464C48.6656 10.0733 49.6036 9.378 50.7702 9.378C51.1622 9.378 51.5402 9.44333 51.9042 9.574C52.2682 9.70467 52.8002 9.94733 53.5002 10.302C54.0416 10.582 54.4989 10.7967 54.8722 10.946C55.2549 11.0953 55.6749 11.2167 56.1322 11.31L56.2022 13.186C55.9502 13.2607 55.4556 13.4987 54.7182 13.9C54.6622 13.9373 54.6109 13.97 54.5642 13.998C54.5176 14.0167 54.4756 14.0353 54.4382 14.054C53.5142 14.5393 52.7116 14.9173 52.0302 15.188C51.3489 15.4587 50.6536 15.664 49.9442 15.804C49.2349 15.9347 48.4322 16 47.5362 16H46.9062V13.914ZM57.5159 13.914H57.9499C58.4353 13.914 58.7853 13.816 58.9999 13.62C59.2239 13.424 59.3359 13.1207 59.3359 12.71C59.3266 12.066 59.2706 10.932 59.1679 9.308C59.0746 7.67467 58.9906 6.578 58.9159 6.018L60.6659 5.64C60.7313 6.19067 60.8013 7.32467 60.8759 9.042C60.9599 10.75 61.0019 11.9353 61.0019 12.598C61.0019 13.2327 60.8713 13.8113 60.6099 14.334C60.3579 14.8473 60.0033 15.2533 59.5459 15.552C59.0886 15.8507 58.5706 16 57.9919 16H57.5159V13.914ZM62.4605 15.916C62.5538 15.3 62.6005 14.348 62.6005 13.06C62.6005 11.772 62.5585 10.4233 62.4745 9.014C62.3998 7.59533 62.3111 6.60133 62.2085 6.032L63.9585 5.626C64.0425 6.16733 64.1171 7.11467 64.1825 8.468C64.2478 9.82133 64.2805 11.1513 64.2805 12.458C64.2805 14.0727 64.2245 15.286 64.1125 16.098L62.4605 15.916ZM73.1383 20.088C72.2703 20.088 71.505 19.92 70.8423 19.584C70.1796 19.2573 69.6616 18.786 69.2883 18.17C68.9243 17.554 68.7423 16.8307 68.7423 16C68.7423 15.832 68.747 15.7013 68.7563 15.608C68.7843 15.076 68.8916 14.5207 69.0783 13.942C69.2743 13.3633 69.489 12.8313 69.7223 12.346L71.0663 12.962C70.8236 13.522 70.637 14.0167 70.5063 14.446C70.3756 14.866 70.3103 15.2953 70.3103 15.734C70.3103 16.4993 70.553 17.0687 71.0383 17.442C71.5236 17.8247 72.2236 18.016 73.1383 18.016C73.7916 18.016 74.361 17.8993 74.8463 17.666C75.341 17.442 75.7143 17.1433 75.9663 16.77C76.2276 16.406 76.3583 16.0187 76.3583 15.608C76.3583 15.2627 76.2556 14.7633 76.0503 14.11C75.8543 13.4473 75.6816 12.948 75.5323 12.612L77.0163 11.814C77.567 13.0833 77.8423 14.348 77.8423 15.608C77.8423 16.42 77.6463 17.1667 77.2543 17.848C76.8623 18.5293 76.307 19.0707 75.5883 19.472C74.879 19.8827 74.0623 20.088 73.1383 20.088ZM80.3203 16.308C79.331 16.308 78.4536 16.0653 77.6883 15.58C76.9323 15.0853 76.321 14.2593 75.8543 13.102L77.1843 12.22C77.399 12.78 77.6136 13.1953 77.8283 13.466C78.043 13.7367 78.309 13.9327 78.6263 14.054C78.9436 14.166 79.387 14.236 79.9563 14.264C80.0683 14.2733 80.2316 14.278 80.4463 14.278C81.1836 14.278 81.8416 14.1847 82.4203 13.998C83.0083 13.8113 83.461 13.578 83.7783 13.298C84.105 13.0087 84.2683 12.7333 84.2683 12.472C84.2683 12.248 84.1563 12.0613 83.9323 11.912C83.7176 11.7533 83.4236 11.674 83.0503 11.674C82.2756 11.674 81.4963 12.0193 80.7123 12.71C79.9283 13.3913 79.261 14.2453 78.7103 15.272L77.6043 14.418C78.2483 13.0647 79.0463 11.94 79.9983 11.044C80.9503 10.148 81.9256 9.69533 82.9243 9.686C83.4936 9.686 83.9976 9.82133 84.4363 10.092C84.8843 10.3533 85.2203 10.7173 85.4443 11.184C85.6776 11.6413 85.771 12.15 85.7243 12.71C85.659 13.4473 85.3883 14.0867 84.9123 14.628C84.4363 15.1693 83.8016 15.5847 83.0083 15.874C82.215 16.1633 81.319 16.308 80.3203 16.308ZM81.1463 7.292L82.4483 6.004L83.7363 7.292L83.3023 7.726C83.0223 8.01533 82.7376 8.3 82.4483 8.58L81.1463 7.292ZM90.2846 16C89.6499 16 89.1366 15.7667 88.7446 15.3C88.3526 14.8333 88.0259 14.18 87.7646 13.34L89.0246 12.57C89.1552 13.0647 89.3139 13.4147 89.5006 13.62C89.6872 13.816 89.9486 13.914 90.2846 13.914H90.4106L90.5226 14.964L90.4106 16H90.2846ZM84.6426 18.324C85.2586 18.072 85.8232 17.778 86.3366 17.442C86.8499 17.1153 87.2512 16.7887 87.5406 16.462C87.8392 16.1353 87.9886 15.8553 87.9886 15.622C87.9886 15.2393 87.7412 14.1987 87.2466 12.5L87.1766 12.22L88.7446 11.604C88.9686 12.248 89.1459 12.9387 89.2766 13.676C89.4072 14.404 89.4726 15.0527 89.4726 15.622C89.4726 16.5367 89.1132 17.3813 88.3946 18.156C87.6759 18.94 86.7099 19.584 85.4966 20.088L84.6426 18.324ZM90.2874 13.914H90.4974C91.5148 13.914 92.3361 13.872 92.9614 13.788C93.5961 13.6947 94.0861 13.536 94.4314 13.312C94.7861 13.0787 94.9868 12.752 95.0334 12.332C95.0334 11.828 94.9588 11.3287 94.8094 10.834C94.6601 10.33 94.4548 9.91933 94.1934 9.602C93.9414 9.28467 93.6568 9.126 93.3394 9.126C93.0501 9.126 92.8028 9.25667 92.5974 9.518C92.3921 9.77 92.2894 10.036 92.2894 10.316C92.2894 10.4653 92.3221 10.5867 92.3874 10.68C92.5274 10.8573 92.7841 11.002 93.1574 11.114C93.5308 11.2167 93.9508 11.268 94.4174 11.268C94.7441 11.268 95.0661 11.24 95.3834 11.184V13.046C94.9168 13.1487 94.4641 13.2 94.0254 13.2C93.3628 13.2 92.7701 13.0833 92.2474 12.85C91.7341 12.6167 91.3654 12.276 91.1414 11.828C90.9734 11.464 90.8894 11.0627 90.8894 10.624C90.8894 10.092 91.0014 9.574 91.2254 9.07C91.4494 8.566 91.7621 8.15533 92.1634 7.838C92.5648 7.51133 93.0081 7.348 93.4934 7.348C94.0441 7.348 94.5388 7.56733 94.9774 8.006C95.4161 8.43533 95.7568 9.00467 95.9994 9.714C96.2514 10.4233 96.3774 11.1747 96.3774 11.968C96.3774 13.256 95.8921 14.25 94.9214 14.95C93.9601 15.65 92.4761 16 90.4694 16H90.2874V13.914ZM92.2614 4.254L93.4234 5.43C93.1714 5.69133 92.9148 5.948 92.6534 6.2L92.2614 6.592L91.6874 6.004L91.0994 5.43L92.2614 4.254ZM94.7114 4.254L95.8734 5.43C95.6214 5.69133 95.3648 5.948 95.1034 6.2L94.7114 6.592L94.1374 6.004L93.5494 5.43L94.7114 4.254ZM100.68 14.964C100.708 14.432 100.815 13.8767 101.002 13.298C101.198 12.7193 101.413 12.1873 101.646 11.702L102.99 12.318C102.738 12.8873 102.547 13.382 102.416 13.802C102.295 14.2127 102.234 14.642 102.234 15.09C102.234 15.846 102.477 16.4153 102.962 16.798C103.447 17.1807 104.147 17.372 105.062 17.372C105.911 17.372 106.625 17.1807 107.204 16.798C107.783 16.4247 108.137 15.93 108.268 15.314C107.941 15.3607 107.643 15.384 107.372 15.384C106.7 15.384 106.093 15.2673 105.552 15.034C105.011 14.7913 104.628 14.432 104.404 13.956C104.236 13.592 104.152 13.1907 104.152 12.752C104.152 12.2013 104.269 11.6553 104.502 11.114C104.735 10.5633 105.053 10.1153 105.454 9.77C105.865 9.41533 106.308 9.238 106.784 9.238C107.363 9.238 107.881 9.48533 108.338 9.98C108.795 10.4653 109.155 11.1 109.416 11.884C109.677 12.668 109.808 13.4847 109.808 14.334C109.808 15.3793 109.603 16.2893 109.192 17.064C108.781 17.8387 108.217 18.4267 107.498 18.828C106.779 19.2387 105.967 19.444 105.062 19.444C104.194 19.444 103.429 19.276 102.766 18.94C102.103 18.6133 101.585 18.142 101.212 17.526C100.848 16.91 100.666 16.1867 100.666 15.356C100.666 15.188 100.671 15.0573 100.68 14.964ZM105.692 12.78C105.832 12.9573 106.079 13.0973 106.434 13.2C106.798 13.3027 107.195 13.354 107.624 13.354C107.839 13.354 108.044 13.34 108.24 13.312C108.119 12.6867 107.913 12.164 107.624 11.744C107.344 11.3147 107.013 11.1 106.63 11.1C106.443 11.1 106.266 11.17 106.098 11.31C105.939 11.4407 105.813 11.6087 105.72 11.814C105.627 12.01 105.58 12.2013 105.58 12.388C105.58 12.5467 105.617 12.6773 105.692 12.78ZM105.51 5.92L106.672 7.096C106.42 7.35733 106.163 7.614 105.902 7.866L105.51 8.258L104.936 7.67L104.348 7.096L105.51 5.92ZM107.96 5.92L109.122 7.096C108.87 7.35733 108.613 7.614 108.352 7.866L107.96 8.258L107.386 7.67L106.798 7.096L107.96 5.92ZM110.849 18.282C112.445 17.9367 113.602 17.5213 114.321 17.036C115.039 16.5507 115.399 15.9253 115.399 15.16C115.389 14.6093 115.31 14.0727 115.161 13.55C115.011 13.018 114.801 12.584 114.531 12.248C114.269 11.912 113.975 11.744 113.649 11.744C113.462 11.744 113.285 11.814 113.117 11.954C112.958 12.094 112.827 12.2667 112.725 12.472C112.631 12.6773 112.585 12.8687 112.585 13.046C112.585 13.1953 112.622 13.3213 112.697 13.424C112.837 13.6107 113.093 13.7553 113.467 13.858C113.849 13.9513 114.279 13.998 114.755 13.998C115.109 13.998 115.459 13.97 115.805 13.914V15.86C115.347 15.972 114.876 16.028 114.391 16.028C113.709 16.028 113.098 15.9113 112.557 15.678C112.015 15.4353 111.633 15.076 111.409 14.6C111.241 14.236 111.157 13.8347 111.157 13.396C111.157 12.8453 111.273 12.2993 111.507 11.758C111.74 11.2073 112.062 10.7593 112.473 10.414C112.883 10.0593 113.331 9.882 113.817 9.882C114.377 9.882 114.885 10.1247 115.343 10.61C115.8 11.0953 116.159 11.73 116.421 12.514C116.682 13.298 116.813 14.1147 116.813 14.964C116.813 16.2707 116.341 17.372 115.399 18.268C114.456 19.164 113.154 19.7707 111.493 20.088L110.849 18.282ZM122.27 8.412L124.188 12.948C124.337 13.3213 124.51 13.578 124.706 13.718C124.902 13.8487 125.182 13.914 125.546 13.914H125.714L125.826 14.964L125.714 16H125.546C124.911 16 124.379 15.8227 123.95 15.468C123.53 15.1133 123.157 14.5533 122.83 13.788L120.828 9.196L122.27 8.412ZM118.588 13.48C118.887 13.6387 119.213 13.7833 119.568 13.914C119.923 14.0353 120.343 14.096 120.828 14.096C121.435 14.096 121.925 14.0073 122.298 13.83C122.671 13.6433 122.961 13.4473 123.166 13.242L124.104 14.46C123.889 14.7307 123.679 14.9687 123.474 15.174C123.278 15.37 122.97 15.5707 122.55 15.776C122.13 15.972 121.626 16.07 121.038 16.07C119.899 16.07 118.831 15.6967 117.832 14.95L118.588 13.48ZM125.575 13.914H125.659C126.368 13.914 126.881 13.8393 127.199 13.69C127.525 13.5407 127.712 13.298 127.759 12.962C127.777 12.8127 127.787 12.696 127.787 12.612C127.787 12.388 127.763 12.1313 127.717 11.842C127.67 11.5433 127.642 11.3567 127.633 11.282L129.089 11.002C129.21 11.6927 129.271 12.4627 129.271 13.312C129.308 13.4707 129.411 13.6107 129.579 13.732C129.756 13.8533 130.003 13.914 130.321 13.914H130.405L130.517 14.964L130.405 16H130.321C129.882 16 129.481 15.8833 129.117 15.65C128.762 15.4167 128.477 15.1133 128.263 14.74L128.641 14.782C128.389 15.202 128.015 15.51 127.521 15.706C127.035 15.902 126.415 16 125.659 16H125.575V13.914ZM126.107 8.706L127.409 7.418L128.697 8.706L128.263 9.14C127.983 9.42933 127.698 9.714 127.409 9.994L126.107 8.706ZM130.25 13.914H130.446C130.885 13.914 131.239 13.8207 131.51 13.634C131.781 13.438 131.995 13.1393 132.154 12.738C132.313 12.3273 132.439 11.7767 132.532 11.086L133.988 11.394C133.932 11.758 133.904 12.08 133.904 12.36C133.904 13.0413 134.086 13.5267 134.45 13.816C134.823 14.1053 135.463 14.25 136.368 14.25C137.18 14.25 137.908 14.1613 138.552 13.984C139.205 13.7973 139.709 13.564 140.064 13.284C140.419 13.004 140.596 12.724 140.596 12.444C140.596 12.22 140.489 12.0333 140.274 11.884C140.069 11.7253 139.779 11.646 139.406 11.646C138.659 11.646 137.894 11.968 137.11 12.612C136.326 13.256 135.621 14.1567 134.996 15.314L133.876 14.46C134.595 12.976 135.43 11.8093 136.382 10.96C137.334 10.1107 138.291 9.686 139.252 9.686C139.784 9.686 140.26 9.80267 140.68 10.036C141.109 10.26 141.445 10.5773 141.688 10.988C141.931 11.3893 142.052 11.8467 142.052 12.36C142.052 13.1533 141.814 13.8487 141.338 14.446C140.862 15.0433 140.199 15.5007 139.35 15.818C138.501 16.1353 137.535 16.294 136.452 16.294C134.735 16.294 133.587 15.7433 133.008 14.642C132.728 15.09 132.383 15.4307 131.972 15.664C131.561 15.888 131.053 16 130.446 16H130.25V13.914Z" fill="#2D3748"/>
<path d="M167 10.7534C167 4.81447 171.814 0 177.753 0V13.2466C177.753 19.1855 172.939 24 167 24V10.7534Z" fill="#4A3AFF"/>
<path d="M179.314 5.63451C179.314 2.52265 181.837 0 184.949 0H185.367C188.478 0 191.001 2.52265 191.001 5.63451C191.001 8.74636 188.478 11.269 185.367 11.269H184.949C181.837 11.269 179.314 8.74636 179.314 5.63451Z" fill="#4CBFFF"/>
<path d="M179.314 18.3655C179.314 15.2536 181.837 12.731 184.949 12.731H185.367C188.478 12.731 191.001 15.2536 191.001 18.3655C191.001 21.4773 188.478 24 185.367 24H184.949C181.837 24 179.314 21.4773 179.314 18.3655Z" fill="#702DFF"/>
<path d="M167 10.7534C167 4.81447 171.814 0 177.753 0V13.2466C177.753 19.1855 172.939 24 167 24V10.7534Z" fill="#0E121F"/>
<path d="M179.314 5.63451C179.314 2.52265 181.837 0 184.949 0H185.367C188.478 0 191.001 2.52265 191.001 5.63451C191.001 8.74636 188.478 11.269 185.367 11.269H184.949C181.837 11.269 179.314 8.74636 179.314 5.63451Z" fill="#4FD1C5"/>
<path d="M179.314 18.3655C179.314 15.2536 181.837 12.731 184.949 12.731H185.367C188.478 12.731 191.001 15.2536 191.001 18.3655C191.001 21.4773 188.478 24 185.367 24H184.949C181.837 24 179.314 21.4773 179.314 18.3655Z" fill="#E0E0E0"/>
</svg>
