<svg width="38" height="38" viewBox="0 0 38 38" fill="none" xmlns="http://www.w3.org/2000/svg">
<path fill-rule="evenodd" clip-rule="evenodd" d="M20.1669 25.9208C19.9643 26.0569 19.7362 26.1218 19.5082 26.1218C19.1251 26.1218 18.7483 25.9382 18.5203 25.5946C18.1545 25.0499 18.3002 24.3121 18.8464 23.9479C20.7179 22.6939 22.4596 21.2452 23.4492 20.1875H12.5242C11.8687 20.1875 11.3367 19.6555 11.3367 19C11.3367 18.3445 11.8687 17.8125 12.5242 17.8125H23.4523C22.4548 16.7548 20.6926 15.2839 18.8448 14.0458C18.3002 13.6816 18.1545 12.9422 18.5203 12.3975C18.8844 11.8528 19.6191 11.7072 20.1685 12.0729C22.1208 13.3823 26.6633 16.6788 26.6633 19C26.6633 21.3212 22.1192 24.6129 20.1669 25.9208ZM19 3.5625C7.60158 3.5625 3.5625 7.60317 3.5625 19C3.5625 30.3968 7.60158 34.4375 19 34.4375C30.3968 34.4375 34.4375 30.3968 34.4375 19C34.4375 7.60317 30.3968 3.5625 19 3.5625Z" fill="#4FD1C5"/>
</svg>
