<svg width="24" height="24" viewBox="0 0 24 24" fill="none" xmlns="http://www.w3.org/2000/svg">
<path d="M0 10.7534C0 4.81447 4.81448 0 10.7534 0V13.2466C10.7534 19.1855 5.93895 24 0 24V10.7534Z" fill="#4A3AFF"/>
<path d="M12.3125 5.63451C12.3125 2.52265 14.8352 0 17.947 0H18.3646C21.4765 0 23.9991 2.52265 23.9991 5.63451C23.9991 8.74636 21.4765 11.269 18.3646 11.269H17.947C14.8352 11.269 12.3125 8.74636 12.3125 5.63451Z" fill="#4CBFFF"/>
<path d="M12.3125 18.3652C12.3125 15.2534 14.8352 12.7307 17.947 12.7307H18.3646C21.4765 12.7307 23.9991 15.2534 23.9991 18.3652C23.9991 21.4771 21.4765 23.9997 18.3646 23.9997H17.947C14.8352 23.9997 12.3125 21.4771 12.3125 18.3652Z" fill="#702DFF"/>
<path d="M0 10.7534C0 4.81447 4.81448 0 10.7534 0V13.2466C10.7534 19.1855 5.93895 24 0 24V10.7534Z" fill="#0E121F"/>
<path d="M12.3125 5.63451C12.3125 2.52265 14.8352 0 17.947 0H18.3646C21.4765 0 23.9991 2.52265 23.9991 5.63451C23.9991 8.74636 21.4765 11.269 18.3646 11.269H17.947C14.8352 11.269 12.3125 8.74636 12.3125 5.63451Z" fill="#4FD1C5"/>
<path d="M12.3125 18.3652C12.3125 15.2534 14.8352 12.7307 17.947 12.7307H18.3646C21.4765 12.7307 23.9991 15.2534 23.9991 18.3652C23.9991 21.4771 21.4765 23.9997 18.3646 23.9997H17.947C14.8352 23.9997 12.3125 21.4771 12.3125 18.3652Z" fill="#E0E0E0"/>
</svg>
