<svg width="26" height="24" viewBox="0 0 26 24" fill="none" xmlns="http://www.w3.org/2000/svg">
<path fill-rule="evenodd" clip-rule="evenodd" d="M19.4752 12.3083C18.3352 12.3083 17.2652 12.5383 16.3652 12.9283C19.5152 13.8383 21.7452 16.0183 21.8052 18.5683C23.4452 18.3583 25.2152 17.7383 25.2152 16.0483C25.2152 14.0183 22.5852 12.3083 19.4752 12.3083Z" fill="#4FD1C5"/>
<path fill-rule="evenodd" clip-rule="evenodd" d="M19.4452 10.8683H19.4652C21.5951 10.8683 23.3352 9.12831 23.3352 7.00831C23.3352 4.87831 21.5951 3.13831 19.4652 3.13831C19.0452 3.13831 18.6452 3.20831 18.2652 3.32831C18.9552 4.34831 19.3552 5.57831 19.3552 6.90831C19.3652 8.25831 18.9452 9.55831 18.1552 10.6383C18.5652 10.7883 18.9952 10.8683 19.4452 10.8683Z" fill="#4FD1C5"/>
<path fill-rule="evenodd" clip-rule="evenodd" d="M9.62516 12.9183C8.72516 12.5383 7.65516 12.3083 6.52516 12.3083C3.41516 12.3083 0.785156 14.0183 0.785156 16.0483C0.785156 17.7383 2.54516 18.3483 4.18516 18.5683C4.23516 16.0183 6.46516 13.8383 9.62516 12.9183Z" fill="#4FD1C5"/>
<path fill-rule="evenodd" clip-rule="evenodd" d="M6.52516 10.8683H6.55516C7.00516 10.8683 7.43516 10.7883 7.84516 10.6383C7.08516 9.59831 6.63516 8.30831 6.63516 6.90831C6.63516 5.57831 7.03516 4.34831 7.72516 3.32831C7.34516 3.20831 6.94516 3.13831 6.52516 3.13831C4.39516 3.13831 2.66516 4.87831 2.66516 7.00831C2.66516 9.12831 4.39516 10.8683 6.52516 10.8683Z" fill="#4FD1C5"/>
<path fill-rule="evenodd" clip-rule="evenodd" d="M12.9948 13.9453C9.03377 13.9453 5.68677 16.1013 5.68677 18.6533C5.68677 21.9533 11.1868 21.9533 12.9948 21.9533C16.1328 21.9533 20.3048 21.6133 20.3048 18.6743C20.3048 16.1103 16.9568 13.9453 12.9948 13.9453Z" fill="#4FD1C5"/>
<path fill-rule="evenodd" clip-rule="evenodd" d="M12.9958 11.7744H13.0288C14.3238 11.7704 15.5398 11.2614 16.4518 10.3424C17.3648 9.42339 17.8648 8.20439 17.8598 6.91139C17.8598 4.22839 15.6788 2.04639 12.9958 2.04639C10.3138 2.04639 8.13275 4.22839 8.13275 6.91139C8.13275 9.59239 10.3138 11.7744 12.9958 11.7744Z" fill="#4FD1C5"/>
</svg>
