<svg width="176" height="43" viewBox="0 0 176 43" fill="none" xmlns="http://www.w3.org/2000/svg">
<path d="M59.052 22.132C59.044 21.956 59.04 21.696 59.04 21.352C59.04 21.008 59.044 20.752 59.052 20.584C60.076 20.584 60.884 20.512 61.476 20.368C62.068 20.224 62.524 19.996 62.844 19.684C63.172 19.372 63.436 18.932 63.636 18.364L64.764 18.496C64.62 18.952 64.548 19.32 64.548 19.6C64.548 20.168 64.84 20.452 65.424 20.452L65.508 21.22L65.412 22C65.076 22 64.768 21.928 64.488 21.784C64.208 21.632 63.988 21.42 63.828 21.148C63.668 20.876 63.588 20.568 63.588 20.224L63.828 20.26C63.356 20.948 62.736 21.432 61.968 21.712C61.208 21.992 60.236 22.132 59.052 22.132ZM55.992 17.812C55.752 18.54 55.648 19.08 55.68 19.432C55.744 19.776 56.072 20.056 56.664 20.272C57.256 20.48 58.084 20.584 59.148 20.584C59.164 20.752 59.172 21.008 59.172 21.352C59.172 21.696 59.164 21.956 59.148 22.132C57.732 22.14 56.62 21.932 55.812 21.508C55.004 21.084 54.564 20.484 54.492 19.708C54.484 19.644 54.48 19.548 54.48 19.42C54.48 19.084 54.524 18.728 54.612 18.352C54.7 17.968 54.812 17.616 54.948 17.296L55.992 17.812ZM58.404 16.36L59.34 17.284L58.404 18.232L57.468 17.284L58.404 16.36ZM60.504 16.36L61.44 17.284L60.504 18.232L59.568 17.284L60.504 16.36ZM65.3072 20.452H65.8472C66.6632 20.452 67.2392 20.38 67.5752 20.236C67.9112 20.084 68.0792 19.852 68.0792 19.54C68.0712 19.34 67.9832 18.996 67.8152 18.508C67.6552 18.012 67.5272 17.66 67.4312 17.452L68.5592 16.84C68.7192 17.2 68.8792 17.648 69.0392 18.184C69.1992 18.72 69.2792 19.192 69.2792 19.6C69.2712 20.384 68.9992 20.98 68.4632 21.388C67.9272 21.796 67.1312 22 66.0752 22H65.3072V20.452ZM65.4392 23.08L66.3752 24.004L65.4392 24.952L64.5032 24.004L65.4392 23.08ZM67.5512 23.08L68.4872 24.004L67.5512 24.952L66.6152 24.004L67.5512 23.08ZM73.8683 22C73.3403 22 72.9163 21.812 72.5963 21.436C72.2843 21.052 72.0203 20.508 71.8043 19.804L72.7523 19.228C72.8643 19.676 73.0043 19.992 73.1723 20.176C73.3403 20.36 73.5723 20.452 73.8683 20.452H73.9643L74.0483 21.22L73.9643 22H73.8683ZM69.1523 24.172C69.6723 23.972 70.1483 23.728 70.5803 23.44C71.0123 23.152 71.3523 22.86 71.6003 22.564C71.8483 22.268 71.9723 22.004 71.9723 21.772C71.9723 21.596 71.9243 21.304 71.8283 20.896C71.7323 20.48 71.6043 19.96 71.4443 19.336C71.3803 19.112 71.3363 18.944 71.3123 18.832L72.5123 18.364C72.6963 18.924 72.8443 19.52 72.9563 20.152C73.0763 20.776 73.1363 21.316 73.1363 21.772C73.1363 22.532 72.8243 23.24 72.2003 23.896C71.5843 24.552 70.7763 25.08 69.7763 25.48L69.1523 24.172ZM74.2342 20.452H74.7742C75.5902 20.452 76.1662 20.38 76.5022 20.236C76.8382 20.084 77.0062 19.852 77.0062 19.54C76.9982 19.34 76.9102 18.996 76.7422 18.508C76.5822 18.012 76.4542 17.66 76.3582 17.452L77.4862 16.84C77.6462 17.2 77.8062 17.648 77.9662 18.184C78.1262 18.72 78.2062 19.192 78.2062 19.6C78.1982 20.384 77.9262 20.98 77.3902 21.388C76.8542 21.796 76.0582 22 75.0022 22H74.2342V20.452ZM74.8582 23.056L75.7942 23.98L74.8582 24.928L73.9222 23.98L74.8582 23.056ZM76.9702 23.056L77.9062 23.98L76.9702 24.928L76.0342 23.98L76.9702 23.056ZM73.8742 22L73.8022 21.22L73.8742 20.452H74.3662V22H73.8742ZM82.6991 15.664L84.3431 19.552C84.4871 19.896 84.6471 20.132 84.8231 20.26C85.0071 20.388 85.2631 20.452 85.5911 20.452H85.7231L85.8071 21.22L85.7231 22H85.5911C85.0631 22 84.6151 21.856 84.2471 21.568C83.8871 21.28 83.5671 20.824 83.2871 20.2L81.5831 16.252L82.6991 15.664ZM79.6031 20.032C79.8831 20.184 80.1711 20.316 80.4671 20.428C80.7711 20.532 81.1271 20.584 81.5351 20.584C82.0471 20.584 82.4711 20.504 82.8071 20.344C83.1431 20.184 83.4111 20.008 83.6111 19.816L84.2951 20.752C84.0951 20.976 83.9031 21.172 83.7191 21.34C83.5431 21.5 83.2751 21.66 82.9151 21.82C82.5631 21.98 82.1471 22.06 81.6671 22.06C81.0751 22.06 80.5671 21.968 80.1431 21.784C79.7271 21.592 79.3511 21.376 79.0151 21.136L79.6031 20.032ZM88.0041 19.54C88.4921 19.876 88.9401 20.144 89.3481 20.344C89.7561 20.536 90.0601 20.632 90.2601 20.632C90.3401 20.632 90.3961 20.62 90.4281 20.596C90.6361 20.468 90.7401 20.22 90.7401 19.852C90.7401 19.508 90.6481 19.192 90.4641 18.904C90.2801 18.616 90.0441 18.472 89.7561 18.472C89.2921 18.472 88.7641 19.128 88.1721 20.44C87.9401 20.96 87.6201 21.352 87.2121 21.616C86.8041 21.872 86.3401 22 85.8201 22H85.6041L85.6281 20.452H85.8561C86.4881 20.452 87.0081 20.076 87.4161 19.324C87.7841 18.604 88.1561 18.052 88.5321 17.668C88.9081 17.276 89.3241 17.08 89.7801 17.08C90.1961 17.08 90.5601 17.212 90.8721 17.476C91.1841 17.74 91.4241 18.08 91.5921 18.496C91.7601 18.912 91.8441 19.348 91.8441 19.804C91.8441 20.26 91.7561 20.676 91.5801 21.052C91.4121 21.428 91.1641 21.716 90.8361 21.916C90.6681 22.012 90.4681 22.06 90.2361 22.06C89.5561 22.06 88.6121 21.652 87.4041 20.836L88.0041 19.54ZM100.536 22.132C100.528 21.956 100.524 21.696 100.524 21.352C100.524 21.008 100.528 20.752 100.536 20.584C101.272 20.584 101.9 20.54 102.42 20.452C102.948 20.364 103.348 20.26 103.62 20.14C103.892 20.02 104.036 19.916 104.052 19.828C104.004 19.468 103.896 19.044 103.728 18.556C103.568 18.068 103.436 17.7 103.332 17.452L104.46 16.84C104.652 17.272 104.824 17.78 104.976 18.364C105.128 18.94 105.196 19.424 105.18 19.816C105.148 20.568 104.704 21.144 103.848 21.544C103 21.936 101.896 22.132 100.536 22.132ZM97.4998 17.812C97.2598 18.54 97.1558 19.08 97.1878 19.432C97.2518 19.776 97.5798 20.056 98.1718 20.272C98.7638 20.48 99.5918 20.584 100.656 20.584C100.672 20.752 100.68 21.008 100.68 21.352C100.68 21.696 100.672 21.956 100.656 22.132C99.2398 22.14 98.1278 21.932 97.3198 21.508C96.5118 21.084 96.0718 20.484 95.9998 19.708C95.9918 19.644 95.9878 19.548 95.9878 19.42C95.9878 19.084 96.0318 18.728 96.1198 18.352C96.2078 17.968 96.3198 17.616 96.4558 17.296L97.4998 17.812ZM99.5398 24.088C99.9878 23.624 100.328 23.28 100.56 23.056L101.58 24.088L101.244 24.424L100.56 25.108L99.5398 24.088ZM107.612 13.288C107.692 13.856 107.756 14.716 107.804 15.868C107.852 17.012 107.872 18 107.864 18.832C107.856 19.272 107.876 19.604 107.924 19.828C107.972 20.044 108.076 20.204 108.236 20.308C108.396 20.404 108.644 20.452 108.98 20.452H109.04L109.112 21.22L109.04 22H108.98C108.108 22 107.492 21.764 107.132 21.292C106.772 20.82 106.592 20.08 106.592 19.072C106.592 18.152 106.564 17.16 106.508 16.096C106.46 15.024 106.392 14.188 106.304 13.588L107.612 13.288ZM115.608 20.452H115.644C115.916 20.452 116.164 20.38 116.388 20.236C116.62 20.092 116.744 19.924 116.76 19.732L117.708 19.852C117.676 20.244 117.56 20.604 117.36 20.932C117.168 21.26 116.92 21.52 116.616 21.712C116.32 21.904 115.996 22 115.644 22H115.608V20.452ZM118.8 20.452L118.872 21.22L118.788 22H118.728C118.256 22 117.844 21.86 117.492 21.58C117.148 21.292 116.888 20.88 116.712 20.344C116.624 20.064 116.48 19.388 116.28 18.316L117.396 18.016C117.492 18.536 117.568 18.936 117.624 19.216C117.68 19.488 117.736 19.696 117.792 19.84C117.856 20.04 117.964 20.192 118.116 20.296C118.268 20.4 118.472 20.452 118.728 20.452H118.8ZM112.38 22V20.452H112.428C112.852 20.452 113.192 20.212 113.448 19.732C113.608 19.42 113.744 18.936 113.856 18.28L114.984 18.328C114.888 18.808 114.84 19.196 114.84 19.492C114.84 20.132 115.104 20.452 115.632 20.452H115.668L115.74 21.22L115.668 22H115.632C115.192 22 114.828 21.876 114.54 21.628C114.252 21.38 114.056 21.032 113.952 20.584L114.228 20.572C114.012 21.012 113.748 21.36 113.436 21.616C113.132 21.872 112.792 22 112.416 22H112.38ZM108.96 22L108.876 21.22L108.96 20.452H109.008C109.272 20.452 109.528 20.392 109.776 20.272C110.024 20.152 110.212 20.004 110.34 19.828C110.508 19.62 110.636 19.392 110.724 19.144C110.82 18.896 110.9 18.636 110.964 18.364L112.092 18.484C112.092 18.492 112.072 18.584 112.032 18.76C111.912 19.224 111.852 19.568 111.852 19.792C111.852 20.016 111.896 20.184 111.984 20.296C112.072 20.4 112.212 20.452 112.404 20.452H112.428L112.512 21.22L112.428 22H112.38C112.028 22 111.724 21.904 111.468 21.712C111.22 21.512 111.056 21.248 110.976 20.92C110.72 21.272 110.424 21.54 110.088 21.724C109.752 21.908 109.388 22 108.996 22H108.96ZM118.639 20.452H119.599C120.567 20.452 121.471 20.344 122.311 20.128C123.159 19.904 124.039 19.548 124.951 19.06C125.207 18.916 125.471 18.784 125.743 18.664C126.015 18.544 126.231 18.464 126.391 18.424L126.439 19.396C126.007 19.364 125.591 19.288 125.191 19.168C124.799 19.048 124.351 18.864 123.847 18.616C123.119 18.24 122.491 18.052 121.963 18.052C121.651 18.052 121.371 18.14 121.123 18.316C120.875 18.492 120.687 18.696 120.559 18.928L119.683 18.292C119.963 17.724 120.299 17.296 120.691 17.008C121.083 16.712 121.523 16.564 122.011 16.564C122.355 16.564 122.683 16.624 122.995 16.744C123.315 16.856 123.759 17.06 124.327 17.356C124.823 17.604 125.231 17.792 125.551 17.92C125.871 18.048 126.223 18.152 126.607 18.232L126.655 19.612C126.431 19.676 126.063 19.852 125.551 20.14C125.479 20.172 125.371 20.228 125.227 20.308C124.467 20.708 123.795 21.028 123.211 21.268C122.635 21.508 122.035 21.692 121.411 21.82C120.795 21.94 120.111 22 119.359 22H118.639V20.452Z" fill="#A0AEC0"/>
<g filter="url(#filter0_d_843_10213)">
<rect x="140" y="4" width="30" height="30" rx="6" fill="white" shape-rendering="crispEdges"/>
<path fill-rule="evenodd" clip-rule="evenodd" d="M155.501 20.6441C153.055 20.6441 150.91 22.0829 150.91 23.7223C150.91 25.8316 154.366 25.8316 155.501 25.8316C156.636 25.8316 160.091 25.8316 160.091 23.7085C160.091 22.076 157.946 20.6441 155.501 20.6441Z" fill="#4FD1C5"/>
<path fill-rule="evenodd" clip-rule="evenodd" d="M155.477 19.2763H155.496C157.18 19.2763 158.55 17.9063 158.55 16.222C158.55 14.5382 157.18 13.1682 155.496 13.1682C153.812 13.1682 152.442 14.5382 152.442 16.2207C152.436 17.8995 153.797 19.2701 155.477 19.2763Z" fill="#4FD1C5"/>
</g>
<defs>
<filter id="filter0_d_843_10213" x="134.5" y="2" width="41" height="41" filterUnits="userSpaceOnUse" color-interpolation-filters="sRGB">
<feFlood flood-opacity="0" result="BackgroundImageFix"/>
<feColorMatrix in="SourceAlpha" type="matrix" values="0 0 0 0 0 0 0 0 0 0 0 0 0 0 0 0 0 0 127 0" result="hardAlpha"/>
<feOffset dy="3.5"/>
<feGaussianBlur stdDeviation="2.75"/>
<feComposite in2="hardAlpha" operator="out"/>
<feColorMatrix type="matrix" values="0 0 0 0 0 0 0 0 0 0 0 0 0 0 0 0 0 0 0.02 0"/>
<feBlend mode="normal" in2="BackgroundImageFix" result="effect1_dropShadow_843_10213"/>
<feBlend mode="normal" in="SourceGraphic" in2="effect1_dropShadow_843_10213" result="shape"/>
</filter>
</defs>
</svg>
