<svg width="192" height="49" viewBox="0 0 192 49" fill="none" xmlns="http://www.w3.org/2000/svg">
<g filter="url(#filter0_d_843_10218)">
<rect x="6" y="2" width="180" height="38" rx="6" fill="white" shape-rendering="crispEdges"/>
<path d="M75.052 24.132C75.044 23.956 75.04 23.696 75.04 23.352C75.04 23.008 75.044 22.752 75.052 22.584C76.076 22.584 76.884 22.512 77.476 22.368C78.068 22.224 78.524 21.996 78.844 21.684C79.172 21.372 79.436 20.932 79.636 20.364L80.764 20.496C80.62 20.952 80.548 21.32 80.548 21.6C80.548 22.168 80.84 22.452 81.424 22.452L81.508 23.22L81.412 24C81.076 24 80.768 23.928 80.488 23.784C80.208 23.632 79.988 23.42 79.828 23.148C79.668 22.876 79.588 22.568 79.588 22.224L79.828 22.26C79.356 22.948 78.736 23.432 77.968 23.712C77.208 23.992 76.236 24.132 75.052 24.132ZM71.992 19.812C71.752 20.54 71.648 21.08 71.68 21.432C71.744 21.776 72.072 22.056 72.664 22.272C73.256 22.48 74.084 22.584 75.148 22.584C75.164 22.752 75.172 23.008 75.172 23.352C75.172 23.696 75.164 23.956 75.148 24.132C73.732 24.14 72.62 23.932 71.812 23.508C71.004 23.084 70.564 22.484 70.492 21.708C70.484 21.644 70.48 21.548 70.48 21.42C70.48 21.084 70.524 20.728 70.612 20.352C70.7 19.968 70.812 19.616 70.948 19.296L71.992 19.812ZM74.404 18.36L75.34 19.284L74.404 20.232L73.468 19.284L74.404 18.36ZM76.504 18.36L77.44 19.284L76.504 20.232L75.568 19.284L76.504 18.36ZM81.3072 22.452H81.8472C82.6632 22.452 83.2392 22.38 83.5752 22.236C83.9112 22.084 84.0792 21.852 84.0792 21.54C84.0712 21.34 83.9832 20.996 83.8152 20.508C83.6552 20.012 83.5272 19.66 83.4312 19.452L84.5592 18.84C84.7192 19.2 84.8792 19.648 85.0392 20.184C85.1992 20.72 85.2792 21.192 85.2792 21.6C85.2712 22.384 84.9992 22.98 84.4632 23.388C83.9272 23.796 83.1312 24 82.0752 24H81.3072V22.452ZM81.4392 25.08L82.3752 26.004L81.4392 26.952L80.5032 26.004L81.4392 25.08ZM83.5512 25.08L84.4872 26.004L83.5512 26.952L82.6152 26.004L83.5512 25.08ZM89.8683 24C89.3403 24 88.9163 23.812 88.5963 23.436C88.2843 23.052 88.0203 22.508 87.8043 21.804L88.7523 21.228C88.8643 21.676 89.0043 21.992 89.1723 22.176C89.3403 22.36 89.5723 22.452 89.8683 22.452H89.9643L90.0483 23.22L89.9643 24H89.8683ZM85.1523 26.172C85.6723 25.972 86.1483 25.728 86.5803 25.44C87.0123 25.152 87.3523 24.86 87.6003 24.564C87.8483 24.268 87.9723 24.004 87.9723 23.772C87.9723 23.596 87.9243 23.304 87.8283 22.896C87.7323 22.48 87.6043 21.96 87.4443 21.336C87.3803 21.112 87.3363 20.944 87.3123 20.832L88.5123 20.364C88.6963 20.924 88.8443 21.52 88.9563 22.152C89.0763 22.776 89.1363 23.316 89.1363 23.772C89.1363 24.532 88.8243 25.24 88.2003 25.896C87.5843 26.552 86.7763 27.08 85.7763 27.48L85.1523 26.172ZM90.2342 22.452H90.7742C91.5902 22.452 92.1662 22.38 92.5022 22.236C92.8382 22.084 93.0062 21.852 93.0062 21.54C92.9982 21.34 92.9102 20.996 92.7422 20.508C92.5822 20.012 92.4542 19.66 92.3582 19.452L93.4862 18.84C93.6462 19.2 93.8062 19.648 93.9662 20.184C94.1262 20.72 94.2062 21.192 94.2062 21.6C94.1982 22.384 93.9262 22.98 93.3902 23.388C92.8542 23.796 92.0582 24 91.0022 24H90.2342V22.452ZM90.8582 25.056L91.7942 25.98L90.8582 26.928L89.9222 25.98L90.8582 25.056ZM92.9702 25.056L93.9062 25.98L92.9702 26.928L92.0342 25.98L92.9702 25.056ZM89.8742 24L89.8022 23.22L89.8742 22.452H90.3662V24H89.8742ZM98.6991 17.664L100.343 21.552C100.487 21.896 100.647 22.132 100.823 22.26C101.007 22.388 101.263 22.452 101.591 22.452H101.723L101.807 23.22L101.723 24H101.591C101.063 24 100.615 23.856 100.247 23.568C99.8871 23.28 99.5671 22.824 99.2871 22.2L97.5831 18.252L98.6991 17.664ZM95.6031 22.032C95.8831 22.184 96.1711 22.316 96.4671 22.428C96.7711 22.532 97.1271 22.584 97.5351 22.584C98.0471 22.584 98.4711 22.504 98.8071 22.344C99.1431 22.184 99.4111 22.008 99.6111 21.816L100.295 22.752C100.095 22.976 99.9031 23.172 99.7191 23.34C99.5431 23.5 99.2751 23.66 98.9151 23.82C98.5631 23.98 98.1471 24.06 97.6671 24.06C97.0751 24.06 96.5671 23.968 96.1431 23.784C95.7271 23.592 95.3511 23.376 95.0151 23.136L95.6031 22.032ZM104.004 21.54C104.492 21.876 104.94 22.144 105.348 22.344C105.756 22.536 106.06 22.632 106.26 22.632C106.34 22.632 106.396 22.62 106.428 22.596C106.636 22.468 106.74 22.22 106.74 21.852C106.74 21.508 106.648 21.192 106.464 20.904C106.28 20.616 106.044 20.472 105.756 20.472C105.292 20.472 104.764 21.128 104.172 22.44C103.94 22.96 103.62 23.352 103.212 23.616C102.804 23.872 102.34 24 101.82 24H101.604L101.628 22.452H101.856C102.488 22.452 103.008 22.076 103.416 21.324C103.784 20.604 104.156 20.052 104.532 19.668C104.908 19.276 105.324 19.08 105.78 19.08C106.196 19.08 106.56 19.212 106.872 19.476C107.184 19.74 107.424 20.08 107.592 20.496C107.76 20.912 107.844 21.348 107.844 21.804C107.844 22.26 107.756 22.676 107.58 23.052C107.412 23.428 107.164 23.716 106.836 23.916C106.668 24.012 106.468 24.06 106.236 24.06C105.556 24.06 104.612 23.652 103.404 22.836L104.004 21.54ZM116.536 24.132C116.528 23.956 116.524 23.696 116.524 23.352C116.524 23.008 116.528 22.752 116.536 22.584C117.272 22.584 117.9 22.54 118.42 22.452C118.948 22.364 119.348 22.26 119.62 22.14C119.892 22.02 120.036 21.916 120.052 21.828C120.004 21.468 119.896 21.044 119.728 20.556C119.568 20.068 119.436 19.7 119.332 19.452L120.46 18.84C120.652 19.272 120.824 19.78 120.976 20.364C121.128 20.94 121.196 21.424 121.18 21.816C121.148 22.568 120.704 23.144 119.848 23.544C119 23.936 117.896 24.132 116.536 24.132ZM113.5 19.812C113.26 20.54 113.156 21.08 113.188 21.432C113.252 21.776 113.58 22.056 114.172 22.272C114.764 22.48 115.592 22.584 116.656 22.584C116.672 22.752 116.68 23.008 116.68 23.352C116.68 23.696 116.672 23.956 116.656 24.132C115.24 24.14 114.128 23.932 113.32 23.508C112.512 23.084 112.072 22.484 112 21.708C111.992 21.644 111.988 21.548 111.988 21.42C111.988 21.084 112.032 20.728 112.12 20.352C112.208 19.968 112.32 19.616 112.456 19.296L113.5 19.812ZM115.54 26.088C115.988 25.624 116.328 25.28 116.56 25.056L117.58 26.088L117.244 26.424L116.56 27.108L115.54 26.088ZM123.612 15.288C123.692 15.856 123.756 16.716 123.804 17.868C123.852 19.012 123.872 20 123.864 20.832C123.856 21.272 123.876 21.604 123.924 21.828C123.972 22.044 124.076 22.204 124.236 22.308C124.396 22.404 124.644 22.452 124.98 22.452H125.04L125.112 23.22L125.04 24H124.98C124.108 24 123.492 23.764 123.132 23.292C122.772 22.82 122.592 22.08 122.592 21.072C122.592 20.152 122.564 19.16 122.508 18.096C122.46 17.024 122.392 16.188 122.304 15.588L123.612 15.288ZM131.608 22.452H131.644C131.916 22.452 132.164 22.38 132.388 22.236C132.62 22.092 132.744 21.924 132.76 21.732L133.708 21.852C133.676 22.244 133.56 22.604 133.36 22.932C133.168 23.26 132.92 23.52 132.616 23.712C132.32 23.904 131.996 24 131.644 24H131.608V22.452ZM134.8 22.452L134.872 23.22L134.788 24H134.728C134.256 24 133.844 23.86 133.492 23.58C133.148 23.292 132.888 22.88 132.712 22.344C132.624 22.064 132.48 21.388 132.28 20.316L133.396 20.016C133.492 20.536 133.568 20.936 133.624 21.216C133.68 21.488 133.736 21.696 133.792 21.84C133.856 22.04 133.964 22.192 134.116 22.296C134.268 22.4 134.472 22.452 134.728 22.452H134.8ZM128.38 24V22.452H128.428C128.852 22.452 129.192 22.212 129.448 21.732C129.608 21.42 129.744 20.936 129.856 20.28L130.984 20.328C130.888 20.808 130.84 21.196 130.84 21.492C130.84 22.132 131.104 22.452 131.632 22.452H131.668L131.74 23.22L131.668 24H131.632C131.192 24 130.828 23.876 130.54 23.628C130.252 23.38 130.056 23.032 129.952 22.584L130.228 22.572C130.012 23.012 129.748 23.36 129.436 23.616C129.132 23.872 128.792 24 128.416 24H128.38ZM124.96 24L124.876 23.22L124.96 22.452H125.008C125.272 22.452 125.528 22.392 125.776 22.272C126.024 22.152 126.212 22.004 126.34 21.828C126.508 21.62 126.636 21.392 126.724 21.144C126.82 20.896 126.9 20.636 126.964 20.364L128.092 20.484C128.092 20.492 128.072 20.584 128.032 20.76C127.912 21.224 127.852 21.568 127.852 21.792C127.852 22.016 127.896 22.184 127.984 22.296C128.072 22.4 128.212 22.452 128.404 22.452H128.428L128.512 23.22L128.428 24H128.38C128.028 24 127.724 23.904 127.468 23.712C127.22 23.512 127.056 23.248 126.976 22.92C126.72 23.272 126.424 23.54 126.088 23.724C125.752 23.908 125.388 24 124.996 24H124.96ZM134.639 22.452H135.599C136.567 22.452 137.471 22.344 138.311 22.128C139.159 21.904 140.039 21.548 140.951 21.06C141.207 20.916 141.471 20.784 141.743 20.664C142.015 20.544 142.231 20.464 142.391 20.424L142.439 21.396C142.007 21.364 141.591 21.288 141.191 21.168C140.799 21.048 140.351 20.864 139.847 20.616C139.119 20.24 138.491 20.052 137.963 20.052C137.651 20.052 137.371 20.14 137.123 20.316C136.875 20.492 136.687 20.696 136.559 20.928L135.683 20.292C135.963 19.724 136.299 19.296 136.691 19.008C137.083 18.712 137.523 18.564 138.011 18.564C138.355 18.564 138.683 18.624 138.995 18.744C139.315 18.856 139.759 19.06 140.327 19.356C140.823 19.604 141.231 19.792 141.551 19.92C141.871 20.048 142.223 20.152 142.607 20.232L142.655 21.612C142.431 21.676 142.063 21.852 141.551 22.14C141.479 22.172 141.371 22.228 141.227 22.308C140.467 22.708 139.795 23.028 139.211 23.268C138.635 23.508 138.035 23.692 137.411 23.82C136.795 23.94 136.111 24 135.359 24H134.639V22.452Z" fill="#2B2B2B"/>
<rect x="156" y="6" width="30" height="30" rx="6" fill="#4FD1C5"/>
<path fill-rule="evenodd" clip-rule="evenodd" d="M171.501 22.6441C169.055 22.6441 166.91 24.0829 166.91 25.7223C166.91 27.8316 170.366 27.8316 171.501 27.8316C172.636 27.8316 176.091 27.8316 176.091 25.7085C176.091 24.076 173.946 22.6441 171.501 22.6441Z" fill="#EDFAF9"/>
<path fill-rule="evenodd" clip-rule="evenodd" d="M171.477 21.2763H171.496C173.18 21.2763 174.55 19.9063 174.55 18.222C174.55 16.5382 173.18 15.1682 171.496 15.1682C169.812 15.1682 168.442 16.5382 168.442 18.2207C168.436 19.8995 169.797 21.2701 171.477 21.2763Z" fill="#EDFAF9"/>
</g>
<defs>
<filter id="filter0_d_843_10218" x="0.5" y="0" width="191" height="49" filterUnits="userSpaceOnUse" color-interpolation-filters="sRGB">
<feFlood flood-opacity="0" result="BackgroundImageFix"/>
<feColorMatrix in="SourceAlpha" type="matrix" values="0 0 0 0 0 0 0 0 0 0 0 0 0 0 0 0 0 0 127 0" result="hardAlpha"/>
<feOffset dy="3.5"/>
<feGaussianBlur stdDeviation="2.75"/>
<feComposite in2="hardAlpha" operator="out"/>
<feColorMatrix type="matrix" values="0 0 0 0 0 0 0 0 0 0 0 0 0 0 0 0 0 0 0.02 0"/>
<feBlend mode="normal" in2="BackgroundImageFix" result="effect1_dropShadow_843_10218"/>
<feBlend mode="normal" in="SourceGraphic" in2="effect1_dropShadow_843_10218" result="shape"/>
</filter>
</defs>
</svg>
