<svg width="176" height="43" viewBox="0 0 176 43" fill="none" xmlns="http://www.w3.org/2000/svg">
<path d="M93.956 13.288C94.036 13.856 94.1 14.716 94.148 15.868C94.196 17.012 94.216 18 94.208 18.832C94.2 19.272 94.22 19.604 94.268 19.828C94.316 20.044 94.42 20.204 94.58 20.308C94.74 20.404 94.988 20.452 95.324 20.452H95.384L95.456 21.22L95.384 22H95.324C94.452 22 93.836 21.764 93.476 21.292C93.116 20.82 92.936 20.08 92.936 19.072C92.936 18.152 92.908 17.16 92.852 16.096C92.804 15.024 92.736 14.188 92.648 13.588L93.956 13.288ZM95.2921 20.452H95.4601C96.7481 20.452 97.6961 20.352 98.3041 20.152C98.9121 19.944 99.2521 19.62 99.3241 19.18L99.3361 19.036C99.3361 18.732 99.2361 18.464 99.0361 18.232C98.8441 17.992 98.6041 17.872 98.3161 17.872C98.1481 17.872 97.9761 17.928 97.8001 18.04C97.6321 18.144 97.4921 18.284 97.3801 18.46C97.2761 18.628 97.2241 18.808 97.2241 19C97.2241 19.288 97.4001 19.56 97.7521 19.816C98.1041 20.064 98.5361 20.264 99.0481 20.416C99.5601 20.568 100.04 20.644 100.488 20.644C100.848 20.644 101.136 20.592 101.352 20.488C101.576 20.376 101.688 20.208 101.688 19.984C101.688 19.576 101.236 19.14 100.332 18.676C99.4361 18.204 98.1281 17.732 96.4081 17.26L96.9601 15.82C98.4881 16.3 99.6801 16.756 100.536 17.188C101.4 17.62 102 18.04 102.336 18.448C102.68 18.848 102.852 19.28 102.852 19.744C102.852 20.032 102.792 20.368 102.672 20.752C102.536 21.16 102.26 21.468 101.844 21.676C101.428 21.876 100.928 21.976 100.344 21.976C99.6961 21.976 99.0361 21.86 98.3641 21.628C97.7001 21.388 97.1481 21.056 96.7081 20.632C96.2761 20.208 96.0601 19.736 96.0601 19.216C96.0601 19.144 96.0681 19.044 96.0841 18.916C96.1641 18.46 96.3201 18.044 96.5521 17.668C96.7841 17.284 97.0601 16.98 97.3801 16.756C97.7001 16.532 98.0361 16.42 98.3881 16.42C98.7481 16.42 99.0801 16.54 99.3841 16.78C99.6881 17.02 99.9281 17.336 100.104 17.728C100.288 18.112 100.38 18.516 100.38 18.94C100.38 19.076 100.368 19.212 100.344 19.348C100.24 20.004 100 20.528 99.6241 20.92C99.2561 21.304 98.7321 21.58 98.0521 21.748C97.3801 21.916 96.5161 22 95.4601 22H95.2921V20.452ZM106.929 20.704C106.945 20.28 107.085 19.936 107.349 19.672C107.613 19.408 107.933 19.276 108.309 19.276C108.413 19.276 108.525 19.288 108.645 19.312C108.949 18.648 109.297 18.116 109.689 17.716C110.081 17.316 110.493 17.104 110.925 17.08C111.365 17.056 111.749 17.172 112.077 17.428C112.405 17.684 112.657 18.028 112.833 18.46C113.009 18.884 113.097 19.332 113.097 19.804C113.097 20.26 113.013 20.68 112.845 21.064C112.677 21.44 112.425 21.724 112.089 21.916C111.921 22.012 111.725 22.06 111.501 22.06C111.197 22.06 110.801 21.968 110.313 21.784C109.833 21.592 109.213 21.284 108.453 20.86C108.421 20.844 108.389 20.836 108.357 20.836C108.269 20.836 108.225 20.892 108.225 21.004C108.209 21.588 108.225 22.24 108.273 22.96C108.321 23.688 108.393 24.588 108.489 25.66C108.529 26.02 108.549 26.236 108.549 26.308L107.229 26.572L107.205 26.284C107.013 24.308 106.917 22.676 106.917 21.388C106.917 21.076 106.921 20.848 106.929 20.704ZM109.713 19.852C110.553 20.38 111.153 20.644 111.513 20.644C111.569 20.644 111.629 20.628 111.693 20.596C111.893 20.468 111.993 20.224 111.993 19.864C111.993 19.52 111.901 19.204 111.717 18.916C111.541 18.62 111.305 18.472 111.009 18.472C110.633 18.472 110.201 18.932 109.713 19.852ZM115.483 13.288C115.563 13.856 115.627 14.716 115.675 15.868C115.723 17.012 115.743 18 115.735 18.832C115.727 19.272 115.747 19.604 115.795 19.828C115.843 20.044 115.947 20.204 116.107 20.308C116.267 20.404 116.515 20.452 116.851 20.452H116.911L116.983 21.22L116.911 22H116.851C115.979 22 115.363 21.764 115.003 21.292C114.643 20.82 114.463 20.08 114.463 19.072C114.463 18.152 114.435 17.16 114.379 16.096C114.331 15.024 114.263 14.188 114.175 13.588L115.483 13.288ZM116.795 20.452H116.891C117.515 20.452 117.999 20.424 118.343 20.368C118.687 20.312 118.931 20.228 119.075 20.116C119.227 19.996 119.327 19.836 119.375 19.636C119.399 19.524 119.411 19.404 119.411 19.276C119.411 19.076 119.391 18.844 119.351 18.58C119.311 18.308 119.287 18.14 119.279 18.076L120.395 17.86C120.459 18.204 120.503 18.564 120.527 18.94C120.551 19.308 120.563 19.6 120.563 19.816C120.595 20 120.691 20.152 120.851 20.272C121.011 20.392 121.235 20.452 121.523 20.452H121.595L121.679 21.22L121.595 22H121.523C121.139 22 120.791 21.896 120.479 21.688C120.175 21.472 119.943 21.196 119.783 20.86L120.071 20.92C119.871 21.312 119.531 21.592 119.051 21.76C118.579 21.92 117.859 22 116.891 22H116.795V20.452ZM116.855 23.068L117.791 23.992L116.855 24.94L115.919 23.992L116.855 23.068ZM118.967 23.068L119.903 23.992L118.967 24.94L118.031 23.992L118.967 23.068ZM121.471 20.452H122.011C122.827 20.452 123.403 20.38 123.739 20.236C124.075 20.084 124.243 19.852 124.243 19.54C124.235 19.34 124.147 18.996 123.979 18.508C123.819 18.012 123.691 17.66 123.595 17.452L124.723 16.84C124.883 17.2 125.043 17.648 125.203 18.184C125.363 18.72 125.443 19.192 125.443 19.6C125.435 20.384 125.163 20.98 124.627 21.388C124.091 21.796 123.295 22 122.239 22H121.471V20.452ZM122.995 23.716C123.395 23.316 123.595 23.116 123.595 23.116L123.907 22.804C124.203 23.116 124.507 23.42 124.819 23.716L124.507 24.028C124.507 24.028 124.307 24.228 123.907 24.628L122.995 23.716ZM120.739 23.716C121.139 23.316 121.339 23.116 121.339 23.116L121.651 22.804C121.947 23.116 122.251 23.42 122.563 23.716L122.251 24.028C122.251 24.028 122.051 24.228 121.651 24.628L120.739 23.716ZM122.767 24.28L123.571 25.096L123.307 25.36L122.767 25.9C122.503 25.628 122.235 25.36 121.963 25.096L122.767 24.28Z" fill="#A0AEC0"/>
<g filter="url(#filter0_d_1711_1798)">
<rect x="140" y="4" width="30" height="30" rx="6" fill="white" shape-rendering="crispEdges"/>
<path fill-rule="evenodd" clip-rule="evenodd" d="M160.267 20.7266C159.738 19.5622 159.752 19.1241 159.776 18.3279C159.782 18.1397 159.789 17.9354 159.789 17.701C159.789 15.8404 158.458 13.2197 155.5 13.2197C152.543 13.2197 151.212 15.8404 151.212 17.701C151.212 17.9347 151.219 18.1397 151.225 18.3279C151.249 19.1241 151.262 19.5622 150.727 20.7422C150.499 21.3322 150.526 21.8416 150.81 22.2566C151.493 23.2554 153.468 23.3929 155.5 23.3929C157.533 23.3929 159.508 23.2554 160.19 22.2566C160.475 21.8416 160.503 21.3322 160.267 20.7266Z" fill="#4FD1C5"/>
<path fill-rule="evenodd" clip-rule="evenodd" d="M157.186 24.0255C156.167 24.1387 155.062 24.138 153.806 24.0243C153.617 24.0093 153.431 24.1087 153.345 24.2805C153.258 24.453 153.286 24.6599 153.414 24.8037C153.976 25.433 154.716 25.7805 155.497 25.7805H155.499C156.282 25.7805 157.024 25.4337 157.587 24.8037C157.717 24.6593 157.744 24.4493 157.655 24.2762C157.566 24.1043 157.382 24.008 157.186 24.0255Z" fill="#4FD1C5"/>
</g>
<defs>
<filter id="filter0_d_1711_1798" x="134.5" y="2" width="41" height="41" filterUnits="userSpaceOnUse" color-interpolation-filters="sRGB">
<feFlood flood-opacity="0" result="BackgroundImageFix"/>
<feColorMatrix in="SourceAlpha" type="matrix" values="0 0 0 0 0 0 0 0 0 0 0 0 0 0 0 0 0 0 127 0" result="hardAlpha"/>
<feOffset dy="3.5"/>
<feGaussianBlur stdDeviation="2.75"/>
<feComposite in2="hardAlpha" operator="out"/>
<feColorMatrix type="matrix" values="0 0 0 0 0 0 0 0 0 0 0 0 0 0 0 0 0 0 0.02 0"/>
<feBlend mode="normal" in2="BackgroundImageFix" result="effect1_dropShadow_1711_1798"/>
<feBlend mode="normal" in="SourceGraphic" in2="effect1_dropShadow_1711_1798" result="shape"/>
</filter>
</defs>
</svg>
