<svg width="192" height="49" viewBox="0 0 192 49" fill="none" xmlns="http://www.w3.org/2000/svg">
<g filter="url(#filter0_d_1711_1803)">
<rect x="6" y="2" width="180" height="38" rx="6" fill="white" shape-rendering="crispEdges"/>
<path d="M101.956 15.288C102.036 15.856 102.1 16.716 102.148 17.868C102.196 19.012 102.216 20 102.208 20.832C102.2 21.272 102.22 21.604 102.268 21.828C102.316 22.044 102.42 22.204 102.58 22.308C102.74 22.404 102.988 22.452 103.324 22.452H103.384L103.456 23.22L103.384 24H103.324C102.452 24 101.836 23.764 101.476 23.292C101.116 22.82 100.936 22.08 100.936 21.072C100.936 20.152 100.908 19.16 100.852 18.096C100.804 17.024 100.736 16.188 100.648 15.588L101.956 15.288ZM103.292 22.452H103.46C104.748 22.452 105.696 22.352 106.304 22.152C106.912 21.944 107.252 21.62 107.324 21.18L107.336 21.036C107.336 20.732 107.236 20.464 107.036 20.232C106.844 19.992 106.604 19.872 106.316 19.872C106.148 19.872 105.976 19.928 105.8 20.04C105.632 20.144 105.492 20.284 105.38 20.46C105.276 20.628 105.224 20.808 105.224 21C105.224 21.288 105.4 21.56 105.752 21.816C106.104 22.064 106.536 22.264 107.048 22.416C107.56 22.568 108.04 22.644 108.488 22.644C108.848 22.644 109.136 22.592 109.352 22.488C109.576 22.376 109.688 22.208 109.688 21.984C109.688 21.576 109.236 21.14 108.332 20.676C107.436 20.204 106.128 19.732 104.408 19.26L104.96 17.82C106.488 18.3 107.68 18.756 108.536 19.188C109.4 19.62 110 20.04 110.336 20.448C110.68 20.848 110.852 21.28 110.852 21.744C110.852 22.032 110.792 22.368 110.672 22.752C110.536 23.16 110.26 23.468 109.844 23.676C109.428 23.876 108.928 23.976 108.344 23.976C107.696 23.976 107.036 23.86 106.364 23.628C105.7 23.388 105.148 23.056 104.708 22.632C104.276 22.208 104.06 21.736 104.06 21.216C104.06 21.144 104.068 21.044 104.084 20.916C104.164 20.46 104.32 20.044 104.552 19.668C104.784 19.284 105.06 18.98 105.38 18.756C105.7 18.532 106.036 18.42 106.388 18.42C106.748 18.42 107.08 18.54 107.384 18.78C107.688 19.02 107.928 19.336 108.104 19.728C108.288 20.112 108.38 20.516 108.38 20.94C108.38 21.076 108.368 21.212 108.344 21.348C108.24 22.004 108 22.528 107.624 22.92C107.256 23.304 106.732 23.58 106.052 23.748C105.38 23.916 104.516 24 103.46 24H103.292V22.452ZM114.929 22.704C114.945 22.28 115.085 21.936 115.349 21.672C115.613 21.408 115.933 21.276 116.309 21.276C116.413 21.276 116.525 21.288 116.645 21.312C116.949 20.648 117.297 20.116 117.689 19.716C118.081 19.316 118.493 19.104 118.925 19.08C119.365 19.056 119.749 19.172 120.077 19.428C120.405 19.684 120.657 20.028 120.833 20.46C121.009 20.884 121.097 21.332 121.097 21.804C121.097 22.26 121.013 22.68 120.845 23.064C120.677 23.44 120.425 23.724 120.089 23.916C119.921 24.012 119.725 24.06 119.501 24.06C119.197 24.06 118.801 23.968 118.313 23.784C117.833 23.592 117.213 23.284 116.453 22.86C116.421 22.844 116.389 22.836 116.357 22.836C116.269 22.836 116.225 22.892 116.225 23.004C116.209 23.588 116.225 24.24 116.273 24.96C116.321 25.688 116.393 26.588 116.489 27.66C116.529 28.02 116.549 28.236 116.549 28.308L115.229 28.572L115.205 28.284C115.013 26.308 114.917 24.676 114.917 23.388C114.917 23.076 114.921 22.848 114.929 22.704ZM117.713 21.852C118.553 22.38 119.153 22.644 119.513 22.644C119.569 22.644 119.629 22.628 119.693 22.596C119.893 22.468 119.993 22.224 119.993 21.864C119.993 21.52 119.901 21.204 119.717 20.916C119.541 20.62 119.305 20.472 119.009 20.472C118.633 20.472 118.201 20.932 117.713 21.852ZM123.483 15.288C123.563 15.856 123.627 16.716 123.675 17.868C123.723 19.012 123.743 20 123.735 20.832C123.727 21.272 123.747 21.604 123.795 21.828C123.843 22.044 123.947 22.204 124.107 22.308C124.267 22.404 124.515 22.452 124.851 22.452H124.911L124.983 23.22L124.911 24H124.851C123.979 24 123.363 23.764 123.003 23.292C122.643 22.82 122.463 22.08 122.463 21.072C122.463 20.152 122.435 19.16 122.379 18.096C122.331 17.024 122.263 16.188 122.175 15.588L123.483 15.288ZM124.795 22.452H124.891C125.515 22.452 125.999 22.424 126.343 22.368C126.687 22.312 126.931 22.228 127.075 22.116C127.227 21.996 127.327 21.836 127.375 21.636C127.399 21.524 127.411 21.404 127.411 21.276C127.411 21.076 127.391 20.844 127.351 20.58C127.311 20.308 127.287 20.14 127.279 20.076L128.395 19.86C128.459 20.204 128.503 20.564 128.527 20.94C128.551 21.308 128.563 21.6 128.563 21.816C128.595 22 128.691 22.152 128.851 22.272C129.011 22.392 129.235 22.452 129.523 22.452H129.595L129.679 23.22L129.595 24H129.523C129.139 24 128.791 23.896 128.479 23.688C128.175 23.472 127.943 23.196 127.783 22.86L128.071 22.92C127.871 23.312 127.531 23.592 127.051 23.76C126.579 23.92 125.859 24 124.891 24H124.795V22.452ZM124.855 25.068L125.791 25.992L124.855 26.94L123.919 25.992L124.855 25.068ZM126.967 25.068L127.903 25.992L126.967 26.94L126.031 25.992L126.967 25.068ZM129.471 22.452H130.011C130.827 22.452 131.403 22.38 131.739 22.236C132.075 22.084 132.243 21.852 132.243 21.54C132.235 21.34 132.147 20.996 131.979 20.508C131.819 20.012 131.691 19.66 131.595 19.452L132.723 18.84C132.883 19.2 133.043 19.648 133.203 20.184C133.363 20.72 133.443 21.192 133.443 21.6C133.435 22.384 133.163 22.98 132.627 23.388C132.091 23.796 131.295 24 130.239 24H129.471V22.452ZM130.995 25.716C131.395 25.316 131.595 25.116 131.595 25.116L131.907 24.804C132.203 25.116 132.507 25.42 132.819 25.716L132.507 26.028C132.507 26.028 132.307 26.228 131.907 26.628L130.995 25.716ZM128.739 25.716C129.139 25.316 129.339 25.116 129.339 25.116L129.651 24.804C129.947 25.116 130.251 25.42 130.563 25.716L130.251 26.028C130.251 26.028 130.051 26.228 129.651 26.628L128.739 25.716ZM130.767 26.28L131.571 27.096L131.307 27.36L130.767 27.9C130.503 27.628 130.235 27.36 129.963 27.096L130.767 26.28Z" fill="#2B2B2B"/>
<rect x="156" y="6" width="30" height="30" rx="6" fill="#4FD1C5"/>
<path fill-rule="evenodd" clip-rule="evenodd" d="M176.267 22.7266C175.738 21.5622 175.752 21.1241 175.776 20.3279C175.782 20.1397 175.789 19.9354 175.789 19.701C175.789 17.8404 174.458 15.2197 171.5 15.2197C168.543 15.2197 167.212 17.8404 167.212 19.701C167.212 19.9347 167.219 20.1397 167.225 20.3279C167.249 21.1241 167.262 21.5622 166.727 22.7422C166.499 23.3322 166.526 23.8416 166.81 24.2566C167.493 25.2554 169.468 25.3929 171.5 25.3929C173.533 25.3929 175.508 25.2554 176.19 24.2566C176.475 23.8416 176.503 23.3322 176.267 22.7266Z" fill="white"/>
<path fill-rule="evenodd" clip-rule="evenodd" d="M173.186 26.0255C172.167 26.1387 171.062 26.138 169.806 26.0243C169.617 26.0093 169.431 26.1087 169.345 26.2805C169.258 26.453 169.286 26.6599 169.414 26.8037C169.976 27.433 170.716 27.7805 171.497 27.7805H171.499C172.282 27.7805 173.024 27.4337 173.587 26.8037C173.717 26.6593 173.744 26.4493 173.655 26.2762C173.566 26.1043 173.382 26.008 173.186 26.0255Z" fill="white"/>
</g>
<defs>
<filter id="filter0_d_1711_1803" x="0.5" y="0" width="191" height="49" filterUnits="userSpaceOnUse" color-interpolation-filters="sRGB">
<feFlood flood-opacity="0" result="BackgroundImageFix"/>
<feColorMatrix in="SourceAlpha" type="matrix" values="0 0 0 0 0 0 0 0 0 0 0 0 0 0 0 0 0 0 127 0" result="hardAlpha"/>
<feOffset dy="3.5"/>
<feGaussianBlur stdDeviation="2.75"/>
<feComposite in2="hardAlpha" operator="out"/>
<feColorMatrix type="matrix" values="0 0 0 0 0 0 0 0 0 0 0 0 0 0 0 0 0 0 0.02 0"/>
<feBlend mode="normal" in2="BackgroundImageFix" result="effect1_dropShadow_1711_1803"/>
<feBlend mode="normal" in="SourceGraphic" in2="effect1_dropShadow_1711_1803" result="shape"/>
</filter>
</defs>
</svg>
