<svg width="192" height="49" viewBox="0 0 192 49" fill="none" xmlns="http://www.w3.org/2000/svg">
<g filter="url(#filter0_d_843_10251)">
<rect x="6" y="2" width="180" height="38" rx="6" fill="white" shape-rendering="crispEdges"/>
<path d="M41.496 20.832C41.288 21.312 41.128 21.736 41.016 22.104C40.904 22.464 40.848 22.832 40.848 23.208C40.848 23.864 41.056 24.352 41.472 24.672C41.888 25 42.488 25.164 43.272 25.164C43.832 25.164 44.32 25.064 44.736 24.864C45.16 24.672 45.48 24.416 45.696 24.096C45.92 23.784 46.032 23.452 46.032 23.1C46.032 22.644 45.776 21.684 45.264 20.22L46.548 19.548C47.052 20.9 47.304 22.084 47.304 23.1C47.304 23.796 47.136 24.436 46.8 25.02C46.464 25.604 45.988 26.068 45.372 26.412C44.764 26.764 44.064 26.94 43.272 26.94C42.528 26.94 41.872 26.796 41.304 26.508C40.736 26.228 40.292 25.824 39.972 25.296C39.66 24.768 39.504 24.148 39.504 23.436C39.504 23.292 39.508 23.18 39.516 23.1C39.54 22.644 39.632 22.168 39.792 21.672C39.96 21.176 40.144 20.72 40.344 20.304L41.496 20.832ZM42.396 19.572L43.512 18.468L44.616 19.572L44.244 19.944C44.004 20.192 43.76 20.436 43.512 20.676L42.396 19.572ZM48.4399 23.928C48.5199 23.4 48.5599 22.584 48.5599 21.48C48.5599 20.376 48.5239 19.22 48.4519 18.012C48.3879 16.796 48.3119 15.944 48.2239 15.456L49.7239 15.108C49.7959 15.572 49.8599 16.384 49.9159 17.544C49.9719 18.704 49.9999 19.844 49.9999 20.964C49.9999 22.348 49.9519 23.388 49.8559 24.084L48.4399 23.928ZM54.418 24C53.874 24 53.434 23.8 53.098 23.4C52.762 23 52.482 22.44 52.258 21.72L53.338 21.06C53.45 21.484 53.586 21.784 53.746 21.96C53.906 22.128 54.13 22.212 54.418 22.212H54.526L54.622 23.112L54.526 24H54.418ZM49.582 25.992C50.11 25.776 50.594 25.524 51.034 25.236C51.474 24.956 51.818 24.676 52.066 24.396C52.322 24.116 52.45 23.876 52.45 23.676C52.45 23.348 52.238 22.456 51.814 21L51.754 20.76L53.098 20.232C53.29 20.784 53.442 21.376 53.554 22.008C53.666 22.632 53.722 23.188 53.722 23.676C53.722 24.46 53.414 25.184 52.798 25.848C52.182 26.52 51.354 27.072 50.314 27.504L49.582 25.992ZM54.4205 22.212H55.0565C55.6325 22.212 56.0445 22.148 56.2925 22.02C56.5485 21.892 56.6765 21.7 56.6765 21.444C56.6765 21.276 56.5925 20.948 56.4245 20.46C56.2565 19.964 56.1245 19.6 56.0285 19.368L57.2885 18.672C57.4405 19.008 57.5965 19.46 57.7565 20.028C57.9245 20.588 58.0085 21.08 58.0085 21.504C58.0085 22.32 57.7525 22.94 57.2405 23.364C56.7365 23.788 56.0085 24 55.0565 24H54.4205V22.212ZM54.8285 26.028L55.9445 24.924L57.0485 26.028L56.6765 26.4C56.4365 26.648 56.1925 26.892 55.9445 27.132L54.8285 26.028ZM57.668 25.992C58.196 25.776 58.68 25.524 59.12 25.236C59.56 24.956 59.904 24.676 60.152 24.396C60.408 24.116 60.536 23.876 60.536 23.676C60.536 23.348 60.324 22.456 59.9 21L59.84 20.76L61.184 20.232C61.376 20.784 61.528 21.376 61.64 22.008C61.752 22.632 61.808 23.188 61.808 23.676C61.808 24.46 61.5 25.184 60.884 25.848C60.268 26.52 59.44 27.072 58.4 27.504L57.668 25.992ZM64.3369 15.12C64.4169 15.704 64.4809 16.496 64.5289 17.496C64.5769 18.488 64.6009 19.408 64.6009 20.256V20.712C64.5929 21.12 64.6129 21.428 64.6609 21.636C64.7089 21.844 64.8049 21.992 64.9489 22.08C65.1009 22.168 65.3329 22.212 65.6449 22.212H65.7049L65.8009 23.112L65.7049 24H65.6449C64.7649 24 64.1289 23.748 63.7369 23.244C63.3529 22.74 63.1609 21.972 63.1609 20.94C63.1529 19.956 63.1209 18.96 63.0649 17.952C63.0169 16.936 62.9449 16.1 62.8489 15.444L64.3369 15.12ZM71.1098 16.488L67.6418 17.964C67.9058 18.188 68.2058 18.496 68.5418 18.888C68.8858 19.272 69.1898 19.708 69.4538 20.196C69.7258 20.684 69.8618 21.156 69.8618 21.612C69.8618 21.748 69.8418 21.904 69.8018 22.08C69.6418 22.728 69.2178 23.212 68.5298 23.532C67.8418 23.844 66.9778 24 65.9378 24H65.5298V22.212H65.9378C66.6178 22.212 67.1818 22.16 67.6298 22.056C68.0778 21.944 68.3738 21.796 68.5178 21.612C68.4538 21.228 68.2178 20.772 67.8098 20.244C67.4018 19.716 66.8018 19.132 66.0098 18.492L66.1778 16.932L70.6298 15.06L71.1098 16.488ZM75.6793 20.76C75.4633 21.248 75.2993 21.672 75.1873 22.032C75.0833 22.384 75.0313 22.744 75.0313 23.112C75.0313 23.776 75.2353 24.272 75.6433 24.6C76.0593 24.928 76.6633 25.092 77.4553 25.092C78.1033 25.092 78.6833 24.976 79.1953 24.744C79.7073 24.52 80.0753 24.236 80.2993 23.892C80.3073 23.868 80.0553 23.792 79.5433 23.664L78.9073 23.484C78.2753 23.3 77.8273 23.08 77.5633 22.824C77.2993 22.568 77.1673 22.208 77.1673 21.744C77.1673 21.096 77.3313 20.476 77.6593 19.884C77.9873 19.292 78.4193 18.812 78.9553 18.444C79.4913 18.076 80.0593 17.892 80.6593 17.892C80.8993 17.892 81.1433 17.928 81.3913 18C81.6393 18.064 81.8113 18.144 81.9073 18.24L81.4033 19.788C81.3233 19.756 81.2073 19.728 81.0553 19.704C80.9033 19.68 80.7673 19.668 80.6473 19.668C80.3193 19.668 80.0033 19.74 79.6993 19.884C79.4033 20.02 79.1513 20.204 78.9433 20.436C78.7353 20.66 78.5953 20.904 78.5233 21.168C78.5153 21.2 78.5113 21.24 78.5113 21.288C78.5113 21.424 78.6033 21.544 78.7873 21.648C78.9793 21.744 79.3353 21.852 79.8553 21.972C80.5833 22.14 81.0753 22.352 81.3313 22.608C81.5953 22.856 81.7273 23.148 81.7273 23.484C81.7273 24.068 81.5393 24.62 81.1633 25.14C80.7873 25.66 80.2713 26.076 79.6153 26.388C78.9673 26.708 78.2473 26.868 77.4553 26.868C76.6953 26.868 76.0233 26.72 75.4393 26.424C74.8553 26.128 74.4033 25.688 74.0833 25.104C73.7713 24.528 73.6433 23.836 73.6993 23.028C73.7473 22.26 74.0193 21.328 74.5153 20.232L75.6793 20.76ZM83.186 23.928C83.266 23.4 83.306 22.584 83.306 21.48C83.306 20.376 83.27 19.22 83.198 18.012C83.134 16.796 83.058 15.944 82.97 15.456L84.47 15.108C84.542 15.572 84.606 16.384 84.662 17.544C84.718 18.704 84.746 19.844 84.746 20.964C84.746 22.348 84.698 23.388 84.602 24.084L83.186 23.928ZM89.1641 24C88.6201 24 88.1801 23.8 87.8441 23.4C87.5081 23 87.2281 22.44 87.0041 21.72L88.0841 21.06C88.1961 21.484 88.3321 21.784 88.4921 21.96C88.6521 22.128 88.8761 22.212 89.1641 22.212H89.2721L89.3681 23.112L89.2721 24H89.1641ZM84.3281 25.992C84.8561 25.776 85.3401 25.524 85.7801 25.236C86.2201 24.956 86.5641 24.676 86.8121 24.396C87.0681 24.116 87.1961 23.876 87.1961 23.676C87.1961 23.348 86.9841 22.456 86.5601 21L86.5001 20.76L87.8441 20.232C88.0361 20.784 88.1881 21.376 88.3001 22.008C88.4121 22.632 88.4681 23.188 88.4681 23.676C88.4681 24.46 88.1601 25.184 87.5441 25.848C86.9281 26.52 86.1001 27.072 85.0601 27.504L84.3281 25.992ZM89.1666 22.212H89.8026C90.3786 22.212 90.7906 22.148 91.0386 22.02C91.2946 21.892 91.4226 21.7 91.4226 21.444C91.4226 21.276 91.3386 20.948 91.1706 20.46C91.0026 19.964 90.8706 19.6 90.7746 19.368L92.0346 18.672C92.1866 19.008 92.3426 19.46 92.5026 20.028C92.6706 20.588 92.7546 21.08 92.7546 21.504C92.7546 22.32 92.4986 22.94 91.9866 23.364C91.4826 23.788 90.7546 24 89.8026 24H89.1666V22.212ZM89.5746 26.028L90.6906 24.924L91.7946 26.028L91.4226 26.4C91.1826 26.648 90.9386 26.892 90.6906 27.132L89.5746 26.028ZM100.777 24C100.233 24 99.7934 23.8 99.4574 23.4C99.1214 23 98.8414 22.44 98.6174 21.72L99.6974 21.06C99.8094 21.484 99.9454 21.784 100.105 21.96C100.265 22.128 100.489 22.212 100.777 22.212H100.885L100.981 23.112L100.885 24H100.777ZM95.9414 25.992C96.4694 25.776 96.9534 25.524 97.3934 25.236C97.8334 24.956 98.1774 24.676 98.4254 24.396C98.6814 24.116 98.8094 23.876 98.8094 23.676C98.8094 23.348 98.5974 22.456 98.1734 21L98.1134 20.76L99.4574 20.232C99.6494 20.784 99.8014 21.376 99.9134 22.008C100.025 22.632 100.081 23.188 100.081 23.676C100.081 24.46 99.7734 25.184 99.1574 25.848C98.5414 26.52 97.7134 27.072 96.6734 27.504L95.9414 25.992ZM97.4534 18.024L98.5694 16.92L99.6734 18.024L99.3014 18.396C99.0614 18.644 98.8174 18.888 98.5694 19.128L97.4534 18.024ZM103.216 21.336C103.712 21.672 104.16 21.94 104.56 22.14C104.968 22.332 105.272 22.428 105.472 22.428C105.544 22.428 105.596 22.416 105.628 22.392C105.708 22.336 105.768 22.256 105.808 22.152C105.856 22.04 105.88 21.912 105.88 21.768C105.88 21.448 105.792 21.152 105.616 20.88C105.44 20.6 105.208 20.46 104.92 20.46C104.472 20.46 103.972 21.096 103.42 22.368C103.18 22.912 102.852 23.32 102.436 23.592C102.02 23.864 101.544 24 101.008 24H100.78L100.816 22.212H101.032C101.656 22.212 102.168 21.836 102.568 21.084C102.968 20.34 103.352 19.784 103.72 19.416C104.088 19.04 104.5 18.852 104.956 18.852C105.388 18.852 105.768 18.992 106.096 19.272C106.424 19.544 106.672 19.9 106.84 20.34C107.016 20.772 107.104 21.228 107.104 21.708C107.104 22.172 107.016 22.604 106.84 23.004C106.664 23.396 106.408 23.692 106.072 23.892C105.896 24.004 105.68 24.06 105.424 24.06C104.72 24.06 103.76 23.644 102.544 22.812L103.216 21.336ZM106.523 25.992C107.051 25.776 107.535 25.524 107.975 25.236C108.415 24.956 108.759 24.676 109.007 24.396C109.263 24.116 109.391 23.876 109.391 23.676C109.391 23.348 109.179 22.456 108.755 21L108.695 20.76L110.039 20.232C110.231 20.784 110.383 21.376 110.495 22.008C110.607 22.632 110.663 23.188 110.663 23.676C110.663 24.46 110.355 25.184 109.739 25.848C109.123 26.52 108.295 27.072 107.255 27.504L106.523 25.992ZM121.684 21.036C121.836 21.484 121.984 21.792 122.128 21.96C122.28 22.128 122.504 22.212 122.8 22.212H122.884L122.98 23.112L122.884 24H122.8C122.288 24 121.876 23.796 121.564 23.388C121.26 22.972 120.976 22.392 120.712 21.648L121.684 21.036ZM116.332 21.396C116.124 21.876 115.964 22.3 115.852 22.668C115.74 23.028 115.684 23.396 115.684 23.772C115.684 24.428 115.892 24.916 116.308 25.236C116.724 25.564 117.324 25.728 118.108 25.728C118.668 25.728 119.156 25.628 119.572 25.428C119.996 25.236 120.316 24.98 120.532 24.66C120.756 24.348 120.868 24.016 120.868 23.664C120.868 23.208 120.612 22.248 120.1 20.784L121.384 20.112C121.888 21.464 122.14 22.648 122.14 23.664C122.14 24.36 121.972 25 121.636 25.584C121.3 26.168 120.824 26.632 120.208 26.976C119.6 27.328 118.9 27.504 118.108 27.504C117.364 27.504 116.708 27.36 116.14 27.072C115.572 26.792 115.128 26.388 114.808 25.86C114.496 25.332 114.34 24.712 114.34 24C114.34 23.856 114.344 23.744 114.352 23.664C114.376 23.208 114.468 22.732 114.628 22.236C114.796 21.74 114.98 21.284 115.18 20.868L116.332 21.396ZM117.232 20.136L118.348 19.032L119.452 20.136L119.08 20.508C118.84 20.756 118.596 21 118.348 21.24L117.232 20.136ZM122.764 22.212H122.848C123.568 22.212 124.104 22.176 124.456 22.104C124.808 22.024 125.04 21.908 125.152 21.756C125.264 21.604 125.32 21.384 125.32 21.096C125.32 20.864 125.28 20.484 125.2 19.956L126.436 19.716C126.548 20.3 126.604 20.96 126.604 21.696C126.636 21.832 126.724 21.952 126.868 22.056C127.012 22.16 127.22 22.212 127.492 22.212H127.564L127.66 23.112L127.564 24H127.492C127.124 24 126.784 23.9 126.472 23.7C126.16 23.492 125.916 23.232 125.74 22.92L126.04 22.98C125.824 23.348 125.472 23.612 124.984 23.772C124.504 23.924 123.792 24 122.848 24H122.764V22.212ZM123.82 25.032L124.816 26.04C124.6 26.264 124.38 26.484 124.156 26.7L123.82 27.036L123.328 26.532L122.824 26.04L123.82 25.032ZM125.92 25.032L126.916 26.04C126.7 26.264 126.48 26.484 126.256 26.7L125.92 27.036L125.428 26.532L124.924 26.04L125.92 25.032ZM127.44 22.212H127.524C128.244 22.212 128.78 22.176 129.132 22.104C129.484 22.024 129.716 21.908 129.828 21.756C129.94 21.604 129.996 21.384 129.996 21.096C129.996 20.864 129.956 20.484 129.876 19.956L131.112 19.716C131.224 20.3 131.28 20.96 131.28 21.696C131.312 21.832 131.4 21.952 131.544 22.056C131.688 22.16 131.896 22.212 132.168 22.212H132.24L132.336 23.112L132.24 24H132.168C131.8 24 131.46 23.9 131.148 23.7C130.836 23.492 130.592 23.232 130.416 22.92L130.716 22.98C130.5 23.348 130.148 23.612 129.66 23.772C129.18 23.924 128.468 24 127.524 24H127.44V22.212ZM128.496 25.032L129.492 26.04C129.276 26.264 129.056 26.484 128.832 26.7L128.496 27.036L128.004 26.532L127.5 26.04L128.496 25.032ZM130.596 25.032L131.592 26.04C131.376 26.264 131.156 26.484 130.932 26.7L130.596 27.036L130.104 26.532L129.6 26.04L130.596 25.032ZM132.116 22.212H132.44C133.456 22.212 134.3 22.104 134.972 21.888C135.652 21.664 136.16 21.404 136.496 21.108C136.84 20.812 137.076 20.524 137.204 20.244C137.124 20.108 136.968 20.004 136.736 19.932C136.504 19.852 136.236 19.812 135.932 19.812C135.644 19.812 135.356 19.848 135.068 19.92C134.788 19.992 134.544 20.096 134.336 20.232C134.984 20.936 135.636 21.444 136.292 21.756C136.956 22.06 137.748 22.212 138.668 22.212H139.04L139.136 23.112L139.04 24H138.668C137.796 24 137.044 23.896 136.412 23.688C135.788 23.472 135.192 23.124 134.624 22.644C134.056 22.156 133.42 21.464 132.716 20.568L132.764 19.38C133.124 19.02 133.572 18.748 134.108 18.564C134.644 18.38 135.2 18.288 135.776 18.288C136.272 18.288 136.732 18.356 137.156 18.492C137.588 18.628 137.932 18.828 138.188 19.092C138.452 19.356 138.584 19.668 138.584 20.028C138.584 20.596 138.284 21.192 137.684 21.816C137.084 22.44 136.308 22.96 135.356 23.376C134.404 23.792 133.432 24 132.44 24H132.116V22.212ZM138.924 22.212H139.5C140.292 22.212 140.852 22.144 141.18 22.008C141.508 21.872 141.672 21.664 141.672 21.384C141.664 21.208 141.572 20.872 141.396 20.376C141.22 19.872 141.092 19.536 141.012 19.368L142.284 18.672C142.444 19.008 142.604 19.456 142.764 20.016C142.924 20.568 143.004 21.052 143.004 21.468C142.996 22.284 142.72 22.912 142.176 23.352C141.632 23.784 140.828 24 139.764 24H138.924V22.212ZM140.04 16.2L141.036 17.208C140.82 17.432 140.6 17.652 140.376 17.868L140.04 18.204L139.548 17.7L139.044 17.208L140.04 16.2ZM142.14 16.2L143.136 17.208C142.92 17.432 142.7 17.652 142.476 17.868L142.14 18.204L141.648 17.7L141.144 17.208L142.14 16.2Z" fill="#2B2B2B"/>
<rect x="156" y="6" width="30" height="30" rx="6" fill="#4FD1C5"/>
<path fill-rule="evenodd" clip-rule="evenodd" d="M175.1 22.6575C175.1 22.9163 174.89 23.1263 174.631 23.1263C174.373 23.1263 174.163 22.9163 174.163 22.6575V21.9688H173.332V22.6575C173.332 22.9163 173.122 23.1263 172.864 23.1263C172.605 23.1263 172.395 22.9163 172.395 22.6575V21.9688H171.073C170.87 22.6363 170.256 23.1263 169.523 23.1263C168.627 23.1263 167.898 22.3969 167.898 21.5C167.898 20.6038 168.627 19.8744 169.523 19.8744C170.257 19.875 170.87 20.365 171.073 21.0312H174.631C174.89 21.0312 175.1 21.2413 175.1 21.5V22.6575ZM171.5 15.4062C167.001 15.4062 165.406 17.0013 165.406 21.5C165.406 25.9994 167.001 27.5938 171.5 27.5938C175.999 27.5938 177.594 25.9994 177.594 21.5C177.594 17.0013 175.999 15.4062 171.5 15.4062Z" fill="#EDFAF9"/>
<path fill-rule="evenodd" clip-rule="evenodd" d="M169.524 20.8118C169.144 20.8118 168.834 21.1205 168.834 21.5005C168.834 21.8799 169.144 22.1886 169.523 22.1886C169.903 22.1886 170.213 21.8799 170.213 21.5005C170.213 21.1211 169.904 20.8124 169.524 20.8118Z" fill="#EDFAF9"/>
</g>
<defs>
<filter id="filter0_d_843_10251" x="0.5" y="0" width="191" height="49" filterUnits="userSpaceOnUse" color-interpolation-filters="sRGB">
<feFlood flood-opacity="0" result="BackgroundImageFix"/>
<feColorMatrix in="SourceAlpha" type="matrix" values="0 0 0 0 0 0 0 0 0 0 0 0 0 0 0 0 0 0 127 0" result="hardAlpha"/>
<feOffset dy="3.5"/>
<feGaussianBlur stdDeviation="2.75"/>
<feComposite in2="hardAlpha" operator="out"/>
<feColorMatrix type="matrix" values="0 0 0 0 0 0 0 0 0 0 0 0 0 0 0 0 0 0 0.02 0"/>
<feBlend mode="normal" in2="BackgroundImageFix" result="effect1_dropShadow_843_10251"/>
<feBlend mode="normal" in="SourceGraphic" in2="effect1_dropShadow_843_10251" result="shape"/>
</filter>
</defs>
</svg>
