<svg width="176" height="43" viewBox="0 0 176 43" fill="none" xmlns="http://www.w3.org/2000/svg">
<path d="M25.496 18.832C25.288 19.312 25.128 19.736 25.016 20.104C24.904 20.464 24.848 20.832 24.848 21.208C24.848 21.864 25.056 22.352 25.472 22.672C25.888 23 26.488 23.164 27.272 23.164C27.832 23.164 28.32 23.064 28.736 22.864C29.16 22.672 29.48 22.416 29.696 22.096C29.92 21.784 30.032 21.452 30.032 21.1C30.032 20.644 29.776 19.684 29.264 18.22L30.548 17.548C31.052 18.9 31.304 20.084 31.304 21.1C31.304 21.796 31.136 22.436 30.8 23.02C30.464 23.604 29.988 24.068 29.372 24.412C28.764 24.764 28.064 24.94 27.272 24.94C26.528 24.94 25.872 24.796 25.304 24.508C24.736 24.228 24.292 23.824 23.972 23.296C23.66 22.768 23.504 22.148 23.504 21.436C23.504 21.292 23.508 21.18 23.516 21.1C23.54 20.644 23.632 20.168 23.792 19.672C23.96 19.176 24.144 18.72 24.344 18.304L25.496 18.832ZM26.396 17.572L27.512 16.468L28.616 17.572L28.244 17.944C28.004 18.192 27.76 18.436 27.512 18.676L26.396 17.572ZM32.4399 21.928C32.5199 21.4 32.5599 20.584 32.5599 19.48C32.5599 18.376 32.5239 17.22 32.4519 16.012C32.3879 14.796 32.3119 13.944 32.2239 13.456L33.7239 13.108C33.7959 13.572 33.8599 14.384 33.9159 15.544C33.9719 16.704 33.9999 17.844 33.9999 18.964C33.9999 20.348 33.9519 21.388 33.8559 22.084L32.4399 21.928ZM38.418 22C37.874 22 37.434 21.8 37.098 21.4C36.762 21 36.482 20.44 36.258 19.72L37.338 19.06C37.45 19.484 37.586 19.784 37.746 19.96C37.906 20.128 38.13 20.212 38.418 20.212H38.526L38.622 21.112L38.526 22H38.418ZM33.582 23.992C34.11 23.776 34.594 23.524 35.034 23.236C35.474 22.956 35.818 22.676 36.066 22.396C36.322 22.116 36.45 21.876 36.45 21.676C36.45 21.348 36.238 20.456 35.814 19L35.754 18.76L37.098 18.232C37.29 18.784 37.442 19.376 37.554 20.008C37.666 20.632 37.722 21.188 37.722 21.676C37.722 22.46 37.414 23.184 36.798 23.848C36.182 24.52 35.354 25.072 34.314 25.504L33.582 23.992ZM38.4205 20.212H39.0565C39.6325 20.212 40.0445 20.148 40.2925 20.02C40.5485 19.892 40.6765 19.7 40.6765 19.444C40.6765 19.276 40.5925 18.948 40.4245 18.46C40.2565 17.964 40.1245 17.6 40.0285 17.368L41.2885 16.672C41.4405 17.008 41.5965 17.46 41.7565 18.028C41.9245 18.588 42.0085 19.08 42.0085 19.504C42.0085 20.32 41.7525 20.94 41.2405 21.364C40.7365 21.788 40.0085 22 39.0565 22H38.4205V20.212ZM38.8285 24.028L39.9445 22.924L41.0485 24.028L40.6765 24.4C40.4365 24.648 40.1925 24.892 39.9445 25.132L38.8285 24.028ZM41.668 23.992C42.196 23.776 42.68 23.524 43.12 23.236C43.56 22.956 43.904 22.676 44.152 22.396C44.408 22.116 44.536 21.876 44.536 21.676C44.536 21.348 44.324 20.456 43.9 19L43.84 18.76L45.184 18.232C45.376 18.784 45.528 19.376 45.64 20.008C45.752 20.632 45.808 21.188 45.808 21.676C45.808 22.46 45.5 23.184 44.884 23.848C44.268 24.52 43.44 25.072 42.4 25.504L41.668 23.992ZM48.3369 13.12C48.4169 13.704 48.4809 14.496 48.5289 15.496C48.5769 16.488 48.6009 17.408 48.6009 18.256V18.712C48.5929 19.12 48.6129 19.428 48.6609 19.636C48.7089 19.844 48.8049 19.992 48.9489 20.08C49.1009 20.168 49.3329 20.212 49.6449 20.212H49.7049L49.8009 21.112L49.7049 22H49.6449C48.7649 22 48.1289 21.748 47.7369 21.244C47.3529 20.74 47.1609 19.972 47.1609 18.94C47.1529 17.956 47.1209 16.96 47.0649 15.952C47.0169 14.936 46.9449 14.1 46.8489 13.444L48.3369 13.12ZM55.1098 14.488L51.6418 15.964C51.9058 16.188 52.2058 16.496 52.5418 16.888C52.8858 17.272 53.1898 17.708 53.4538 18.196C53.7258 18.684 53.8618 19.156 53.8618 19.612C53.8618 19.748 53.8418 19.904 53.8018 20.08C53.6418 20.728 53.2178 21.212 52.5298 21.532C51.8418 21.844 50.9778 22 49.9378 22H49.5298V20.212H49.9378C50.6178 20.212 51.1818 20.16 51.6298 20.056C52.0778 19.944 52.3738 19.796 52.5178 19.612C52.4538 19.228 52.2178 18.772 51.8098 18.244C51.4018 17.716 50.8018 17.132 50.0098 16.492L50.1778 14.932L54.6298 13.06L55.1098 14.488ZM59.6793 18.76C59.4633 19.248 59.2993 19.672 59.1873 20.032C59.0833 20.384 59.0313 20.744 59.0313 21.112C59.0313 21.776 59.2353 22.272 59.6433 22.6C60.0593 22.928 60.6633 23.092 61.4553 23.092C62.1033 23.092 62.6833 22.976 63.1953 22.744C63.7073 22.52 64.0753 22.236 64.2993 21.892C64.3073 21.868 64.0553 21.792 63.5433 21.664L62.9073 21.484C62.2753 21.3 61.8273 21.08 61.5633 20.824C61.2993 20.568 61.1673 20.208 61.1673 19.744C61.1673 19.096 61.3313 18.476 61.6593 17.884C61.9873 17.292 62.4193 16.812 62.9553 16.444C63.4913 16.076 64.0593 15.892 64.6593 15.892C64.8993 15.892 65.1433 15.928 65.3913 16C65.6393 16.064 65.8113 16.144 65.9073 16.24L65.4033 17.788C65.3233 17.756 65.2073 17.728 65.0553 17.704C64.9033 17.68 64.7673 17.668 64.6473 17.668C64.3193 17.668 64.0033 17.74 63.6993 17.884C63.4033 18.02 63.1513 18.204 62.9433 18.436C62.7353 18.66 62.5953 18.904 62.5233 19.168C62.5153 19.2 62.5113 19.24 62.5113 19.288C62.5113 19.424 62.6033 19.544 62.7873 19.648C62.9793 19.744 63.3353 19.852 63.8553 19.972C64.5833 20.14 65.0753 20.352 65.3313 20.608C65.5953 20.856 65.7273 21.148 65.7273 21.484C65.7273 22.068 65.5393 22.62 65.1633 23.14C64.7873 23.66 64.2713 24.076 63.6153 24.388C62.9673 24.708 62.2473 24.868 61.4553 24.868C60.6953 24.868 60.0233 24.72 59.4393 24.424C58.8553 24.128 58.4033 23.688 58.0833 23.104C57.7713 22.528 57.6433 21.836 57.6993 21.028C57.7473 20.26 58.0193 19.328 58.5153 18.232L59.6793 18.76ZM67.186 21.928C67.266 21.4 67.306 20.584 67.306 19.48C67.306 18.376 67.27 17.22 67.198 16.012C67.134 14.796 67.058 13.944 66.97 13.456L68.47 13.108C68.542 13.572 68.606 14.384 68.662 15.544C68.718 16.704 68.746 17.844 68.746 18.964C68.746 20.348 68.698 21.388 68.602 22.084L67.186 21.928ZM73.1641 22C72.6201 22 72.1801 21.8 71.8441 21.4C71.5081 21 71.2281 20.44 71.0041 19.72L72.0841 19.06C72.1961 19.484 72.3321 19.784 72.4921 19.96C72.6521 20.128 72.8761 20.212 73.1641 20.212H73.2721L73.3681 21.112L73.2721 22H73.1641ZM68.3281 23.992C68.8561 23.776 69.3401 23.524 69.7801 23.236C70.2201 22.956 70.5641 22.676 70.8121 22.396C71.0681 22.116 71.1961 21.876 71.1961 21.676C71.1961 21.348 70.9841 20.456 70.5601 19L70.5001 18.76L71.8441 18.232C72.0361 18.784 72.1881 19.376 72.3001 20.008C72.4121 20.632 72.4681 21.188 72.4681 21.676C72.4681 22.46 72.1601 23.184 71.5441 23.848C70.9281 24.52 70.1001 25.072 69.0601 25.504L68.3281 23.992ZM73.1666 20.212H73.8026C74.3786 20.212 74.7906 20.148 75.0386 20.02C75.2946 19.892 75.4226 19.7 75.4226 19.444C75.4226 19.276 75.3386 18.948 75.1706 18.46C75.0026 17.964 74.8706 17.6 74.7746 17.368L76.0346 16.672C76.1866 17.008 76.3426 17.46 76.5026 18.028C76.6706 18.588 76.7546 19.08 76.7546 19.504C76.7546 20.32 76.4986 20.94 75.9866 21.364C75.4826 21.788 74.7546 22 73.8026 22H73.1666V20.212ZM73.5746 24.028L74.6906 22.924L75.7946 24.028L75.4226 24.4C75.1826 24.648 74.9386 24.892 74.6906 25.132L73.5746 24.028ZM84.7774 22C84.2334 22 83.7934 21.8 83.4574 21.4C83.1214 21 82.8414 20.44 82.6174 19.72L83.6974 19.06C83.8094 19.484 83.9454 19.784 84.1054 19.96C84.2654 20.128 84.4894 20.212 84.7774 20.212H84.8854L84.9814 21.112L84.8854 22H84.7774ZM79.9414 23.992C80.4694 23.776 80.9534 23.524 81.3934 23.236C81.8334 22.956 82.1774 22.676 82.4254 22.396C82.6814 22.116 82.8094 21.876 82.8094 21.676C82.8094 21.348 82.5974 20.456 82.1734 19L82.1134 18.76L83.4574 18.232C83.6494 18.784 83.8014 19.376 83.9134 20.008C84.0254 20.632 84.0814 21.188 84.0814 21.676C84.0814 22.46 83.7734 23.184 83.1574 23.848C82.5414 24.52 81.7134 25.072 80.6734 25.504L79.9414 23.992ZM81.4534 16.024L82.5694 14.92L83.6734 16.024L83.3014 16.396C83.0614 16.644 82.8174 16.888 82.5694 17.128L81.4534 16.024ZM87.2158 19.336C87.7118 19.672 88.1598 19.94 88.5598 20.14C88.9678 20.332 89.2718 20.428 89.4718 20.428C89.5438 20.428 89.5958 20.416 89.6278 20.392C89.7078 20.336 89.7678 20.256 89.8078 20.152C89.8558 20.04 89.8798 19.912 89.8798 19.768C89.8798 19.448 89.7918 19.152 89.6158 18.88C89.4398 18.6 89.2078 18.46 88.9198 18.46C88.4718 18.46 87.9718 19.096 87.4198 20.368C87.1798 20.912 86.8518 21.32 86.4358 21.592C86.0198 21.864 85.5438 22 85.0078 22H84.7798L84.8158 20.212H85.0318C85.6558 20.212 86.1678 19.836 86.5678 19.084C86.9678 18.34 87.3518 17.784 87.7198 17.416C88.0878 17.04 88.4998 16.852 88.9558 16.852C89.3878 16.852 89.7678 16.992 90.0958 17.272C90.4238 17.544 90.6718 17.9 90.8398 18.34C91.0158 18.772 91.1038 19.228 91.1038 19.708C91.1038 20.172 91.0158 20.604 90.8398 21.004C90.6638 21.396 90.4078 21.692 90.0718 21.892C89.8958 22.004 89.6798 22.06 89.4238 22.06C88.7198 22.06 87.7598 21.644 86.5438 20.812L87.2158 19.336ZM90.5234 23.992C91.0514 23.776 91.5354 23.524 91.9754 23.236C92.4154 22.956 92.7594 22.676 93.0074 22.396C93.2634 22.116 93.3914 21.876 93.3914 21.676C93.3914 21.348 93.1794 20.456 92.7554 19L92.6954 18.76L94.0394 18.232C94.2314 18.784 94.3834 19.376 94.4954 20.008C94.6074 20.632 94.6634 21.188 94.6634 21.676C94.6634 22.46 94.3554 23.184 93.7394 23.848C93.1234 24.52 92.2954 25.072 91.2554 25.504L90.5234 23.992ZM105.684 19.036C105.836 19.484 105.984 19.792 106.128 19.96C106.28 20.128 106.504 20.212 106.8 20.212H106.884L106.98 21.112L106.884 22H106.8C106.288 22 105.876 21.796 105.564 21.388C105.26 20.972 104.976 20.392 104.712 19.648L105.684 19.036ZM100.332 19.396C100.124 19.876 99.9639 20.3 99.8519 20.668C99.7399 21.028 99.6839 21.396 99.6839 21.772C99.6839 22.428 99.8919 22.916 100.308 23.236C100.724 23.564 101.324 23.728 102.108 23.728C102.668 23.728 103.156 23.628 103.572 23.428C103.996 23.236 104.316 22.98 104.532 22.66C104.756 22.348 104.868 22.016 104.868 21.664C104.868 21.208 104.612 20.248 104.1 18.784L105.384 18.112C105.888 19.464 106.14 20.648 106.14 21.664C106.14 22.36 105.972 23 105.636 23.584C105.3 24.168 104.824 24.632 104.208 24.976C103.6 25.328 102.9 25.504 102.108 25.504C101.364 25.504 100.708 25.36 100.14 25.072C99.5719 24.792 99.1279 24.388 98.8079 23.86C98.4959 23.332 98.3399 22.712 98.3399 22C98.3399 21.856 98.3439 21.744 98.3519 21.664C98.3759 21.208 98.4679 20.732 98.6279 20.236C98.7959 19.74 98.9799 19.284 99.1799 18.868L100.332 19.396ZM101.232 18.136L102.348 17.032L103.452 18.136L103.08 18.508C102.84 18.756 102.596 19 102.348 19.24L101.232 18.136ZM106.764 20.212H106.848C107.568 20.212 108.104 20.176 108.456 20.104C108.808 20.024 109.04 19.908 109.152 19.756C109.264 19.604 109.32 19.384 109.32 19.096C109.32 18.864 109.28 18.484 109.2 17.956L110.436 17.716C110.548 18.3 110.604 18.96 110.604 19.696C110.636 19.832 110.724 19.952 110.868 20.056C111.012 20.16 111.22 20.212 111.492 20.212H111.564L111.66 21.112L111.564 22H111.492C111.124 22 110.784 21.9 110.472 21.7C110.16 21.492 109.916 21.232 109.74 20.92L110.04 20.98C109.824 21.348 109.472 21.612 108.984 21.772C108.504 21.924 107.792 22 106.848 22H106.764V20.212ZM107.82 23.032L108.816 24.04C108.6 24.264 108.38 24.484 108.156 24.7L107.82 25.036L107.328 24.532L106.824 24.04L107.82 23.032ZM109.92 23.032L110.916 24.04C110.7 24.264 110.48 24.484 110.256 24.7L109.92 25.036L109.428 24.532L108.924 24.04L109.92 23.032ZM111.44 20.212H111.524C112.244 20.212 112.78 20.176 113.132 20.104C113.484 20.024 113.716 19.908 113.828 19.756C113.94 19.604 113.996 19.384 113.996 19.096C113.996 18.864 113.956 18.484 113.876 17.956L115.112 17.716C115.224 18.3 115.28 18.96 115.28 19.696C115.312 19.832 115.4 19.952 115.544 20.056C115.688 20.16 115.896 20.212 116.168 20.212H116.24L116.336 21.112L116.24 22H116.168C115.8 22 115.46 21.9 115.148 21.7C114.836 21.492 114.592 21.232 114.416 20.92L114.716 20.98C114.5 21.348 114.148 21.612 113.66 21.772C113.18 21.924 112.468 22 111.524 22H111.44V20.212ZM112.496 23.032L113.492 24.04C113.276 24.264 113.056 24.484 112.832 24.7L112.496 25.036L112.004 24.532L111.5 24.04L112.496 23.032ZM114.596 23.032L115.592 24.04C115.376 24.264 115.156 24.484 114.932 24.7L114.596 25.036L114.104 24.532L113.6 24.04L114.596 23.032ZM116.116 20.212H116.44C117.456 20.212 118.3 20.104 118.972 19.888C119.652 19.664 120.16 19.404 120.496 19.108C120.84 18.812 121.076 18.524 121.204 18.244C121.124 18.108 120.968 18.004 120.736 17.932C120.504 17.852 120.236 17.812 119.932 17.812C119.644 17.812 119.356 17.848 119.068 17.92C118.788 17.992 118.544 18.096 118.336 18.232C118.984 18.936 119.636 19.444 120.292 19.756C120.956 20.06 121.748 20.212 122.668 20.212H123.04L123.136 21.112L123.04 22H122.668C121.796 22 121.044 21.896 120.412 21.688C119.788 21.472 119.192 21.124 118.624 20.644C118.056 20.156 117.42 19.464 116.716 18.568L116.764 17.38C117.124 17.02 117.572 16.748 118.108 16.564C118.644 16.38 119.2 16.288 119.776 16.288C120.272 16.288 120.732 16.356 121.156 16.492C121.588 16.628 121.932 16.828 122.188 17.092C122.452 17.356 122.584 17.668 122.584 18.028C122.584 18.596 122.284 19.192 121.684 19.816C121.084 20.44 120.308 20.96 119.356 21.376C118.404 21.792 117.432 22 116.44 22H116.116V20.212ZM122.924 20.212H123.5C124.292 20.212 124.852 20.144 125.18 20.008C125.508 19.872 125.672 19.664 125.672 19.384C125.664 19.208 125.572 18.872 125.396 18.376C125.22 17.872 125.092 17.536 125.012 17.368L126.284 16.672C126.444 17.008 126.604 17.456 126.764 18.016C126.924 18.568 127.004 19.052 127.004 19.468C126.996 20.284 126.72 20.912 126.176 21.352C125.632 21.784 124.828 22 123.764 22H122.924V20.212ZM124.04 14.2L125.036 15.208C124.82 15.432 124.6 15.652 124.376 15.868L124.04 16.204L123.548 15.7L123.044 15.208L124.04 14.2ZM126.14 14.2L127.136 15.208C126.92 15.432 126.7 15.652 126.476 15.868L126.14 16.204L125.648 15.7L125.144 15.208L126.14 14.2Z" fill="#A0AEC0"/>
<g filter="url(#filter0_d_843_10246)">
<rect x="140" y="4" width="30" height="30" rx="6" fill="white" shape-rendering="crispEdges"/>
<path fill-rule="evenodd" clip-rule="evenodd" d="M159.1 20.6575C159.1 20.9163 158.89 21.1263 158.631 21.1263C158.373 21.1263 158.163 20.9163 158.163 20.6575V19.9688H157.332V20.6575C157.332 20.9163 157.122 21.1263 156.864 21.1263C156.605 21.1263 156.395 20.9163 156.395 20.6575V19.9688H155.073C154.87 20.6363 154.256 21.1263 153.523 21.1263C152.627 21.1263 151.898 20.3969 151.898 19.5C151.898 18.6038 152.627 17.8744 153.523 17.8744C154.257 17.875 154.87 18.365 155.073 19.0312H158.631C158.89 19.0312 159.1 19.2413 159.1 19.5V20.6575ZM155.5 13.4062C151.001 13.4062 149.406 15.0013 149.406 19.5C149.406 23.9994 151.001 25.5938 155.5 25.5938C159.999 25.5938 161.594 23.9994 161.594 19.5C161.594 15.0013 159.999 13.4062 155.5 13.4062Z" fill="#4FD1C5"/>
<path fill-rule="evenodd" clip-rule="evenodd" d="M153.524 18.8118C153.144 18.8118 152.834 19.1205 152.834 19.5005C152.834 19.8799 153.144 20.1886 153.523 20.1886C153.903 20.1886 154.213 19.8799 154.213 19.5005C154.213 19.1211 153.904 18.8124 153.524 18.8118Z" fill="#4FD1C5"/>
</g>
<defs>
<filter id="filter0_d_843_10246" x="134.5" y="2" width="41" height="41" filterUnits="userSpaceOnUse" color-interpolation-filters="sRGB">
<feFlood flood-opacity="0" result="BackgroundImageFix"/>
<feColorMatrix in="SourceAlpha" type="matrix" values="0 0 0 0 0 0 0 0 0 0 0 0 0 0 0 0 0 0 127 0" result="hardAlpha"/>
<feOffset dy="3.5"/>
<feGaussianBlur stdDeviation="2.75"/>
<feComposite in2="hardAlpha" operator="out"/>
<feColorMatrix type="matrix" values="0 0 0 0 0 0 0 0 0 0 0 0 0 0 0 0 0 0 0.02 0"/>
<feBlend mode="normal" in2="BackgroundImageFix" result="effect1_dropShadow_843_10246"/>
<feBlend mode="normal" in="SourceGraphic" in2="effect1_dropShadow_843_10246" result="shape"/>
</filter>
</defs>
</svg>
