<svg width="176" height="43" viewBox="0 0 176 43" fill="none" xmlns="http://www.w3.org/2000/svg">
<path d="M88.176 25.42C87.432 25.42 86.772 25.272 86.196 24.976C85.628 24.688 85.192 24.264 84.888 23.704C84.584 23.144 84.456 22.476 84.504 21.7C84.528 21.252 84.616 20.78 84.768 20.284C84.928 19.788 85.108 19.328 85.308 18.904L86.352 19.396C86.144 19.86 85.984 20.284 85.872 20.668C85.76 21.052 85.704 21.432 85.704 21.808C85.704 22.496 85.916 23.012 86.34 23.356C86.764 23.7 87.376 23.872 88.176 23.872C88.624 23.872 89.048 23.82 89.448 23.716C89.856 23.612 90.2 23.48 90.48 23.32C90.76 23.16 90.944 23.008 91.032 22.864C90.912 22.72 90.616 22.508 90.144 22.228C89.672 21.956 89.176 21.72 88.656 21.52L88.992 20.056C89.648 20.184 90.228 20.28 90.732 20.344C91.244 20.408 91.744 20.444 92.232 20.452H92.448L92.532 21.22L92.448 22H92.232C91.688 21.992 91.128 21.948 90.552 21.868C89.984 21.78 89.356 21.664 88.668 21.52L89.004 20.572C89.068 20.596 89.38 20.728 89.94 20.968C90.5 21.208 91.012 21.512 91.476 21.88C91.94 22.248 92.172 22.6 92.172 22.936C92.164 23.32 91.98 23.704 91.62 24.088C91.26 24.48 90.776 24.8 90.168 25.048C89.56 25.296 88.896 25.42 88.176 25.42ZM92.2837 20.452H92.9198C93.5118 20.452 93.9398 20.384 94.2038 20.248C94.4678 20.104 94.5998 19.888 94.5998 19.6C94.5998 19.416 94.5118 19.06 94.3358 18.532C94.1678 18.004 94.0398 17.644 93.9518 17.452L95.0798 16.84C95.2318 17.16 95.3878 17.6 95.5478 18.16C95.7158 18.72 95.7998 19.208 95.7998 19.624C95.7998 20.4 95.5518 20.992 95.0558 21.4C94.5598 21.8 93.8478 22 92.9198 22H92.2837V20.452ZM93.1118 15.256C93.5598 14.792 93.8998 14.448 94.1318 14.224L95.1518 15.256L94.8158 15.592L94.1318 16.276L93.1118 15.256ZM98.249 13.288C98.329 13.856 98.393 14.716 98.441 15.868C98.489 17.012 98.509 18 98.501 18.832C98.493 19.272 98.513 19.604 98.561 19.828C98.609 20.044 98.713 20.204 98.873 20.308C99.033 20.404 99.281 20.452 99.617 20.452H99.677L99.749 21.22L99.677 22H99.617C98.745 22 98.129 21.764 97.769 21.292C97.409 20.82 97.229 20.08 97.229 19.072C97.229 18.152 97.201 17.16 97.145 16.096C97.097 15.024 97.029 14.188 96.941 13.588L98.249 13.288ZM99.5611 20.452H99.6451C100.349 20.444 100.837 20.352 101.109 20.176C101.389 20 101.529 19.708 101.529 19.3C101.529 19.116 101.497 18.816 101.433 18.4L101.385 18.076L102.513 17.86C102.617 18.396 102.669 19.048 102.669 19.816C102.709 20 102.809 20.152 102.969 20.272C103.129 20.392 103.349 20.452 103.629 20.452H103.713L103.797 21.22L103.713 22H103.629C103.245 22 102.901 21.896 102.597 21.688C102.293 21.472 102.061 21.196 101.901 20.86L102.189 20.896C102.005 21.28 101.701 21.56 101.277 21.736C100.853 21.912 100.309 22 99.6451 22H99.5611V20.452ZM99.2851 24.04C99.7331 23.576 100.073 23.232 100.305 23.008L101.325 24.04L100.989 24.376L100.305 25.06L99.2851 24.04ZM103.592 20.452H103.688C104.312 20.452 104.796 20.424 105.14 20.368C105.484 20.312 105.728 20.228 105.872 20.116C106.024 19.996 106.124 19.836 106.172 19.636C106.196 19.524 106.208 19.404 106.208 19.276C106.208 19.076 106.188 18.844 106.148 18.58C106.108 18.308 106.084 18.14 106.076 18.076L107.192 17.86C107.256 18.204 107.3 18.564 107.324 18.94C107.348 19.308 107.36 19.6 107.36 19.816C107.392 20 107.488 20.152 107.648 20.272C107.808 20.392 108.032 20.452 108.32 20.452H108.392L108.476 21.22L108.392 22H108.32C107.936 22 107.588 21.896 107.276 21.688C106.972 21.472 106.74 21.196 106.58 20.86L106.868 20.92C106.668 21.312 106.328 21.592 105.848 21.76C105.376 21.92 104.656 22 103.688 22H103.592V20.452ZM103.652 23.068L104.588 23.992L103.652 24.94L102.716 23.992L103.652 23.068ZM105.764 23.068L106.7 23.992L105.764 24.94L104.828 23.992L105.764 23.068ZM113.128 20.452L113.212 21.22L113.128 22H113.068C112.564 22 112.136 21.872 111.784 21.616C111.44 21.352 111.2 20.96 111.064 20.44L110.86 19.54C110.716 18.86 110.616 18.4 110.56 18.16L111.652 17.8C111.788 18.432 111.936 19.052 112.096 19.66C112.176 19.932 112.292 20.132 112.444 20.26C112.604 20.388 112.812 20.452 113.068 20.452H113.128ZM111.988 19.792C111.876 20.568 111.536 21.132 110.968 21.484C110.408 21.828 109.536 22 108.352 22H108.268V20.452H108.34C109.172 20.452 109.804 20.384 110.236 20.248C110.668 20.104 110.92 19.884 110.992 19.588L111.988 19.792ZM109.6 15.052L110.536 15.976L109.6 16.924L108.664 15.976L109.6 15.052ZM111.7 15.052L112.636 15.976L111.7 16.924L110.764 15.976L111.7 15.052ZM119.687 20.452H119.723C119.995 20.452 120.243 20.38 120.467 20.236C120.699 20.092 120.823 19.924 120.839 19.732L121.787 19.852C121.755 20.244 121.639 20.604 121.439 20.932C121.247 21.26 120.999 21.52 120.695 21.712C120.399 21.904 120.075 22 119.723 22H119.687V20.452ZM122.879 20.452L122.951 21.22L122.867 22H122.807C122.335 22 121.923 21.86 121.571 21.58C121.227 21.292 120.967 20.88 120.791 20.344C120.703 20.064 120.559 19.388 120.359 18.316L121.475 18.016C121.571 18.536 121.647 18.936 121.703 19.216C121.759 19.488 121.815 19.696 121.871 19.84C121.935 20.04 122.043 20.192 122.195 20.296C122.347 20.4 122.551 20.452 122.807 20.452H122.879ZM116.459 22V20.452H116.507C116.931 20.452 117.271 20.212 117.527 19.732C117.687 19.42 117.823 18.936 117.935 18.28L119.062 18.328C118.967 18.808 118.919 19.196 118.919 19.492C118.919 20.132 119.183 20.452 119.711 20.452H119.747L119.819 21.22L119.747 22H119.711C119.271 22 118.907 21.876 118.619 21.628C118.331 21.38 118.135 21.032 118.031 20.584L118.307 20.572C118.091 21.012 117.827 21.36 117.515 21.616C117.211 21.872 116.871 22 116.495 22H116.459ZM113.038 22L112.954 21.22L113.038 20.452H113.087C113.351 20.452 113.606 20.392 113.854 20.272C114.103 20.152 114.291 20.004 114.419 19.828C114.587 19.62 114.715 19.392 114.803 19.144C114.899 18.896 114.979 18.636 115.043 18.364L116.171 18.484C116.171 18.492 116.151 18.584 116.111 18.76C115.991 19.224 115.931 19.568 115.931 19.792C115.931 20.016 115.975 20.184 116.062 20.296C116.151 20.4 116.291 20.452 116.483 20.452H116.507L116.59 21.22L116.507 22H116.459C116.107 22 115.803 21.904 115.547 21.712C115.299 21.512 115.135 21.248 115.055 20.92C114.799 21.272 114.503 21.54 114.167 21.724C113.831 21.908 113.467 22 113.075 22H113.038ZM118.643 13.948L119.447 14.764L119.183 15.028L118.643 15.568C118.379 15.296 118.111 15.028 117.839 14.764L118.643 13.948ZM118.871 16.144C119.271 15.744 119.471 15.544 119.471 15.544L119.783 15.232C120.079 15.544 120.383 15.848 120.695 16.144L120.383 16.456C120.383 16.456 120.183 16.656 119.783 17.056L118.871 16.144ZM116.615 16.144C117.015 15.744 117.215 15.544 117.215 15.544L117.527 15.232C117.823 15.544 118.127 15.848 118.439 16.144L118.127 16.456C118.127 16.456 117.927 16.656 117.527 17.056L116.615 16.144ZM122.729 20.452H123.269C124.085 20.452 124.661 20.38 124.997 20.236C125.333 20.084 125.501 19.852 125.501 19.54C125.493 19.34 125.405 18.996 125.237 18.508C125.077 18.012 124.949 17.66 124.853 17.452L125.981 16.84C126.141 17.2 126.301 17.648 126.461 18.184C126.621 18.72 126.701 19.192 126.701 19.6C126.693 20.384 126.421 20.98 125.885 21.388C125.349 21.796 124.553 22 123.497 22H122.729V20.452ZM124.253 23.716C124.653 23.316 124.853 23.116 124.853 23.116L125.165 22.804C125.461 23.116 125.765 23.42 126.077 23.716L125.765 24.028C125.765 24.028 125.565 24.228 125.165 24.628L124.253 23.716ZM121.997 23.716C122.397 23.316 122.597 23.116 122.597 23.116L122.909 22.804C123.205 23.116 123.509 23.42 123.821 23.716L123.509 24.028C123.509 24.028 123.309 24.228 122.909 24.628L121.997 23.716ZM124.025 24.28L124.829 25.096L124.565 25.36L124.025 25.9C123.761 25.628 123.493 25.36 123.221 25.096L124.025 24.28Z" fill="#A0AEC0"/>
<g filter="url(#filter0_d_843_10268)">
<rect x="140" y="4" width="30" height="30" rx="6" fill="white" shape-rendering="crispEdges"/>
<path fill-rule="evenodd" clip-rule="evenodd" d="M157.971 20.3851C157.626 20.3851 157.343 20.1057 157.343 19.7601C157.343 19.4145 157.62 19.1351 157.965 19.1351H157.971C158.316 19.1351 158.596 19.4145 158.596 19.7601C158.596 20.1057 158.316 20.3851 157.971 20.3851ZM155.465 20.3851C155.12 20.3851 154.837 20.1057 154.837 19.7601C154.837 19.4145 155.115 19.1351 155.46 19.1351H155.465C155.81 19.1351 156.09 19.4145 156.09 19.7601C156.09 20.1057 155.81 20.3851 155.465 20.3851ZM152.96 20.3851C152.615 20.3851 152.332 20.1057 152.332 19.7601C152.332 19.4145 152.609 19.1351 152.954 19.1351H152.96C153.305 19.1351 153.585 19.4145 153.585 19.7601C153.585 20.1057 153.305 20.3851 152.96 20.3851ZM160.144 14.8601C158.905 13.622 157.257 12.9395 155.504 12.9395C153.75 12.9395 152.102 13.622 150.864 14.8601C148.925 16.7995 148.396 19.7757 149.537 22.2345C149.557 22.3357 149.502 22.7476 149.462 23.0488C149.31 24.1776 149.233 25.0063 149.616 25.3901C149.999 25.7732 150.827 25.6957 151.955 25.5438C152.257 25.5038 152.674 25.4501 152.739 25.457C153.617 25.8638 154.557 26.0607 155.489 26.0607C157.2 26.0607 158.889 25.397 160.144 24.142C162.702 21.5826 162.702 17.4188 160.144 14.8601Z" fill="#4FD1C5"/>
</g>
<defs>
<filter id="filter0_d_843_10268" x="134.5" y="2" width="41" height="41" filterUnits="userSpaceOnUse" color-interpolation-filters="sRGB">
<feFlood flood-opacity="0" result="BackgroundImageFix"/>
<feColorMatrix in="SourceAlpha" type="matrix" values="0 0 0 0 0 0 0 0 0 0 0 0 0 0 0 0 0 0 127 0" result="hardAlpha"/>
<feOffset dy="3.5"/>
<feGaussianBlur stdDeviation="2.75"/>
<feComposite in2="hardAlpha" operator="out"/>
<feColorMatrix type="matrix" values="0 0 0 0 0 0 0 0 0 0 0 0 0 0 0 0 0 0 0.02 0"/>
<feBlend mode="normal" in2="BackgroundImageFix" result="effect1_dropShadow_843_10268"/>
<feBlend mode="normal" in="SourceGraphic" in2="effect1_dropShadow_843_10268" result="shape"/>
</filter>
</defs>
</svg>
