<svg width="182" height="49" viewBox="0 0 182 49" fill="none" xmlns="http://www.w3.org/2000/svg">
<g filter="url(#filter0_d_4579_1688)">
<rect x="6" y="2" width="170" height="38" rx="6" fill="white" shape-rendering="crispEdges"/>
<path d="M60.2903 24.132C60.2823 23.956 60.2783 23.696 60.2783 23.352C60.2783 23.008 60.2823 22.752 60.2903 22.584C61.3143 22.584 62.1223 22.512 62.7143 22.368C63.3063 22.224 63.7623 21.996 64.0823 21.684C64.4103 21.372 64.6743 20.932 64.8743 20.364L66.0023 20.496C65.8583 20.952 65.7863 21.32 65.7863 21.6C65.7863 22.168 66.0783 22.452 66.6623 22.452L66.7463 23.22L66.6503 24C66.3143 24 66.0063 23.928 65.7263 23.784C65.4463 23.632 65.2263 23.42 65.0663 23.148C64.9063 22.876 64.8263 22.568 64.8263 22.224L65.0663 22.26C64.5943 22.948 63.9743 23.432 63.2063 23.712C62.4463 23.992 61.4743 24.132 60.2903 24.132ZM57.2303 19.812C56.9903 20.54 56.8863 21.08 56.9183 21.432C56.9823 21.776 57.3103 22.056 57.9023 22.272C58.4943 22.48 59.3223 22.584 60.3863 22.584C60.4023 22.752 60.4103 23.008 60.4103 23.352C60.4103 23.696 60.4023 23.956 60.3863 24.132C58.9703 24.14 57.8583 23.932 57.0503 23.508C56.2423 23.084 55.8023 22.484 55.7303 21.708C55.7223 21.644 55.7183 21.548 55.7183 21.42C55.7183 21.084 55.7623 20.728 55.8503 20.352C55.9383 19.968 56.0503 19.616 56.1863 19.296L57.2303 19.812ZM59.6423 18.36L60.5783 19.284L59.6423 20.232L58.7063 19.284L59.6423 18.36ZM61.7423 18.36L62.6783 19.284L61.7423 20.232L60.8063 19.284L61.7423 18.36ZM66.5455 22.452H67.0855C67.9015 22.452 68.4775 22.38 68.8135 22.236C69.1495 22.084 69.3175 21.852 69.3175 21.54C69.3095 21.34 69.2215 20.996 69.0535 20.508C68.8935 20.012 68.7655 19.66 68.6695 19.452L69.7975 18.84C69.9575 19.2 70.1175 19.648 70.2775 20.184C70.4375 20.72 70.5175 21.192 70.5175 21.6C70.5095 22.384 70.2375 22.98 69.7015 23.388C69.1655 23.796 68.3695 24 67.3135 24H66.5455V22.452ZM66.6775 25.08L67.6135 26.004L66.6775 26.952L65.7415 26.004L66.6775 25.08ZM68.7895 25.08L69.7255 26.004L68.7895 26.952L67.8535 26.004L68.7895 25.08ZM75.1066 24C74.5786 24 74.1546 23.812 73.8346 23.436C73.5226 23.052 73.2586 22.508 73.0426 21.804L73.9906 21.228C74.1026 21.676 74.2426 21.992 74.4106 22.176C74.5786 22.36 74.8106 22.452 75.1066 22.452H75.2026L75.2866 23.22L75.2026 24H75.1066ZM70.3906 26.172C70.9106 25.972 71.3866 25.728 71.8186 25.44C72.2506 25.152 72.5906 24.86 72.8386 24.564C73.0866 24.268 73.2106 24.004 73.2106 23.772C73.2106 23.596 73.1626 23.304 73.0666 22.896C72.9706 22.48 72.8426 21.96 72.6826 21.336C72.6186 21.112 72.5746 20.944 72.5506 20.832L73.7506 20.364C73.9346 20.924 74.0826 21.52 74.1946 22.152C74.3146 22.776 74.3746 23.316 74.3746 23.772C74.3746 24.532 74.0626 25.24 73.4386 25.896C72.8226 26.552 72.0146 27.08 71.0146 27.48L70.3906 26.172ZM75.4724 22.452H76.0124C76.8284 22.452 77.4044 22.38 77.7404 22.236C78.0764 22.084 78.2444 21.852 78.2444 21.54C78.2364 21.34 78.1484 20.996 77.9804 20.508C77.8204 20.012 77.6924 19.66 77.5964 19.452L78.7244 18.84C78.8844 19.2 79.0444 19.648 79.2044 20.184C79.3644 20.72 79.4444 21.192 79.4444 21.6C79.4364 22.384 79.1644 22.98 78.6284 23.388C78.0924 23.796 77.2964 24 76.2404 24H75.4724V22.452ZM76.0964 25.056L77.0324 25.98L76.0964 26.928L75.1604 25.98L76.0964 25.056ZM78.2084 25.056L79.1444 25.98L78.2084 26.928L77.2724 25.98L78.2084 25.056ZM75.1124 24L75.0404 23.22L75.1124 22.452H75.6044V24H75.1124ZM83.9374 17.664L85.5814 21.552C85.7254 21.896 85.8854 22.132 86.0614 22.26C86.2454 22.388 86.5014 22.452 86.8294 22.452H86.9614L87.0454 23.22L86.9614 24H86.8294C86.3014 24 85.8534 23.856 85.4854 23.568C85.1254 23.28 84.8054 22.824 84.5254 22.2L82.8214 18.252L83.9374 17.664ZM80.8414 22.032C81.1214 22.184 81.4094 22.316 81.7054 22.428C82.0094 22.532 82.3654 22.584 82.7734 22.584C83.2854 22.584 83.7094 22.504 84.0454 22.344C84.3814 22.184 84.6494 22.008 84.8494 21.816L85.5334 22.752C85.3334 22.976 85.1414 23.172 84.9574 23.34C84.7814 23.5 84.5134 23.66 84.1534 23.82C83.8014 23.98 83.3854 24.06 82.9054 24.06C82.3134 24.06 81.8054 23.968 81.3814 23.784C80.9654 23.592 80.5894 23.376 80.2534 23.136L80.8414 22.032ZM89.2423 21.54C89.7303 21.876 90.1783 22.144 90.5863 22.344C90.9943 22.536 91.2983 22.632 91.4983 22.632C91.5783 22.632 91.6343 22.62 91.6663 22.596C91.8743 22.468 91.9783 22.22 91.9783 21.852C91.9783 21.508 91.8863 21.192 91.7023 20.904C91.5183 20.616 91.2823 20.472 90.9943 20.472C90.5303 20.472 90.0023 21.128 89.4103 22.44C89.1783 22.96 88.8583 23.352 88.4503 23.616C88.0423 23.872 87.5783 24 87.0583 24H86.8423L86.8663 22.452H87.0943C87.7263 22.452 88.2463 22.076 88.6543 21.324C89.0223 20.604 89.3943 20.052 89.7703 19.668C90.1463 19.276 90.5623 19.08 91.0183 19.08C91.4343 19.08 91.7983 19.212 92.1103 19.476C92.4223 19.74 92.6623 20.08 92.8303 20.496C92.9983 20.912 93.0823 21.348 93.0823 21.804C93.0823 22.26 92.9943 22.676 92.8183 23.052C92.6503 23.428 92.4023 23.716 92.0743 23.916C91.9063 24.012 91.7063 24.06 91.4743 24.06C90.7943 24.06 89.8503 23.652 88.6423 22.836L89.2423 21.54ZM105.722 22.452L105.806 23.22L105.722 24H105.578C104.93 24 104.438 23.76 104.102 23.28C103.766 22.8 103.586 22.144 103.562 21.312L104.318 21.168C104.342 21.528 104.39 21.796 104.462 21.972C104.542 22.148 104.666 22.272 104.834 22.344C105.002 22.416 105.25 22.452 105.578 22.452H105.722ZM104.006 15.288C104.134 16.36 104.254 18.872 104.366 22.824C104.398 24.16 104.09 25.204 103.442 25.956C102.794 26.708 101.874 27.084 100.682 27.084C100.05 27.084 99.4701 26.956 98.9421 26.7C98.4221 26.444 98.0061 26.08 97.6941 25.608C97.3901 25.136 97.2381 24.584 97.2381 23.952C97.2381 23.496 97.3181 22.992 97.4781 22.44C97.6381 21.888 97.8301 21.384 98.0541 20.928L99.0981 21.42C98.8901 21.868 98.7301 22.272 98.6181 22.632C98.5061 22.992 98.4501 23.352 98.4501 23.712C98.4501 24.256 98.6541 24.696 99.0621 25.032C99.4701 25.368 100.01 25.536 100.682 25.536C102.394 25.536 103.222 24.652 103.166 22.884C103.118 21.356 103.05 19.928 102.962 18.6C102.874 17.272 102.786 16.268 102.698 15.588L104.006 15.288ZM105.604 22.452H106.144C106.96 22.452 107.536 22.38 107.872 22.236C108.208 22.084 108.376 21.852 108.376 21.54C108.368 21.34 108.28 20.996 108.112 20.508C107.952 20.012 107.824 19.66 107.728 19.452L108.856 18.84C109.016 19.2 109.176 19.648 109.336 20.184C109.496 20.72 109.576 21.192 109.576 21.6C109.568 22.384 109.296 22.98 108.76 23.388C108.224 23.796 107.428 24 106.372 24H105.604V22.452ZM105.736 25.08L106.672 26.004L105.736 26.952L104.8 26.004L105.736 25.08ZM107.848 25.08L108.784 26.004L107.848 26.952L106.912 26.004L107.848 25.08ZM112.026 15.288C112.106 15.856 112.17 16.716 112.218 17.868C112.266 19.012 112.286 20 112.278 20.832C112.27 21.272 112.29 21.604 112.338 21.828C112.386 22.044 112.49 22.204 112.65 22.308C112.81 22.404 113.058 22.452 113.394 22.452H113.454L113.526 23.22L113.454 24H113.394C112.522 24 111.906 23.764 111.546 23.292C111.186 22.82 111.006 22.08 111.006 21.072C111.006 20.152 110.978 19.16 110.922 18.096C110.874 17.024 110.806 16.188 110.718 15.588L112.026 15.288ZM113.326 22.452H113.494C114.774 22.452 115.726 22.352 116.35 22.152C116.974 21.952 117.33 21.592 117.418 21.072C117.418 20.648 117.354 20.22 117.226 19.788C117.106 19.356 116.934 19 116.71 18.72C116.494 18.432 116.242 18.288 115.954 18.288C115.786 18.288 115.626 18.348 115.474 18.468C115.33 18.58 115.214 18.724 115.126 18.9C115.038 19.068 114.994 19.232 114.994 19.392C114.994 19.536 115.03 19.656 115.102 19.752C115.222 19.92 115.442 20.056 115.762 20.16C116.09 20.256 116.458 20.304 116.866 20.304C117.146 20.304 117.422 20.28 117.694 20.232V21.624C117.278 21.704 116.902 21.744 116.566 21.744C116.006 21.744 115.506 21.652 115.066 21.468C114.634 21.276 114.322 20.992 114.13 20.616C113.986 20.336 113.914 20 113.914 19.608C113.914 19.176 114.006 18.752 114.19 18.336C114.382 17.92 114.642 17.58 114.97 17.316C115.306 17.052 115.67 16.92 116.062 16.92C116.542 16.92 116.97 17.12 117.346 17.52C117.722 17.912 118.006 18.42 118.198 19.044C118.398 19.668 118.478 20.308 118.438 20.964C118.398 21.932 117.966 22.68 117.142 23.208C116.318 23.736 115.102 24 113.494 24H113.326V22.452ZM114.85 15.084C115.298 14.62 115.638 14.276 115.87 14.052L116.89 15.084L116.554 15.42L115.87 16.104L114.85 15.084ZM119.314 26.124C120.65 25.836 121.626 25.476 122.242 25.044C122.858 24.612 123.166 24.056 123.166 23.376C123.158 22.896 123.09 22.428 122.962 21.972C122.842 21.508 122.666 21.128 122.434 20.832C122.202 20.536 121.938 20.388 121.642 20.388C121.474 20.388 121.314 20.456 121.162 20.592C121.018 20.72 120.902 20.884 120.814 21.084C120.726 21.284 120.682 21.472 120.682 21.648C120.682 21.776 120.714 21.892 120.778 21.996C120.898 22.164 121.114 22.292 121.426 22.38C121.746 22.468 122.106 22.512 122.506 22.512C122.866 22.512 123.19 22.484 123.478 22.428V23.88C123.062 23.984 122.654 24.036 122.254 24.036C121.694 24.036 121.19 23.94 120.742 23.748C120.294 23.556 119.978 23.264 119.794 22.872C119.658 22.592 119.59 22.264 119.59 21.888C119.59 21.432 119.686 20.98 119.878 20.532C120.07 20.076 120.33 19.704 120.658 19.416C120.994 19.12 121.358 18.972 121.75 18.972C122.23 18.972 122.662 19.18 123.046 19.596C123.43 20.012 123.726 20.548 123.934 21.204C124.15 21.86 124.258 22.532 124.258 23.22C124.258 24.3 123.862 25.212 123.07 25.956C122.278 26.708 121.182 27.216 119.782 27.48L119.314 26.124ZM129.107 24C128.579 24 128.155 23.812 127.835 23.436C127.523 23.052 127.259 22.508 127.043 21.804L127.991 21.228C128.103 21.676 128.243 21.992 128.411 22.176C128.579 22.36 128.811 22.452 129.107 22.452H129.203L129.287 23.22L129.203 24H129.107ZM124.391 26.172C124.911 25.972 125.387 25.728 125.819 25.44C126.251 25.152 126.591 24.86 126.839 24.564C127.087 24.268 127.211 24.004 127.211 23.772C127.211 23.596 127.163 23.304 127.067 22.896C126.971 22.48 126.843 21.96 126.683 21.336C126.619 21.112 126.575 20.944 126.551 20.832L127.751 20.364C127.935 20.924 128.083 21.52 128.195 22.152C128.315 22.776 128.375 23.316 128.375 23.772C128.375 24.532 128.063 25.24 127.439 25.896C126.823 26.552 126.015 27.08 125.015 27.48L124.391 26.172ZM129.52 22.452H130.06C130.876 22.452 131.452 22.38 131.788 22.236C132.124 22.084 132.292 21.852 132.292 21.54C132.284 21.34 132.196 20.996 132.028 20.508C131.868 20.012 131.74 19.66 131.644 19.452L132.772 18.84C132.932 19.2 133.092 19.648 133.252 20.184C133.412 20.72 133.492 21.192 133.492 21.6C133.484 22.384 133.212 22.98 132.676 23.388C132.14 23.796 131.344 24 130.288 24H129.52V22.452ZM132.064 25.128L132.376 24.816C132.672 25.128 132.976 25.432 133.288 25.728C133.08 25.936 132.976 26.04 132.976 26.04C132.768 26.232 132.568 26.432 132.376 26.64L131.464 25.728L132.064 25.128ZM129.82 25.128L130.12 24.816C130.416 25.128 130.72 25.432 131.032 25.728L130.72 26.04C130.72 26.04 130.52 26.24 130.12 26.64L129.208 25.728L129.82 25.128ZM131.236 26.292L132.04 27.108C131.864 27.284 131.776 27.372 131.776 27.372L131.236 27.912C130.972 27.64 130.704 27.372 130.432 27.108L131.236 26.292ZM129.112 24L129.04 23.22L129.112 22.452H129.604V24H129.112Z" fill="#2B2B2B"/>
<rect x="146" y="6" width="30" height="30" rx="6" fill="#4FD1C5"/>
<path fill-rule="evenodd" clip-rule="evenodd" d="M161.501 22.6444C159.055 22.6444 156.91 24.0831 156.91 25.7225C156.91 27.8319 160.366 27.8319 161.501 27.8319C162.636 27.8319 166.091 27.8319 166.091 25.7088C166.091 24.0763 163.946 22.6444 161.501 22.6444Z" fill="#EDFAF9"/>
<path fill-rule="evenodd" clip-rule="evenodd" d="M161.477 21.2766H161.496C163.18 21.2766 164.55 19.9066 164.55 18.2222C164.55 16.5385 163.18 15.1685 161.496 15.1685C159.812 15.1685 158.442 16.5385 158.442 18.221C158.436 19.8997 159.797 21.2703 161.477 21.2766Z" fill="#EDFAF9"/>
</g>
<defs>
<filter id="filter0_d_4579_1688" x="0.5" y="0" width="181" height="49" filterUnits="userSpaceOnUse" color-interpolation-filters="sRGB">
<feFlood flood-opacity="0" result="BackgroundImageFix"/>
<feColorMatrix in="SourceAlpha" type="matrix" values="0 0 0 0 0 0 0 0 0 0 0 0 0 0 0 0 0 0 127 0" result="hardAlpha"/>
<feOffset dy="3.5"/>
<feGaussianBlur stdDeviation="2.75"/>
<feComposite in2="hardAlpha" operator="out"/>
<feColorMatrix type="matrix" values="0 0 0 0 0 0 0 0 0 0 0 0 0 0 0 0 0 0 0.02 0"/>
<feBlend mode="normal" in2="BackgroundImageFix" result="effect1_dropShadow_4579_1688"/>
<feBlend mode="normal" in="SourceGraphic" in2="effect1_dropShadow_4579_1688" result="shape"/>
</filter>
</defs>
</svg>
