<svg width="22" height="22" viewBox="0 0 22 22" fill="none" xmlns="http://www.w3.org/2000/svg">
<path fill-rule="evenodd" clip-rule="evenodd" d="M13.3025 13.2837C13.1731 13.4131 13.0029 13.4787 12.8327 13.4787C12.6616 13.4787 12.4923 13.4131 12.362 13.2837L10.7019 11.6235L9.04704 13.2783C8.91764 13.4086 8.74745 13.4733 8.57727 13.4733C8.40798 13.4733 8.23691 13.4086 8.1075 13.2783C7.84779 13.0186 7.84779 12.5985 8.1075 12.3388L9.76145 10.6831L8.1075 9.02912C7.84779 8.76942 7.84779 8.34928 8.1075 8.08958C8.3672 7.82987 8.78734 7.82987 9.04704 8.08958L10.701 9.74353L12.3532 8.09135C12.6129 7.83164 13.033 7.83164 13.2927 8.09135C13.5524 8.35105 13.5524 8.77119 13.2927 9.03089L11.6414 10.6831L13.3025 12.3432C13.5622 12.6029 13.5622 13.024 13.3025 13.2837ZM10.7045 2.05078C4.3245 2.05078 2.0625 4.31278 2.0625 10.6928C2.0625 17.0729 4.3245 19.3349 10.7045 19.3349C17.0855 19.3349 19.3466 17.0729 19.3466 10.6928C19.3466 4.31278 17.0855 2.05078 10.7045 2.05078Z" fill="black"/>
</svg>
