<svg width="192" height="49" viewBox="0 0 192 49" fill="none" xmlns="http://www.w3.org/2000/svg">
<g filter="url(#filter0_d_1989_8905)">
<rect x="6" y="2" width="180" height="38" rx="6" fill="white" shape-rendering="crispEdges"/>
<path d="M107.028 24.132C107.02 23.956 107.016 23.696 107.016 23.352C107.016 23.008 107.02 22.752 107.028 22.584C107.764 22.584 108.392 22.54 108.912 22.452C109.44 22.364 109.84 22.26 110.112 22.14C110.384 22.02 110.528 21.916 110.544 21.828C110.496 21.468 110.388 21.044 110.22 20.556C110.06 20.068 109.928 19.7 109.824 19.452L110.952 18.84C111.144 19.272 111.316 19.78 111.468 20.364C111.62 20.94 111.688 21.424 111.672 21.816C111.64 22.568 111.196 23.144 110.34 23.544C109.492 23.936 108.388 24.132 107.028 24.132ZM103.992 19.812C103.752 20.54 103.648 21.08 103.68 21.432C103.744 21.776 104.072 22.056 104.664 22.272C105.256 22.48 106.084 22.584 107.148 22.584C107.164 22.752 107.172 23.008 107.172 23.352C107.172 23.696 107.164 23.956 107.148 24.132C105.732 24.14 104.62 23.932 103.812 23.508C103.004 23.084 102.564 22.484 102.492 21.708C102.484 21.644 102.48 21.548 102.48 21.42C102.48 21.084 102.524 20.728 102.612 20.352C102.7 19.968 102.812 19.616 102.948 19.296L103.992 19.812ZM106.008 18.408L106.944 19.332L106.008 20.28L105.072 19.332L106.008 18.408ZM108.108 18.408L109.044 19.332L108.108 20.28L107.172 19.332L108.108 18.408ZM114.104 15.288C114.184 15.856 114.248 16.716 114.296 17.868C114.344 19.012 114.364 20 114.356 20.832C114.348 21.272 114.368 21.604 114.416 21.828C114.464 22.044 114.568 22.204 114.728 22.308C114.888 22.404 115.136 22.452 115.472 22.452H115.532L115.604 23.22L115.532 24H115.472C114.6 24 113.984 23.764 113.624 23.292C113.264 22.82 113.084 22.08 113.084 21.072C113.084 20.152 113.056 19.16 113 18.096C112.952 17.024 112.884 16.188 112.796 15.588L114.104 15.288ZM115.417 22.452H115.669C116.285 22.452 116.805 22.076 117.229 21.324C117.613 20.612 117.985 20.064 118.345 19.68C118.713 19.288 119.109 19.088 119.533 19.08C120.045 19.064 120.453 19.22 120.757 19.548C121.069 19.876 121.321 20.348 121.513 20.964C121.689 21.524 121.841 21.912 121.969 22.128C122.097 22.344 122.261 22.452 122.461 22.452H122.593L122.677 23.22L122.593 24H122.461C121.941 24 121.541 23.724 121.261 23.172C121.229 23.316 121.153 23.456 121.033 23.592C120.913 23.728 120.785 23.836 120.649 23.916C120.481 24.012 120.281 24.06 120.049 24.06C119.457 24.06 118.641 23.732 117.601 23.076C117.361 23.38 117.073 23.612 116.737 23.772C116.401 23.924 116.033 24 115.633 24H115.417V22.452ZM118.261 21.84C118.677 22.144 119.073 22.368 119.449 22.512C119.825 22.648 120.129 22.716 120.361 22.716C120.417 22.716 120.477 22.708 120.541 22.692C120.589 22.572 120.613 22.42 120.613 22.236C120.613 21.98 120.569 21.716 120.481 21.444C120.401 21.164 120.281 20.932 120.121 20.748C119.961 20.564 119.777 20.472 119.569 20.472C119.193 20.472 118.757 20.928 118.261 21.84ZM122.471 22.452H122.567C123.191 22.452 123.675 22.424 124.019 22.368C124.363 22.312 124.607 22.228 124.751 22.116C124.903 21.996 125.003 21.836 125.051 21.636C125.075 21.524 125.087 21.404 125.087 21.276C125.087 21.076 125.067 20.844 125.027 20.58C124.987 20.308 124.963 20.14 124.955 20.076L126.071 19.86C126.135 20.204 126.179 20.564 126.203 20.94C126.227 21.308 126.239 21.6 126.239 21.816C126.271 22 126.367 22.152 126.527 22.272C126.687 22.392 126.911 22.452 127.199 22.452H127.271L127.355 23.22L127.271 24H127.199C126.815 24 126.467 23.896 126.155 23.688C125.851 23.472 125.619 23.196 125.459 22.86L125.747 22.92C125.547 23.312 125.207 23.592 124.727 23.76C124.255 23.92 123.535 24 122.567 24H122.471V22.452ZM122.531 25.068L123.467 25.992L122.531 26.94L121.595 25.992L122.531 25.068ZM124.643 25.068L125.579 25.992L124.643 26.94L123.707 25.992L124.643 25.068ZM133.687 22.524C134.535 22.476 135.171 22.452 135.595 22.452L135.679 23.22L135.595 24C134.675 24 133.919 23.968 133.327 23.904C132.743 23.832 132.315 23.704 132.043 23.52L132.835 22.572L133.687 22.524ZM130.303 22.464C131.015 22.464 131.651 22.384 132.211 22.224C132.771 22.056 133.203 21.844 133.507 21.588C133.811 21.324 133.963 21.056 133.963 20.784C133.963 20.576 133.867 20.4 133.675 20.256C133.491 20.104 133.231 20.028 132.895 20.028C132.247 20.028 131.575 20.324 130.879 20.916C130.183 21.5 129.551 22.312 128.983 23.352L128.095 22.716C128.751 21.412 129.487 20.396 130.303 19.668C131.127 18.932 131.947 18.56 132.763 18.552C133.211 18.552 133.611 18.648 133.963 18.84C134.323 19.032 134.603 19.296 134.803 19.632C135.003 19.968 135.103 20.348 135.103 20.772C135.103 21.428 134.899 22 134.491 22.488C134.083 22.976 133.519 23.352 132.799 23.616C132.079 23.872 131.267 24 130.363 24H127.147V22.452L130.303 22.464ZM128.935 21.468C128.959 21.188 128.971 20.86 128.971 20.484C128.971 19.708 128.927 18.812 128.839 17.796C128.759 16.78 128.679 16.044 128.599 15.588L129.919 15.288C129.991 15.696 130.055 16.284 130.111 17.052C130.167 17.812 130.195 18.584 130.195 19.368C130.195 20 130.171 20.604 130.123 21.18L128.935 21.468ZM131.611 16.32C132.059 15.856 132.399 15.512 132.631 15.288L133.651 16.32L133.315 16.656L132.631 17.34L131.611 16.32ZM135.514 22.452H135.598C136.302 22.444 136.79 22.352 137.062 22.176C137.342 22 137.482 21.708 137.482 21.3C137.482 21.116 137.45 20.816 137.386 20.4L137.338 20.076L138.466 19.86C138.57 20.396 138.622 21.048 138.622 21.816C138.662 22 138.762 22.152 138.922 22.272C139.082 22.392 139.302 22.452 139.582 22.452H139.666L139.75 23.22L139.666 24H139.582C139.198 24 138.854 23.896 138.55 23.688C138.246 23.472 138.014 23.196 137.854 22.86L138.142 22.896C137.958 23.28 137.654 23.56 137.23 23.736C136.806 23.912 136.262 24 135.598 24H135.514V22.452ZM136.054 17.94C136.502 17.476 136.842 17.132 137.074 16.908L138.094 17.94L137.758 18.276L137.074 18.96L136.054 17.94ZM139.545 22.452H140.085C140.901 22.452 141.477 22.38 141.813 22.236C142.149 22.084 142.317 21.852 142.317 21.54C142.309 21.34 142.221 20.996 142.053 20.508C141.893 20.012 141.765 19.66 141.669 19.452L142.797 18.84C142.957 19.2 143.117 19.648 143.277 20.184C143.437 20.72 143.517 21.192 143.517 21.6C143.509 22.384 143.237 22.98 142.701 23.388C142.165 23.796 141.369 24 140.313 24H139.545V22.452ZM140.685 16.404L141.621 17.328L140.685 18.276L139.749 17.328L140.685 16.404ZM142.785 16.404L143.721 17.328L142.785 18.276L141.849 17.328L142.785 16.404Z" fill="#2B2B2B"/>
<rect x="156" y="6" width="30" height="30" rx="6" fill="#4FD1C5"/>
<path fill-rule="evenodd" clip-rule="evenodd" d="M171.499 23.375C170.465 23.375 169.624 22.5338 169.624 21.5C169.624 20.4662 170.465 19.625 171.499 19.625C172.533 19.625 173.374 20.4662 173.374 21.5C173.374 22.5338 172.533 23.375 171.499 23.375ZM176.195 22.0712C175.991 21.9519 175.869 21.7387 175.869 21.5C175.869 21.2613 175.991 21.0481 176.196 20.9294C177.082 20.4138 177.387 19.2688 176.875 18.3756C176.626 17.9419 176.224 17.6319 175.743 17.5025C175.264 17.3756 174.764 17.4419 174.335 17.6912C174.133 17.81 173.891 17.81 173.687 17.6919C173.481 17.5738 173.358 17.3594 173.358 17.12C173.358 16.0894 172.524 15.25 171.499 15.25C170.474 15.25 169.64 16.0894 169.64 17.12C169.64 17.36 169.517 17.5738 169.31 17.6925C169.108 17.8087 168.866 17.81 168.664 17.6912C168.234 17.4419 167.734 17.3744 167.254 17.5031C166.773 17.6325 166.372 17.9425 166.123 18.3762C165.612 19.2694 165.917 20.4144 166.803 20.9288C167.007 21.0475 167.129 21.2613 167.129 21.5C167.129 21.7387 167.007 21.9525 166.803 22.0706C165.917 22.5862 165.612 23.7319 166.123 24.6244C166.372 25.0575 166.773 25.3675 167.254 25.4969C167.733 25.625 168.234 25.5587 168.664 25.3094C168.865 25.1906 169.107 25.1906 169.31 25.3075C169.517 25.4262 169.64 25.64 169.64 25.88C169.64 26.9106 170.474 27.75 171.499 27.75C172.524 27.75 173.358 26.9106 173.358 25.88C173.358 25.6406 173.481 25.4263 173.687 25.3081C173.89 25.1906 174.132 25.1906 174.335 25.3094C174.765 25.5587 175.265 25.6237 175.743 25.4975C176.224 25.3681 176.626 25.0581 176.875 24.6244C177.387 23.7319 177.082 22.5869 176.195 22.0712Z" fill="white"/>
</g>
<defs>
<filter id="filter0_d_1989_8905" x="0.5" y="0" width="191" height="49" filterUnits="userSpaceOnUse" color-interpolation-filters="sRGB">
<feFlood flood-opacity="0" result="BackgroundImageFix"/>
<feColorMatrix in="SourceAlpha" type="matrix" values="0 0 0 0 0 0 0 0 0 0 0 0 0 0 0 0 0 0 127 0" result="hardAlpha"/>
<feOffset dy="3.5"/>
<feGaussianBlur stdDeviation="2.75"/>
<feComposite in2="hardAlpha" operator="out"/>
<feColorMatrix type="matrix" values="0 0 0 0 0 0 0 0 0 0 0 0 0 0 0 0 0 0 0.02 0"/>
<feBlend mode="normal" in2="BackgroundImageFix" result="effect1_dropShadow_1989_8905"/>
<feBlend mode="normal" in="SourceGraphic" in2="effect1_dropShadow_1989_8905" result="shape"/>
</filter>
</defs>
</svg>
