<svg width="176" height="43" viewBox="0 0 176 43" fill="none" xmlns="http://www.w3.org/2000/svg">
<path d="M90.028 22.132C90.02 21.956 90.016 21.696 90.016 21.352C90.016 21.008 90.02 20.752 90.028 20.584C90.764 20.584 91.392 20.54 91.912 20.452C92.44 20.364 92.84 20.26 93.112 20.14C93.384 20.02 93.528 19.916 93.544 19.828C93.496 19.468 93.388 19.044 93.22 18.556C93.06 18.068 92.928 17.7 92.824 17.452L93.952 16.84C94.144 17.272 94.316 17.78 94.468 18.364C94.62 18.94 94.688 19.424 94.672 19.816C94.64 20.568 94.196 21.144 93.34 21.544C92.492 21.936 91.388 22.132 90.028 22.132ZM86.992 17.812C86.752 18.54 86.648 19.08 86.68 19.432C86.744 19.776 87.072 20.056 87.664 20.272C88.256 20.48 89.084 20.584 90.148 20.584C90.164 20.752 90.172 21.008 90.172 21.352C90.172 21.696 90.164 21.956 90.148 22.132C88.732 22.14 87.62 21.932 86.812 21.508C86.004 21.084 85.564 20.484 85.492 19.708C85.484 19.644 85.48 19.548 85.48 19.42C85.48 19.084 85.524 18.728 85.612 18.352C85.7 17.968 85.812 17.616 85.948 17.296L86.992 17.812ZM89.008 16.408L89.944 17.332L89.008 18.28L88.072 17.332L89.008 16.408ZM91.108 16.408L92.044 17.332L91.108 18.28L90.172 17.332L91.108 16.408ZM97.1044 13.288C97.1844 13.856 97.2484 14.716 97.2964 15.868C97.3444 17.012 97.3644 18 97.3564 18.832C97.3484 19.272 97.3684 19.604 97.4164 19.828C97.4644 20.044 97.5684 20.204 97.7284 20.308C97.8884 20.404 98.1364 20.452 98.4724 20.452H98.5324L98.6044 21.22L98.5324 22H98.4724C97.6004 22 96.9844 21.764 96.6244 21.292C96.2644 20.82 96.0844 20.08 96.0844 19.072C96.0844 18.152 96.0564 17.16 96.0004 16.096C95.9524 15.024 95.8844 14.188 95.7964 13.588L97.1044 13.288ZM98.4166 20.452H98.6686C99.2846 20.452 99.8046 20.076 100.229 19.324C100.613 18.612 100.985 18.064 101.345 17.68C101.713 17.288 102.109 17.088 102.533 17.08C103.045 17.064 103.453 17.22 103.757 17.548C104.069 17.876 104.321 18.348 104.513 18.964C104.689 19.524 104.841 19.912 104.969 20.128C105.097 20.344 105.261 20.452 105.461 20.452H105.593L105.677 21.22L105.593 22H105.461C104.941 22 104.541 21.724 104.261 21.172C104.229 21.316 104.153 21.456 104.033 21.592C103.913 21.728 103.785 21.836 103.649 21.916C103.481 22.012 103.281 22.06 103.049 22.06C102.457 22.06 101.641 21.732 100.601 21.076C100.361 21.38 100.073 21.612 99.7366 21.772C99.4006 21.924 99.0326 22 98.6326 22H98.4166V20.452ZM101.261 19.84C101.677 20.144 102.073 20.368 102.449 20.512C102.825 20.648 103.129 20.716 103.361 20.716C103.417 20.716 103.477 20.708 103.541 20.692C103.589 20.572 103.613 20.42 103.613 20.236C103.613 19.98 103.569 19.716 103.481 19.444C103.401 19.164 103.281 18.932 103.121 18.748C102.961 18.564 102.777 18.472 102.569 18.472C102.193 18.472 101.757 18.928 101.261 19.84ZM105.471 20.452H105.567C106.191 20.452 106.675 20.424 107.019 20.368C107.363 20.312 107.607 20.228 107.751 20.116C107.903 19.996 108.003 19.836 108.051 19.636C108.075 19.524 108.087 19.404 108.087 19.276C108.087 19.076 108.067 18.844 108.027 18.58C107.987 18.308 107.963 18.14 107.955 18.076L109.071 17.86C109.135 18.204 109.179 18.564 109.203 18.94C109.227 19.308 109.239 19.6 109.239 19.816C109.271 20 109.367 20.152 109.527 20.272C109.687 20.392 109.911 20.452 110.199 20.452H110.271L110.355 21.22L110.271 22H110.199C109.815 22 109.467 21.896 109.155 21.688C108.851 21.472 108.619 21.196 108.459 20.86L108.747 20.92C108.547 21.312 108.207 21.592 107.727 21.76C107.255 21.92 106.535 22 105.567 22H105.471V20.452ZM105.531 23.068L106.467 23.992L105.531 24.94L104.595 23.992L105.531 23.068ZM107.643 23.068L108.579 23.992L107.643 24.94L106.707 23.992L107.643 23.068ZM116.687 20.524C117.535 20.476 118.171 20.452 118.595 20.452L118.679 21.22L118.595 22C117.675 22 116.919 21.968 116.327 21.904C115.743 21.832 115.315 21.704 115.043 21.52L115.835 20.572L116.687 20.524ZM113.303 20.464C114.015 20.464 114.651 20.384 115.211 20.224C115.771 20.056 116.203 19.844 116.507 19.588C116.811 19.324 116.963 19.056 116.963 18.784C116.963 18.576 116.867 18.4 116.675 18.256C116.491 18.104 116.231 18.028 115.895 18.028C115.247 18.028 114.575 18.324 113.879 18.916C113.183 19.5 112.551 20.312 111.983 21.352L111.095 20.716C111.751 19.412 112.487 18.396 113.303 17.668C114.127 16.932 114.947 16.56 115.763 16.552C116.211 16.552 116.611 16.648 116.963 16.84C117.323 17.032 117.603 17.296 117.803 17.632C118.003 17.968 118.103 18.348 118.103 18.772C118.103 19.428 117.899 20 117.491 20.488C117.083 20.976 116.519 21.352 115.799 21.616C115.079 21.872 114.267 22 113.363 22H110.147V20.452L113.303 20.464ZM111.935 19.468C111.959 19.188 111.971 18.86 111.971 18.484C111.971 17.708 111.927 16.812 111.839 15.796C111.759 14.78 111.679 14.044 111.599 13.588L112.919 13.288C112.991 13.696 113.055 14.284 113.111 15.052C113.167 15.812 113.195 16.584 113.195 17.368C113.195 18 113.171 18.604 113.123 19.18L111.935 19.468ZM114.611 14.32C115.059 13.856 115.399 13.512 115.631 13.288L116.651 14.32L116.315 14.656L115.631 15.34L114.611 14.32ZM118.514 20.452H118.598C119.302 20.444 119.79 20.352 120.062 20.176C120.342 20 120.482 19.708 120.482 19.3C120.482 19.116 120.45 18.816 120.386 18.4L120.338 18.076L121.466 17.86C121.57 18.396 121.622 19.048 121.622 19.816C121.662 20 121.762 20.152 121.922 20.272C122.082 20.392 122.302 20.452 122.582 20.452H122.666L122.75 21.22L122.666 22H122.582C122.198 22 121.854 21.896 121.55 21.688C121.246 21.472 121.014 21.196 120.854 20.86L121.142 20.896C120.958 21.28 120.654 21.56 120.23 21.736C119.806 21.912 119.262 22 118.598 22H118.514V20.452ZM119.054 15.94C119.502 15.476 119.842 15.132 120.074 14.908L121.094 15.94L120.758 16.276L120.074 16.96L119.054 15.94ZM122.545 20.452H123.085C123.901 20.452 124.477 20.38 124.813 20.236C125.149 20.084 125.317 19.852 125.317 19.54C125.309 19.34 125.221 18.996 125.053 18.508C124.893 18.012 124.765 17.66 124.669 17.452L125.797 16.84C125.957 17.2 126.117 17.648 126.277 18.184C126.437 18.72 126.517 19.192 126.517 19.6C126.509 20.384 126.237 20.98 125.701 21.388C125.165 21.796 124.369 22 123.313 22H122.545V20.452ZM123.685 14.404L124.621 15.328L123.685 16.276L122.749 15.328L123.685 14.404ZM125.785 14.404L126.721 15.328L125.785 16.276L124.849 15.328L125.785 14.404Z" fill="#A0AEC0"/>
<g filter="url(#filter0_d_3688_455)">
<rect x="140" y="4" width="30" height="30" rx="6" fill="white" shape-rendering="crispEdges"/>
<path fill-rule="evenodd" clip-rule="evenodd" d="M155.499 21.375C154.465 21.375 153.624 20.5338 153.624 19.5C153.624 18.4662 154.465 17.625 155.499 17.625C156.533 17.625 157.374 18.4662 157.374 19.5C157.374 20.5338 156.533 21.375 155.499 21.375ZM160.195 20.0712C159.991 19.9519 159.869 19.7387 159.869 19.5C159.869 19.2613 159.991 19.0481 160.196 18.9294C161.082 18.4138 161.387 17.2688 160.875 16.3756C160.626 15.9419 160.224 15.6319 159.743 15.5025C159.264 15.3756 158.764 15.4419 158.335 15.6912C158.133 15.81 157.891 15.81 157.687 15.6919C157.481 15.5738 157.358 15.3594 157.358 15.12C157.358 14.0894 156.524 13.25 155.499 13.25C154.474 13.25 153.64 14.0894 153.64 15.12C153.64 15.36 153.517 15.5738 153.31 15.6925C153.108 15.8087 152.866 15.81 152.664 15.6912C152.234 15.4419 151.734 15.3744 151.254 15.5031C150.773 15.6325 150.372 15.9425 150.123 16.3762C149.612 17.2694 149.917 18.4144 150.803 18.9288C151.007 19.0475 151.129 19.2613 151.129 19.5C151.129 19.7387 151.007 19.9525 150.803 20.0706C149.917 20.5862 149.612 21.7319 150.123 22.6244C150.372 23.0575 150.773 23.3675 151.254 23.4969C151.733 23.625 152.234 23.5587 152.664 23.3094C152.865 23.1906 153.107 23.1906 153.31 23.3075C153.517 23.4262 153.64 23.64 153.64 23.88C153.64 24.9106 154.474 25.75 155.499 25.75C156.524 25.75 157.358 24.9106 157.358 23.88C157.358 23.6406 157.481 23.4263 157.687 23.3081C157.89 23.1906 158.132 23.1906 158.335 23.3094C158.765 23.5587 159.265 23.6237 159.743 23.4975C160.224 23.3681 160.626 23.0581 160.875 22.6244C161.387 21.7319 161.082 20.5869 160.195 20.0712Z" fill="#4FD1C5"/>
</g>
<defs>
<filter id="filter0_d_3688_455" x="134.5" y="2" width="41" height="41" filterUnits="userSpaceOnUse" color-interpolation-filters="sRGB">
<feFlood flood-opacity="0" result="BackgroundImageFix"/>
<feColorMatrix in="SourceAlpha" type="matrix" values="0 0 0 0 0 0 0 0 0 0 0 0 0 0 0 0 0 0 127 0" result="hardAlpha"/>
<feOffset dy="3.5"/>
<feGaussianBlur stdDeviation="2.75"/>
<feComposite in2="hardAlpha" operator="out"/>
<feColorMatrix type="matrix" values="0 0 0 0 0 0 0 0 0 0 0 0 0 0 0 0 0 0 0.02 0"/>
<feBlend mode="normal" in2="BackgroundImageFix" result="effect1_dropShadow_3688_455"/>
<feBlend mode="normal" in="SourceGraphic" in2="effect1_dropShadow_3688_455" result="shape"/>
</filter>
</defs>
</svg>
