<svg width="32" height="32" viewBox="0 0 32 32" fill="none" xmlns="http://www.w3.org/2000/svg">
<path fill-rule="evenodd" clip-rule="evenodd" d="M16.0063 22.7292C15.3508 22.7292 14.8109 22.1972 14.8109 21.5417C14.8109 20.8862 15.3366 20.3542 15.9921 20.3542H16.0063C16.6618 20.3542 17.1938 20.8862 17.1938 21.5417C17.1938 22.1972 16.6618 22.7292 16.0063 22.7292ZM14.8125 9.83292C14.8125 9.17742 15.3445 8.64542 16 8.64542C16.6555 8.64542 17.1875 9.17742 17.1875 9.83292V16C17.1875 16.6555 16.6555 17.1875 16 17.1875C15.3445 17.1875 14.8125 16.6555 14.8125 16V9.83292ZM16 0.5625C4.60317 0.5625 0.5625 4.60317 0.5625 16C0.5625 27.3968 4.60317 31.4375 16 31.4375C27.3968 31.4375 31.4375 27.3968 31.4375 16C31.4375 4.60317 27.3968 0.5625 16 0.5625Z" fill="#FFE600"/>
</svg>
