<svg width="32" height="32" viewBox="0 0 32 32" fill="none" xmlns="http://www.w3.org/2000/svg">
<path fill-rule="evenodd" clip-rule="evenodd" d="M22.4774 13.0819L14.9566 20.5964C14.7333 20.8197 14.4325 20.9447 14.1174 20.9447C13.8023 20.9447 13.4999 20.8197 13.2767 20.5964L9.52258 16.8392C9.05867 16.3753 9.05867 15.6232 9.52258 15.1593C9.98808 14.6953 10.7402 14.6985 11.2025 15.1593L14.1174 18.0773L20.7975 11.402C21.2614 10.9381 22.0135 10.9397 22.4774 11.402C22.9413 11.8659 22.9413 12.618 22.4774 13.0819ZM16 0.5625C4.60317 0.5625 0.5625 4.60317 0.5625 16C0.5625 27.3968 4.60317 31.4375 16 31.4375C27.3968 31.4375 31.4375 27.3968 31.4375 16C31.4375 4.60317 27.3968 0.5625 16 0.5625Z" fill="#4FD1C5"/>
</svg>
