<svg width="192" height="49" viewBox="0 0 192 49" fill="none" xmlns="http://www.w3.org/2000/svg">
<g filter="url(#filter0_d_843_10229)">
<rect x="6" y="2" width="180" height="38" rx="6" fill="white" shape-rendering="crispEdges"/>
<path d="M71.496 20.832C71.288 21.312 71.128 21.736 71.016 22.104C70.904 22.464 70.848 22.832 70.848 23.208C70.848 23.864 71.056 24.352 71.472 24.672C71.888 25 72.488 25.164 73.272 25.164C73.832 25.164 74.32 25.064 74.736 24.864C75.16 24.672 75.48 24.416 75.696 24.096C75.92 23.784 76.032 23.452 76.032 23.1C76.032 22.644 75.776 21.684 75.264 20.22L76.548 19.548C77.052 20.9 77.304 22.084 77.304 23.1C77.304 23.796 77.136 24.436 76.8 25.02C76.464 25.604 75.988 26.068 75.372 26.412C74.764 26.764 74.064 26.94 73.272 26.94C72.528 26.94 71.872 26.796 71.304 26.508C70.736 26.228 70.292 25.824 69.972 25.296C69.66 24.768 69.504 24.148 69.504 23.436C69.504 23.292 69.508 23.18 69.516 23.1C69.54 22.644 69.632 22.168 69.792 21.672C69.96 21.176 70.144 20.72 70.344 20.304L71.496 20.832ZM72.396 19.572L73.512 18.468L74.616 19.572L74.244 19.944C74.004 20.192 73.76 20.436 73.512 20.676L72.396 19.572ZM78.4399 23.928C78.5199 23.4 78.5599 22.584 78.5599 21.48C78.5599 20.376 78.5239 19.22 78.4519 18.012C78.3879 16.796 78.3119 15.944 78.2239 15.456L79.7239 15.108C79.7959 15.572 79.8599 16.384 79.9159 17.544C79.9719 18.704 79.9999 19.844 79.9999 20.964C79.9999 22.348 79.9519 23.388 79.8559 24.084L78.4399 23.928ZM84.418 24C83.874 24 83.434 23.8 83.098 23.4C82.762 23 82.482 22.44 82.258 21.72L83.338 21.06C83.45 21.484 83.586 21.784 83.746 21.96C83.906 22.128 84.13 22.212 84.418 22.212H84.526L84.622 23.112L84.526 24H84.418ZM79.582 25.992C80.11 25.776 80.594 25.524 81.034 25.236C81.474 24.956 81.818 24.676 82.066 24.396C82.322 24.116 82.45 23.876 82.45 23.676C82.45 23.348 82.238 22.456 81.814 21L81.754 20.76L83.098 20.232C83.29 20.784 83.442 21.376 83.554 22.008C83.666 22.632 83.722 23.188 83.722 23.676C83.722 24.46 83.414 25.184 82.798 25.848C82.182 26.52 81.354 27.072 80.314 27.504L79.582 25.992ZM84.4205 22.212H85.0565C85.6325 22.212 86.0445 22.148 86.2925 22.02C86.5485 21.892 86.6765 21.7 86.6765 21.444C86.6765 21.276 86.5925 20.948 86.4245 20.46C86.2565 19.964 86.1245 19.6 86.0285 19.368L87.2885 18.672C87.4405 19.008 87.5965 19.46 87.7565 20.028C87.9245 20.588 88.0085 21.08 88.0085 21.504C88.0085 22.32 87.7525 22.94 87.2405 23.364C86.7365 23.788 86.0085 24 85.0565 24H84.4205V22.212ZM84.8285 26.028L85.9445 24.924L87.0485 26.028L86.6765 26.4C86.4365 26.648 86.1925 26.892 85.9445 27.132L84.8285 26.028ZM87.668 25.992C88.196 25.776 88.68 25.524 89.12 25.236C89.56 24.956 89.904 24.676 90.152 24.396C90.408 24.116 90.536 23.876 90.536 23.676C90.536 23.348 90.324 22.456 89.9 21L89.84 20.76L91.184 20.232C91.376 20.784 91.528 21.376 91.64 22.008C91.752 22.632 91.808 23.188 91.808 23.676C91.808 24.46 91.5 25.184 90.884 25.848C90.268 26.52 89.44 27.072 88.4 27.504L87.668 25.992ZM94.3369 15.12C94.4169 15.704 94.4809 16.496 94.5289 17.496C94.5769 18.488 94.6009 19.408 94.6009 20.256V20.712C94.5929 21.12 94.6129 21.428 94.6609 21.636C94.7089 21.844 94.8049 21.992 94.9489 22.08C95.1009 22.168 95.3329 22.212 95.6449 22.212H95.7049L95.8009 23.112L95.7049 24H95.6449C94.7649 24 94.1289 23.748 93.7369 23.244C93.3529 22.74 93.1609 21.972 93.1609 20.94C93.1529 19.956 93.1209 18.96 93.0649 17.952C93.0169 16.936 92.9449 16.1 92.8489 15.444L94.3369 15.12ZM101.11 16.488L97.6418 17.964C97.9058 18.188 98.2058 18.496 98.5418 18.888C98.8858 19.272 99.1898 19.708 99.4538 20.196C99.7258 20.684 99.8618 21.156 99.8618 21.612C99.8618 21.748 99.8418 21.904 99.8018 22.08C99.6418 22.728 99.2178 23.212 98.5298 23.532C97.8418 23.844 96.9778 24 95.9378 24H95.5298V22.212H95.9378C96.6178 22.212 97.1818 22.16 97.6298 22.056C98.0778 21.944 98.3738 21.796 98.5178 21.612C98.4538 21.228 98.2178 20.772 97.8098 20.244C97.4018 19.716 96.8018 19.132 96.0098 18.492L96.1778 16.932L100.63 15.06L101.11 16.488ZM106.315 19.56C105.419 20.312 104.967 20.94 104.959 21.444C104.943 21.716 105.035 21.928 105.235 22.08C105.435 22.232 105.735 22.308 106.135 22.308C106.455 22.308 106.719 22.248 106.927 22.128C107.143 22.008 107.271 21.852 107.311 21.66C107.231 21.268 106.959 20.856 106.495 20.424C106.039 19.984 105.359 19.484 104.455 18.924L105.367 17.568C106.423 18.208 107.219 18.856 107.755 19.512C108.291 20.16 108.559 20.848 108.559 21.576C108.559 22.064 108.447 22.496 108.223 22.872C108.007 23.24 107.707 23.528 107.323 23.736C106.947 23.944 106.523 24.048 106.051 24.048C105.307 24.048 104.727 23.852 104.311 23.46C103.903 23.06 103.699 22.544 103.699 21.912C103.699 21.656 103.735 21.392 103.807 21.12C103.927 20.624 104.131 20.168 104.419 19.752C104.715 19.328 105.083 18.904 105.523 18.48L106.315 19.56ZM112.994 17.496L114.638 21.384C114.766 21.704 114.914 21.924 115.082 22.044C115.25 22.156 115.49 22.212 115.802 22.212H115.946L116.042 23.112L115.946 24H115.802C115.258 24 114.802 23.848 114.434 23.544C114.074 23.24 113.754 22.76 113.474 22.104L111.758 18.168L112.994 17.496ZM109.838 21.84C110.094 21.976 110.374 22.1 110.678 22.212C110.982 22.316 111.342 22.368 111.758 22.368C112.278 22.368 112.698 22.292 113.018 22.14C113.338 21.98 113.586 21.812 113.762 21.636L114.566 22.68C114.382 22.912 114.202 23.116 114.026 23.292C113.858 23.46 113.594 23.632 113.234 23.808C112.874 23.976 112.442 24.06 111.938 24.06C110.962 24.06 110.046 23.74 109.19 23.1L109.838 21.84ZM115.839 22.212H116.031C117.311 22.212 118.255 22.12 118.863 21.936C119.479 21.752 119.819 21.456 119.883 21.048L119.895 20.928C119.895 20.68 119.807 20.452 119.631 20.244C119.463 20.036 119.255 19.908 119.007 19.86C118.983 19.852 118.943 19.848 118.887 19.848C118.631 19.848 118.391 19.952 118.167 20.16C117.951 20.368 117.843 20.604 117.843 20.868C117.843 21.14 118.019 21.396 118.371 21.636C118.731 21.876 119.171 22.068 119.691 22.212C120.211 22.348 120.695 22.416 121.143 22.416C121.487 22.416 121.759 22.368 121.959 22.272C122.167 22.176 122.271 22.032 122.271 21.84C122.271 21.08 120.447 20.2 116.799 19.2L117.459 17.544C119.035 18.024 120.267 18.484 121.155 18.924C122.043 19.356 122.667 19.784 123.027 20.208C123.387 20.632 123.567 21.092 123.567 21.588C123.567 21.892 123.499 22.268 123.363 22.716C123.235 23.132 122.955 23.444 122.523 23.652C122.091 23.86 121.575 23.964 120.975 23.964C120.303 23.964 119.623 23.844 118.935 23.604C118.247 23.356 117.675 23.016 117.219 22.584C116.771 22.144 116.547 21.652 116.547 21.108C116.547 21.02 116.563 20.888 116.595 20.712C116.699 20.208 116.875 19.756 117.123 19.356C117.379 18.956 117.679 18.652 118.023 18.444C118.375 18.236 118.739 18.152 119.115 18.192C119.467 18.224 119.787 18.368 120.075 18.624C120.371 18.88 120.603 19.204 120.771 19.596C120.939 19.988 121.023 20.392 121.023 20.808C121.023 20.952 121.011 21.096 120.987 21.24C120.883 21.936 120.643 22.484 120.267 22.884C119.891 23.284 119.359 23.572 118.671 23.748C117.991 23.916 117.111 24 116.031 24H115.839V22.212ZM126.001 15.12C126.081 15.704 126.145 16.496 126.193 17.496C126.241 18.488 126.265 19.408 126.265 20.256V20.712C126.257 21.12 126.277 21.428 126.325 21.636C126.373 21.844 126.469 21.992 126.613 22.08C126.765 22.168 126.997 22.212 127.309 22.212H127.369L127.465 23.112L127.369 24H127.309C126.429 24 125.793 23.748 125.401 23.244C125.017 22.74 124.825 21.972 124.825 20.94C124.817 19.956 124.785 18.96 124.729 17.952C124.681 16.936 124.609 16.1 124.513 15.444L126.001 15.12ZM133.924 22.212H133.961C134.225 22.212 134.465 22.148 134.681 22.02C134.905 21.884 135.025 21.724 135.041 21.54L136.121 21.672C136.089 22.096 135.969 22.488 135.761 22.848C135.561 23.2 135.301 23.48 134.981 23.688C134.669 23.896 134.329 24 133.961 24H133.924V22.212ZM137.165 22.212L137.249 23.112L137.153 24H137.093C136.605 24 136.181 23.848 135.821 23.544C135.469 23.24 135.201 22.808 135.017 22.248C134.945 22.008 134.801 21.328 134.585 20.208L135.821 19.872C135.909 20.384 135.981 20.772 136.037 21.036C136.101 21.3 136.157 21.508 136.205 21.66C136.269 21.844 136.369 21.984 136.505 22.08C136.649 22.168 136.845 22.212 137.093 22.212H137.165ZM130.721 24V22.212H130.781C131.189 22.212 131.505 21.992 131.729 21.552C131.881 21.248 132.017 20.78 132.137 20.148L133.372 20.208C133.285 20.736 133.241 21.112 133.241 21.336C133.241 21.92 133.485 22.212 133.973 22.212H133.997L134.092 23.112L133.997 24H133.973C133.541 24 133.177 23.884 132.881 23.652C132.585 23.42 132.377 23.092 132.257 22.668L132.557 22.644C132.069 23.548 131.465 24 130.745 24H130.721ZM127.288 24L127.192 23.112L127.288 22.212H127.349C127.597 22.212 127.841 22.16 128.081 22.056C128.321 21.944 128.501 21.808 128.621 21.648C128.789 21.456 128.917 21.24 129.005 21C129.093 20.76 129.173 20.504 129.245 20.232L130.493 20.364C130.485 20.404 130.441 20.564 130.361 20.844C130.281 21.116 130.241 21.364 130.241 21.588C130.241 22.004 130.409 22.212 130.745 22.212H130.769L130.865 23.112L130.769 24H130.709C130.365 24 130.065 23.908 129.809 23.724C129.553 23.54 129.373 23.296 129.269 22.992C129.013 23.32 128.717 23.572 128.381 23.748C128.053 23.916 127.701 24 127.325 24H127.288ZM132.881 15.744L133.733 16.584L132.881 17.424L132.605 17.148C132.413 16.964 132.225 16.776 132.041 16.584L132.881 15.744ZM134.009 17.052C134.337 17.364 134.657 17.684 134.969 18.012L134.009 18.972C133.697 18.644 133.377 18.324 133.049 18.012L134.009 17.052ZM131.753 17.052C132.081 17.364 132.401 17.684 132.713 18.012L131.753 18.972C131.441 18.644 131.121 18.324 130.793 18.012L131.753 17.052ZM139.474 21.336C139.97 21.672 140.418 21.94 140.818 22.14C141.226 22.332 141.53 22.428 141.73 22.428C141.802 22.428 141.854 22.416 141.886 22.392C141.966 22.336 142.026 22.256 142.066 22.152C142.114 22.04 142.138 21.912 142.138 21.768C142.138 21.448 142.05 21.152 141.874 20.88C141.698 20.6 141.466 20.46 141.178 20.46C140.73 20.46 140.23 21.096 139.678 22.368C139.438 22.912 139.11 23.32 138.694 23.592C138.278 23.864 137.802 24 137.266 24H137.038L137.074 22.212H137.29C137.914 22.212 138.426 21.836 138.826 21.084C139.226 20.34 139.61 19.784 139.978 19.416C140.346 19.04 140.758 18.852 141.214 18.852C141.646 18.852 142.026 18.992 142.354 19.272C142.682 19.544 142.93 19.9 143.098 20.34C143.274 20.772 143.362 21.228 143.362 21.708C143.362 22.172 143.274 22.604 143.098 23.004C142.922 23.396 142.666 23.692 142.33 23.892C142.154 24.004 141.938 24.06 141.682 24.06C140.978 24.06 140.018 23.644 138.802 22.812L139.474 21.336Z" fill="#2B2B2B"/>
<rect x="156" y="6" width="30" height="30" rx="6" fill="#4FD1C5"/>
<path fill-rule="evenodd" clip-rule="evenodd" d="M174.632 19.4212C173.603 19.4212 172.763 18.5875 172.763 17.5587V16.2825L176.065 19.4212H174.632ZM172.65 24.1825H169.275C169.016 24.1825 168.806 23.9725 168.806 23.7137C168.806 23.455 169.016 23.245 169.275 23.245H172.65C172.909 23.245 173.118 23.455 173.118 23.7137C173.118 23.9725 172.909 24.1825 172.65 24.1825ZM169.274 20.7381H171.371C171.63 20.7381 171.84 20.9481 171.84 21.2069C171.84 21.4662 171.63 21.6756 171.371 21.6756H169.274C169.015 21.6756 168.805 21.4662 168.805 21.2069C168.805 20.9481 169.015 20.7381 169.274 20.7381ZM176.941 19.5312C176.941 19.5062 176.941 19.4875 176.935 19.4625C176.916 19.35 176.898 19.2375 176.879 19.1312C176.866 19.0625 176.835 19.0062 176.785 18.9562L173.241 15.5812C173.198 15.5375 173.135 15.5063 173.073 15.5C172.966 15.4875 172.854 15.475 172.741 15.4625C172.723 15.4563 172.698 15.4562 172.679 15.4562C172.316 15.425 171.916 15.4062 171.498 15.4062C167.398 15.4062 165.941 17 165.941 21.5C165.941 25.9937 167.398 27.5938 171.498 27.5938C175.604 27.5938 177.06 25.9937 177.06 21.5C177.06 20.75 177.023 20.1 176.941 19.5312Z" fill="#EDFAF9"/>
</g>
<defs>
<filter id="filter0_d_843_10229" x="0.5" y="0" width="191" height="49" filterUnits="userSpaceOnUse" color-interpolation-filters="sRGB">
<feFlood flood-opacity="0" result="BackgroundImageFix"/>
<feColorMatrix in="SourceAlpha" type="matrix" values="0 0 0 0 0 0 0 0 0 0 0 0 0 0 0 0 0 0 127 0" result="hardAlpha"/>
<feOffset dy="3.5"/>
<feGaussianBlur stdDeviation="2.75"/>
<feComposite in2="hardAlpha" operator="out"/>
<feColorMatrix type="matrix" values="0 0 0 0 0 0 0 0 0 0 0 0 0 0 0 0 0 0 0.02 0"/>
<feBlend mode="normal" in2="BackgroundImageFix" result="effect1_dropShadow_843_10229"/>
<feBlend mode="normal" in="SourceGraphic" in2="effect1_dropShadow_843_10229" result="shape"/>
</filter>
</defs>
</svg>
