<svg width="176" height="43" viewBox="0 0 176 43" fill="none" xmlns="http://www.w3.org/2000/svg">
<path d="M55.496 18.832C55.288 19.312 55.128 19.736 55.016 20.104C54.904 20.464 54.848 20.832 54.848 21.208C54.848 21.864 55.056 22.352 55.472 22.672C55.888 23 56.488 23.164 57.272 23.164C57.832 23.164 58.32 23.064 58.736 22.864C59.16 22.672 59.48 22.416 59.696 22.096C59.92 21.784 60.032 21.452 60.032 21.1C60.032 20.644 59.776 19.684 59.264 18.22L60.548 17.548C61.052 18.9 61.304 20.084 61.304 21.1C61.304 21.796 61.136 22.436 60.8 23.02C60.464 23.604 59.988 24.068 59.372 24.412C58.764 24.764 58.064 24.94 57.272 24.94C56.528 24.94 55.872 24.796 55.304 24.508C54.736 24.228 54.292 23.824 53.972 23.296C53.66 22.768 53.504 22.148 53.504 21.436C53.504 21.292 53.508 21.18 53.516 21.1C53.54 20.644 53.632 20.168 53.792 19.672C53.96 19.176 54.144 18.72 54.344 18.304L55.496 18.832ZM56.396 17.572L57.512 16.468L58.616 17.572L58.244 17.944C58.004 18.192 57.76 18.436 57.512 18.676L56.396 17.572ZM62.4399 21.928C62.5199 21.4 62.5599 20.584 62.5599 19.48C62.5599 18.376 62.5239 17.22 62.4519 16.012C62.3879 14.796 62.3119 13.944 62.2239 13.456L63.7239 13.108C63.7959 13.572 63.8599 14.384 63.9159 15.544C63.9719 16.704 63.9999 17.844 63.9999 18.964C63.9999 20.348 63.9519 21.388 63.8559 22.084L62.4399 21.928ZM68.418 22C67.874 22 67.434 21.8 67.098 21.4C66.762 21 66.482 20.44 66.258 19.72L67.338 19.06C67.45 19.484 67.586 19.784 67.746 19.96C67.906 20.128 68.13 20.212 68.418 20.212H68.526L68.622 21.112L68.526 22H68.418ZM63.582 23.992C64.11 23.776 64.594 23.524 65.034 23.236C65.474 22.956 65.818 22.676 66.066 22.396C66.322 22.116 66.45 21.876 66.45 21.676C66.45 21.348 66.238 20.456 65.814 19L65.754 18.76L67.098 18.232C67.29 18.784 67.442 19.376 67.554 20.008C67.666 20.632 67.722 21.188 67.722 21.676C67.722 22.46 67.414 23.184 66.798 23.848C66.182 24.52 65.354 25.072 64.314 25.504L63.582 23.992ZM68.4205 20.212H69.0565C69.6325 20.212 70.0445 20.148 70.2925 20.02C70.5485 19.892 70.6765 19.7 70.6765 19.444C70.6765 19.276 70.5925 18.948 70.4245 18.46C70.2565 17.964 70.1245 17.6 70.0285 17.368L71.2885 16.672C71.4405 17.008 71.5965 17.46 71.7565 18.028C71.9245 18.588 72.0085 19.08 72.0085 19.504C72.0085 20.32 71.7525 20.94 71.2405 21.364C70.7365 21.788 70.0085 22 69.0565 22H68.4205V20.212ZM68.8285 24.028L69.9445 22.924L71.0485 24.028L70.6765 24.4C70.4365 24.648 70.1925 24.892 69.9445 25.132L68.8285 24.028ZM71.668 23.992C72.196 23.776 72.68 23.524 73.12 23.236C73.56 22.956 73.904 22.676 74.152 22.396C74.408 22.116 74.536 21.876 74.536 21.676C74.536 21.348 74.324 20.456 73.9 19L73.84 18.76L75.184 18.232C75.376 18.784 75.528 19.376 75.64 20.008C75.752 20.632 75.808 21.188 75.808 21.676C75.808 22.46 75.5 23.184 74.884 23.848C74.268 24.52 73.44 25.072 72.4 25.504L71.668 23.992ZM78.3369 13.12C78.4169 13.704 78.4809 14.496 78.5289 15.496C78.5769 16.488 78.6009 17.408 78.6009 18.256V18.712C78.5929 19.12 78.6129 19.428 78.6609 19.636C78.7089 19.844 78.8049 19.992 78.9489 20.08C79.1009 20.168 79.3329 20.212 79.6449 20.212H79.7049L79.8009 21.112L79.7049 22H79.6449C78.7649 22 78.1289 21.748 77.7369 21.244C77.3529 20.74 77.1609 19.972 77.1609 18.94C77.1529 17.956 77.1209 16.96 77.0649 15.952C77.0169 14.936 76.9449 14.1 76.8489 13.444L78.3369 13.12ZM85.1098 14.488L81.6418 15.964C81.9058 16.188 82.2058 16.496 82.5418 16.888C82.8858 17.272 83.1898 17.708 83.4538 18.196C83.7258 18.684 83.8618 19.156 83.8618 19.612C83.8618 19.748 83.8418 19.904 83.8018 20.08C83.6418 20.728 83.2178 21.212 82.5298 21.532C81.8418 21.844 80.9778 22 79.9378 22H79.5298V20.212H79.9378C80.6178 20.212 81.1818 20.16 81.6298 20.056C82.0778 19.944 82.3738 19.796 82.5178 19.612C82.4538 19.228 82.2178 18.772 81.8098 18.244C81.4018 17.716 80.8018 17.132 80.0098 16.492L80.1778 14.932L84.6298 13.06L85.1098 14.488ZM90.3153 17.56C89.4193 18.312 88.9673 18.94 88.9593 19.444C88.9433 19.716 89.0353 19.928 89.2353 20.08C89.4353 20.232 89.7353 20.308 90.1353 20.308C90.4553 20.308 90.7193 20.248 90.9273 20.128C91.1433 20.008 91.2713 19.852 91.3113 19.66C91.2313 19.268 90.9593 18.856 90.4953 18.424C90.0393 17.984 89.3593 17.484 88.4553 16.924L89.3673 15.568C90.4233 16.208 91.2193 16.856 91.7553 17.512C92.2913 18.16 92.5593 18.848 92.5593 19.576C92.5593 20.064 92.4473 20.496 92.2233 20.872C92.0073 21.24 91.7073 21.528 91.3233 21.736C90.9473 21.944 90.5233 22.048 90.0513 22.048C89.3073 22.048 88.7273 21.852 88.3113 21.46C87.9033 21.06 87.6993 20.544 87.6993 19.912C87.6993 19.656 87.7353 19.392 87.8073 19.12C87.9273 18.624 88.1313 18.168 88.4193 17.752C88.7153 17.328 89.0833 16.904 89.5233 16.48L90.3153 17.56ZM96.9943 15.496L98.6383 19.384C98.7663 19.704 98.9143 19.924 99.0823 20.044C99.2503 20.156 99.4903 20.212 99.8023 20.212H99.9463L100.042 21.112L99.9463 22H99.8023C99.2583 22 98.8023 21.848 98.4343 21.544C98.0743 21.24 97.7543 20.76 97.4743 20.104L95.7583 16.168L96.9943 15.496ZM93.8383 19.84C94.0943 19.976 94.3743 20.1 94.6783 20.212C94.9823 20.316 95.3423 20.368 95.7583 20.368C96.2783 20.368 96.6983 20.292 97.0183 20.14C97.3383 19.98 97.5863 19.812 97.7623 19.636L98.5663 20.68C98.3823 20.912 98.2023 21.116 98.0263 21.292C97.8583 21.46 97.5943 21.632 97.2343 21.808C96.8743 21.976 96.4423 22.06 95.9383 22.06C94.9623 22.06 94.0463 21.74 93.1903 21.1L93.8383 19.84ZM99.8387 20.212H100.031C101.311 20.212 102.255 20.12 102.863 19.936C103.479 19.752 103.819 19.456 103.883 19.048L103.895 18.928C103.895 18.68 103.807 18.452 103.631 18.244C103.463 18.036 103.255 17.908 103.007 17.86C102.983 17.852 102.943 17.848 102.887 17.848C102.631 17.848 102.391 17.952 102.167 18.16C101.951 18.368 101.843 18.604 101.843 18.868C101.843 19.14 102.019 19.396 102.371 19.636C102.731 19.876 103.171 20.068 103.691 20.212C104.211 20.348 104.695 20.416 105.143 20.416C105.487 20.416 105.759 20.368 105.959 20.272C106.167 20.176 106.271 20.032 106.271 19.84C106.271 19.08 104.447 18.2 100.799 17.2L101.459 15.544C103.035 16.024 104.267 16.484 105.155 16.924C106.043 17.356 106.667 17.784 107.027 18.208C107.387 18.632 107.567 19.092 107.567 19.588C107.567 19.892 107.499 20.268 107.363 20.716C107.235 21.132 106.955 21.444 106.523 21.652C106.091 21.86 105.575 21.964 104.975 21.964C104.303 21.964 103.623 21.844 102.935 21.604C102.247 21.356 101.675 21.016 101.219 20.584C100.771 20.144 100.547 19.652 100.547 19.108C100.547 19.02 100.563 18.888 100.595 18.712C100.699 18.208 100.875 17.756 101.123 17.356C101.379 16.956 101.679 16.652 102.023 16.444C102.375 16.236 102.739 16.152 103.115 16.192C103.467 16.224 103.787 16.368 104.075 16.624C104.371 16.88 104.603 17.204 104.771 17.596C104.939 17.988 105.023 18.392 105.023 18.808C105.023 18.952 105.011 19.096 104.987 19.24C104.883 19.936 104.643 20.484 104.267 20.884C103.891 21.284 103.359 21.572 102.671 21.748C101.991 21.916 101.111 22 100.031 22H99.8387V20.212ZM110.001 13.12C110.081 13.704 110.145 14.496 110.193 15.496C110.241 16.488 110.265 17.408 110.265 18.256V18.712C110.257 19.12 110.277 19.428 110.325 19.636C110.373 19.844 110.469 19.992 110.613 20.08C110.765 20.168 110.997 20.212 111.309 20.212H111.369L111.465 21.112L111.369 22H111.309C110.429 22 109.793 21.748 109.401 21.244C109.017 20.74 108.825 19.972 108.825 18.94C108.817 17.956 108.785 16.96 108.729 15.952C108.681 14.936 108.609 14.1 108.513 13.444L110.001 13.12ZM117.924 20.212H117.961C118.225 20.212 118.465 20.148 118.681 20.02C118.905 19.884 119.025 19.724 119.041 19.54L120.121 19.672C120.089 20.096 119.969 20.488 119.761 20.848C119.561 21.2 119.301 21.48 118.981 21.688C118.669 21.896 118.329 22 117.961 22H117.924V20.212ZM121.165 20.212L121.249 21.112L121.153 22H121.093C120.605 22 120.181 21.848 119.821 21.544C119.469 21.24 119.201 20.808 119.017 20.248C118.945 20.008 118.801 19.328 118.585 18.208L119.821 17.872C119.909 18.384 119.981 18.772 120.037 19.036C120.101 19.3 120.157 19.508 120.205 19.66C120.269 19.844 120.369 19.984 120.505 20.08C120.649 20.168 120.845 20.212 121.093 20.212H121.165ZM114.721 22V20.212H114.781C115.189 20.212 115.505 19.992 115.729 19.552C115.881 19.248 116.017 18.78 116.137 18.148L117.372 18.208C117.285 18.736 117.241 19.112 117.241 19.336C117.241 19.92 117.485 20.212 117.973 20.212H117.997L118.092 21.112L117.997 22H117.973C117.541 22 117.177 21.884 116.881 21.652C116.585 21.42 116.377 21.092 116.257 20.668L116.557 20.644C116.069 21.548 115.465 22 114.745 22H114.721ZM111.288 22L111.192 21.112L111.288 20.212H111.349C111.597 20.212 111.841 20.16 112.081 20.056C112.321 19.944 112.501 19.808 112.621 19.648C112.789 19.456 112.917 19.24 113.005 19C113.093 18.76 113.173 18.504 113.245 18.232L114.493 18.364C114.485 18.404 114.441 18.564 114.361 18.844C114.281 19.116 114.241 19.364 114.241 19.588C114.241 20.004 114.409 20.212 114.745 20.212H114.769L114.865 21.112L114.769 22H114.709C114.365 22 114.065 21.908 113.809 21.724C113.553 21.54 113.373 21.296 113.269 20.992C113.013 21.32 112.717 21.572 112.381 21.748C112.053 21.916 111.701 22 111.325 22H111.288ZM116.881 13.744L117.733 14.584L116.881 15.424L116.605 15.148C116.413 14.964 116.225 14.776 116.041 14.584L116.881 13.744ZM118.009 15.052C118.337 15.364 118.657 15.684 118.969 16.012L118.009 16.972C117.697 16.644 117.377 16.324 117.049 16.012L118.009 15.052ZM115.753 15.052C116.081 15.364 116.401 15.684 116.713 16.012L115.753 16.972C115.441 16.644 115.121 16.324 114.793 16.012L115.753 15.052ZM123.474 19.336C123.97 19.672 124.418 19.94 124.818 20.14C125.226 20.332 125.53 20.428 125.73 20.428C125.802 20.428 125.854 20.416 125.886 20.392C125.966 20.336 126.026 20.256 126.066 20.152C126.114 20.04 126.138 19.912 126.138 19.768C126.138 19.448 126.05 19.152 125.874 18.88C125.698 18.6 125.466 18.46 125.178 18.46C124.73 18.46 124.23 19.096 123.678 20.368C123.438 20.912 123.11 21.32 122.694 21.592C122.278 21.864 121.802 22 121.266 22H121.038L121.074 20.212H121.29C121.914 20.212 122.426 19.836 122.826 19.084C123.226 18.34 123.61 17.784 123.978 17.416C124.346 17.04 124.758 16.852 125.214 16.852C125.646 16.852 126.026 16.992 126.354 17.272C126.682 17.544 126.93 17.9 127.098 18.34C127.274 18.772 127.362 19.228 127.362 19.708C127.362 20.172 127.274 20.604 127.098 21.004C126.922 21.396 126.666 21.692 126.33 21.892C126.154 22.004 125.938 22.06 125.682 22.06C124.978 22.06 124.018 21.644 122.802 20.812L123.474 19.336Z" fill="#A0AEC0"/>
<g filter="url(#filter0_d_843_10224)">
<rect x="140" y="4" width="30" height="30" rx="6" fill="white" shape-rendering="crispEdges"/>
<path fill-rule="evenodd" clip-rule="evenodd" d="M158.632 17.4212C157.603 17.4212 156.763 16.5875 156.763 15.5587V14.2825L160.065 17.4212H158.632ZM156.65 22.1825H153.275C153.016 22.1825 152.806 21.9725 152.806 21.7137C152.806 21.455 153.016 21.245 153.275 21.245H156.65C156.909 21.245 157.118 21.455 157.118 21.7137C157.118 21.9725 156.909 22.1825 156.65 22.1825ZM153.274 18.7381H155.371C155.63 18.7381 155.84 18.9481 155.84 19.2069C155.84 19.4662 155.63 19.6756 155.371 19.6756H153.274C153.015 19.6756 152.805 19.4662 152.805 19.2069C152.805 18.9481 153.015 18.7381 153.274 18.7381ZM160.941 17.5312C160.941 17.5062 160.941 17.4875 160.935 17.4625C160.916 17.35 160.898 17.2375 160.879 17.1312C160.866 17.0625 160.835 17.0062 160.785 16.9562L157.241 13.5812C157.198 13.5375 157.135 13.5063 157.073 13.5C156.966 13.4875 156.854 13.475 156.741 13.4625C156.723 13.4563 156.698 13.4562 156.679 13.4562C156.316 13.425 155.916 13.4062 155.498 13.4062C151.398 13.4062 149.941 15 149.941 19.5C149.941 23.9937 151.398 25.5938 155.498 25.5938C159.604 25.5938 161.06 23.9937 161.06 19.5C161.06 18.75 161.023 18.1 160.941 17.5312Z" fill="#4FD1C5"/>
</g>
<defs>
<filter id="filter0_d_843_10224" x="134.5" y="2" width="41" height="41" filterUnits="userSpaceOnUse" color-interpolation-filters="sRGB">
<feFlood flood-opacity="0" result="BackgroundImageFix"/>
<feColorMatrix in="SourceAlpha" type="matrix" values="0 0 0 0 0 0 0 0 0 0 0 0 0 0 0 0 0 0 127 0" result="hardAlpha"/>
<feOffset dy="3.5"/>
<feGaussianBlur stdDeviation="2.75"/>
<feComposite in2="hardAlpha" operator="out"/>
<feColorMatrix type="matrix" values="0 0 0 0 0 0 0 0 0 0 0 0 0 0 0 0 0 0 0.02 0"/>
<feBlend mode="normal" in2="BackgroundImageFix" result="effect1_dropShadow_843_10224"/>
<feBlend mode="normal" in="SourceGraphic" in2="effect1_dropShadow_843_10224" result="shape"/>
</filter>
</defs>
</svg>
