<svg width="176" height="43" viewBox="0 0 176 43" fill="none" xmlns="http://www.w3.org/2000/svg">
<path d="M35.468 20.608C35.484 20.152 35.632 19.78 35.912 19.492C36.2 19.196 36.556 19.048 36.98 19.048C37.044 19.048 37.14 19.056 37.268 19.072C37.58 18.376 37.944 17.832 38.36 17.44C38.784 17.048 39.224 16.852 39.68 16.852C40.112 16.852 40.492 16.992 40.82 17.272C41.148 17.544 41.396 17.9 41.564 18.34C41.74 18.772 41.828 19.228 41.828 19.708C41.828 20.18 41.74 20.612 41.564 21.004C41.396 21.396 41.144 21.692 40.808 21.892C40.624 22.004 40.408 22.06 40.16 22.06C39.848 22.06 39.444 21.968 38.948 21.784C38.452 21.592 37.824 21.288 37.064 20.872C37.048 20.864 37.028 20.86 37.004 20.86C36.948 20.86 36.916 20.892 36.908 20.956C36.892 21.932 36.996 23.592 37.22 25.936L37.256 26.368L35.768 26.704C35.56 24.488 35.456 22.72 35.456 21.4C35.456 21.032 35.46 20.768 35.468 20.608ZM38.48 19.672C39.296 20.176 39.872 20.428 40.208 20.428C40.28 20.428 40.332 20.416 40.364 20.392C40.444 20.336 40.504 20.256 40.544 20.152C40.592 20.04 40.616 19.912 40.616 19.768C40.616 19.448 40.528 19.152 40.352 18.88C40.176 18.6 39.948 18.46 39.668 18.46C39.316 18.46 38.92 18.864 38.48 19.672ZM43.0102 21.928C43.0902 21.4 43.1302 20.584 43.1302 19.48C43.1302 18.376 43.0942 17.22 43.0222 16.012C42.9582 14.796 42.8822 13.944 42.7942 13.456L44.2942 13.108C44.3662 13.572 44.4302 14.384 44.4862 15.544C44.5422 16.704 44.5702 17.844 44.5702 18.964C44.5702 20.348 44.5222 21.388 44.4262 22.084L43.0102 21.928ZM45.603 23.956C46.971 23.66 47.963 23.304 48.579 22.888C49.195 22.472 49.503 21.936 49.503 21.28C49.495 20.808 49.427 20.348 49.299 19.9C49.171 19.444 48.991 19.072 48.759 18.784C48.535 18.496 48.283 18.352 48.003 18.352C47.843 18.352 47.691 18.412 47.547 18.532C47.411 18.652 47.299 18.8 47.211 18.976C47.131 19.152 47.091 19.316 47.091 19.468C47.091 19.596 47.123 19.704 47.187 19.792C47.307 19.952 47.527 20.076 47.847 20.164C48.175 20.244 48.543 20.284 48.951 20.284C49.255 20.284 49.555 20.26 49.851 20.212V21.88C49.459 21.976 49.055 22.024 48.639 22.024C48.055 22.024 47.531 21.924 47.067 21.724C46.603 21.516 46.275 21.208 46.083 20.8C45.939 20.488 45.867 20.144 45.867 19.768C45.867 19.296 45.967 18.828 46.167 18.364C46.367 17.892 46.643 17.508 46.995 17.212C47.347 16.908 47.731 16.756 48.147 16.756C48.627 16.756 49.063 16.964 49.455 17.38C49.847 17.796 50.155 18.34 50.379 19.012C50.603 19.684 50.715 20.384 50.715 21.112C50.715 22.232 50.311 23.176 49.503 23.944C48.695 24.712 47.579 25.232 46.155 25.504L45.603 23.956ZM56.3746 18.76C56.1586 19.248 55.9946 19.672 55.8826 20.032C55.7786 20.384 55.7266 20.744 55.7266 21.112C55.7266 21.776 55.9306 22.272 56.3386 22.6C56.7546 22.928 57.3586 23.092 58.1506 23.092C58.7986 23.092 59.3786 22.976 59.8906 22.744C60.4026 22.52 60.7706 22.236 60.9946 21.892C61.0026 21.868 60.7506 21.792 60.2386 21.664L59.6026 21.484C58.9706 21.3 58.5226 21.08 58.2586 20.824C57.9946 20.568 57.8626 20.208 57.8626 19.744C57.8626 19.096 58.0266 18.476 58.3546 17.884C58.6826 17.292 59.1146 16.812 59.6506 16.444C60.1866 16.076 60.7546 15.892 61.3546 15.892C61.5946 15.892 61.8386 15.928 62.0866 16C62.3346 16.064 62.5066 16.144 62.6026 16.24L62.0986 17.788C62.0186 17.756 61.9026 17.728 61.7506 17.704C61.5986 17.68 61.4626 17.668 61.3426 17.668C61.0146 17.668 60.6986 17.74 60.3946 17.884C60.0986 18.02 59.8466 18.204 59.6386 18.436C59.4306 18.66 59.2906 18.904 59.2186 19.168C59.2106 19.2 59.2066 19.24 59.2066 19.288C59.2066 19.424 59.2986 19.544 59.4826 19.648C59.6746 19.744 60.0306 19.852 60.5506 19.972C61.2786 20.14 61.7706 20.352 62.0266 20.608C62.2906 20.856 62.4226 21.148 62.4226 21.484C62.4226 22.068 62.2346 22.62 61.8586 23.14C61.4826 23.66 60.9666 24.076 60.3106 24.388C59.6626 24.708 58.9426 24.868 58.1506 24.868C57.3906 24.868 56.7186 24.72 56.1346 24.424C55.5506 24.128 55.0986 23.688 54.7786 23.104C54.4666 22.528 54.3386 21.836 54.3946 21.028C54.4426 20.26 54.7146 19.328 55.2106 18.232L56.3746 18.76ZM65.1533 13.12C65.2333 13.704 65.2973 14.496 65.3453 15.496C65.3933 16.488 65.4173 17.408 65.4173 18.256V18.712C65.4093 19.12 65.4293 19.428 65.4773 19.636C65.5253 19.844 65.6213 19.992 65.7653 20.08C65.9173 20.168 66.1493 20.212 66.4613 20.212H66.5213L66.6173 21.112L66.5213 22H66.4613C65.5813 22 64.9453 21.748 64.5533 21.244C64.1693 20.74 63.9773 19.972 63.9773 18.94C63.9693 17.956 63.9373 16.96 63.8813 15.952C63.8333 14.936 63.7613 14.1 63.6653 13.444L65.1533 13.12ZM66.4168 20.212H66.6088C67.8888 20.212 68.8328 20.12 69.4408 19.936C70.0568 19.752 70.3968 19.456 70.4608 19.048L70.4728 18.928C70.4728 18.68 70.3848 18.452 70.2088 18.244C70.0408 18.036 69.8328 17.908 69.5848 17.86C69.5608 17.852 69.5208 17.848 69.4648 17.848C69.2088 17.848 68.9688 17.952 68.7448 18.16C68.5288 18.368 68.4208 18.604 68.4208 18.868C68.4208 19.14 68.5968 19.396 68.9488 19.636C69.3088 19.876 69.7488 20.068 70.2688 20.212C70.7888 20.348 71.2728 20.416 71.7208 20.416C72.0648 20.416 72.3368 20.368 72.5368 20.272C72.7448 20.176 72.8488 20.032 72.8488 19.84C72.8488 19.08 71.0248 18.2 67.3768 17.2L68.0368 15.544C69.6128 16.024 70.8448 16.484 71.7328 16.924C72.6208 17.356 73.2448 17.784 73.6048 18.208C73.9648 18.632 74.1448 19.092 74.1448 19.588C74.1448 19.892 74.0768 20.268 73.9408 20.716C73.8128 21.132 73.5328 21.444 73.1008 21.652C72.6688 21.86 72.1528 21.964 71.5528 21.964C70.8808 21.964 70.2008 21.844 69.5128 21.604C68.8248 21.356 68.2528 21.016 67.7968 20.584C67.3488 20.144 67.1248 19.652 67.1248 19.108C67.1248 19.02 67.1408 18.888 67.1728 18.712C67.2768 18.208 67.4528 17.756 67.7008 17.356C67.9568 16.956 68.2568 16.652 68.6008 16.444C68.9528 16.236 69.3168 16.152 69.6928 16.192C70.0448 16.224 70.3648 16.368 70.6528 16.624C70.9488 16.88 71.1808 17.204 71.3488 17.596C71.5168 17.988 71.6008 18.392 71.6008 18.808C71.6008 18.952 71.5888 19.096 71.5648 19.24C71.4608 19.936 71.2208 20.484 70.8448 20.884C70.4688 21.284 69.9368 21.572 69.2488 21.748C68.5688 21.916 67.6888 22 66.6088 22H66.4168V20.212ZM82.3347 22.144C82.3187 21.744 82.3107 21.448 82.3107 21.256C82.3107 21.056 82.3187 20.756 82.3347 20.356C83.3827 20.356 84.1947 20.292 84.7707 20.164C85.3547 20.028 85.7987 19.812 86.1027 19.516C86.4067 19.22 86.6627 18.788 86.8707 18.22L88.1187 18.364C87.9667 18.812 87.8907 19.176 87.8907 19.456C87.8907 19.72 87.9547 19.912 88.0827 20.032C88.2187 20.152 88.4187 20.212 88.6827 20.212L88.7787 21.1L88.6827 22C88.3547 22 88.0507 21.928 87.7707 21.784C87.4907 21.632 87.2667 21.424 87.0987 21.16C86.9387 20.896 86.8587 20.596 86.8587 20.26L87.0987 20.308C86.6027 20.996 85.9787 21.476 85.2267 21.748C84.4747 22.012 83.5107 22.144 82.3347 22.144ZM79.3467 17.728C79.1387 18.376 79.0347 18.864 79.0347 19.192C79.0347 19.408 79.1627 19.604 79.4187 19.78C79.6827 19.956 80.0667 20.096 80.5707 20.2C81.0827 20.304 81.7027 20.356 82.4307 20.356C82.4467 20.556 82.4547 20.852 82.4547 21.244C82.4547 21.644 82.4467 21.944 82.4307 22.144C80.9987 22.152 79.8707 21.936 79.0467 21.496C78.2307 21.056 77.7867 20.44 77.7147 19.648C77.7067 19.584 77.7027 19.488 77.7027 19.36C77.7027 19.016 77.7507 18.644 77.8467 18.244C77.9427 17.844 78.0587 17.488 78.1947 17.176L79.3467 17.728ZM81.7347 16.048L82.7307 17.056C82.5147 17.28 82.2947 17.5 82.0707 17.716L81.7347 18.052L81.2427 17.548L80.7387 17.056L81.7347 16.048ZM83.8347 16.048L84.8307 17.056C84.6147 17.28 84.3947 17.5 84.1707 17.716L83.8347 18.052L83.3427 17.548L82.8387 17.056L83.8347 16.048ZM95.285 20.212C95.517 20.212 95.701 20.144 95.837 20.008C95.973 19.872 96.041 19.696 96.041 19.48C96.041 19.264 95.957 18.92 95.789 18.448C95.629 17.976 95.493 17.616 95.381 17.368L96.605 16.696C96.757 17.008 96.917 17.456 97.085 18.04C97.253 18.616 97.337 19.12 97.337 19.552C97.337 20 97.249 20.412 97.073 20.788C96.897 21.156 96.653 21.452 96.341 21.676C96.029 21.892 95.677 22 95.285 22H95.249V20.212H95.285ZM92.033 22V20.212H92.093C92.501 20.212 92.817 19.992 93.041 19.552C93.193 19.248 93.329 18.78 93.449 18.148L94.685 18.208C94.597 18.736 94.553 19.112 94.553 19.336C94.553 19.92 94.797 20.212 95.285 20.212H95.309L95.405 21.112L95.309 22H95.285C94.853 22 94.489 21.884 94.193 21.652C93.897 21.42 93.689 21.092 93.569 20.668L93.869 20.644C93.381 21.548 92.777 22 92.057 22H92.033ZM88.601 22L88.505 21.112L88.601 20.212H88.661C88.909 20.212 89.153 20.16 89.393 20.056C89.633 19.944 89.813 19.808 89.933 19.648C90.101 19.456 90.229 19.24 90.317 19C90.405 18.76 90.485 18.504 90.557 18.232L91.805 18.364C91.797 18.404 91.753 18.564 91.673 18.844C91.593 19.116 91.553 19.364 91.553 19.588C91.553 20.004 91.721 20.212 92.057 20.212H92.081L92.177 21.112L92.081 22H92.021C91.677 22 91.377 21.908 91.121 21.724C90.865 21.54 90.685 21.296 90.581 20.992C90.325 21.32 90.029 21.572 89.693 21.748C89.365 21.916 89.013 22 88.637 22H88.601ZM98.5453 21.928C98.6253 21.4 98.6653 20.584 98.6653 19.48C98.6653 18.376 98.6293 17.22 98.5573 16.012C98.4933 14.796 98.4173 13.944 98.3293 13.456L99.8293 13.108C99.9013 13.572 99.9653 14.384 100.021 15.544C100.077 16.704 100.105 17.844 100.105 18.964C100.105 20.348 100.057 21.388 99.9613 22.084L98.5453 21.928ZM101.138 23.956C102.506 23.66 103.498 23.304 104.114 22.888C104.73 22.472 105.038 21.936 105.038 21.28C105.038 20.808 104.97 20.348 104.834 19.9C104.706 19.444 104.526 19.072 104.294 18.784C104.07 18.496 103.818 18.352 103.538 18.352C103.378 18.352 103.226 18.412 103.082 18.532C102.946 18.644 102.838 18.788 102.758 18.964C102.678 19.14 102.638 19.308 102.638 19.468C102.638 19.604 102.666 19.712 102.722 19.792C102.85 19.968 103.142 20.084 103.598 20.14C104.062 20.188 104.698 20.212 105.506 20.212H106.694L106.79 21.112L106.694 22L105.17 22.012C104.202 22.012 103.426 21.932 102.842 21.772C102.258 21.612 101.85 21.288 101.618 20.8C101.474 20.488 101.402 20.144 101.402 19.768C101.402 19.296 101.502 18.828 101.702 18.364C101.902 17.892 102.178 17.508 102.53 17.212C102.882 16.908 103.266 16.756 103.682 16.756C104.162 16.756 104.598 16.964 104.99 17.38C105.382 17.796 105.69 18.34 105.914 19.012C106.138 19.684 106.25 20.384 106.25 21.112C106.25 22.232 105.846 23.176 105.038 23.944C104.23 24.712 103.114 25.232 101.69 25.504L101.138 23.956ZM106.53 20.212H107.43C108.374 20.212 109.258 20.108 110.082 19.9C110.914 19.692 111.798 19.34 112.734 18.844C113.398 18.5 113.882 18.28 114.186 18.184L114.234 19.444C113.81 19.396 113.402 19.308 113.01 19.18C112.618 19.052 112.158 18.852 111.63 18.58C110.926 18.22 110.314 18.04 109.794 18.04C109.49 18.04 109.218 18.124 108.978 18.292C108.746 18.452 108.566 18.636 108.438 18.844L107.43 18.112C108.038 16.92 108.842 16.324 109.842 16.324C110.178 16.324 110.502 16.38 110.814 16.492C111.126 16.604 111.582 16.812 112.182 17.116C112.646 17.356 113.038 17.54 113.358 17.668C113.686 17.796 114.046 17.9 114.438 17.98L114.498 19.588C114.282 19.652 113.858 19.856 113.226 20.2C113.178 20.232 113.134 20.26 113.094 20.284C113.054 20.3 113.018 20.316 112.986 20.332C112.194 20.748 111.506 21.072 110.922 21.304C110.338 21.536 109.742 21.712 109.134 21.832C108.526 21.944 107.838 22 107.07 22H106.53V20.212ZM108.87 14.38L109.986 13.276L111.09 14.38L110.718 14.752C110.478 15 110.234 15.244 109.986 15.484L108.87 14.38ZM113.809 23.992C114.337 23.776 114.821 23.524 115.261 23.236C115.701 22.956 116.045 22.676 116.293 22.396C116.549 22.116 116.677 21.876 116.677 21.676C116.677 21.348 116.465 20.456 116.041 19L115.981 18.76L117.325 18.232C117.517 18.784 117.669 19.376 117.781 20.008C117.893 20.632 117.949 21.188 117.949 21.676C117.949 22.46 117.641 23.184 117.025 23.848C116.409 24.52 115.581 25.072 114.541 25.504L113.809 23.992ZM119.374 19.84C119.662 19.984 119.958 20.108 120.262 20.212C120.566 20.316 120.938 20.368 121.378 20.368C121.81 20.36 122.162 20.312 122.434 20.224C122.714 20.128 122.898 20.024 122.986 19.912C122.994 19.896 122.998 19.864 122.998 19.816C122.998 19.648 122.922 19.428 122.77 19.156C122.626 18.876 122.366 18.548 121.99 18.172C121.622 17.788 121.126 17.384 120.502 16.96L121.366 15.388C122.294 16.044 123.026 16.76 123.562 17.536C124.106 18.312 124.378 19.052 124.378 19.756C124.378 20.092 124.314 20.4 124.186 20.68C123.994 21.128 123.654 21.472 123.166 21.712C122.678 21.944 122.138 22.06 121.546 22.06C120.85 22.06 120.27 21.956 119.806 21.748C119.342 21.532 118.982 21.316 118.726 21.1L119.374 19.84Z" fill="#A0AEC0"/>
<g filter="url(#filter0_d_843_10235)">
<rect x="140" y="4" width="30" height="30" rx="6" fill="white" shape-rendering="crispEdges"/>
<path fill-rule="evenodd" clip-rule="evenodd" d="M159.351 19.375C159.351 19.6338 159.141 19.8438 158.882 19.8438C158.623 19.8438 158.413 19.6338 158.413 19.375C158.413 19.1163 158.623 18.9063 158.882 18.9063C159.141 18.9063 159.351 19.1163 159.351 19.375ZM157.661 19.4125C157.661 20.0369 158.17 20.545 158.794 20.545H161.582C161.608 20.215 161.626 19.8719 161.626 19.5C161.626 19.0613 161.604 18.6594 161.567 18.2788H158.794C158.17 18.2788 157.661 18.7875 157.661 19.4125Z" fill="#4FD1C5"/>
<path fill-rule="evenodd" clip-rule="evenodd" d="M155.282 17.4006H152.745C152.486 17.4006 152.276 17.1906 152.276 16.9318C152.276 16.6731 152.486 16.4631 152.745 16.4631H155.282C155.541 16.4631 155.751 16.6731 155.751 16.9318C155.751 17.1906 155.541 17.4006 155.282 17.4006ZM158.794 21.4825C157.653 21.4825 156.724 20.5537 156.724 19.4125C156.724 18.2706 157.653 17.3412 158.794 17.3412H161.426C160.877 14.8075 159.131 13.8506 155.501 13.8506C150.978 13.8506 149.375 15.3293 149.375 19.5C149.375 23.6712 150.978 25.1493 155.501 25.1493C159.214 25.1493 160.957 24.1493 161.462 21.4825H158.794Z" fill="#4FD1C5"/>
</g>
<defs>
<filter id="filter0_d_843_10235" x="134.5" y="2" width="41" height="41" filterUnits="userSpaceOnUse" color-interpolation-filters="sRGB">
<feFlood flood-opacity="0" result="BackgroundImageFix"/>
<feColorMatrix in="SourceAlpha" type="matrix" values="0 0 0 0 0 0 0 0 0 0 0 0 0 0 0 0 0 0 127 0" result="hardAlpha"/>
<feOffset dy="3.5"/>
<feGaussianBlur stdDeviation="2.75"/>
<feComposite in2="hardAlpha" operator="out"/>
<feColorMatrix type="matrix" values="0 0 0 0 0 0 0 0 0 0 0 0 0 0 0 0 0 0 0.02 0"/>
<feBlend mode="normal" in2="BackgroundImageFix" result="effect1_dropShadow_843_10235"/>
<feBlend mode="normal" in="SourceGraphic" in2="effect1_dropShadow_843_10235" result="shape"/>
</filter>
</defs>
</svg>
