<svg width="192" height="49" viewBox="0 0 192 49" fill="none" xmlns="http://www.w3.org/2000/svg">
<g filter="url(#filter0_d_843_10240)">
<rect x="6" y="2" width="180" height="38" rx="6" fill="white" shape-rendering="crispEdges"/>
<path d="M51.468 22.608C51.484 22.152 51.632 21.78 51.912 21.492C52.2 21.196 52.556 21.048 52.98 21.048C53.044 21.048 53.14 21.056 53.268 21.072C53.58 20.376 53.944 19.832 54.36 19.44C54.784 19.048 55.224 18.852 55.68 18.852C56.112 18.852 56.492 18.992 56.82 19.272C57.148 19.544 57.396 19.9 57.564 20.34C57.74 20.772 57.828 21.228 57.828 21.708C57.828 22.18 57.74 22.612 57.564 23.004C57.396 23.396 57.144 23.692 56.808 23.892C56.624 24.004 56.408 24.06 56.16 24.06C55.848 24.06 55.444 23.968 54.948 23.784C54.452 23.592 53.824 23.288 53.064 22.872C53.048 22.864 53.028 22.86 53.004 22.86C52.948 22.86 52.916 22.892 52.908 22.956C52.892 23.932 52.996 25.592 53.22 27.936L53.256 28.368L51.768 28.704C51.56 26.488 51.456 24.72 51.456 23.4C51.456 23.032 51.46 22.768 51.468 22.608ZM54.48 21.672C55.296 22.176 55.872 22.428 56.208 22.428C56.28 22.428 56.332 22.416 56.364 22.392C56.444 22.336 56.504 22.256 56.544 22.152C56.592 22.04 56.616 21.912 56.616 21.768C56.616 21.448 56.528 21.152 56.352 20.88C56.176 20.6 55.948 20.46 55.668 20.46C55.316 20.46 54.92 20.864 54.48 21.672ZM59.0102 23.928C59.0902 23.4 59.1302 22.584 59.1302 21.48C59.1302 20.376 59.0942 19.22 59.0222 18.012C58.9582 16.796 58.8822 15.944 58.7942 15.456L60.2942 15.108C60.3662 15.572 60.4302 16.384 60.4862 17.544C60.5422 18.704 60.5702 19.844 60.5702 20.964C60.5702 22.348 60.5222 23.388 60.4262 24.084L59.0102 23.928ZM61.603 25.956C62.971 25.66 63.963 25.304 64.579 24.888C65.195 24.472 65.503 23.936 65.503 23.28C65.495 22.808 65.427 22.348 65.299 21.9C65.171 21.444 64.991 21.072 64.759 20.784C64.535 20.496 64.283 20.352 64.003 20.352C63.843 20.352 63.691 20.412 63.547 20.532C63.411 20.652 63.299 20.8 63.211 20.976C63.131 21.152 63.091 21.316 63.091 21.468C63.091 21.596 63.123 21.704 63.187 21.792C63.307 21.952 63.527 22.076 63.847 22.164C64.175 22.244 64.543 22.284 64.951 22.284C65.255 22.284 65.555 22.26 65.851 22.212V23.88C65.459 23.976 65.055 24.024 64.639 24.024C64.055 24.024 63.531 23.924 63.067 23.724C62.603 23.516 62.275 23.208 62.083 22.8C61.939 22.488 61.867 22.144 61.867 21.768C61.867 21.296 61.967 20.828 62.167 20.364C62.367 19.892 62.643 19.508 62.995 19.212C63.347 18.908 63.731 18.756 64.147 18.756C64.627 18.756 65.063 18.964 65.455 19.38C65.847 19.796 66.155 20.34 66.379 21.012C66.603 21.684 66.715 22.384 66.715 23.112C66.715 24.232 66.311 25.176 65.503 25.944C64.695 26.712 63.579 27.232 62.155 27.504L61.603 25.956ZM72.3746 20.76C72.1586 21.248 71.9946 21.672 71.8826 22.032C71.7786 22.384 71.7266 22.744 71.7266 23.112C71.7266 23.776 71.9306 24.272 72.3386 24.6C72.7546 24.928 73.3586 25.092 74.1506 25.092C74.7986 25.092 75.3786 24.976 75.8906 24.744C76.4026 24.52 76.7706 24.236 76.9946 23.892C77.0026 23.868 76.7506 23.792 76.2386 23.664L75.6026 23.484C74.9706 23.3 74.5226 23.08 74.2586 22.824C73.9946 22.568 73.8626 22.208 73.8626 21.744C73.8626 21.096 74.0266 20.476 74.3546 19.884C74.6826 19.292 75.1146 18.812 75.6506 18.444C76.1866 18.076 76.7546 17.892 77.3546 17.892C77.5946 17.892 77.8386 17.928 78.0866 18C78.3346 18.064 78.5066 18.144 78.6026 18.24L78.0986 19.788C78.0186 19.756 77.9026 19.728 77.7506 19.704C77.5986 19.68 77.4626 19.668 77.3426 19.668C77.0146 19.668 76.6986 19.74 76.3946 19.884C76.0986 20.02 75.8466 20.204 75.6386 20.436C75.4306 20.66 75.2906 20.904 75.2186 21.168C75.2106 21.2 75.2066 21.24 75.2066 21.288C75.2066 21.424 75.2986 21.544 75.4826 21.648C75.6746 21.744 76.0306 21.852 76.5506 21.972C77.2786 22.14 77.7706 22.352 78.0266 22.608C78.2906 22.856 78.4226 23.148 78.4226 23.484C78.4226 24.068 78.2346 24.62 77.8586 25.14C77.4826 25.66 76.9666 26.076 76.3106 26.388C75.6626 26.708 74.9426 26.868 74.1506 26.868C73.3906 26.868 72.7186 26.72 72.1346 26.424C71.5506 26.128 71.0986 25.688 70.7786 25.104C70.4666 24.528 70.3386 23.836 70.3946 23.028C70.4426 22.26 70.7146 21.328 71.2106 20.232L72.3746 20.76ZM81.1533 15.12C81.2333 15.704 81.2973 16.496 81.3453 17.496C81.3933 18.488 81.4173 19.408 81.4173 20.256V20.712C81.4093 21.12 81.4293 21.428 81.4773 21.636C81.5253 21.844 81.6213 21.992 81.7653 22.08C81.9173 22.168 82.1493 22.212 82.4613 22.212H82.5213L82.6173 23.112L82.5213 24H82.4613C81.5813 24 80.9453 23.748 80.5533 23.244C80.1693 22.74 79.9773 21.972 79.9773 20.94C79.9693 19.956 79.9373 18.96 79.8813 17.952C79.8333 16.936 79.7613 16.1 79.6653 15.444L81.1533 15.12ZM82.4168 22.212H82.6088C83.8888 22.212 84.8328 22.12 85.4408 21.936C86.0568 21.752 86.3968 21.456 86.4608 21.048L86.4728 20.928C86.4728 20.68 86.3848 20.452 86.2088 20.244C86.0408 20.036 85.8328 19.908 85.5848 19.86C85.5608 19.852 85.5208 19.848 85.4648 19.848C85.2088 19.848 84.9688 19.952 84.7448 20.16C84.5288 20.368 84.4208 20.604 84.4208 20.868C84.4208 21.14 84.5968 21.396 84.9488 21.636C85.3088 21.876 85.7488 22.068 86.2688 22.212C86.7888 22.348 87.2728 22.416 87.7208 22.416C88.0648 22.416 88.3368 22.368 88.5368 22.272C88.7448 22.176 88.8488 22.032 88.8488 21.84C88.8488 21.08 87.0248 20.2 83.3768 19.2L84.0368 17.544C85.6128 18.024 86.8448 18.484 87.7328 18.924C88.6208 19.356 89.2448 19.784 89.6048 20.208C89.9648 20.632 90.1448 21.092 90.1448 21.588C90.1448 21.892 90.0768 22.268 89.9408 22.716C89.8128 23.132 89.5328 23.444 89.1008 23.652C88.6688 23.86 88.1528 23.964 87.5528 23.964C86.8808 23.964 86.2008 23.844 85.5128 23.604C84.8248 23.356 84.2528 23.016 83.7968 22.584C83.3488 22.144 83.1248 21.652 83.1248 21.108C83.1248 21.02 83.1408 20.888 83.1728 20.712C83.2768 20.208 83.4528 19.756 83.7008 19.356C83.9568 18.956 84.2568 18.652 84.6008 18.444C84.9528 18.236 85.3168 18.152 85.6928 18.192C86.0448 18.224 86.3648 18.368 86.6528 18.624C86.9488 18.88 87.1808 19.204 87.3488 19.596C87.5168 19.988 87.6008 20.392 87.6008 20.808C87.6008 20.952 87.5888 21.096 87.5648 21.24C87.4608 21.936 87.2208 22.484 86.8448 22.884C86.4688 23.284 85.9368 23.572 85.2488 23.748C84.5688 23.916 83.6888 24 82.6088 24H82.4168V22.212ZM98.3347 24.144C98.3187 23.744 98.3107 23.448 98.3107 23.256C98.3107 23.056 98.3187 22.756 98.3347 22.356C99.3827 22.356 100.195 22.292 100.771 22.164C101.355 22.028 101.799 21.812 102.103 21.516C102.407 21.22 102.663 20.788 102.871 20.22L104.119 20.364C103.967 20.812 103.891 21.176 103.891 21.456C103.891 21.72 103.955 21.912 104.083 22.032C104.219 22.152 104.419 22.212 104.683 22.212L104.779 23.1L104.683 24C104.355 24 104.051 23.928 103.771 23.784C103.491 23.632 103.267 23.424 103.099 23.16C102.939 22.896 102.859 22.596 102.859 22.26L103.099 22.308C102.603 22.996 101.979 23.476 101.227 23.748C100.475 24.012 99.5107 24.144 98.3347 24.144ZM95.3467 19.728C95.1387 20.376 95.0347 20.864 95.0347 21.192C95.0347 21.408 95.1627 21.604 95.4187 21.78C95.6827 21.956 96.0667 22.096 96.5707 22.2C97.0827 22.304 97.7027 22.356 98.4307 22.356C98.4467 22.556 98.4547 22.852 98.4547 23.244C98.4547 23.644 98.4467 23.944 98.4307 24.144C96.9987 24.152 95.8707 23.936 95.0467 23.496C94.2307 23.056 93.7867 22.44 93.7147 21.648C93.7067 21.584 93.7027 21.488 93.7027 21.36C93.7027 21.016 93.7507 20.644 93.8467 20.244C93.9427 19.844 94.0587 19.488 94.1947 19.176L95.3467 19.728ZM97.7347 18.048L98.7307 19.056C98.5147 19.28 98.2947 19.5 98.0707 19.716L97.7347 20.052L97.2427 19.548L96.7387 19.056L97.7347 18.048ZM99.8347 18.048L100.831 19.056C100.615 19.28 100.395 19.5 100.171 19.716L99.8347 20.052L99.3427 19.548L98.8387 19.056L99.8347 18.048ZM111.285 22.212C111.517 22.212 111.701 22.144 111.837 22.008C111.973 21.872 112.041 21.696 112.041 21.48C112.041 21.264 111.957 20.92 111.789 20.448C111.629 19.976 111.493 19.616 111.381 19.368L112.605 18.696C112.757 19.008 112.917 19.456 113.085 20.04C113.253 20.616 113.337 21.12 113.337 21.552C113.337 22 113.249 22.412 113.073 22.788C112.897 23.156 112.653 23.452 112.341 23.676C112.029 23.892 111.677 24 111.285 24H111.249V22.212H111.285ZM108.033 24V22.212H108.093C108.501 22.212 108.817 21.992 109.041 21.552C109.193 21.248 109.329 20.78 109.449 20.148L110.685 20.208C110.597 20.736 110.553 21.112 110.553 21.336C110.553 21.92 110.797 22.212 111.285 22.212H111.309L111.405 23.112L111.309 24H111.285C110.853 24 110.489 23.884 110.193 23.652C109.897 23.42 109.689 23.092 109.569 22.668L109.869 22.644C109.381 23.548 108.777 24 108.057 24H108.033ZM104.601 24L104.505 23.112L104.601 22.212H104.661C104.909 22.212 105.153 22.16 105.393 22.056C105.633 21.944 105.813 21.808 105.933 21.648C106.101 21.456 106.229 21.24 106.317 21C106.405 20.76 106.485 20.504 106.557 20.232L107.805 20.364C107.797 20.404 107.753 20.564 107.673 20.844C107.593 21.116 107.553 21.364 107.553 21.588C107.553 22.004 107.721 22.212 108.057 22.212H108.081L108.177 23.112L108.081 24H108.021C107.677 24 107.377 23.908 107.121 23.724C106.865 23.54 106.685 23.296 106.581 22.992C106.325 23.32 106.029 23.572 105.693 23.748C105.365 23.916 105.013 24 104.637 24H104.601ZM114.545 23.928C114.625 23.4 114.665 22.584 114.665 21.48C114.665 20.376 114.629 19.22 114.557 18.012C114.493 16.796 114.417 15.944 114.329 15.456L115.829 15.108C115.901 15.572 115.965 16.384 116.021 17.544C116.077 18.704 116.105 19.844 116.105 20.964C116.105 22.348 116.057 23.388 115.961 24.084L114.545 23.928ZM117.138 25.956C118.506 25.66 119.498 25.304 120.114 24.888C120.73 24.472 121.038 23.936 121.038 23.28C121.038 22.808 120.97 22.348 120.834 21.9C120.706 21.444 120.526 21.072 120.294 20.784C120.07 20.496 119.818 20.352 119.538 20.352C119.378 20.352 119.226 20.412 119.082 20.532C118.946 20.644 118.838 20.788 118.758 20.964C118.678 21.14 118.638 21.308 118.638 21.468C118.638 21.604 118.666 21.712 118.722 21.792C118.85 21.968 119.142 22.084 119.598 22.14C120.062 22.188 120.698 22.212 121.506 22.212H122.694L122.79 23.112L122.694 24L121.17 24.012C120.202 24.012 119.426 23.932 118.842 23.772C118.258 23.612 117.85 23.288 117.618 22.8C117.474 22.488 117.402 22.144 117.402 21.768C117.402 21.296 117.502 20.828 117.702 20.364C117.902 19.892 118.178 19.508 118.53 19.212C118.882 18.908 119.266 18.756 119.682 18.756C120.162 18.756 120.598 18.964 120.99 19.38C121.382 19.796 121.69 20.34 121.914 21.012C122.138 21.684 122.25 22.384 122.25 23.112C122.25 24.232 121.846 25.176 121.038 25.944C120.23 26.712 119.114 27.232 117.69 27.504L117.138 25.956ZM122.53 22.212H123.43C124.374 22.212 125.258 22.108 126.082 21.9C126.914 21.692 127.798 21.34 128.734 20.844C129.398 20.5 129.882 20.28 130.186 20.184L130.234 21.444C129.81 21.396 129.402 21.308 129.01 21.18C128.618 21.052 128.158 20.852 127.63 20.58C126.926 20.22 126.314 20.04 125.794 20.04C125.49 20.04 125.218 20.124 124.978 20.292C124.746 20.452 124.566 20.636 124.438 20.844L123.43 20.112C124.038 18.92 124.842 18.324 125.842 18.324C126.178 18.324 126.502 18.38 126.814 18.492C127.126 18.604 127.582 18.812 128.182 19.116C128.646 19.356 129.038 19.54 129.358 19.668C129.686 19.796 130.046 19.9 130.438 19.98L130.498 21.588C130.282 21.652 129.858 21.856 129.226 22.2C129.178 22.232 129.134 22.26 129.094 22.284C129.054 22.3 129.018 22.316 128.986 22.332C128.194 22.748 127.506 23.072 126.922 23.304C126.338 23.536 125.742 23.712 125.134 23.832C124.526 23.944 123.838 24 123.07 24H122.53V22.212ZM124.87 16.38L125.986 15.276L127.09 16.38L126.718 16.752C126.478 17 126.234 17.244 125.986 17.484L124.87 16.38ZM129.809 25.992C130.337 25.776 130.821 25.524 131.261 25.236C131.701 24.956 132.045 24.676 132.293 24.396C132.549 24.116 132.677 23.876 132.677 23.676C132.677 23.348 132.465 22.456 132.041 21L131.981 20.76L133.325 20.232C133.517 20.784 133.669 21.376 133.781 22.008C133.893 22.632 133.949 23.188 133.949 23.676C133.949 24.46 133.641 25.184 133.025 25.848C132.409 26.52 131.581 27.072 130.541 27.504L129.809 25.992ZM135.374 21.84C135.662 21.984 135.958 22.108 136.262 22.212C136.566 22.316 136.938 22.368 137.378 22.368C137.81 22.36 138.162 22.312 138.434 22.224C138.714 22.128 138.898 22.024 138.986 21.912C138.994 21.896 138.998 21.864 138.998 21.816C138.998 21.648 138.922 21.428 138.77 21.156C138.626 20.876 138.366 20.548 137.99 20.172C137.622 19.788 137.126 19.384 136.502 18.96L137.366 17.388C138.294 18.044 139.026 18.76 139.562 19.536C140.106 20.312 140.378 21.052 140.378 21.756C140.378 22.092 140.314 22.4 140.186 22.68C139.994 23.128 139.654 23.472 139.166 23.712C138.678 23.944 138.138 24.06 137.546 24.06C136.85 24.06 136.27 23.956 135.806 23.748C135.342 23.532 134.982 23.316 134.726 23.1L135.374 21.84Z" fill="#2B2B2B"/>
<rect x="156" y="6" width="30" height="30" rx="6" fill="#4FD1C5"/>
<path fill-rule="evenodd" clip-rule="evenodd" d="M175.351 21.375C175.351 21.6338 175.141 21.8438 174.882 21.8438C174.623 21.8438 174.413 21.6338 174.413 21.375C174.413 21.1163 174.623 20.9063 174.882 20.9063C175.141 20.9063 175.351 21.1163 175.351 21.375ZM173.661 21.4125C173.661 22.0369 174.17 22.545 174.794 22.545H177.582C177.608 22.215 177.626 21.8719 177.626 21.5C177.626 21.0613 177.604 20.6594 177.567 20.2788H174.794C174.17 20.2788 173.661 20.7875 173.661 21.4125Z" fill="#EDFAF9"/>
<path fill-rule="evenodd" clip-rule="evenodd" d="M171.282 19.4006H168.745C168.486 19.4006 168.276 19.1906 168.276 18.9318C168.276 18.6731 168.486 18.4631 168.745 18.4631H171.282C171.541 18.4631 171.751 18.6731 171.751 18.9318C171.751 19.1906 171.541 19.4006 171.282 19.4006ZM174.794 23.4825C173.653 23.4825 172.724 22.5537 172.724 21.4125C172.724 20.2706 173.653 19.3412 174.794 19.3412H177.426C176.877 16.8075 175.131 15.8506 171.501 15.8506C166.978 15.8506 165.375 17.3293 165.375 21.5C165.375 25.6712 166.978 27.1493 171.501 27.1493C175.214 27.1493 176.957 26.1493 177.462 23.4825H174.794Z" fill="#EDFAF9"/>
</g>
<defs>
<filter id="filter0_d_843_10240" x="0.5" y="0" width="191" height="49" filterUnits="userSpaceOnUse" color-interpolation-filters="sRGB">
<feFlood flood-opacity="0" result="BackgroundImageFix"/>
<feColorMatrix in="SourceAlpha" type="matrix" values="0 0 0 0 0 0 0 0 0 0 0 0 0 0 0 0 0 0 127 0" result="hardAlpha"/>
<feOffset dy="3.5"/>
<feGaussianBlur stdDeviation="2.75"/>
<feComposite in2="hardAlpha" operator="out"/>
<feColorMatrix type="matrix" values="0 0 0 0 0 0 0 0 0 0 0 0 0 0 0 0 0 0 0.02 0"/>
<feBlend mode="normal" in2="BackgroundImageFix" result="effect1_dropShadow_843_10240"/>
<feBlend mode="normal" in="SourceGraphic" in2="effect1_dropShadow_843_10240" result="shape"/>
</filter>
</defs>
</svg>
