<svg width="25" height="25" viewBox="0 0 25 25" fill="none" xmlns="http://www.w3.org/2000/svg">
<path fill-rule="evenodd" clip-rule="evenodd" d="M18.66 12.3C18.66 12.714 18.324 13.05 17.91 13.05C17.496 13.05 17.16 12.714 17.16 12.3C17.16 11.886 17.496 11.55 17.91 11.55C18.324 11.55 18.66 11.886 18.66 12.3ZM15.957 12.36C15.957 13.359 16.771 14.172 17.77 14.172H22.23C22.272 13.644 22.3 13.095 22.3 12.5C22.3 11.798 22.265 11.155 22.206 10.546H17.77C16.771 10.546 15.957 11.36 15.957 12.36Z" fill="#4FD1C5"/>
<path fill-rule="evenodd" clip-rule="evenodd" d="M12.1512 9.14094H8.09122C7.67722 9.14094 7.34122 8.80494 7.34122 8.39094C7.34122 7.97694 7.67722 7.64094 8.09122 7.64094H12.1512C12.5652 7.64094 12.9012 7.97694 12.9012 8.39094C12.9012 8.80494 12.5652 9.14094 12.1512 9.14094ZM17.7702 15.6719C15.9432 15.6719 14.4572 14.1859 14.4572 12.3599C14.4572 10.5329 15.9432 9.04594 17.7702 9.04594H21.9802C21.1022 4.99194 18.3092 3.46094 12.5002 3.46094C5.26422 3.46094 2.69922 5.82694 2.69922 12.4999C2.69922 19.1739 5.26422 21.5389 12.5002 21.5389C18.4422 21.5389 21.2302 19.9389 22.0382 15.6719H17.7702Z" fill="#4FD1C5"/>
</svg>
