<svg width="21" height="21" viewBox="0 0 21 21" fill="none" xmlns="http://www.w3.org/2000/svg">
<path d="M17.1667 8H9.66667C8.74619 8 8 8.74619 8 9.66667V17.1667C8 18.0871 8.74619 18.8333 9.66667 18.8333H17.1667C18.0871 18.8333 18.8333 18.0871 18.8333 17.1667V9.66667C18.8333 8.74619 18.0871 8 17.1667 8Z" stroke="#394860" stroke-width="2" stroke-linecap="round" stroke-linejoin="round"/>
<path d="M4.66797 13.0003H3.83464C3.39261 13.0003 2.96868 12.8247 2.65612 12.5122C2.34356 12.1996 2.16797 11.7757 2.16797 11.3337V3.83366C2.16797 3.39163 2.34356 2.96771 2.65612 2.65515C2.96868 2.34259 3.39261 2.16699 3.83464 2.16699H11.3346C11.7767 2.16699 12.2006 2.34259 12.5131 2.65515C12.8257 2.96771 13.0013 3.39163 13.0013 3.83366V4.66699" stroke="#394860" stroke-width="2" stroke-linecap="round" stroke-linejoin="round"/>
</svg>
