<svg width="176" height="43" viewBox="0 0 176 43" fill="none" xmlns="http://www.w3.org/2000/svg">
<path d="M89.936 19.84C90.224 19.984 90.52 20.108 90.824 20.212C91.128 20.316 91.5 20.368 91.94 20.368C92.372 20.36 92.724 20.312 92.996 20.224C93.276 20.128 93.46 20.024 93.548 19.912C93.556 19.896 93.56 19.864 93.56 19.816C93.56 19.648 93.484 19.428 93.332 19.156C93.188 18.876 92.928 18.548 92.552 18.172C92.184 17.788 91.688 17.384 91.064 16.96L91.928 15.388C92.856 16.044 93.588 16.76 94.124 17.536C94.668 18.312 94.94 19.052 94.94 19.756C94.94 20.092 94.876 20.4 94.748 20.68C94.556 21.128 94.216 21.472 93.728 21.712C93.24 21.944 92.7 22.06 92.108 22.06C91.412 22.06 90.832 21.956 90.368 21.748C89.904 21.532 89.544 21.316 89.288 21.1L89.936 19.84ZM94.2969 23.992C94.8249 23.776 95.3089 23.524 95.7489 23.236C96.1889 22.956 96.5329 22.676 96.7809 22.396C97.0369 22.116 97.1649 21.876 97.1649 21.676C97.1649 21.348 96.9529 20.456 96.5289 19L96.4689 18.76L97.8129 18.232C98.0049 18.784 98.1569 19.376 98.2689 20.008C98.3809 20.632 98.4369 21.188 98.4369 21.676C98.4369 22.46 98.1289 23.184 97.5129 23.848C96.8969 24.52 96.0689 25.072 95.0289 25.504L94.2969 23.992ZM99.3218 23.956C100.69 23.66 101.682 23.304 102.298 22.888C102.914 22.472 103.222 21.936 103.222 21.28C103.222 20.808 103.154 20.348 103.018 19.9C102.89 19.444 102.71 19.072 102.478 18.784C102.254 18.496 102.002 18.352 101.722 18.352C101.562 18.352 101.41 18.412 101.266 18.532C101.13 18.644 101.022 18.788 100.942 18.964C100.862 19.14 100.822 19.308 100.822 19.468C100.822 19.604 100.85 19.712 100.906 19.792C101.034 19.968 101.326 20.084 101.782 20.14C102.246 20.188 102.882 20.212 103.69 20.212H104.878L104.974 21.112L104.878 22L103.354 22.012C102.386 22.012 101.61 21.932 101.026 21.772C100.442 21.612 100.034 21.288 99.8018 20.8C99.6578 20.488 99.5858 20.144 99.5858 19.768C99.5858 19.296 99.6858 18.828 99.8858 18.364C100.086 17.892 100.362 17.508 100.714 17.212C101.066 16.908 101.45 16.756 101.866 16.756C102.346 16.756 102.782 16.964 103.174 17.38C103.566 17.796 103.874 18.34 104.098 19.012C104.322 19.684 104.434 20.384 104.434 21.112C104.434 22.232 104.03 23.176 103.222 23.944C102.414 24.712 101.298 25.232 99.8738 25.504L99.3218 23.956ZM104.725 20.212H104.797C105.405 20.212 105.845 20.148 106.117 20.02C106.397 19.892 106.557 19.684 106.597 19.396C106.613 19.268 106.621 19.168 106.621 19.096C106.621 18.904 106.601 18.684 106.561 18.436C106.521 18.18 106.497 18.02 106.489 17.956L107.737 17.716C107.841 18.308 107.893 18.968 107.893 19.696C107.925 19.832 108.013 19.952 108.157 20.056C108.309 20.16 108.521 20.212 108.793 20.212H108.865L108.961 21.112L108.865 22H108.793C108.417 22 108.073 21.9 107.761 21.7C107.457 21.5 107.213 21.24 107.029 20.92L107.353 20.956C107.137 21.316 106.817 21.58 106.393 21.748C105.977 21.916 105.445 22 104.797 22H104.725V20.212ZM105.157 24.04L106.273 22.936L107.377 24.04L107.005 24.412C106.765 24.66 106.521 24.904 106.273 25.144L105.157 24.04ZM115.465 20.212C115.697 20.212 115.881 20.144 116.017 20.008C116.153 19.872 116.221 19.696 116.221 19.48C116.221 19.264 116.137 18.92 115.969 18.448C115.809 17.976 115.673 17.616 115.561 17.368L116.785 16.696C116.937 17.008 117.097 17.456 117.265 18.04C117.433 18.616 117.517 19.12 117.517 19.552C117.517 20 117.429 20.412 117.253 20.788C117.077 21.156 116.833 21.452 116.521 21.676C116.209 21.892 115.857 22 115.465 22H115.429V20.212H115.465ZM112.213 22V20.212H112.273C112.681 20.212 112.997 19.992 113.221 19.552C113.373 19.248 113.509 18.78 113.629 18.148L114.865 18.208C114.777 18.736 114.733 19.112 114.733 19.336C114.733 19.92 114.977 20.212 115.465 20.212H115.489L115.585 21.112L115.489 22H115.465C115.033 22 114.669 21.884 114.373 21.652C114.077 21.42 113.869 21.092 113.749 20.668L114.049 20.644C113.561 21.548 112.957 22 112.237 22H112.213ZM108.781 22L108.685 21.112L108.781 20.212H108.841C109.089 20.212 109.333 20.16 109.573 20.056C109.813 19.944 109.993 19.808 110.113 19.648C110.281 19.456 110.409 19.24 110.497 19C110.585 18.76 110.665 18.504 110.737 18.232L111.985 18.364C111.977 18.404 111.933 18.564 111.853 18.844C111.773 19.116 111.733 19.364 111.733 19.588C111.733 20.004 111.901 20.212 112.237 20.212H112.261L112.357 21.112L112.261 22H112.201C111.857 22 111.557 21.908 111.301 21.724C111.045 21.54 110.865 21.296 110.761 20.992C110.505 21.32 110.209 21.572 109.873 21.748C109.545 21.916 109.193 22 108.817 22H108.781ZM114.193 13.228L115.045 14.068L114.193 14.908L113.917 14.632C113.725 14.448 113.537 14.26 113.353 14.068L114.193 13.228ZM115.321 14.536C115.649 14.848 115.969 15.168 116.281 15.496L115.321 16.456C115.009 16.128 114.689 15.808 114.361 15.496L115.321 14.536ZM113.065 14.536C113.393 14.848 113.713 15.168 114.025 15.496L113.065 16.456C112.753 16.128 112.433 15.808 112.105 15.496L113.065 14.536ZM118.725 21.928C118.805 21.4 118.845 20.584 118.845 19.48C118.845 18.376 118.809 17.22 118.737 16.012C118.673 14.796 118.597 13.944 118.509 13.456L120.009 13.108C120.081 13.572 120.145 14.384 120.201 15.544C120.257 16.704 120.285 17.844 120.285 18.964C120.285 20.348 120.237 21.388 120.141 22.084L118.725 21.928ZM121.858 19.84C122.146 19.984 122.442 20.108 122.746 20.212C123.05 20.316 123.422 20.368 123.862 20.368C124.294 20.36 124.646 20.312 124.918 20.224C125.198 20.128 125.382 20.024 125.47 19.912C125.478 19.896 125.482 19.864 125.482 19.816C125.482 19.648 125.406 19.428 125.254 19.156C125.11 18.876 124.85 18.548 124.474 18.172C124.106 17.788 123.61 17.384 122.986 16.96L123.85 15.388C124.778 16.044 125.51 16.76 126.046 17.536C126.59 18.312 126.862 19.052 126.862 19.756C126.862 20.092 126.798 20.4 126.67 20.68C126.478 21.128 126.138 21.472 125.65 21.712C125.162 21.944 124.622 22.06 124.03 22.06C123.334 22.06 122.754 21.956 122.29 21.748C121.826 21.532 121.466 21.316 121.21 21.1L121.858 19.84Z" fill="#A0AEC0"/>
<g filter="url(#filter0_d_762_5604)">
<rect x="140" y="4" width="30" height="30" rx="6" fill="white" shape-rendering="crispEdges"/>
<path d="M163 15.0366C163 16.7136 161.64 18.0731 159.963 18.0731C158.286 18.0731 156.927 16.7136 156.927 15.0366C156.927 13.3595 158.286 12 159.963 12C161.64 12 163 13.3595 163 15.0366Z" fill="#4FD1C5"/>
<path d="M154.073 15.0366C154.073 16.7136 152.714 18.0731 151.037 18.0731C149.36 18.0731 148 16.7136 148 15.0366C148 13.3595 149.36 12 151.037 12C152.714 12 154.073 13.3595 154.073 15.0366Z" fill="#4FD1C5"/>
<path d="M163 23.9634C163 25.6405 161.64 27 159.963 27C158.286 27 156.927 25.6405 156.927 23.9634C156.927 22.2864 158.286 20.9269 159.963 20.9269C161.64 20.9269 163 22.2864 163 23.9634Z" fill="#4FD1C5"/>
<path d="M154.073 23.9634C154.073 25.6405 152.714 27 151.037 27C149.36 27 148 25.6405 148 23.9634C148 22.2864 149.36 20.9269 151.037 20.9269C152.714 20.9269 154.073 22.2864 154.073 23.9634Z" fill="#4FD1C5"/>
</g>
<defs>
<filter id="filter0_d_762_5604" x="134.5" y="2" width="41" height="41" filterUnits="userSpaceOnUse" color-interpolation-filters="sRGB">
<feFlood flood-opacity="0" result="BackgroundImageFix"/>
<feColorMatrix in="SourceAlpha" type="matrix" values="0 0 0 0 0 0 0 0 0 0 0 0 0 0 0 0 0 0 127 0" result="hardAlpha"/>
<feOffset dy="3.5"/>
<feGaussianBlur stdDeviation="2.75"/>
<feComposite in2="hardAlpha" operator="out"/>
<feColorMatrix type="matrix" values="0 0 0 0 0 0 0 0 0 0 0 0 0 0 0 0 0 0 0.02 0"/>
<feBlend mode="normal" in2="BackgroundImageFix" result="effect1_dropShadow_762_5604"/>
<feBlend mode="normal" in="SourceGraphic" in2="effect1_dropShadow_762_5604" result="shape"/>
</filter>
</defs>
</svg>
