<svg width="120" height="120" viewBox="0 0 120 120" fill="none" xmlns="http://www.w3.org/2000/svg">
<path d="M45.8508 77.8998C44.9008 77.8998 43.9508 77.5498 43.2008 76.7998C41.7508 75.3498 41.7508 72.9498 43.2008 71.4998L71.5008 43.1998C72.9508 41.7498 75.3508 41.7498 76.8008 43.1998C78.2508 44.6498 78.2508 47.0498 76.8008 48.4998L48.5008 76.7998C47.8008 77.5498 46.8008 77.8998 45.8508 77.8998Z" fill="#C91433"/>
<path d="M74.1508 77.8998C73.2008 77.8998 72.2508 77.5498 71.5008 76.7998L43.2008 48.4998C41.7508 47.0498 41.7508 44.6498 43.2008 43.1998C44.6508 41.7498 47.0508 41.7498 48.5008 43.1998L76.8008 71.4998C78.2508 72.9498 78.2508 75.3498 76.8008 76.7998C76.0508 77.5498 75.1008 77.8998 74.1508 77.8998Z" fill="#C91433"/>
</svg>
