<svg width="24" height="24" viewBox="0 0 24 24" fill="none" xmlns="http://www.w3.org/2000/svg">
<path fill-rule="evenodd" clip-rule="evenodd" d="M18.16 11.8C18.16 12.214 17.824 12.55 17.41 12.55C16.996 12.55 16.66 12.214 16.66 11.8C16.66 11.386 16.996 11.05 17.41 11.05C17.824 11.05 18.16 11.386 18.16 11.8ZM15.457 11.86C15.457 12.859 16.271 13.672 17.27 13.672H21.73C21.772 13.144 21.8 12.595 21.8 12C21.8 11.298 21.765 10.655 21.706 10.046H17.27C16.271 10.046 15.457 10.86 15.457 11.86Z" fill="#4FD1C5"/>
<path fill-rule="evenodd" clip-rule="evenodd" d="M11.6512 8.64094H7.59122C7.17722 8.64094 6.84122 8.30494 6.84122 7.89094C6.84122 7.47694 7.17722 7.14094 7.59122 7.14094H11.6512C12.0652 7.14094 12.4012 7.47694 12.4012 7.89094C12.4012 8.30494 12.0652 8.64094 11.6512 8.64094ZM17.2702 15.1719C15.4432 15.1719 13.9572 13.6859 13.9572 11.8599C13.9572 10.0329 15.4432 8.54594 17.2702 8.54594H21.4802C20.6022 4.49194 17.8092 2.96094 12.0002 2.96094C4.76422 2.96094 2.19922 5.32694 2.19922 11.9999C2.19922 18.6739 4.76422 21.0389 12.0002 21.0389C17.9422 21.0389 20.7302 19.4389 21.5382 15.1719H17.2702Z" fill="#4FD1C5"/>
</svg>
