<svg width="32" height="26" viewBox="0 0 32 26" fill="none" xmlns="http://www.w3.org/2000/svg">
<path fill-rule="evenodd" clip-rule="evenodd" d="M15.9993 9.18044C13.8934 9.18044 12.1803 10.8936 12.1803 12.9994C12.1803 15.1053 13.8934 16.8184 15.9993 16.8184C18.1051 16.8184 19.8183 15.1053 19.8183 12.9994C19.8183 10.8936 18.1051 9.18044 15.9993 9.18044Z" fill="#4FD1C5"/>
<path fill-rule="evenodd" clip-rule="evenodd" d="M15.9993 19.1939C12.584 19.1939 9.80526 16.4151 9.80526 12.9999C9.80526 9.58465 12.584 6.8059 15.9993 6.8059C19.4145 6.8059 22.1933 9.58465 22.1933 12.9999C22.1933 16.4151 19.4145 19.1939 15.9993 19.1939ZM15.9993 0.646729C7.44609 0.646729 0.558594 7.4044 0.558594 12.9999C0.558594 18.5954 7.44609 25.3531 15.9993 25.3531C24.5524 25.3531 31.4399 18.5954 31.4399 12.9999C31.4399 7.4044 24.5524 0.646729 15.9993 0.646729Z" fill="#4FD1C5"/>
</svg>
