<svg width="36" height="39" viewBox="0 0 36 39" fill="none" xmlns="http://www.w3.org/2000/svg">
<path fill-rule="evenodd" clip-rule="evenodd" d="M28.0209 12.848C24.7289 12.848 22.0409 10.18 22.0409 6.888V2.804L32.6049 12.848H28.0209ZM21.0369 22.23C20.7449 22.522 20.3609 22.668 19.9789 22.668C19.5929 22.668 19.2089 22.522 18.9169 22.228L16.7889 20.09V28.538C16.7889 29.366 16.1169 30.038 15.2889 30.038C14.4609 30.038 13.7889 29.366 13.7889 28.538V20.088L11.6609 22.228C11.0769 22.814 10.1269 22.814 9.53894 22.23C8.95294 21.646 8.95094 20.698 9.53494 20.11L14.2249 15.4C14.4969 15.126 14.8729 14.956 15.2889 14.956C15.7049 14.956 16.0809 15.126 16.3529 15.4L21.0409 20.11C21.6269 20.698 21.6229 21.646 21.0369 22.23ZM35.4109 13.2C35.4109 13.12 35.4109 13.06 35.3909 12.98C35.3309 12.62 35.2709 12.26 35.2109 11.92C35.1709 11.7 35.0709 11.52 34.9109 11.36L23.5709 0.56C23.4309 0.42 23.2309 0.32 23.0309 0.3C22.6909 0.26 22.3309 0.22 21.9709 0.18C21.9109 0.16 21.8309 0.16 21.7709 0.16C20.6109 0.06 19.3309 0 17.9909 0C4.87094 0 0.210938 5.1 0.210938 19.5C0.210938 33.88 4.87094 39 17.9909 39C31.1309 39 35.7909 33.88 35.7909 19.5C35.7909 17.1 35.6709 15.02 35.4109 13.2Z" fill="#4FD1C5"/>
</svg>
