<svg width="21" height="20" viewBox="0 0 21 20" fill="none" xmlns="http://www.w3.org/2000/svg">
<path fill-rule="evenodd" clip-rule="evenodd" d="M19.9646 0.741555C19.9176 0.653555 19.8466 0.581555 19.7586 0.534555C17.6726 -0.575445 5.1936 3.29255 1.9656 5.15455C1.1246 5.63955 0.749598 6.20955 0.852598 6.84555C1.1496 8.68756 6.1126 10.0836 8.8056 10.7086L13.8626 5.65255C14.1556 5.35955 14.6306 5.35955 14.9236 5.65255C15.2166 5.94556 15.2166 6.42055 14.9236 6.71355L9.8176 11.8176C10.4586 14.5386 11.8396 19.3536 13.6526 19.6456C13.7206 19.6566 13.7886 19.6626 13.8556 19.6626C14.4096 19.6626 14.9096 19.2826 15.3426 18.5326C17.2046 15.3076 21.0756 2.83055 19.9646 0.741555Z" fill="#EDFAF9"/>
</svg>
