<svg width="20" height="20" viewBox="0 0 20 20" fill="none" xmlns="http://www.w3.org/2000/svg">
<path fill-rule="evenodd" clip-rule="evenodd" d="M17.023 0.905434C15.528 0.500434 13.324 0.502434 10.268 0.501434H9.729C6.682 0.490434 4.47 0.500434 2.976 0.905434C1.287 1.36343 0.5 2.37943 0.5 4.10143C0.5 6.23943 2.427 7.87743 4.29 9.46143C5.932 10.8554 7.483 12.1744 7.483 13.5994C7.483 17.0254 7.483 19.5014 10.003 19.5014C12.517 19.5014 12.517 17.0254 12.517 13.5994C12.517 12.1744 14.067 10.8554 15.71 9.46143C17.573 7.87743 19.5 6.23943 19.5 4.10143C19.5 2.37943 18.712 1.36343 17.023 0.905434Z" fill="#4FD1C5"/>
</svg>
