<svg width="24" height="24" viewBox="0 0 24 24" fill="none" xmlns="http://www.w3.org/2000/svg">
<path d="M0 10.7534C0 4.81447 4.81448 0 10.7534 0V13.2466C10.7534 19.1855 5.93895 24 0 24V10.7534Z" fill="#0E121F"/>
<path d="M12.3145 5.63451C12.3145 2.52265 14.8371 0 17.949 0H18.3666C21.4784 0 24.0011 2.52265 24.0011 5.63451C24.0011 8.74636 21.4784 11.269 18.3666 11.269H17.949C14.8371 11.269 12.3145 8.74636 12.3145 5.63451Z" fill="#57EADD"/>
<path d="M12.3145 18.365C12.3145 15.2531 14.8371 12.7305 17.949 12.7305H18.3666C21.4784 12.7305 24.0011 15.2531 24.0011 18.365C24.0011 21.4768 21.4784 23.9995 18.3666 23.9995H17.949C14.8371 23.9995 12.3145 21.4768 12.3145 18.365Z" fill="#E0E0E0"/>
</svg>
