<svg width="176" height="43" viewBox="0 0 176 43" fill="none" xmlns="http://www.w3.org/2000/svg">
<path d="M56.352 18.808C56.144 19.256 55.98 19.672 55.86 20.056C55.748 20.44 55.692 20.824 55.692 21.208C55.692 21.896 55.904 22.412 56.328 22.756C56.76 23.108 57.376 23.284 58.176 23.284C58.88 23.284 59.492 23.148 60.012 22.876C60.532 22.612 60.888 22.292 61.08 21.916C61.088 21.892 60.96 21.84 60.696 21.76C60.432 21.672 60.096 21.568 59.688 21.448C59.056 21.264 58.608 21.056 58.344 20.824C58.088 20.584 57.96 20.232 57.96 19.768C57.96 19.144 58.12 18.548 58.44 17.98C58.76 17.412 59.184 16.956 59.712 16.612C60.24 16.26 60.796 16.084 61.38 16.084C61.612 16.084 61.84 16.116 62.064 16.18C62.296 16.244 62.464 16.32 62.568 16.408L62.124 17.764C62.036 17.732 61.916 17.704 61.764 17.68C61.612 17.656 61.472 17.644 61.344 17.644C61.008 17.644 60.684 17.724 60.372 17.884C60.068 18.036 59.808 18.24 59.592 18.496C59.384 18.744 59.248 19.004 59.184 19.276C59.176 19.308 59.172 19.352 59.172 19.408C59.172 19.544 59.264 19.668 59.448 19.78C59.632 19.884 59.984 20.004 60.504 20.14C61.008 20.268 61.392 20.404 61.656 20.548C61.92 20.692 62.1 20.848 62.196 21.016C62.292 21.176 62.34 21.368 62.34 21.592C62.34 22.136 62.156 22.656 61.788 23.152C61.428 23.656 60.928 24.064 60.288 24.376C59.656 24.688 58.952 24.844 58.176 24.844C57.472 24.844 56.84 24.708 56.28 24.436C55.72 24.164 55.28 23.768 54.96 23.248C54.64 22.736 54.48 22.12 54.48 21.4C54.48 20.912 54.564 20.384 54.732 19.816C54.9 19.24 55.092 18.744 55.308 18.328L56.352 18.808ZM67.716 22C67.188 22 66.764 21.812 66.444 21.436C66.132 21.052 65.868 20.508 65.652 19.804L66.6 19.228C66.712 19.676 66.852 19.992 67.02 20.176C67.188 20.36 67.42 20.452 67.716 20.452H67.812L67.896 21.22L67.812 22H67.716ZM63 24.172C63.52 23.972 63.996 23.728 64.428 23.44C64.86 23.152 65.2 22.86 65.448 22.564C65.696 22.268 65.82 22.004 65.82 21.772C65.82 21.596 65.772 21.304 65.676 20.896C65.58 20.48 65.452 19.96 65.292 19.336C65.228 19.112 65.184 18.944 65.16 18.832L66.36 18.364C66.544 18.924 66.692 19.52 66.804 20.152C66.924 20.776 66.984 21.316 66.984 21.772C66.984 22.532 66.672 23.24 66.048 23.896C65.432 24.552 64.624 25.08 63.624 25.48L63 24.172ZM67.6978 20.452H68.3338C68.9258 20.452 69.3538 20.384 69.6178 20.248C69.8818 20.104 70.0138 19.888 70.0138 19.6C70.0138 19.416 69.9258 19.06 69.7498 18.532C69.5818 18.004 69.4538 17.644 69.3658 17.452L70.4938 16.84C70.6458 17.16 70.8018 17.6 70.9618 18.16C71.1298 18.72 71.2138 19.208 71.2138 19.624C71.2138 20.4 70.9658 20.992 70.4698 21.4C69.9738 21.8 69.2618 22 68.3338 22H67.6978V20.452ZM68.1898 24.016C68.6378 23.552 68.9778 23.208 69.2098 22.984L70.2298 24.016L69.8938 24.352L69.2098 25.036L68.1898 24.016ZM70.9922 24.172C71.5122 23.972 71.9882 23.728 72.4202 23.44C72.8522 23.152 73.1922 22.86 73.4402 22.564C73.6882 22.268 73.8122 22.004 73.8122 21.772C73.8122 21.596 73.7642 21.304 73.6682 20.896C73.5722 20.48 73.4442 19.96 73.2842 19.336C73.2202 19.112 73.1762 18.944 73.1522 18.832L74.3522 18.364C74.5362 18.924 74.6842 19.52 74.7962 20.152C74.9162 20.776 74.9762 21.316 74.9762 21.772C74.9762 22.532 74.6642 23.24 74.0402 23.896C73.4242 24.552 72.6162 25.08 71.6162 25.48L70.9922 24.172ZM77.413 13.288C77.493 13.856 77.557 14.716 77.605 15.868C77.653 17.012 77.673 18 77.665 18.832C77.657 19.272 77.677 19.604 77.725 19.828C77.773 20.044 77.877 20.204 78.037 20.308C78.197 20.404 78.445 20.452 78.781 20.452H78.841L78.913 21.22L78.841 22H78.781C77.909 22 77.293 21.764 76.933 21.292C76.573 20.82 76.393 20.08 76.393 19.072C76.393 18.152 76.365 17.16 76.309 16.096C76.261 15.024 76.193 14.188 76.105 13.588L77.413 13.288ZM84.1634 14.428L80.5994 15.964C81.1274 16.412 81.6394 16.988 82.1354 17.692C82.6314 18.388 82.8794 19.052 82.8794 19.684C82.8794 19.86 82.8554 20.032 82.8074 20.2C82.6394 20.8 82.2194 21.252 81.5474 21.556C80.8834 21.852 80.0354 22 79.0034 22H78.6314V20.452H79.0034C79.7314 20.452 80.3194 20.392 80.7674 20.272C81.2234 20.152 81.5234 19.984 81.6674 19.768C81.6754 19.376 81.4674 18.896 81.0434 18.328C80.6194 17.752 79.9914 17.124 79.1594 16.444L79.3034 15.076L83.7314 13.18L84.1634 14.428ZM91.7819 22.132C91.7739 21.956 91.7699 21.696 91.7699 21.352C91.7699 21.008 91.7739 20.752 91.7819 20.584C92.5179 20.584 93.1459 20.54 93.6659 20.452C94.1939 20.364 94.5939 20.26 94.8659 20.14C95.1379 20.02 95.2819 19.916 95.2979 19.828C95.2499 19.468 95.1419 19.044 94.9739 18.556C94.8139 18.068 94.6819 17.7 94.5779 17.452L95.7059 16.84C95.8979 17.272 96.0699 17.78 96.2219 18.364C96.3739 18.94 96.4419 19.424 96.4259 19.816C96.3939 20.568 95.9499 21.144 95.0939 21.544C94.2459 21.936 93.1419 22.132 91.7819 22.132ZM88.7459 17.812C88.5059 18.54 88.4019 19.08 88.4339 19.432C88.4979 19.776 88.8259 20.056 89.4179 20.272C90.0099 20.48 90.8379 20.584 91.9019 20.584C91.9179 20.752 91.9259 21.008 91.9259 21.352C91.9259 21.696 91.9179 21.956 91.9019 22.132C90.4859 22.14 89.3739 21.932 88.5659 21.508C87.7579 21.084 87.3179 20.484 87.2459 19.708C87.2379 19.644 87.2339 19.548 87.2339 19.42C87.2339 19.084 87.2779 18.728 87.3659 18.352C87.4539 17.968 87.5659 17.616 87.7019 17.296L88.7459 17.812ZM90.7859 24.088C91.2339 23.624 91.5739 23.28 91.8059 23.056L92.8259 24.088L92.4899 24.424L91.8059 25.108L90.7859 24.088ZM98.8583 13.288C98.9383 13.856 99.0023 14.716 99.0503 15.868C99.0983 17.012 99.1183 18 99.1103 18.832C99.1023 19.272 99.1223 19.604 99.1703 19.828C99.2183 20.044 99.3223 20.204 99.4823 20.308C99.6423 20.404 99.8903 20.452 100.226 20.452H100.286L100.358 21.22L100.286 22H100.226C99.3543 22 98.7383 21.764 98.3783 21.292C98.0183 20.82 97.8383 20.08 97.8383 19.072C97.8383 18.152 97.8103 17.16 97.7543 16.096C97.7063 15.024 97.6383 14.188 97.5503 13.588L98.8583 13.288ZM106.854 20.452H106.89C107.162 20.452 107.41 20.38 107.634 20.236C107.866 20.092 107.99 19.924 108.006 19.732L108.954 19.852C108.922 20.244 108.806 20.604 108.606 20.932C108.414 21.26 108.166 21.52 107.862 21.712C107.566 21.904 107.242 22 106.89 22H106.854V20.452ZM110.046 20.452L110.118 21.22L110.034 22H109.974C109.502 22 109.09 21.86 108.738 21.58C108.394 21.292 108.134 20.88 107.958 20.344C107.87 20.064 107.726 19.388 107.526 18.316L108.642 18.016C108.738 18.536 108.814 18.936 108.87 19.216C108.926 19.488 108.982 19.696 109.038 19.84C109.102 20.04 109.21 20.192 109.362 20.296C109.514 20.4 109.718 20.452 109.974 20.452H110.046ZM103.626 22V20.452H103.674C104.098 20.452 104.438 20.212 104.694 19.732C104.854 19.42 104.99 18.936 105.102 18.28L106.23 18.328C106.134 18.808 106.086 19.196 106.086 19.492C106.086 20.132 106.35 20.452 106.878 20.452H106.914L106.986 21.22L106.914 22H106.878C106.438 22 106.074 21.876 105.786 21.628C105.498 21.38 105.302 21.032 105.198 20.584L105.474 20.572C105.258 21.012 104.994 21.36 104.682 21.616C104.378 21.872 104.038 22 103.662 22H103.626ZM100.206 22L100.122 21.22L100.206 20.452H100.254C100.518 20.452 100.774 20.392 101.022 20.272C101.27 20.152 101.458 20.004 101.586 19.828C101.754 19.62 101.882 19.392 101.97 19.144C102.066 18.896 102.146 18.636 102.21 18.364L103.338 18.484C103.338 18.492 103.318 18.584 103.278 18.76C103.158 19.224 103.098 19.568 103.098 19.792C103.098 20.016 103.142 20.184 103.23 20.296C103.318 20.4 103.458 20.452 103.65 20.452H103.674L103.758 21.22L103.674 22H103.626C103.274 22 102.97 21.904 102.714 21.712C102.466 21.512 102.302 21.248 102.222 20.92C101.966 21.272 101.67 21.54 101.334 21.724C100.998 21.908 100.634 22 100.242 22H100.206ZM109.885 20.452H110.845C111.813 20.452 112.717 20.344 113.557 20.128C114.405 19.904 115.285 19.548 116.197 19.06C116.453 18.916 116.717 18.784 116.989 18.664C117.261 18.544 117.477 18.464 117.637 18.424L117.685 19.396C117.253 19.364 116.837 19.288 116.437 19.168C116.045 19.048 115.597 18.864 115.093 18.616C114.365 18.24 113.737 18.052 113.209 18.052C112.897 18.052 112.617 18.14 112.369 18.316C112.121 18.492 111.933 18.696 111.805 18.928L110.929 18.292C111.209 17.724 111.545 17.296 111.937 17.008C112.329 16.712 112.769 16.564 113.257 16.564C113.601 16.564 113.929 16.624 114.241 16.744C114.561 16.856 115.005 17.06 115.573 17.356C116.069 17.604 116.477 17.792 116.797 17.92C117.117 18.048 117.469 18.152 117.853 18.232L117.901 19.612C117.677 19.676 117.309 19.852 116.797 20.14C116.725 20.172 116.617 20.228 116.473 20.308C115.713 20.708 115.041 21.028 114.457 21.268C113.881 21.508 113.281 21.692 112.657 21.82C112.041 21.94 111.357 22 110.605 22H109.885V20.452Z" fill="#A0AEC0"/>
<g filter="url(#filter0_d_762_5605)">
<rect x="140" y="4" width="30" height="30" rx="6" fill="white" shape-rendering="crispEdges"/>
<path fill-rule="evenodd" clip-rule="evenodd" d="M155.501 20.6441C153.055 20.6441 150.91 22.0829 150.91 23.7223C150.91 25.8316 154.366 25.8316 155.501 25.8316C156.636 25.8316 160.091 25.8316 160.091 23.7085C160.091 22.076 157.946 20.6441 155.501 20.6441Z" fill="#4FD1C5"/>
<path fill-rule="evenodd" clip-rule="evenodd" d="M155.477 19.2763H155.496C157.18 19.2763 158.55 17.9063 158.55 16.222C158.55 14.5382 157.18 13.1682 155.496 13.1682C153.812 13.1682 152.442 14.5382 152.442 16.2207C152.436 17.8995 153.797 19.2701 155.477 19.2763Z" fill="#4FD1C5"/>
</g>
<defs>
<filter id="filter0_d_762_5605" x="134.5" y="2" width="41" height="41" filterUnits="userSpaceOnUse" color-interpolation-filters="sRGB">
<feFlood flood-opacity="0" result="BackgroundImageFix"/>
<feColorMatrix in="SourceAlpha" type="matrix" values="0 0 0 0 0 0 0 0 0 0 0 0 0 0 0 0 0 0 127 0" result="hardAlpha"/>
<feOffset dy="3.5"/>
<feGaussianBlur stdDeviation="2.75"/>
<feComposite in2="hardAlpha" operator="out"/>
<feColorMatrix type="matrix" values="0 0 0 0 0 0 0 0 0 0 0 0 0 0 0 0 0 0 0.02 0"/>
<feBlend mode="normal" in2="BackgroundImageFix" result="effect1_dropShadow_762_5605"/>
<feBlend mode="normal" in="SourceGraphic" in2="effect1_dropShadow_762_5605" result="shape"/>
</filter>
</defs>
</svg>
