<svg width="192" height="49" viewBox="0 0 192 49" fill="none" xmlns="http://www.w3.org/2000/svg">
<g filter="url(#filter0_d_762_5603)">
<rect x="6" y="2" width="180" height="38" rx="6" fill="white" shape-rendering="crispEdges"/>
<path d="M81.352 20.808C81.144 21.256 80.98 21.672 80.86 22.056C80.748 22.44 80.692 22.824 80.692 23.208C80.692 23.896 80.904 24.412 81.328 24.756C81.76 25.108 82.376 25.284 83.176 25.284C83.88 25.284 84.492 25.148 85.012 24.876C85.532 24.612 85.888 24.292 86.08 23.916C86.088 23.892 85.96 23.84 85.696 23.76C85.432 23.672 85.096 23.568 84.688 23.448C84.056 23.264 83.608 23.056 83.344 22.824C83.088 22.584 82.96 22.232 82.96 21.768C82.96 21.144 83.12 20.548 83.44 19.98C83.76 19.412 84.184 18.956 84.712 18.612C85.24 18.26 85.796 18.084 86.38 18.084C86.612 18.084 86.84 18.116 87.064 18.18C87.296 18.244 87.464 18.32 87.568 18.408L87.124 19.764C87.036 19.732 86.916 19.704 86.764 19.68C86.612 19.656 86.472 19.644 86.344 19.644C86.008 19.644 85.684 19.724 85.372 19.884C85.068 20.036 84.808 20.24 84.592 20.496C84.384 20.744 84.248 21.004 84.184 21.276C84.176 21.308 84.172 21.352 84.172 21.408C84.172 21.544 84.264 21.668 84.448 21.78C84.632 21.884 84.984 22.004 85.504 22.14C86.008 22.268 86.392 22.404 86.656 22.548C86.92 22.692 87.1 22.848 87.196 23.016C87.292 23.176 87.34 23.368 87.34 23.592C87.34 24.136 87.156 24.656 86.788 25.152C86.428 25.656 85.928 26.064 85.288 26.376C84.656 26.688 83.952 26.844 83.176 26.844C82.472 26.844 81.84 26.708 81.28 26.436C80.72 26.164 80.28 25.768 79.96 25.248C79.64 24.736 79.48 24.12 79.48 23.4C79.48 22.912 79.564 22.384 79.732 21.816C79.9 21.24 80.092 20.744 80.308 20.328L81.352 20.808ZM92.716 24C92.188 24 91.764 23.812 91.444 23.436C91.132 23.052 90.868 22.508 90.652 21.804L91.6 21.228C91.712 21.676 91.852 21.992 92.02 22.176C92.188 22.36 92.42 22.452 92.716 22.452H92.812L92.896 23.22L92.812 24H92.716ZM88 26.172C88.52 25.972 88.996 25.728 89.428 25.44C89.86 25.152 90.2 24.86 90.448 24.564C90.696 24.268 90.82 24.004 90.82 23.772C90.82 23.596 90.772 23.304 90.676 22.896C90.58 22.48 90.452 21.96 90.292 21.336C90.228 21.112 90.184 20.944 90.16 20.832L91.36 20.364C91.544 20.924 91.692 21.52 91.804 22.152C91.924 22.776 91.984 23.316 91.984 23.772C91.984 24.532 91.672 25.24 91.048 25.896C90.432 26.552 89.624 27.08 88.624 27.48L88 26.172ZM92.6978 22.452H93.3338C93.9258 22.452 94.3538 22.384 94.6178 22.248C94.8818 22.104 95.0138 21.888 95.0138 21.6C95.0138 21.416 94.9258 21.06 94.7498 20.532C94.5818 20.004 94.4538 19.644 94.3658 19.452L95.4938 18.84C95.6458 19.16 95.8018 19.6 95.9618 20.16C96.1298 20.72 96.2138 21.208 96.2138 21.624C96.2138 22.4 95.9658 22.992 95.4698 23.4C94.9738 23.8 94.2618 24 93.3338 24H92.6978V22.452ZM93.1898 26.016C93.6378 25.552 93.9778 25.208 94.2098 24.984L95.2298 26.016L94.8938 26.352L94.2098 27.036L93.1898 26.016ZM95.9922 26.172C96.5122 25.972 96.9882 25.728 97.4202 25.44C97.8522 25.152 98.1922 24.86 98.4402 24.564C98.6882 24.268 98.8122 24.004 98.8122 23.772C98.8122 23.596 98.7642 23.304 98.6682 22.896C98.5722 22.48 98.4442 21.96 98.2842 21.336C98.2202 21.112 98.1762 20.944 98.1522 20.832L99.3522 20.364C99.5362 20.924 99.6842 21.52 99.7962 22.152C99.9162 22.776 99.9762 23.316 99.9762 23.772C99.9762 24.532 99.6642 25.24 99.0402 25.896C98.4242 26.552 97.6162 27.08 96.6162 27.48L95.9922 26.172ZM102.413 15.288C102.493 15.856 102.557 16.716 102.605 17.868C102.653 19.012 102.673 20 102.665 20.832C102.657 21.272 102.677 21.604 102.725 21.828C102.773 22.044 102.877 22.204 103.037 22.308C103.197 22.404 103.445 22.452 103.781 22.452H103.841L103.913 23.22L103.841 24H103.781C102.909 24 102.293 23.764 101.933 23.292C101.573 22.82 101.393 22.08 101.393 21.072C101.393 20.152 101.365 19.16 101.309 18.096C101.261 17.024 101.193 16.188 101.105 15.588L102.413 15.288ZM109.163 16.428L105.599 17.964C106.127 18.412 106.639 18.988 107.135 19.692C107.631 20.388 107.879 21.052 107.879 21.684C107.879 21.86 107.855 22.032 107.807 22.2C107.639 22.8 107.219 23.252 106.547 23.556C105.883 23.852 105.035 24 104.003 24H103.631V22.452H104.003C104.731 22.452 105.319 22.392 105.767 22.272C106.223 22.152 106.523 21.984 106.667 21.768C106.675 21.376 106.467 20.896 106.043 20.328C105.619 19.752 104.991 19.124 104.159 18.444L104.303 17.076L108.731 15.18L109.163 16.428ZM116.782 24.132C116.774 23.956 116.77 23.696 116.77 23.352C116.77 23.008 116.774 22.752 116.782 22.584C117.518 22.584 118.146 22.54 118.666 22.452C119.194 22.364 119.594 22.26 119.866 22.14C120.138 22.02 120.282 21.916 120.298 21.828C120.25 21.468 120.142 21.044 119.974 20.556C119.814 20.068 119.682 19.7 119.578 19.452L120.706 18.84C120.898 19.272 121.07 19.78 121.222 20.364C121.374 20.94 121.442 21.424 121.426 21.816C121.394 22.568 120.95 23.144 120.094 23.544C119.246 23.936 118.142 24.132 116.782 24.132ZM113.746 19.812C113.506 20.54 113.402 21.08 113.434 21.432C113.498 21.776 113.826 22.056 114.418 22.272C115.01 22.48 115.838 22.584 116.902 22.584C116.918 22.752 116.926 23.008 116.926 23.352C116.926 23.696 116.918 23.956 116.902 24.132C115.486 24.14 114.374 23.932 113.566 23.508C112.758 23.084 112.318 22.484 112.246 21.708C112.238 21.644 112.234 21.548 112.234 21.42C112.234 21.084 112.278 20.728 112.366 20.352C112.454 19.968 112.566 19.616 112.702 19.296L113.746 19.812ZM115.786 26.088C116.234 25.624 116.574 25.28 116.806 25.056L117.826 26.088L117.49 26.424L116.806 27.108L115.786 26.088ZM123.858 15.288C123.938 15.856 124.002 16.716 124.05 17.868C124.098 19.012 124.118 20 124.11 20.832C124.102 21.272 124.122 21.604 124.17 21.828C124.218 22.044 124.322 22.204 124.482 22.308C124.642 22.404 124.89 22.452 125.226 22.452H125.286L125.358 23.22L125.286 24H125.226C124.354 24 123.738 23.764 123.378 23.292C123.018 22.82 122.838 22.08 122.838 21.072C122.838 20.152 122.81 19.16 122.754 18.096C122.706 17.024 122.638 16.188 122.55 15.588L123.858 15.288ZM131.854 22.452H131.89C132.162 22.452 132.41 22.38 132.634 22.236C132.866 22.092 132.99 21.924 133.006 21.732L133.954 21.852C133.922 22.244 133.806 22.604 133.606 22.932C133.414 23.26 133.166 23.52 132.862 23.712C132.566 23.904 132.242 24 131.89 24H131.854V22.452ZM135.046 22.452L135.118 23.22L135.034 24H134.974C134.502 24 134.09 23.86 133.738 23.58C133.394 23.292 133.134 22.88 132.958 22.344C132.87 22.064 132.726 21.388 132.526 20.316L133.642 20.016C133.738 20.536 133.814 20.936 133.87 21.216C133.926 21.488 133.982 21.696 134.038 21.84C134.102 22.04 134.21 22.192 134.362 22.296C134.514 22.4 134.718 22.452 134.974 22.452H135.046ZM128.626 24V22.452H128.674C129.098 22.452 129.438 22.212 129.694 21.732C129.854 21.42 129.99 20.936 130.102 20.28L131.23 20.328C131.134 20.808 131.086 21.196 131.086 21.492C131.086 22.132 131.35 22.452 131.878 22.452H131.914L131.986 23.22L131.914 24H131.878C131.438 24 131.074 23.876 130.786 23.628C130.498 23.38 130.302 23.032 130.198 22.584L130.474 22.572C130.258 23.012 129.994 23.36 129.682 23.616C129.378 23.872 129.038 24 128.662 24H128.626ZM125.206 24L125.122 23.22L125.206 22.452H125.254C125.518 22.452 125.774 22.392 126.022 22.272C126.27 22.152 126.458 22.004 126.586 21.828C126.754 21.62 126.882 21.392 126.97 21.144C127.066 20.896 127.146 20.636 127.21 20.364L128.338 20.484C128.338 20.492 128.318 20.584 128.278 20.76C128.158 21.224 128.098 21.568 128.098 21.792C128.098 22.016 128.142 22.184 128.23 22.296C128.318 22.4 128.458 22.452 128.65 22.452H128.674L128.758 23.22L128.674 24H128.626C128.274 24 127.97 23.904 127.714 23.712C127.466 23.512 127.302 23.248 127.222 22.92C126.966 23.272 126.67 23.54 126.334 23.724C125.998 23.908 125.634 24 125.242 24H125.206ZM134.885 22.452H135.845C136.813 22.452 137.717 22.344 138.557 22.128C139.405 21.904 140.285 21.548 141.197 21.06C141.453 20.916 141.717 20.784 141.989 20.664C142.261 20.544 142.477 20.464 142.637 20.424L142.685 21.396C142.253 21.364 141.837 21.288 141.437 21.168C141.045 21.048 140.597 20.864 140.093 20.616C139.365 20.24 138.737 20.052 138.209 20.052C137.897 20.052 137.617 20.14 137.369 20.316C137.121 20.492 136.933 20.696 136.805 20.928L135.929 20.292C136.209 19.724 136.545 19.296 136.937 19.008C137.329 18.712 137.769 18.564 138.257 18.564C138.601 18.564 138.929 18.624 139.241 18.744C139.561 18.856 140.005 19.06 140.573 19.356C141.069 19.604 141.477 19.792 141.797 19.92C142.117 20.048 142.469 20.152 142.853 20.232L142.901 21.612C142.677 21.676 142.309 21.852 141.797 22.14C141.725 22.172 141.617 22.228 141.473 22.308C140.713 22.708 140.041 23.028 139.457 23.268C138.881 23.508 138.281 23.692 137.657 23.82C137.041 23.94 136.357 24 135.605 24H134.885V22.452Z" fill="#2B2B2B"/>
<rect x="156" y="6" width="30" height="30" rx="6" fill="#4FD1C5"/>
<path fill-rule="evenodd" clip-rule="evenodd" d="M171.501 22.6441C169.055 22.6441 166.91 24.0829 166.91 25.7223C166.91 27.8316 170.366 27.8316 171.501 27.8316C172.636 27.8316 176.091 27.8316 176.091 25.7085C176.091 24.076 173.946 22.6441 171.501 22.6441Z" fill="#EDFAF9"/>
<path fill-rule="evenodd" clip-rule="evenodd" d="M171.477 21.2763H171.496C173.18 21.2763 174.55 19.9063 174.55 18.222C174.55 16.5382 173.18 15.1682 171.496 15.1682C169.812 15.1682 168.442 16.5382 168.442 18.2207C168.436 19.8995 169.797 21.2701 171.477 21.2763Z" fill="#EDFAF9"/>
</g>
<defs>
<filter id="filter0_d_762_5603" x="0.5" y="0" width="191" height="49" filterUnits="userSpaceOnUse" color-interpolation-filters="sRGB">
<feFlood flood-opacity="0" result="BackgroundImageFix"/>
<feColorMatrix in="SourceAlpha" type="matrix" values="0 0 0 0 0 0 0 0 0 0 0 0 0 0 0 0 0 0 127 0" result="hardAlpha"/>
<feOffset dy="3.5"/>
<feGaussianBlur stdDeviation="2.75"/>
<feComposite in2="hardAlpha" operator="out"/>
<feColorMatrix type="matrix" values="0 0 0 0 0 0 0 0 0 0 0 0 0 0 0 0 0 0 0.02 0"/>
<feBlend mode="normal" in2="BackgroundImageFix" result="effect1_dropShadow_762_5603"/>
<feBlend mode="normal" in="SourceGraphic" in2="effect1_dropShadow_762_5603" result="shape"/>
</filter>
</defs>
</svg>
