<svg width="22" height="22" viewBox="0 0 22 22" fill="none" xmlns="http://www.w3.org/2000/svg">
<path fill-rule="evenodd" clip-rule="evenodd" d="M14.9514 12.4159C14.3994 12.4159 13.9464 11.9689 13.9464 11.4159C13.9464 10.8629 14.3894 10.4159 14.9424 10.4159H14.9514C15.5034 10.4159 15.9514 10.8629 15.9514 11.4159C15.9514 11.9689 15.5034 12.4159 14.9514 12.4159ZM10.9424 12.4159C10.3894 12.4159 9.93737 11.9689 9.93737 11.4159C9.93737 10.8629 10.3814 10.4159 10.9334 10.4159H10.9424C11.4944 10.4159 11.9424 10.8629 11.9424 11.4159C11.9424 11.9689 11.4944 12.4159 10.9424 12.4159ZM6.93337 12.4159C6.38137 12.4159 5.92937 11.9689 5.92937 11.4159C5.92937 10.8629 6.37137 10.4159 6.92437 10.4159H6.93337C7.48537 10.4159 7.93337 10.8629 7.93337 11.4159C7.93337 11.9689 7.48537 12.4159 6.93337 12.4159ZM18.4274 3.57593C16.4464 1.59493 13.8094 0.50293 11.0034 0.50293C8.19737 0.50293 5.56037 1.59493 3.57937 3.57593C0.477368 6.67893 -0.368632 11.4409 1.45637 15.3749C1.48937 15.5369 1.40037 16.1959 1.33637 16.6779C1.09437 18.4839 0.970368 19.8099 1.58337 20.4239C2.19537 21.0369 3.52037 20.9129 5.32637 20.6699C5.80837 20.6059 6.47537 20.5199 6.57937 20.5309C7.98537 21.1819 9.48837 21.4969 10.9804 21.4969C13.7184 21.4969 16.4204 20.4349 18.4274 18.4269C22.5204 14.3319 22.5214 7.66993 18.4274 3.57593Z" fill="#4FD1C5"/>
</svg>
