<svg width="17" height="16" viewBox="0 0 17 16" fill="none" xmlns="http://www.w3.org/2000/svg">
<path d="M8.50065 15.1668C4.54732 15.1668 1.33398 11.9535 1.33398 8.00016C1.33398 4.04683 4.54732 0.833496 8.50065 0.833496C12.454 0.833496 15.6673 4.04683 15.6673 8.00016C15.6673 11.9535 12.454 15.1668 8.50065 15.1668ZM8.50065 1.8335C5.10065 1.8335 2.33398 4.60016 2.33398 8.00016C2.33398 11.4002 5.10065 14.1668 8.50065 14.1668C11.9007 14.1668 14.6673 11.4002 14.6673 8.00016C14.6673 4.60016 11.9007 1.8335 8.50065 1.8335Z" fill="#868686"/>
<path d="M6.61357 10.3869C6.4869 10.3869 6.36023 10.3402 6.26023 10.2402C6.0669 10.0469 6.0669 9.7269 6.26023 9.53357L10.0336 5.76023C10.2269 5.5669 10.5469 5.5669 10.7402 5.76023C10.9336 5.95357 10.9336 6.27357 10.7402 6.4669L6.9669 10.2402C6.87357 10.3402 6.74023 10.3869 6.61357 10.3869Z" fill="#868686"/>
<path d="M10.3869 10.3869C10.2602 10.3869 10.1336 10.3402 10.0336 10.2402L6.26023 6.4669C6.0669 6.27357 6.0669 5.95357 6.26023 5.76023C6.45357 5.5669 6.77357 5.5669 6.9669 5.76023L10.7402 9.53357C10.9336 9.7269 10.9336 10.0469 10.7402 10.2402C10.6402 10.3402 10.5136 10.3869 10.3869 10.3869Z" fill="#868686"/>
</svg>
