<svg width="25" height="24" viewBox="0 0 25 24" fill="none" xmlns="http://www.w3.org/2000/svg">
<path fill-rule="evenodd" clip-rule="evenodd" d="M16.0767 12.7497H13.2487V15.5737C13.2487 15.9877 12.9127 16.3237 12.4987 16.3237C12.0847 16.3237 11.7487 15.9877 11.7487 15.5737V12.7497H8.92072C8.50672 12.7497 8.17072 12.4137 8.17072 11.9997C8.17072 11.5857 8.50672 11.2497 8.92072 11.2497H11.7487V8.4257C11.7487 8.0117 12.0847 7.6757 12.4987 7.6757C12.9127 7.6757 13.2487 8.0117 13.2487 8.4257V11.2497H16.0767C16.4907 11.2497 16.8267 11.5857 16.8267 11.9997C16.8267 12.4137 16.4907 12.7497 16.0767 12.7497ZM12.4987 1.7627C4.93972 1.7627 2.26172 4.4407 2.26172 11.9997C2.26172 19.5587 4.93972 22.2367 12.4987 22.2367C20.0567 22.2367 22.7357 19.5587 22.7357 11.9997C22.7357 4.4407 20.0567 1.7627 12.4987 1.7627Z" fill="#4FD1C5"/>
</svg>
