<svg width="176" height="43" viewBox="0 0 176 43" fill="none" xmlns="http://www.w3.org/2000/svg">
<path d="M58.028 22.132C58.02 21.956 58.016 21.696 58.016 21.352C58.016 21.008 58.02 20.752 58.028 20.584C58.764 20.584 59.392 20.54 59.912 20.452C60.44 20.364 60.84 20.26 61.112 20.14C61.384 20.02 61.528 19.916 61.544 19.828C61.496 19.468 61.388 19.044 61.22 18.556C61.06 18.068 60.928 17.7 60.824 17.452L61.952 16.84C62.144 17.272 62.316 17.78 62.468 18.364C62.62 18.94 62.688 19.424 62.672 19.816C62.64 20.568 62.196 21.144 61.34 21.544C60.492 21.936 59.388 22.132 58.028 22.132ZM54.992 17.812C54.752 18.54 54.648 19.08 54.68 19.432C54.744 19.776 55.072 20.056 55.664 20.272C56.256 20.48 57.084 20.584 58.148 20.584C58.164 20.752 58.172 21.008 58.172 21.352C58.172 21.696 58.164 21.956 58.148 22.132C56.732 22.14 55.62 21.932 54.812 21.508C54.004 21.084 53.564 20.484 53.492 19.708C53.484 19.644 53.48 19.548 53.48 19.42C53.48 19.084 53.524 18.728 53.612 18.352C53.7 17.968 53.812 17.616 53.948 17.296L54.992 17.812ZM57.008 16.408L57.944 17.332L57.008 18.28L56.072 17.332L57.008 16.408ZM59.108 16.408L60.044 17.332L59.108 18.28L58.172 17.332L59.108 16.408ZM63.9884 21.928C64.0524 21.448 64.0844 20.636 64.0844 19.492C64.0844 18.396 64.0524 17.248 63.9884 16.048C63.9324 14.848 63.8684 14.028 63.7964 13.588L65.1164 13.288C65.1804 13.72 65.2404 14.52 65.2964 15.688C65.3524 16.848 65.3804 17.984 65.3804 19.096C65.3804 20.416 65.3364 21.408 65.2484 22.072L63.9884 21.928ZM65.0938 24.172C65.6138 23.972 66.0898 23.728 66.5218 23.44C66.9538 23.152 67.2938 22.86 67.5418 22.564C67.7898 22.268 67.9138 22.004 67.9138 21.772C67.9138 21.596 67.8658 21.304 67.7698 20.896C67.6738 20.48 67.5458 19.96 67.3858 19.336C67.3218 19.112 67.2778 18.944 67.2538 18.832L68.4538 18.364C68.6378 18.924 68.7858 19.52 68.8978 20.152C69.0178 20.776 69.0778 21.316 69.0778 21.772C69.0778 22.532 68.7658 23.24 68.1418 23.896C67.5258 24.552 66.7178 25.08 65.7178 25.48L65.0938 24.172ZM74.2746 22C73.7466 22 73.3226 21.812 73.0026 21.436C72.6906 21.052 72.4266 20.508 72.2106 19.804L73.1586 19.228C73.2706 19.676 73.4106 19.992 73.5786 20.176C73.7466 20.36 73.9786 20.452 74.2746 20.452H74.3706L74.4546 21.22L74.3706 22H74.2746ZM69.5586 24.172C70.0786 23.972 70.5546 23.728 70.9866 23.44C71.4186 23.152 71.7586 22.86 72.0066 22.564C72.2546 22.268 72.3786 22.004 72.3786 21.772C72.3786 21.596 72.3306 21.304 72.2346 20.896C72.1386 20.48 72.0106 19.96 71.8506 19.336C71.7866 19.112 71.7426 18.944 71.7186 18.832L72.9186 18.364C73.1026 18.924 73.2506 19.52 73.3626 20.152C73.4826 20.776 73.5426 21.316 73.5426 21.772C73.5426 22.532 73.2306 23.24 72.6066 23.896C71.9906 24.552 71.1826 25.08 70.1826 25.48L69.5586 24.172ZM74.2324 20.452H74.5204C75.3444 20.452 76.0004 20.408 76.4884 20.32C76.9844 20.232 77.3604 20.1 77.6164 19.924C77.8724 19.748 78.0564 19.512 78.1684 19.216C78.1844 18.912 78.1044 18.628 77.9284 18.364C77.7524 18.1 77.5164 17.968 77.2204 17.968C76.9644 17.968 76.7404 18.076 76.5484 18.292C76.3564 18.508 76.2404 18.76 76.2004 19.048C76.2084 19.288 76.3124 19.516 76.5124 19.732C76.7204 19.948 77.0204 20.124 77.4124 20.26C77.8044 20.388 78.2644 20.452 78.7924 20.452H80.0644L80.1484 21.22L80.0644 22H79.3444C78.5284 22 77.7924 21.876 77.1364 21.628C76.4804 21.372 75.9684 21.032 75.6004 20.608C75.2324 20.176 75.0484 19.708 75.0484 19.204C75.0484 19.132 75.0564 19.032 75.0724 18.904C75.1444 18.448 75.2884 18.032 75.5044 17.656C75.7284 17.28 75.9964 16.984 76.3084 16.768C76.6284 16.544 76.9644 16.432 77.3164 16.432C77.7084 16.432 78.0564 16.556 78.3604 16.804C78.6644 17.052 78.9004 17.372 79.0684 17.764C79.2364 18.156 79.3204 18.556 79.3204 18.964C79.3204 19.044 79.3124 19.164 79.2964 19.324C79.1684 20.236 78.7084 20.912 77.9164 21.352C77.1324 21.784 76.0004 22 74.5204 22H74.2324V20.452ZM76.2604 13.912L77.1964 14.836L76.2604 15.784L75.3244 14.836L76.2604 13.912ZM78.3604 13.912L79.2964 14.836L78.3604 15.784L77.4244 14.836L78.3604 13.912ZM82.3166 19.54C82.8046 19.876 83.2526 20.144 83.6606 20.344C84.0686 20.536 84.3726 20.632 84.5726 20.632C84.6526 20.632 84.7086 20.62 84.7406 20.596C84.9486 20.468 85.0526 20.22 85.0526 19.852C85.0526 19.508 84.9606 19.192 84.7766 18.904C84.5926 18.616 84.3566 18.472 84.0686 18.472C83.6046 18.472 83.0766 19.128 82.4846 20.44C82.2526 20.96 81.9326 21.352 81.5246 21.616C81.1166 21.872 80.6526 22 80.1326 22H79.9166L79.9406 20.452H80.1686C80.8006 20.452 81.3206 20.076 81.7286 19.324C82.0966 18.604 82.4686 18.052 82.8446 17.668C83.2206 17.276 83.6366 17.08 84.0926 17.08C84.5086 17.08 84.8726 17.212 85.1846 17.476C85.4966 17.74 85.7366 18.08 85.9046 18.496C86.0726 18.912 86.1566 19.348 86.1566 19.804C86.1566 20.26 86.0686 20.676 85.8926 21.052C85.7246 21.428 85.4766 21.716 85.1486 21.916C84.9806 22.012 84.7806 22.06 84.5486 22.06C83.8686 22.06 82.9246 21.652 81.7166 20.836L82.3166 19.54ZM90.2043 24.124C91.5403 23.836 92.5163 23.476 93.1323 23.044C93.7483 22.612 94.0563 22.056 94.0563 21.376C94.0483 20.896 93.9803 20.428 93.8523 19.972C93.7323 19.508 93.5563 19.128 93.3243 18.832C93.0923 18.536 92.8283 18.388 92.5323 18.388C92.3643 18.388 92.2043 18.456 92.0523 18.592C91.9083 18.72 91.7923 18.884 91.7043 19.084C91.6163 19.284 91.5723 19.472 91.5723 19.648C91.5723 19.776 91.6043 19.892 91.6683 19.996C91.7883 20.164 92.0043 20.292 92.3163 20.38C92.6363 20.468 92.9963 20.512 93.3963 20.512C93.7563 20.512 94.0803 20.484 94.3683 20.428V21.88C93.9523 21.984 93.5443 22.036 93.1443 22.036C92.5843 22.036 92.0803 21.94 91.6323 21.748C91.1843 21.556 90.8683 21.264 90.6843 20.872C90.5483 20.592 90.4803 20.264 90.4803 19.888C90.4803 19.432 90.5763 18.98 90.7683 18.532C90.9603 18.076 91.2203 17.704 91.5483 17.416C91.8843 17.12 92.2483 16.972 92.6403 16.972C93.1203 16.972 93.5523 17.18 93.9363 17.596C94.3203 18.012 94.6163 18.548 94.8243 19.204C95.0403 19.86 95.1483 20.532 95.1483 21.22C95.1483 22.3 94.7523 23.212 93.9603 23.956C93.1683 24.708 92.0723 25.216 90.6723 25.48L90.2043 24.124ZM106.56 19.216C106.704 19.68 106.852 20.004 107.004 20.188C107.164 20.364 107.392 20.452 107.688 20.452H107.772L107.856 21.22L107.772 22H107.688C107.208 22 106.824 21.804 106.536 21.412C106.248 21.012 105.976 20.448 105.72 19.72L106.56 19.216ZM101.196 19.456C100.988 19.912 100.828 20.332 100.716 20.716C100.604 21.092 100.548 21.472 100.548 21.856C100.548 22.544 100.76 23.06 101.184 23.404C101.608 23.756 102.22 23.932 103.02 23.932C103.612 23.932 104.12 23.828 104.544 23.62C104.976 23.42 105.3 23.152 105.516 22.816C105.732 22.488 105.84 22.14 105.84 21.772C105.84 21.284 105.596 20.308 105.108 18.844L106.248 18.256C106.744 19.648 106.992 20.82 106.992 21.772C106.992 22.428 106.828 23.04 106.5 23.608C106.18 24.176 105.716 24.632 105.108 24.976C104.508 25.32 103.812 25.492 103.02 25.492C102.276 25.492 101.624 25.344 101.064 25.048C100.504 24.752 100.072 24.34 99.768 23.812C99.472 23.292 99.324 22.696 99.324 22.024C99.324 21.536 99.408 21.02 99.576 20.476C99.744 19.924 99.936 19.424 100.152 18.976L101.196 19.456ZM102.252 18.34C102.7 17.876 103.04 17.532 103.272 17.308L104.292 18.34L103.956 18.676L103.272 19.36L102.252 18.34ZM107.643 20.452H107.739C108.363 20.452 108.847 20.424 109.191 20.368C109.535 20.312 109.779 20.228 109.923 20.116C110.075 19.996 110.175 19.836 110.223 19.636C110.247 19.524 110.259 19.404 110.259 19.276C110.259 19.076 110.239 18.844 110.199 18.58C110.159 18.308 110.135 18.14 110.127 18.076L111.243 17.86C111.307 18.204 111.351 18.564 111.375 18.94C111.399 19.308 111.411 19.6 111.411 19.816C111.443 20 111.539 20.152 111.699 20.272C111.859 20.392 112.083 20.452 112.371 20.452H112.443L112.527 21.22L112.443 22H112.371C111.987 22 111.639 21.896 111.327 21.688C111.023 21.472 110.791 21.196 110.631 20.86L110.919 20.92C110.719 21.312 110.379 21.592 109.899 21.76C109.427 21.92 108.707 22 107.739 22H107.643V20.452ZM108.651 23.08L109.587 24.004L108.651 24.952L107.715 24.004L108.651 23.08ZM110.763 23.08L111.699 24.004L110.763 24.952L109.827 24.004L110.763 23.08ZM112.319 20.452H112.955C113.547 20.452 113.975 20.384 114.239 20.248C114.503 20.104 114.635 19.888 114.635 19.6C114.635 19.416 114.547 19.06 114.371 18.532C114.203 18.004 114.075 17.644 113.987 17.452L115.115 16.84C115.267 17.16 115.423 17.6 115.583 18.16C115.751 18.72 115.835 19.208 115.835 19.624C115.835 20.4 115.587 20.992 115.091 21.4C114.595 21.8 113.883 22 112.955 22H112.319V20.452ZM113.147 15.256C113.595 14.792 113.935 14.448 114.167 14.224L115.187 15.256L114.851 15.592L114.167 16.276L113.147 15.256ZM117.168 21.928C117.232 21.448 117.264 20.636 117.264 19.492C117.264 18.396 117.232 17.248 117.168 16.048C117.112 14.848 117.048 14.028 116.976 13.588L118.296 13.288C118.36 13.72 118.42 14.52 118.476 15.688C118.532 16.848 118.56 17.984 118.56 19.096C118.56 20.416 118.516 21.408 118.428 22.072L117.168 21.928ZM119.642 24.124C120.978 23.836 121.954 23.476 122.57 23.044C123.186 22.612 123.494 22.056 123.494 21.376C123.494 20.904 123.43 20.436 123.302 19.972C123.174 19.508 122.994 19.128 122.762 18.832C122.53 18.536 122.266 18.388 121.97 18.388C121.802 18.388 121.642 18.456 121.49 18.592C121.346 18.72 121.23 18.884 121.142 19.084C121.054 19.284 121.01 19.472 121.01 19.648C121.01 19.776 121.042 19.892 121.106 19.996C121.234 20.18 121.53 20.304 121.994 20.368C122.458 20.424 123.074 20.452 123.842 20.452H125.018L125.102 21.22L125.018 22L123.518 22.012C122.598 22.012 121.854 21.94 121.286 21.796C120.726 21.644 120.338 21.336 120.122 20.872C119.986 20.592 119.918 20.264 119.918 19.888C119.918 19.432 120.014 18.98 120.206 18.532C120.398 18.076 120.658 17.704 120.986 17.416C121.322 17.12 121.686 16.972 122.078 16.972C122.558 16.972 122.99 17.18 123.374 17.596C123.758 18.012 124.054 18.548 124.262 19.204C124.478 19.86 124.586 20.532 124.586 21.22C124.586 22.3 124.19 23.212 123.398 23.956C122.606 24.708 121.51 25.216 120.11 25.48L119.642 24.124ZM124.858 20.452H125.026C126.306 20.452 127.258 20.352 127.882 20.152C128.506 19.952 128.862 19.592 128.95 19.072C128.95 18.648 128.886 18.22 128.758 17.788C128.638 17.356 128.466 17 128.242 16.72C128.026 16.432 127.774 16.288 127.486 16.288C127.318 16.288 127.158 16.348 127.006 16.468C126.862 16.58 126.746 16.724 126.658 16.9C126.57 17.068 126.526 17.232 126.526 17.392C126.526 17.536 126.562 17.656 126.634 17.752C126.754 17.92 126.974 18.056 127.294 18.16C127.622 18.256 127.99 18.304 128.398 18.304C128.678 18.304 128.954 18.28 129.226 18.232V19.624C128.81 19.704 128.434 19.744 128.098 19.744C127.538 19.744 127.038 19.652 126.598 19.468C126.166 19.276 125.854 18.992 125.662 18.616C125.518 18.336 125.446 18 125.446 17.608C125.446 17.176 125.538 16.752 125.722 16.336C125.914 15.92 126.174 15.58 126.502 15.316C126.838 15.052 127.202 14.92 127.594 14.92C128.074 14.92 128.502 15.12 128.878 15.52C129.254 15.912 129.538 16.42 129.73 17.044C129.93 17.668 130.01 18.308 129.97 18.964C129.93 19.932 129.498 20.68 128.674 21.208C127.85 21.736 126.634 22 125.026 22H124.858V20.452ZM126.562 12.328L127.498 13.252L126.562 14.2L125.626 13.252L126.562 12.328ZM128.662 12.328L129.598 13.252L128.662 14.2L127.726 13.252L128.662 12.328Z" fill="#A0AEC0"/>
<g filter="url(#filter0_d_1071_2662)">
<rect x="140" y="4" width="30" height="30" rx="6" fill="white" shape-rendering="crispEdges"/>
<path fill-rule="evenodd" clip-rule="evenodd" d="M155.503 17.7812H155.498C155.239 17.7812 155.029 17.5712 155.029 17.3125C155.029 17.0538 155.239 16.8438 155.498 16.8438C155.756 16.8438 155.969 17.0538 155.969 17.3125C155.969 17.5712 155.762 17.7812 155.503 17.7812ZM155.969 21.9344C155.969 22.1931 155.759 22.4031 155.5 22.4031C155.241 22.4031 155.031 22.1931 155.031 21.9344V19.5C155.031 19.2413 155.241 19.0312 155.5 19.0312C155.759 19.0312 155.969 19.2413 155.969 19.5V21.9344ZM155.5 13.4062C151.001 13.4062 149.406 15.0013 149.406 19.5C149.406 23.9987 151.001 25.5938 155.5 25.5938C159.999 25.5938 161.594 23.9987 161.594 19.5C161.594 15.0013 159.999 13.4062 155.5 13.4062Z" fill="#4FD1C5"/>
</g>
<defs>
<filter id="filter0_d_1071_2662" x="134.5" y="2" width="41" height="41" filterUnits="userSpaceOnUse" color-interpolation-filters="sRGB">
<feFlood flood-opacity="0" result="BackgroundImageFix"/>
<feColorMatrix in="SourceAlpha" type="matrix" values="0 0 0 0 0 0 0 0 0 0 0 0 0 0 0 0 0 0 127 0" result="hardAlpha"/>
<feOffset dy="3.5"/>
<feGaussianBlur stdDeviation="2.75"/>
<feComposite in2="hardAlpha" operator="out"/>
<feColorMatrix type="matrix" values="0 0 0 0 0 0 0 0 0 0 0 0 0 0 0 0 0 0 0.02 0"/>
<feBlend mode="normal" in2="BackgroundImageFix" result="effect1_dropShadow_1071_2662"/>
<feBlend mode="normal" in="SourceGraphic" in2="effect1_dropShadow_1071_2662" result="shape"/>
</filter>
</defs>
</svg>
