<svg width="192" height="49" viewBox="0 0 192 49" fill="none" xmlns="http://www.w3.org/2000/svg">
<g filter="url(#filter0_d_1071_2667)">
<rect x="6" y="2" width="180" height="38" rx="6" fill="white" shape-rendering="crispEdges"/>
<path d="M72.028 24.132C72.02 23.956 72.016 23.696 72.016 23.352C72.016 23.008 72.02 22.752 72.028 22.584C72.764 22.584 73.392 22.54 73.912 22.452C74.44 22.364 74.84 22.26 75.112 22.14C75.384 22.02 75.528 21.916 75.544 21.828C75.496 21.468 75.388 21.044 75.22 20.556C75.06 20.068 74.928 19.7 74.824 19.452L75.952 18.84C76.144 19.272 76.316 19.78 76.468 20.364C76.62 20.94 76.688 21.424 76.672 21.816C76.64 22.568 76.196 23.144 75.34 23.544C74.492 23.936 73.388 24.132 72.028 24.132ZM68.992 19.812C68.752 20.54 68.648 21.08 68.68 21.432C68.744 21.776 69.072 22.056 69.664 22.272C70.256 22.48 71.084 22.584 72.148 22.584C72.164 22.752 72.172 23.008 72.172 23.352C72.172 23.696 72.164 23.956 72.148 24.132C70.732 24.14 69.62 23.932 68.812 23.508C68.004 23.084 67.564 22.484 67.492 21.708C67.484 21.644 67.48 21.548 67.48 21.42C67.48 21.084 67.524 20.728 67.612 20.352C67.7 19.968 67.812 19.616 67.948 19.296L68.992 19.812ZM71.008 18.408L71.944 19.332L71.008 20.28L70.072 19.332L71.008 18.408ZM73.108 18.408L74.044 19.332L73.108 20.28L72.172 19.332L73.108 18.408ZM77.9884 23.928C78.0524 23.448 78.0844 22.636 78.0844 21.492C78.0844 20.396 78.0524 19.248 77.9884 18.048C77.9324 16.848 77.8684 16.028 77.7964 15.588L79.1164 15.288C79.1804 15.72 79.2404 16.52 79.2964 17.688C79.3524 18.848 79.3804 19.984 79.3804 21.096C79.3804 22.416 79.3364 23.408 79.2484 24.072L77.9884 23.928ZM79.0938 26.172C79.6138 25.972 80.0898 25.728 80.5218 25.44C80.9538 25.152 81.2938 24.86 81.5418 24.564C81.7898 24.268 81.9138 24.004 81.9138 23.772C81.9138 23.596 81.8658 23.304 81.7698 22.896C81.6738 22.48 81.5458 21.96 81.3858 21.336C81.3218 21.112 81.2778 20.944 81.2538 20.832L82.4538 20.364C82.6378 20.924 82.7858 21.52 82.8978 22.152C83.0178 22.776 83.0778 23.316 83.0778 23.772C83.0778 24.532 82.7658 25.24 82.1418 25.896C81.5258 26.552 80.7178 27.08 79.7178 27.48L79.0938 26.172ZM88.2746 24C87.7466 24 87.3226 23.812 87.0026 23.436C86.6906 23.052 86.4266 22.508 86.2106 21.804L87.1586 21.228C87.2706 21.676 87.4106 21.992 87.5786 22.176C87.7466 22.36 87.9786 22.452 88.2746 22.452H88.3706L88.4546 23.22L88.3706 24H88.2746ZM83.5586 26.172C84.0786 25.972 84.5546 25.728 84.9866 25.44C85.4186 25.152 85.7586 24.86 86.0066 24.564C86.2546 24.268 86.3786 24.004 86.3786 23.772C86.3786 23.596 86.3306 23.304 86.2346 22.896C86.1386 22.48 86.0106 21.96 85.8506 21.336C85.7866 21.112 85.7426 20.944 85.7186 20.832L86.9186 20.364C87.1026 20.924 87.2506 21.52 87.3626 22.152C87.4826 22.776 87.5426 23.316 87.5426 23.772C87.5426 24.532 87.2306 25.24 86.6066 25.896C85.9906 26.552 85.1826 27.08 84.1826 27.48L83.5586 26.172ZM88.2324 22.452H88.5204C89.3444 22.452 90.0004 22.408 90.4884 22.32C90.9844 22.232 91.3604 22.1 91.6164 21.924C91.8724 21.748 92.0564 21.512 92.1684 21.216C92.1844 20.912 92.1044 20.628 91.9284 20.364C91.7524 20.1 91.5164 19.968 91.2204 19.968C90.9644 19.968 90.7404 20.076 90.5484 20.292C90.3564 20.508 90.2404 20.76 90.2004 21.048C90.2084 21.288 90.3124 21.516 90.5124 21.732C90.7204 21.948 91.0204 22.124 91.4124 22.26C91.8044 22.388 92.2644 22.452 92.7924 22.452H94.0644L94.1484 23.22L94.0644 24H93.3444C92.5284 24 91.7924 23.876 91.1364 23.628C90.4804 23.372 89.9684 23.032 89.6004 22.608C89.2324 22.176 89.0484 21.708 89.0484 21.204C89.0484 21.132 89.0564 21.032 89.0724 20.904C89.1444 20.448 89.2884 20.032 89.5044 19.656C89.7284 19.28 89.9964 18.984 90.3084 18.768C90.6284 18.544 90.9644 18.432 91.3164 18.432C91.7084 18.432 92.0564 18.556 92.3604 18.804C92.6644 19.052 92.9004 19.372 93.0684 19.764C93.2364 20.156 93.3204 20.556 93.3204 20.964C93.3204 21.044 93.3124 21.164 93.2964 21.324C93.1684 22.236 92.7084 22.912 91.9164 23.352C91.1324 23.784 90.0004 24 88.5204 24H88.2324V22.452ZM90.2604 15.912L91.1964 16.836L90.2604 17.784L89.3244 16.836L90.2604 15.912ZM92.3604 15.912L93.2964 16.836L92.3604 17.784L91.4244 16.836L92.3604 15.912ZM96.3166 21.54C96.8046 21.876 97.2526 22.144 97.6606 22.344C98.0686 22.536 98.3726 22.632 98.5726 22.632C98.6526 22.632 98.7086 22.62 98.7406 22.596C98.9486 22.468 99.0526 22.22 99.0526 21.852C99.0526 21.508 98.9606 21.192 98.7766 20.904C98.5926 20.616 98.3566 20.472 98.0686 20.472C97.6046 20.472 97.0766 21.128 96.4846 22.44C96.2526 22.96 95.9326 23.352 95.5246 23.616C95.1166 23.872 94.6526 24 94.1326 24H93.9166L93.9406 22.452H94.1686C94.8006 22.452 95.3206 22.076 95.7286 21.324C96.0966 20.604 96.4686 20.052 96.8446 19.668C97.2206 19.276 97.6366 19.08 98.0926 19.08C98.5086 19.08 98.8726 19.212 99.1846 19.476C99.4966 19.74 99.7366 20.08 99.9046 20.496C100.073 20.912 100.157 21.348 100.157 21.804C100.157 22.26 100.069 22.676 99.8926 23.052C99.7246 23.428 99.4766 23.716 99.1486 23.916C98.9806 24.012 98.7806 24.06 98.5486 24.06C97.8686 24.06 96.9246 23.652 95.7166 22.836L96.3166 21.54ZM104.204 26.124C105.54 25.836 106.516 25.476 107.132 25.044C107.748 24.612 108.056 24.056 108.056 23.376C108.048 22.896 107.98 22.428 107.852 21.972C107.732 21.508 107.556 21.128 107.324 20.832C107.092 20.536 106.828 20.388 106.532 20.388C106.364 20.388 106.204 20.456 106.052 20.592C105.908 20.72 105.792 20.884 105.704 21.084C105.616 21.284 105.572 21.472 105.572 21.648C105.572 21.776 105.604 21.892 105.668 21.996C105.788 22.164 106.004 22.292 106.316 22.38C106.636 22.468 106.996 22.512 107.396 22.512C107.756 22.512 108.08 22.484 108.368 22.428V23.88C107.952 23.984 107.544 24.036 107.144 24.036C106.584 24.036 106.08 23.94 105.632 23.748C105.184 23.556 104.868 23.264 104.684 22.872C104.548 22.592 104.48 22.264 104.48 21.888C104.48 21.432 104.576 20.98 104.768 20.532C104.96 20.076 105.22 19.704 105.548 19.416C105.884 19.12 106.248 18.972 106.64 18.972C107.12 18.972 107.552 19.18 107.936 19.596C108.32 20.012 108.616 20.548 108.824 21.204C109.04 21.86 109.148 22.532 109.148 23.22C109.148 24.3 108.752 25.212 107.96 25.956C107.168 26.708 106.072 27.216 104.672 27.48L104.204 26.124ZM120.56 21.216C120.704 21.68 120.852 22.004 121.004 22.188C121.164 22.364 121.392 22.452 121.688 22.452H121.772L121.856 23.22L121.772 24H121.688C121.208 24 120.824 23.804 120.536 23.412C120.248 23.012 119.976 22.448 119.72 21.72L120.56 21.216ZM115.196 21.456C114.988 21.912 114.828 22.332 114.716 22.716C114.604 23.092 114.548 23.472 114.548 23.856C114.548 24.544 114.76 25.06 115.184 25.404C115.608 25.756 116.22 25.932 117.02 25.932C117.612 25.932 118.12 25.828 118.544 25.62C118.976 25.42 119.3 25.152 119.516 24.816C119.732 24.488 119.84 24.14 119.84 23.772C119.84 23.284 119.596 22.308 119.108 20.844L120.248 20.256C120.744 21.648 120.992 22.82 120.992 23.772C120.992 24.428 120.828 25.04 120.5 25.608C120.18 26.176 119.716 26.632 119.108 26.976C118.508 27.32 117.812 27.492 117.02 27.492C116.276 27.492 115.624 27.344 115.064 27.048C114.504 26.752 114.072 26.34 113.768 25.812C113.472 25.292 113.324 24.696 113.324 24.024C113.324 23.536 113.408 23.02 113.576 22.476C113.744 21.924 113.936 21.424 114.152 20.976L115.196 21.456ZM116.252 20.34C116.7 19.876 117.04 19.532 117.272 19.308L118.292 20.34L117.956 20.676L117.272 21.36L116.252 20.34ZM121.643 22.452H121.739C122.363 22.452 122.847 22.424 123.191 22.368C123.535 22.312 123.779 22.228 123.923 22.116C124.075 21.996 124.175 21.836 124.223 21.636C124.247 21.524 124.259 21.404 124.259 21.276C124.259 21.076 124.239 20.844 124.199 20.58C124.159 20.308 124.135 20.14 124.127 20.076L125.243 19.86C125.307 20.204 125.351 20.564 125.375 20.94C125.399 21.308 125.411 21.6 125.411 21.816C125.443 22 125.539 22.152 125.699 22.272C125.859 22.392 126.083 22.452 126.371 22.452H126.443L126.527 23.22L126.443 24H126.371C125.987 24 125.639 23.896 125.327 23.688C125.023 23.472 124.791 23.196 124.631 22.86L124.919 22.92C124.719 23.312 124.379 23.592 123.899 23.76C123.427 23.92 122.707 24 121.739 24H121.643V22.452ZM122.651 25.08L123.587 26.004L122.651 26.952L121.715 26.004L122.651 25.08ZM124.763 25.08L125.699 26.004L124.763 26.952L123.827 26.004L124.763 25.08ZM126.319 22.452H126.955C127.547 22.452 127.975 22.384 128.239 22.248C128.503 22.104 128.635 21.888 128.635 21.6C128.635 21.416 128.547 21.06 128.371 20.532C128.203 20.004 128.075 19.644 127.987 19.452L129.115 18.84C129.267 19.16 129.423 19.6 129.583 20.16C129.751 20.72 129.835 21.208 129.835 21.624C129.835 22.4 129.587 22.992 129.091 23.4C128.595 23.8 127.883 24 126.955 24H126.319V22.452ZM127.147 17.256C127.595 16.792 127.935 16.448 128.167 16.224L129.187 17.256L128.851 17.592L128.167 18.276L127.147 17.256ZM131.168 23.928C131.232 23.448 131.264 22.636 131.264 21.492C131.264 20.396 131.232 19.248 131.168 18.048C131.112 16.848 131.048 16.028 130.976 15.588L132.296 15.288C132.36 15.72 132.42 16.52 132.476 17.688C132.532 18.848 132.56 19.984 132.56 21.096C132.56 22.416 132.516 23.408 132.428 24.072L131.168 23.928ZM133.642 26.124C134.978 25.836 135.954 25.476 136.57 25.044C137.186 24.612 137.494 24.056 137.494 23.376C137.494 22.904 137.43 22.436 137.302 21.972C137.174 21.508 136.994 21.128 136.762 20.832C136.53 20.536 136.266 20.388 135.97 20.388C135.802 20.388 135.642 20.456 135.49 20.592C135.346 20.72 135.23 20.884 135.142 21.084C135.054 21.284 135.01 21.472 135.01 21.648C135.01 21.776 135.042 21.892 135.106 21.996C135.234 22.18 135.53 22.304 135.994 22.368C136.458 22.424 137.074 22.452 137.842 22.452H139.018L139.102 23.22L139.018 24L137.518 24.012C136.598 24.012 135.854 23.94 135.286 23.796C134.726 23.644 134.338 23.336 134.122 22.872C133.986 22.592 133.918 22.264 133.918 21.888C133.918 21.432 134.014 20.98 134.206 20.532C134.398 20.076 134.658 19.704 134.986 19.416C135.322 19.12 135.686 18.972 136.078 18.972C136.558 18.972 136.99 19.18 137.374 19.596C137.758 20.012 138.054 20.548 138.262 21.204C138.478 21.86 138.586 22.532 138.586 23.22C138.586 24.3 138.19 25.212 137.398 25.956C136.606 26.708 135.51 27.216 134.11 27.48L133.642 26.124ZM138.858 22.452H139.026C140.306 22.452 141.258 22.352 141.882 22.152C142.506 21.952 142.862 21.592 142.95 21.072C142.95 20.648 142.886 20.22 142.758 19.788C142.638 19.356 142.466 19 142.242 18.72C142.026 18.432 141.774 18.288 141.486 18.288C141.318 18.288 141.158 18.348 141.006 18.468C140.862 18.58 140.746 18.724 140.658 18.9C140.57 19.068 140.526 19.232 140.526 19.392C140.526 19.536 140.562 19.656 140.634 19.752C140.754 19.92 140.974 20.056 141.294 20.16C141.622 20.256 141.99 20.304 142.398 20.304C142.678 20.304 142.954 20.28 143.226 20.232V21.624C142.81 21.704 142.434 21.744 142.098 21.744C141.538 21.744 141.038 21.652 140.598 21.468C140.166 21.276 139.854 20.992 139.662 20.616C139.518 20.336 139.446 20 139.446 19.608C139.446 19.176 139.538 18.752 139.722 18.336C139.914 17.92 140.174 17.58 140.502 17.316C140.838 17.052 141.202 16.92 141.594 16.92C142.074 16.92 142.502 17.12 142.878 17.52C143.254 17.912 143.538 18.42 143.73 19.044C143.93 19.668 144.01 20.308 143.97 20.964C143.93 21.932 143.498 22.68 142.674 23.208C141.85 23.736 140.634 24 139.026 24H138.858V22.452ZM140.562 14.328L141.498 15.252L140.562 16.2L139.626 15.252L140.562 14.328ZM142.662 14.328L143.598 15.252L142.662 16.2L141.726 15.252L142.662 14.328Z" fill="#2B2B2B"/>
<rect x="156" y="6" width="30" height="30" rx="6" fill="#4FD1C5"/>
<path fill-rule="evenodd" clip-rule="evenodd" d="M173.971 22.3851C173.626 22.3851 173.343 22.1057 173.343 21.7601C173.343 21.4145 173.62 21.1351 173.965 21.1351H173.971C174.316 21.1351 174.596 21.4145 174.596 21.7601C174.596 22.1057 174.316 22.3851 173.971 22.3851ZM171.465 22.3851C171.12 22.3851 170.837 22.1057 170.837 21.7601C170.837 21.4145 171.115 21.1351 171.46 21.1351H171.465C171.81 21.1351 172.09 21.4145 172.09 21.7601C172.09 22.1057 171.81 22.3851 171.465 22.3851ZM168.96 22.3851C168.615 22.3851 168.332 22.1057 168.332 21.7601C168.332 21.4145 168.609 21.1351 168.954 21.1351H168.96C169.305 21.1351 169.585 21.4145 169.585 21.7601C169.585 22.1057 169.305 22.3851 168.96 22.3851ZM176.144 16.8601C174.905 15.622 173.257 14.9395 171.504 14.9395C169.75 14.9395 168.102 15.622 166.864 16.8601C164.925 18.7995 164.396 21.7757 165.537 24.2345C165.557 24.3357 165.502 24.7476 165.462 25.0488C165.31 26.1776 165.233 27.0063 165.616 27.3901C165.999 27.7732 166.827 27.6957 167.955 27.5438C168.257 27.5038 168.674 27.4501 168.739 27.457C169.617 27.8638 170.557 28.0607 171.489 28.0607C173.2 28.0607 174.889 27.397 176.144 26.142C178.702 23.5826 178.702 19.4188 176.144 16.8601Z" fill="#EDFAF9"/>
</g>
<defs>
<filter id="filter0_d_1071_2667" x="0.5" y="0" width="191" height="49" filterUnits="userSpaceOnUse" color-interpolation-filters="sRGB">
<feFlood flood-opacity="0" result="BackgroundImageFix"/>
<feColorMatrix in="SourceAlpha" type="matrix" values="0 0 0 0 0 0 0 0 0 0 0 0 0 0 0 0 0 0 127 0" result="hardAlpha"/>
<feOffset dy="3.5"/>
<feGaussianBlur stdDeviation="2.75"/>
<feComposite in2="hardAlpha" operator="out"/>
<feColorMatrix type="matrix" values="0 0 0 0 0 0 0 0 0 0 0 0 0 0 0 0 0 0 0.02 0"/>
<feBlend mode="normal" in2="BackgroundImageFix" result="effect1_dropShadow_1071_2667"/>
<feBlend mode="normal" in="SourceGraphic" in2="effect1_dropShadow_1071_2667" result="shape"/>
</filter>
</defs>
</svg>
