<svg width="192" height="49" viewBox="0 0 192 49" fill="none" xmlns="http://www.w3.org/2000/svg">
<g filter="url(#filter0_d_762_5596)">
<rect x="6" y="2" width="180" height="38" rx="6" fill="white" shape-rendering="crispEdges"/>
<path d="M104.176 27.42C103.432 27.42 102.772 27.272 102.196 26.976C101.628 26.688 101.192 26.264 100.888 25.704C100.584 25.144 100.456 24.476 100.504 23.7C100.528 23.252 100.616 22.78 100.768 22.284C100.928 21.788 101.108 21.328 101.308 20.904L102.352 21.396C102.144 21.86 101.984 22.284 101.872 22.668C101.76 23.052 101.704 23.432 101.704 23.808C101.704 24.496 101.916 25.012 102.34 25.356C102.764 25.7 103.376 25.872 104.176 25.872C104.624 25.872 105.048 25.82 105.448 25.716C105.856 25.612 106.2 25.48 106.48 25.32C106.76 25.16 106.944 25.008 107.032 24.864C106.912 24.72 106.616 24.508 106.144 24.228C105.672 23.956 105.176 23.72 104.656 23.52L104.992 22.056C105.648 22.184 106.228 22.28 106.732 22.344C107.244 22.408 107.744 22.444 108.232 22.452H108.448L108.532 23.22L108.448 24H108.232C107.688 23.992 107.128 23.948 106.552 23.868C105.984 23.78 105.356 23.664 104.668 23.52L105.004 22.572C105.068 22.596 105.38 22.728 105.94 22.968C106.5 23.208 107.012 23.512 107.476 23.88C107.94 24.248 108.172 24.6 108.172 24.936C108.164 25.32 107.98 25.704 107.62 26.088C107.26 26.48 106.776 26.8 106.168 27.048C105.56 27.296 104.896 27.42 104.176 27.42ZM108.284 22.452H108.92C109.512 22.452 109.94 22.384 110.204 22.248C110.468 22.104 110.6 21.888 110.6 21.6C110.6 21.416 110.512 21.06 110.336 20.532C110.168 20.004 110.04 19.644 109.952 19.452L111.08 18.84C111.232 19.16 111.388 19.6 111.548 20.16C111.716 20.72 111.8 21.208 111.8 21.624C111.8 22.4 111.552 22.992 111.056 23.4C110.56 23.8 109.848 24 108.92 24H108.284V22.452ZM109.112 17.256C109.56 16.792 109.9 16.448 110.132 16.224L111.152 17.256L110.816 17.592L110.132 18.276L109.112 17.256ZM114.249 15.288C114.329 15.856 114.393 16.716 114.441 17.868C114.489 19.012 114.509 20 114.501 20.832C114.493 21.272 114.513 21.604 114.561 21.828C114.609 22.044 114.713 22.204 114.873 22.308C115.033 22.404 115.281 22.452 115.617 22.452H115.677L115.749 23.22L115.677 24H115.617C114.745 24 114.129 23.764 113.769 23.292C113.409 22.82 113.229 22.08 113.229 21.072C113.229 20.152 113.201 19.16 113.145 18.096C113.097 17.024 113.029 16.188 112.941 15.588L114.249 15.288ZM115.561 22.452H115.645C116.349 22.444 116.837 22.352 117.109 22.176C117.389 22 117.529 21.708 117.529 21.3C117.529 21.116 117.497 20.816 117.433 20.4L117.385 20.076L118.513 19.86C118.617 20.396 118.669 21.048 118.669 21.816C118.709 22 118.809 22.152 118.969 22.272C119.129 22.392 119.349 22.452 119.629 22.452H119.713L119.797 23.22L119.713 24H119.629C119.245 24 118.901 23.896 118.597 23.688C118.293 23.472 118.061 23.196 117.901 22.86L118.189 22.896C118.005 23.28 117.701 23.56 117.277 23.736C116.853 23.912 116.309 24 115.645 24H115.561V22.452ZM115.285 26.04C115.733 25.576 116.073 25.232 116.305 25.008L117.325 26.04L116.989 26.376L116.305 27.06L115.285 26.04ZM119.592 22.452H119.688C120.312 22.452 120.796 22.424 121.14 22.368C121.484 22.312 121.728 22.228 121.872 22.116C122.024 21.996 122.124 21.836 122.172 21.636C122.196 21.524 122.208 21.404 122.208 21.276C122.208 21.076 122.188 20.844 122.148 20.58C122.108 20.308 122.084 20.14 122.076 20.076L123.192 19.86C123.256 20.204 123.3 20.564 123.324 20.94C123.348 21.308 123.36 21.6 123.36 21.816C123.392 22 123.488 22.152 123.648 22.272C123.808 22.392 124.032 22.452 124.32 22.452H124.392L124.476 23.22L124.392 24H124.32C123.936 24 123.588 23.896 123.276 23.688C122.972 23.472 122.74 23.196 122.58 22.86L122.868 22.92C122.668 23.312 122.328 23.592 121.848 23.76C121.376 23.92 120.656 24 119.688 24H119.592V22.452ZM119.652 25.068L120.588 25.992L119.652 26.94L118.716 25.992L119.652 25.068ZM121.764 25.068L122.7 25.992L121.764 26.94L120.828 25.992L121.764 25.068ZM129.128 22.452L129.212 23.22L129.128 24H129.068C128.564 24 128.136 23.872 127.784 23.616C127.44 23.352 127.2 22.96 127.064 22.44L126.86 21.54C126.716 20.86 126.616 20.4 126.56 20.16L127.652 19.8C127.788 20.432 127.936 21.052 128.096 21.66C128.176 21.932 128.292 22.132 128.444 22.26C128.604 22.388 128.812 22.452 129.068 22.452H129.128ZM127.988 21.792C127.876 22.568 127.536 23.132 126.968 23.484C126.408 23.828 125.536 24 124.352 24H124.268V22.452H124.34C125.172 22.452 125.804 22.384 126.236 22.248C126.668 22.104 126.92 21.884 126.992 21.588L127.988 21.792ZM125.6 17.052L126.536 17.976L125.6 18.924L124.664 17.976L125.6 17.052ZM127.7 17.052L128.636 17.976L127.7 18.924L126.764 17.976L127.7 17.052ZM135.687 22.452H135.723C135.995 22.452 136.243 22.38 136.467 22.236C136.699 22.092 136.823 21.924 136.839 21.732L137.787 21.852C137.755 22.244 137.639 22.604 137.439 22.932C137.247 23.26 136.999 23.52 136.695 23.712C136.399 23.904 136.075 24 135.723 24H135.687V22.452ZM138.879 22.452L138.951 23.22L138.867 24H138.807C138.335 24 137.923 23.86 137.571 23.58C137.227 23.292 136.967 22.88 136.791 22.344C136.703 22.064 136.559 21.388 136.359 20.316L137.475 20.016C137.571 20.536 137.647 20.936 137.703 21.216C137.759 21.488 137.815 21.696 137.871 21.84C137.935 22.04 138.043 22.192 138.195 22.296C138.347 22.4 138.551 22.452 138.807 22.452H138.879ZM132.459 24V22.452H132.507C132.931 22.452 133.271 22.212 133.527 21.732C133.687 21.42 133.823 20.936 133.935 20.28L135.062 20.328C134.967 20.808 134.919 21.196 134.919 21.492C134.919 22.132 135.183 22.452 135.711 22.452H135.747L135.819 23.22L135.747 24H135.711C135.271 24 134.907 23.876 134.619 23.628C134.331 23.38 134.135 23.032 134.031 22.584L134.307 22.572C134.091 23.012 133.827 23.36 133.515 23.616C133.211 23.872 132.871 24 132.495 24H132.459ZM129.038 24L128.954 23.22L129.038 22.452H129.087C129.351 22.452 129.606 22.392 129.854 22.272C130.103 22.152 130.291 22.004 130.419 21.828C130.587 21.62 130.715 21.392 130.803 21.144C130.899 20.896 130.979 20.636 131.043 20.364L132.171 20.484C132.171 20.492 132.151 20.584 132.111 20.76C131.991 21.224 131.931 21.568 131.931 21.792C131.931 22.016 131.975 22.184 132.062 22.296C132.151 22.4 132.291 22.452 132.483 22.452H132.507L132.59 23.22L132.507 24H132.459C132.107 24 131.803 23.904 131.547 23.712C131.299 23.512 131.135 23.248 131.055 22.92C130.799 23.272 130.503 23.54 130.167 23.724C129.831 23.908 129.467 24 129.075 24H129.038ZM134.643 15.948L135.447 16.764L135.183 17.028L134.643 17.568C134.379 17.296 134.111 17.028 133.839 16.764L134.643 15.948ZM134.871 18.144C135.271 17.744 135.471 17.544 135.471 17.544L135.783 17.232C136.079 17.544 136.383 17.848 136.695 18.144L136.383 18.456C136.383 18.456 136.183 18.656 135.783 19.056L134.871 18.144ZM132.615 18.144C133.015 17.744 133.215 17.544 133.215 17.544L133.527 17.232C133.823 17.544 134.127 17.848 134.439 18.144L134.127 18.456C134.127 18.456 133.927 18.656 133.527 19.056L132.615 18.144ZM138.729 22.452H139.269C140.085 22.452 140.661 22.38 140.997 22.236C141.333 22.084 141.501 21.852 141.501 21.54C141.493 21.34 141.405 20.996 141.237 20.508C141.077 20.012 140.949 19.66 140.853 19.452L141.981 18.84C142.141 19.2 142.301 19.648 142.461 20.184C142.621 20.72 142.701 21.192 142.701 21.6C142.693 22.384 142.421 22.98 141.885 23.388C141.349 23.796 140.553 24 139.497 24H138.729V22.452ZM140.253 25.716C140.653 25.316 140.853 25.116 140.853 25.116L141.165 24.804C141.461 25.116 141.765 25.42 142.077 25.716L141.765 26.028C141.765 26.028 141.565 26.228 141.165 26.628L140.253 25.716ZM137.997 25.716C138.397 25.316 138.597 25.116 138.597 25.116L138.909 24.804C139.205 25.116 139.509 25.42 139.821 25.716L139.509 26.028C139.509 26.028 139.309 26.228 138.909 26.628L137.997 25.716ZM140.025 26.28L140.829 27.096L140.565 27.36L140.025 27.9C139.761 27.628 139.493 27.36 139.221 27.096L140.025 26.28Z" fill="#2B2B2B"/>
<rect x="156" y="6" width="30" height="30" rx="6" fill="#4FD1C5"/>
<path fill-rule="evenodd" clip-rule="evenodd" d="M173.971 22.3851C173.626 22.3851 173.343 22.1057 173.343 21.7601C173.343 21.4145 173.62 21.1351 173.965 21.1351H173.971C174.316 21.1351 174.596 21.4145 174.596 21.7601C174.596 22.1057 174.316 22.3851 173.971 22.3851ZM171.465 22.3851C171.12 22.3851 170.837 22.1057 170.837 21.7601C170.837 21.4145 171.115 21.1351 171.46 21.1351H171.465C171.81 21.1351 172.09 21.4145 172.09 21.7601C172.09 22.1057 171.81 22.3851 171.465 22.3851ZM168.96 22.3851C168.615 22.3851 168.332 22.1057 168.332 21.7601C168.332 21.4145 168.609 21.1351 168.954 21.1351H168.96C169.305 21.1351 169.585 21.4145 169.585 21.7601C169.585 22.1057 169.305 22.3851 168.96 22.3851ZM176.144 16.8601C174.905 15.622 173.257 14.9395 171.504 14.9395C169.75 14.9395 168.102 15.622 166.864 16.8601C164.925 18.7995 164.396 21.7757 165.537 24.2345C165.557 24.3357 165.502 24.7476 165.462 25.0488C165.31 26.1776 165.233 27.0063 165.616 27.3901C165.999 27.7732 166.827 27.6957 167.955 27.5438C168.257 27.5038 168.674 27.4501 168.739 27.457C169.617 27.8638 170.557 28.0607 171.489 28.0607C173.2 28.0607 174.889 27.397 176.144 26.142C178.702 23.5826 178.702 19.4188 176.144 16.8601Z" fill="#EDFAF9"/>
</g>
<defs>
<filter id="filter0_d_762_5596" x="0.5" y="0" width="191" height="49" filterUnits="userSpaceOnUse" color-interpolation-filters="sRGB">
<feFlood flood-opacity="0" result="BackgroundImageFix"/>
<feColorMatrix in="SourceAlpha" type="matrix" values="0 0 0 0 0 0 0 0 0 0 0 0 0 0 0 0 0 0 127 0" result="hardAlpha"/>
<feOffset dy="3.5"/>
<feGaussianBlur stdDeviation="2.75"/>
<feComposite in2="hardAlpha" operator="out"/>
<feColorMatrix type="matrix" values="0 0 0 0 0 0 0 0 0 0 0 0 0 0 0 0 0 0 0.02 0"/>
<feBlend mode="normal" in2="BackgroundImageFix" result="effect1_dropShadow_762_5596"/>
<feBlend mode="normal" in="SourceGraphic" in2="effect1_dropShadow_762_5596" result="shape"/>
</filter>
</defs>
</svg>
