<svg width="170" height="38" viewBox="0 0 170 38" fill="none" xmlns="http://www.w3.org/2000/svg">
<path d="M85.956 13.288C86.036 13.856 86.1 14.716 86.148 15.868C86.196 17.012 86.216 18 86.208 18.832C86.2 19.272 86.22 19.604 86.268 19.828C86.316 20.044 86.42 20.204 86.58 20.308C86.74 20.404 86.988 20.452 87.324 20.452H87.384L87.456 21.22L87.384 22H87.324C86.452 22 85.836 21.764 85.476 21.292C85.116 20.82 84.936 20.08 84.936 19.072C84.936 18.152 84.908 17.16 84.852 16.096C84.804 15.024 84.736 14.188 84.648 13.588L85.956 13.288ZM87.2921 20.452H87.4601C88.7481 20.452 89.6961 20.352 90.3041 20.152C90.9121 19.944 91.2521 19.62 91.3241 19.18L91.3361 19.036C91.3361 18.732 91.2361 18.464 91.0361 18.232C90.8441 17.992 90.6041 17.872 90.3161 17.872C90.1481 17.872 89.9761 17.928 89.8001 18.04C89.6321 18.144 89.4921 18.284 89.3801 18.46C89.2761 18.628 89.2241 18.808 89.2241 19C89.2241 19.288 89.4001 19.56 89.7521 19.816C90.1041 20.064 90.5361 20.264 91.0481 20.416C91.5601 20.568 92.0401 20.644 92.4881 20.644C92.8481 20.644 93.1361 20.592 93.3521 20.488C93.5761 20.376 93.6881 20.208 93.6881 19.984C93.6881 19.576 93.2361 19.14 92.3321 18.676C91.4361 18.204 90.1281 17.732 88.4081 17.26L88.9601 15.82C90.4881 16.3 91.6801 16.756 92.5361 17.188C93.4001 17.62 94.0001 18.04 94.3361 18.448C94.6801 18.848 94.8521 19.28 94.8521 19.744C94.8521 20.032 94.7921 20.368 94.6721 20.752C94.5361 21.16 94.2601 21.468 93.8441 21.676C93.4281 21.876 92.9281 21.976 92.3441 21.976C91.6961 21.976 91.0361 21.86 90.3641 21.628C89.7001 21.388 89.1481 21.056 88.7081 20.632C88.2761 20.208 88.0601 19.736 88.0601 19.216C88.0601 19.144 88.0681 19.044 88.0841 18.916C88.1641 18.46 88.3201 18.044 88.5521 17.668C88.7841 17.284 89.0601 16.98 89.3801 16.756C89.7001 16.532 90.0361 16.42 90.3881 16.42C90.7481 16.42 91.0801 16.54 91.3841 16.78C91.6881 17.02 91.9281 17.336 92.1041 17.728C92.2881 18.112 92.3801 18.516 92.3801 18.94C92.3801 19.076 92.3681 19.212 92.3441 19.348C92.2401 20.004 92.0001 20.528 91.6241 20.92C91.2561 21.304 90.7321 21.58 90.0521 21.748C89.3801 21.916 88.5161 22 87.4601 22H87.2921V20.452ZM103.513 22.132C103.505 21.956 103.501 21.696 103.501 21.352C103.501 21.008 103.505 20.752 103.513 20.584C104.537 20.584 105.345 20.512 105.937 20.368C106.529 20.224 106.985 19.996 107.305 19.684C107.633 19.372 107.897 18.932 108.097 18.364L109.225 18.496C109.081 18.952 109.009 19.32 109.009 19.6C109.009 20.168 109.301 20.452 109.885 20.452L109.969 21.22L109.873 22C109.537 22 109.229 21.928 108.949 21.784C108.669 21.632 108.449 21.42 108.289 21.148C108.129 20.876 108.049 20.568 108.049 20.224L108.289 20.26C107.817 20.948 107.197 21.432 106.429 21.712C105.669 21.992 104.697 22.132 103.513 22.132ZM100.453 17.812C100.213 18.54 100.109 19.08 100.141 19.432C100.205 19.776 100.533 20.056 101.125 20.272C101.717 20.48 102.545 20.584 103.609 20.584C103.625 20.752 103.633 21.008 103.633 21.352C103.633 21.696 103.625 21.956 103.609 22.132C102.193 22.14 101.081 21.932 100.273 21.508C99.4649 21.084 99.0249 20.484 98.9529 19.708C98.9449 19.644 98.9409 19.548 98.9409 19.42C98.9409 19.084 98.9849 18.728 99.0729 18.352C99.1609 17.968 99.2729 17.616 99.4089 17.296L100.453 17.812ZM102.865 16.36L103.801 17.284L102.865 18.232L101.929 17.284L102.865 16.36ZM104.965 16.36L105.901 17.284L104.965 18.232L104.029 17.284L104.965 16.36ZM113.38 17.896C113.82 18.592 114.18 19.12 114.46 19.48C114.748 19.832 115.012 20.084 115.252 20.236C115.492 20.38 115.76 20.452 116.056 20.452H116.236L116.308 21.22L116.236 22H116.056C115.656 22 115.284 21.888 114.94 21.664C114.596 21.44 114.248 21.1 113.896 20.644C113.552 20.188 113.144 19.564 112.672 18.772L113.38 17.896ZM115.3 14.428L111.736 15.964C112.264 16.412 112.776 16.988 113.272 17.692C113.768 18.388 114.016 19.052 114.016 19.684C114.016 19.86 113.992 20.032 113.944 20.2C113.776 20.8 113.356 21.252 112.684 21.556C112.02 21.852 111.172 22 110.14 22H109.768V20.452H110.14C110.868 20.452 111.456 20.392 111.904 20.272C112.36 20.152 112.66 19.984 112.804 19.768C112.812 19.376 112.604 18.896 112.18 18.328C111.756 17.752 111.128 17.124 110.296 16.444L110.44 15.076L114.868 13.18L115.3 14.428ZM116.12 20.452H116.216C116.84 20.452 117.324 20.424 117.668 20.368C118.012 20.312 118.256 20.228 118.4 20.116C118.552 19.996 118.652 19.836 118.7 19.636C118.724 19.524 118.736 19.404 118.736 19.276C118.736 19.076 118.716 18.844 118.676 18.58C118.636 18.308 118.612 18.14 118.604 18.076L119.72 17.86C119.784 18.204 119.828 18.564 119.852 18.94C119.876 19.308 119.888 19.6 119.888 19.816C119.92 20 120.016 20.152 120.176 20.272C120.336 20.392 120.56 20.452 120.848 20.452H120.92L121.004 21.22L120.92 22H120.848C120.464 22 120.116 21.896 119.804 21.688C119.5 21.472 119.268 21.196 119.108 20.86L119.396 20.92C119.196 21.312 118.856 21.592 118.376 21.76C117.904 21.92 117.184 22 116.216 22H116.12V20.452ZM116.18 23.068L117.116 23.992L116.18 24.94L115.244 23.992L116.18 23.068ZM118.292 23.068L119.228 23.992L118.292 24.94L117.356 23.992L118.292 23.068ZM120.795 20.452H121.335C122.151 20.452 122.727 20.38 123.063 20.236C123.399 20.084 123.567 19.852 123.567 19.54C123.559 19.34 123.471 18.996 123.303 18.508C123.143 18.012 123.015 17.66 122.919 17.452L124.047 16.84C124.207 17.2 124.367 17.648 124.527 18.184C124.687 18.72 124.767 19.192 124.767 19.6C124.759 20.384 124.487 20.98 123.951 21.388C123.415 21.796 122.619 22 121.563 22H120.795V20.452ZM121.935 14.404L122.871 15.328L121.935 16.276L120.999 15.328L121.935 14.404ZM124.035 14.404L124.971 15.328L124.035 16.276L123.099 15.328L124.035 14.404Z" fill="#A0AEC0"/>
<g filter="url(#filter0_d_3556_2281)">
<path fill-rule="evenodd" clip-rule="evenodd" d="M157.971 20.3851C157.626 20.3851 157.343 20.1057 157.343 19.7601C157.343 19.4145 157.62 19.1351 157.965 19.1351H157.971C158.316 19.1351 158.596 19.4145 158.596 19.7601C158.596 20.1057 158.316 20.3851 157.971 20.3851ZM155.465 20.3851C155.12 20.3851 154.837 20.1057 154.837 19.7601C154.837 19.4145 155.115 19.1351 155.46 19.1351H155.465C155.81 19.1351 156.09 19.4145 156.09 19.7601C156.09 20.1057 155.81 20.3851 155.465 20.3851ZM152.96 20.3851C152.615 20.3851 152.332 20.1057 152.332 19.7601C152.332 19.4145 152.609 19.1351 152.954 19.1351H152.96C153.305 19.1351 153.585 19.4145 153.585 19.7601C153.585 20.1057 153.305 20.3851 152.96 20.3851ZM160.144 14.8601C158.905 13.622 157.257 12.9395 155.504 12.9395C153.75 12.9395 152.102 13.622 150.864 14.8601C148.925 16.7995 148.396 19.7757 149.537 22.2345C149.557 22.3357 149.502 22.7476 149.462 23.0488C149.31 24.1776 149.233 25.0063 149.616 25.3901C149.999 25.7732 150.827 25.6957 151.955 25.5438C152.257 25.5038 152.674 25.4501 152.739 25.457C153.617 25.8638 154.557 26.0607 155.489 26.0607C157.2 26.0607 158.889 25.397 160.144 24.142C162.702 21.5826 162.702 17.4188 160.144 14.8601Z" fill="#4FD1C5"/>
</g>
<defs>
<filter id="filter0_d_3556_2281" x="134.5" y="2" width="41" height="41" filterUnits="userSpaceOnUse" color-interpolation-filters="sRGB">
<feFlood flood-opacity="0" result="BackgroundImageFix"/>
<feColorMatrix in="SourceAlpha" type="matrix" values="0 0 0 0 0 0 0 0 0 0 0 0 0 0 0 0 0 0 127 0" result="hardAlpha"/>
<feOffset dy="3.5"/>
<feGaussianBlur stdDeviation="2.75"/>
<feComposite in2="hardAlpha" operator="out"/>
<feColorMatrix type="matrix" values="0 0 0 0 0 0 0 0 0 0 0 0 0 0 0 0 0 0 0.02 0"/>
<feBlend mode="normal" in2="BackgroundImageFix" result="effect1_dropShadow_3556_2281"/>
<feBlend mode="normal" in="SourceGraphic" in2="effect1_dropShadow_3556_2281" result="shape"/>
</filter>
</defs>
</svg>
